<svg width="26" height="26" viewBox="0 0 26 26" fill="none" xmlns="http://www.w3.org/2000/svg">
<path d="M2.16675 20.5833C2.16675 22.425 3.57508 23.8333 5.41675 23.8333H20.5834C22.4251 23.8333 23.8334 22.425 23.8334 20.5833V11.9166H2.16675V20.5833ZM20.5834 4.33329H18.4167V3.24996C18.4167 2.59996 17.9834 2.16663 17.3334 2.16663C16.6834 2.16663 16.2501 2.59996 16.2501 3.24996V4.33329H9.75008V3.24996C9.75008 2.59996 9.31675 2.16663 8.66675 2.16663C8.01675 2.16663 7.58342 2.59996 7.58342 3.24996V4.33329H5.41675C3.57508 4.33329 2.16675 5.74163 2.16675 7.58329V9.74996H23.8334V7.58329C23.8334 5.74163 22.4251 4.33329 20.5834 4.33329Z" fill="#FEF0D6"/>
</svg>
