<svg width="20" height="20" viewBox="0 0 20 20" fill="none" xmlns="http://www.w3.org/2000/svg">
<path d="M6.09752 3.14095C8.69124 2.85341 11.3088 2.85341 13.9025 3.14095C14.3701 3.19354 14.8212 3.34451 15.2262 3.58394C15.6313 3.82337 15.981 4.14583 16.2525 4.53012L9.58335 11.1993L7.52502 9.14095C7.46734 9.08129 7.39835 9.03371 7.32208 9.00099C7.24581 8.96827 7.16379 8.95107 7.08081 8.95039C6.99782 8.9497 6.91553 8.96556 6.83873 8.99702C6.76194 9.02848 6.69218 9.07492 6.63352 9.13363C6.57487 9.19234 6.52849 9.26215 6.4971 9.33897C6.46571 9.41579 6.44994 9.4981 6.4507 9.58109C6.45146 9.66407 6.46874 9.74608 6.50153 9.82231C6.53432 9.89855 6.58196 9.96749 6.64168 10.0251L9.14169 12.5251C9.25887 12.6422 9.41773 12.7079 9.58335 12.7079C9.74898 12.7079 9.90783 12.6422 10.025 12.5251L16.7884 5.76262C16.8067 5.85373 16.8214 5.94623 16.8325 6.04012C17.1409 8.67095 17.1409 11.3293 16.8325 13.9601C16.6534 15.4901 15.4242 16.6893 13.9025 16.8601C11.3088 17.1477 8.69124 17.1477 6.09752 16.8601C4.57502 16.6893 3.34585 15.4901 3.16752 13.9601C2.8605 11.329 2.8605 8.6712 3.16752 6.04012C3.34585 4.50929 4.57585 3.31095 6.09752 3.14012" fill="#591A0E"/>
</svg>
