<svg width="26" height="26" viewBox="0 0 26 26" fill="none" xmlns="http://www.w3.org/2000/svg">
<path d="M13.0001 2.16663C11.5774 2.16663 10.1687 2.44684 8.85434 2.99126C7.53998 3.53569 6.34573 4.33367 5.33976 5.33964C3.30811 7.37128 2.16675 10.1268 2.16675 13C2.16675 15.8731 3.30811 18.6286 5.33976 20.6603C6.34573 21.6663 7.53998 22.4642 8.85434 23.0087C10.1687 23.5531 11.5774 23.8333 13.0001 23.8333C15.8733 23.8333 18.6288 22.6919 20.6604 20.6603C22.692 18.6286 23.8334 15.8731 23.8334 13C23.8334 11.5773 23.5532 10.1686 23.0088 8.85422C22.4644 7.53986 21.6664 6.3456 20.6604 5.33964C19.6544 4.33367 18.4602 3.53569 17.1458 2.99126C15.8315 2.44684 14.4227 2.16663 13.0001 2.16663ZM17.5501 17.55L11.9167 14.0833V7.58329H13.5417V13.2166L18.4167 16.1416L17.5501 17.55Z" fill="#FEF0D6"/>
</svg>
