<svg width="18" height="18" viewBox="0 0 18 18" fill="none" xmlns="http://www.w3.org/2000/svg">
<path d="M9 0.875C4.5 0.875 0.875 4.5 0.875 9C0.875 13.5 4.5 17.125 9 17.125C13.5 17.125 17.125 13.5 17.125 9C17.125 8.125 17.0075 7.25375 16.695 6.44125L15.68 7.4375C15.805 7.9375 15.8756 8.4375 15.8756 9C15.8756 12.8125 12.8131 15.875 9.00062 15.875C5.18812 15.875 2.125 12.8125 2.125 9C2.125 5.1875 5.1875 2.125 9 2.125C10.875 2.125 12.5588 2.87125 13.7463 4.05875L14.625 3.18C13.1875 1.7425 11.1875 0.875 9 0.875ZM16.05 3.55L9 10.6019L6.325 7.92688L5.425 8.825L8.55 11.95L9 12.3787L9.45 11.9494L16.95 4.44937L16.05 3.54937V3.55Z" fill="#591A0E"/>
</svg>
