<svg width="16" height="16" viewBox="0 0 16 16" fill="none" xmlns="http://www.w3.org/2000/svg">
<path d="M6 7C6.55228 7 7 6.55228 7 6C7 5.44772 6.55228 5 6 5C5.44772 5 5 5.44772 5 6C5 6.55228 5.44772 7 6 7Z" fill="black"/>
<path d="M10 7C10.5523 7 11 6.55228 11 6C11 5.44772 10.5523 5 10 5C9.44772 5 9 5.44772 9 6C9 6.55228 9.44772 7 10 7Z" fill="black"/>
<path d="M8 15C4.14 15 1 11.86 1 8C1 4.14 4.14 1 8 1C11.86 1 15 4.14 15 8C15 11.86 11.86 15 8 15ZM8 2C4.69 2 2 4.69 2 8C2 11.31 4.69 14 8 14C11.31 14 14 11.31 14 8C14 4.69 11.31 2 8 2Z" fill="black"/>
<path d="M8 11.5C6.52 11.5 5.19 10.56 4.7 9.16999C4.6652 9.04798 4.67799 8.91731 4.73578 8.80437C4.79358 8.69142 4.89207 8.6046 5.01138 8.56145C5.13069 8.51829 5.26193 8.52201 5.3786 8.57186C5.49528 8.6217 5.5887 8.71395 5.64 8.82999C5.81201 9.31855 6.13141 9.74169 6.55413 10.041C6.97685 10.3403 7.48204 10.5011 8 10.5011C8.51796 10.5011 9.02315 10.3403 9.44587 10.041C9.86859 9.74169 10.188 9.31855 10.36 8.82999C10.45 8.56999 10.74 8.42999 11 8.52999C11.26 8.61999 11.4 8.90999 11.3 9.16999C11.0594 9.8526 10.6126 10.4435 10.0214 10.861C9.43014 11.2784 8.72375 11.5017 8 11.5Z" fill="black"/>
</svg>
