<svg width="16" height="16" viewBox="0 0 16 16" fill="none" xmlns="http://www.w3.org/2000/svg">
<g clip-path="url(#clip0_574_95)">
<path d="M7.99998 14.6666C11.6819 14.6666 14.6666 11.6819 14.6666 7.99998C14.6666 4.31808 11.6819 1.33331 7.99998 1.33331C4.31808 1.33331 1.33331 4.31808 1.33331 7.99998C1.33331 11.6819 4.31808 14.6666 7.99998 14.6666Z" stroke="black" stroke-width="1.33333" stroke-linecap="round"/>
<path d="M5.25397 10.8293C5.58263 10.5447 6.0153 10.3393 6.48197 10.2047C6.97603 10.0664 7.48693 9.99752 7.99997 10C8.52397 10 9.04663 10.0687 9.51797 10.2047C9.98463 10.3393 10.418 10.5447 10.746 10.8293" stroke="black" stroke-width="1.33333" stroke-linecap="round"/>
<path d="M5.99996 7.49998C6.4602 7.49998 6.83329 7.12688 6.83329 6.66665C6.83329 6.20641 6.4602 5.83331 5.99996 5.83331C5.53972 5.83331 5.16663 6.20641 5.16663 6.66665C5.16663 7.12688 5.53972 7.49998 5.99996 7.49998Z" fill="black" stroke="black" stroke-width="0.333333" stroke-linecap="round"/>
<path d="M9.99996 7.49998C10.4602 7.49998 10.8333 7.12688 10.8333 6.66665C10.8333 6.20641 10.4602 5.83331 9.99996 5.83331C9.53972 5.83331 9.16663 6.20641 9.16663 6.66665C9.16663 7.12688 9.53972 7.49998 9.99996 7.49998Z" fill="black" stroke="black" stroke-width="0.333333" stroke-linecap="round"/>
</g>
<defs>
<clipPath id="clip0_574_95">
<rect width="16" height="16" fill="white"/>
</clipPath>
</defs>
</svg>
