<svg width="16" height="16" viewBox="0 0 16 16" fill="none" xmlns="http://www.w3.org/2000/svg">
<path d="M14.9525 8.2125C13.5775 11.1375 12.365 12.5 11.1275 12.5C9.55874 12.5 8.58187 10.4175 7.54749 8.2125C6.73124 6.4725 5.80624 4.5 4.87499 4.5C3.84999 4.5 2.60562 6.82562 1.95499 8.2125C1.89711 8.33 1.79542 8.4201 1.6718 8.46341C1.54818 8.50672 1.4125 8.49979 1.29393 8.44411C1.17537 8.38843 1.08339 8.28845 1.03777 8.16566C0.992153 8.04287 0.996542 7.90709 1.04999 7.7875C2.41937 4.8625 3.63499 3.5 4.87499 3.5C6.44374 3.5 7.42062 5.5825 8.45499 7.7875C9.26874 9.5275 10.1937 11.5 11.125 11.5C12.15 11.5 13.3944 9.17438 14.045 7.7875C14.1029 7.67 14.2046 7.5799 14.3282 7.53659C14.4518 7.49328 14.5875 7.50021 14.7061 7.55589C14.8246 7.61157 14.9166 7.71155 14.9622 7.83434C15.0078 7.95713 15.0034 8.09291 14.95 8.2125H14.9525Z" fill="black"/>
</svg>
