<svg width="16" height="16" viewBox="0 0 16 16" fill="none" xmlns="http://www.w3.org/2000/svg">
<path d="M6 7C6.55228 7 7 6.55228 7 6C7 5.44772 6.55228 5 6 5C5.44772 5 5 5.44772 5 6C5 6.55228 5.44772 7 6 7Z" fill="black"/>
<path d="M10 7C10.5523 7 11 6.55228 11 6C11 5.44772 10.5523 5 10 5C9.44772 5 9 5.44772 9 6C9 6.55228 9.44772 7 10 7Z" fill="black"/>
<path d="M8 15C4.14 15 1 11.86 1 8C1 4.14 4.14 1 8 1C11.86 1 15 4.14 15 8C15 11.86 11.86 15 8 15ZM8 2C4.69 2 2 4.69 2 8C2 11.31 4.69 14 8 14C11.31 14 14 11.31 14 8C14 4.69 11.31 2 8 2Z" fill="black"/>
<path d="M10.83 11.5C10.62 11.5 10.43 11.37 10.36 11.17C10.188 10.6814 9.86857 10.2583 9.44585 9.95898C9.02313 9.65966 8.51794 9.49891 7.99998 9.49891C7.48202 9.49891 6.97683 9.65966 6.55411 9.95898C6.1314 10.2583 5.81199 10.6814 5.63998 11.17C5.54998 11.43 5.25998 11.57 4.99998 11.47C4.93771 11.4485 4.88039 11.4146 4.83141 11.3706C4.78243 11.3265 4.74279 11.273 4.71482 11.2134C4.68685 11.1537 4.67113 11.089 4.66858 11.0232C4.66603 10.9573 4.67671 10.8916 4.69998 10.83C5.18998 9.43 6.51998 8.5 7.99998 8.5C9.47998 8.5 10.81 9.44 11.3 10.83C11.3273 10.9055 11.336 10.9864 11.3254 11.066C11.3148 11.1456 11.2852 11.2214 11.2391 11.2871C11.193 11.3529 11.1318 11.4065 11.0605 11.4436C10.9893 11.4806 10.9103 11.5 10.83 11.5Z" fill="black"/>
</svg>
