<?xml version="1.0" encoding="UTF-8"?>
<svg version="1.1" xmlns="http://www.w3.org/2000/svg" width="512" height="512">
<path d="M0 0 C10.75915451 8.12531349 17.64652951 17.40354271 20.6875 30.6875 C21.09386796 34.52420221 21.13236343 38.32375671 21.12109375 42.1796875 C21.1263356 43.24688019 21.13157745 44.31407288 21.13697815 45.41360474 C21.14336381 47.65740087 21.14210654 49.90123064 21.13354492 52.14501953 C21.12503997 55.54651524 21.15383914 58.94632602 21.18554688 62.34765625 C21.24540518 80.48189187 19.05820086 93.09135074 6.0625 106.625 C4.09752587 108.57559627 2.6819548 109.6899754 0.12744141 110.83032227 C-2.661902 112.53357809 -2.661902 112.53357809 -3.01953125 116.04296875 C-3.05433594 117.30753906 -3.08914063 118.57210937 -3.125 119.875 C-3.17269531 121.14730469 -3.22039062 122.41960937 -3.26953125 123.73046875 C-3.28371094 124.70628906 -3.29789063 125.68210937 -3.3125 126.6875 C-2.76507645 126.67861755 -2.21765289 126.66973511 -1.65364075 126.6605835 C4.10636828 126.57125733 9.8661768 126.51141714 15.62670898 126.46777344 C17.76904305 126.4478073 19.91132368 126.42062462 22.0534668 126.38574219 C52.3503801 125.90517533 52.3503801 125.90517533 63.6875 136.6875 C64.37585938 137.33589844 65.06421875 137.98429688 65.7734375 138.65234375 C77.13811295 150.33387818 77.49646567 162.54255261 77.33935547 178.02636719 C77.31231848 181.20886706 77.33931865 184.38791358 77.37109375 187.5703125 C77.3677936 189.5989661 77.36139556 191.62761755 77.3515625 193.65625 C77.36168365 194.60415405 77.37180481 195.55205811 77.38223267 196.52868652 C77.35859146 197.85156677 77.35859146 197.85156677 77.33447266 199.20117188 C77.33049469 199.97328003 77.32651672 200.74538818 77.32241821 201.54089355 C76.33937219 204.86449159 74.57522108 205.8397472 71.6875 207.6875 C68.85995463 208.07284765 66.42571302 208.22890799 63.60302734 208.19543457 C62.79373968 208.20167453 61.98445202 208.2079145 61.15064049 208.21434355 C58.44127568 208.23028703 55.73280884 208.21766424 53.0234375 208.20507812 C51.08009313 208.21049865 49.13675287 208.21762091 47.19342041 208.22631836 C41.91658719 208.2445629 36.64006658 208.23747944 31.36322784 208.22480202 C25.84289198 208.21468026 20.32258301 208.22406541 14.80224609 208.23034668 C5.5315266 208.23762547 -3.73906547 208.22802924 -13.00976562 208.20898438 C-23.73044103 208.18721525 -34.45081215 208.19426645 -45.17148018 208.21629 C-54.37330799 208.23443733 -63.57504416 208.23700556 -72.77688408 208.22653532 C-78.27393456 208.22029675 -83.77084199 208.21947483 -89.2678833 208.23268127 C-94.43571478 208.24422939 -99.60315366 208.23623286 -104.77094269 208.21310425 C-106.66843259 208.20781163 -108.5659555 208.20934036 -110.46343231 208.21815491 C-113.05207786 208.22907222 -115.63946234 208.21539354 -118.22802734 208.19543457 C-118.9804603 208.20435746 -119.73289326 208.21328034 -120.50812721 208.22247362 C-124.15625557 208.16784477 -126.17491767 207.77553417 -129.27809715 205.78991699 C-131.60954219 203.38052709 -131.94250189 202.49513281 -131.95947266 199.20117188 C-131.97523346 198.31925171 -131.99099426 197.43733154 -132.00723267 196.52868652 C-131.99711151 195.58078247 -131.98699036 194.63287842 -131.9765625 193.65625 C-131.98134613 192.66935181 -131.98612976 191.68245361 -131.99105835 190.66564941 C-131.99446052 188.57428396 -131.98523598 186.48286555 -131.96435547 184.39160156 C-131.93782242 181.22596781 -131.96397408 178.0639542 -131.99609375 174.8984375 C-132.02392754 159.69238891 -130.58479816 149.10993664 -119.5546875 137.80859375 C-118.81476563 137.10863281 -118.07484375 136.40867187 -117.3125 135.6875 C-116.75820312 135.16285156 -116.20390625 134.63820313 -115.6328125 134.09765625 C-103.89476241 124.49114262 -87.62879845 126.20742816 -73.5 126.4375 C-71.3431156 126.45760174 -69.18621304 126.47584599 -67.02929688 126.4921875 C-61.78996292 126.5358771 -56.55131812 126.6024954 -51.3125 126.6875 C-51.38439205 124.42243125 -51.48166894 122.15815735 -51.58984375 119.89453125 C-51.66706665 118.00311401 -51.66706665 118.00311401 -51.74584961 116.07348633 C-52.01859191 112.69313902 -52.01859191 112.69313902 -54.00268555 110.66113281 C-55.32122962 109.75539671 -56.67671066 108.9023068 -58.0546875 108.08984375 C-66.81073615 102.65139831 -72.17267734 92.52838842 -74.88046265 82.84729004 C-75.76175806 78.44162222 -75.63866694 73.96569378 -75.6484375 69.48828125 C-75.6550943 68.41684372 -75.6617511 67.34540619 -75.66860962 66.24150085 C-75.6787057 63.97978422 -75.68342758 61.71803798 -75.68310547 59.45629883 C-75.68746402 56.02829778 -75.72377748 52.60160056 -75.76171875 49.17382812 C-75.76759074 46.96615019 -75.77155757 44.7584662 -75.7734375 42.55078125 C-75.78780853 41.54098709 -75.80217957 40.53119293 -75.81698608 39.49079895 C-75.72989641 25.6553 -70.28594614 14.94617308 -61 4.9375 C-44.70456176 -10.48496833 -18.58433045 -12.3339951 0 0 Z M-52.3125 20.6875 C-58.10049305 28.47846265 -59.46598659 37.15737784 -59.3125 46.6875 C-44.35529124 43.0743551 -29.98223662 38.16942931 -18.625 27.25 C-15.96208047 24.89701648 -15.2014135 24.6677911 -11.4375 24 C-6.44289444 24.36235374 -2.42859415 27.0196612 1.6875 29.6875 C-0.22868618 21.83113667 -4.75796764 17.4266161 -11.5 13.3125 C-25.20636754 5.43818132 -41.98648824 9.0736115 -52.3125 20.6875 Z M-12.98828125 43.5234375 C-13.79845703 44.28527344 -13.79845703 44.28527344 -14.625 45.0625 C-27.32883706 55.47821631 -43.66808448 59.8456192 -59.3125 63.6875 C-58.97053495 75.55368712 -57.65896871 85.04357641 -49.3125 93.9296875 C-41.54042769 100.76061043 -33.99949494 102.06547713 -23.921875 101.9609375 C-15.06171204 101.28971303 -8.17390361 97.27994727 -2.3125 90.6875 C2.26403422 84.52722874 3.97129357 78.24347786 4.6875 70.6875 C4.77 69.98818359 4.8525 69.28886719 4.9375 68.56835938 C6.21196768 58.60713948 6.21196768 58.60713948 2.40625 49.82421875 C-0.43088302 47.73831585 -3.10853812 46.14030863 -6.3125 44.6875 C-7.62734375 44.02621094 -7.62734375 44.02621094 -8.96875 43.3515625 C-11.24948893 42.42118523 -11.24948893 42.42118523 -12.98828125 43.5234375 Z M-35.3125 118.6875 C-35.3125 121.3275 -35.3125 123.9675 -35.3125 126.6875 C-30.0325 126.6875 -24.7525 126.6875 -19.3125 126.6875 C-19.3125 124.0475 -19.3125 121.4075 -19.3125 118.6875 C-24.5925 118.6875 -29.8725 118.6875 -35.3125 118.6875 Z M-110.3125 152.6875 C-115.90603667 161.02695468 -115.45319941 169.9342879 -115.375 179.625 C-115.37048828 180.69041016 -115.36597656 181.75582031 -115.36132812 182.85351562 C-115.34961802 185.46486822 -115.33168512 188.07619163 -115.3125 190.6875 C-110.3625 190.6875 -105.4125 190.6875 -100.3125 190.6875 C-100.27511719 189.35074219 -100.23773438 188.01398438 -100.19921875 186.63671875 C-100.13356345 184.88278423 -100.06711596 183.12887924 -100 181.375 C-99.96616211 180.05338867 -99.96616211 180.05338867 -99.93164062 178.70507812 C-99.89619141 177.85751953 -99.86074219 177.00996094 -99.82421875 176.13671875 C-99.79803467 175.35643311 -99.77185059 174.57614746 -99.74487305 173.7722168 C-99.21230903 171.20442224 -98.35364438 170.28899399 -96.3125 168.6875 C-94.375 168.2890625 -94.375 168.2890625 -92.3125 168.3125 C-91.631875 168.30476563 -90.95125 168.29703125 -90.25 168.2890625 C-88.3125 168.6875 -88.3125 168.6875 -85.3125 171.6875 C-84.9825 177.9575 -84.6525 184.2275 -84.3125 190.6875 C-47.0225 190.6875 -9.7325 190.6875 28.6875 190.6875 C29.0175 184.4175 29.3475 178.1475 29.6875 171.6875 C32.6875 168.6875 32.6875 168.6875 34.625 168.2890625 C35.305625 168.29679687 35.98625 168.30453125 36.6875 168.3125 C37.368125 168.30476563 38.04875 168.29703125 38.75 168.2890625 C41.29016652 168.81143545 42.07133809 169.67925313 43.6875 171.6875 C44.11987305 173.7722168 44.11987305 173.7722168 44.19921875 176.13671875 C44.23466797 176.98427734 44.27011719 177.83183594 44.30664062 178.70507812 C44.32919922 179.58615234 44.35175781 180.46722656 44.375 181.375 C44.40916016 182.26767578 44.44332031 183.16035156 44.47851562 184.08007812 C44.56094467 186.28211121 44.62590047 188.48478582 44.6875 190.6875 C49.9675 190.6875 55.2475 190.6875 60.6875 190.6875 C60.74196889 187.06229305 60.78139956 183.43792283 60.8125 179.8125 C60.83763672 178.29269531 60.83763672 178.29269531 60.86328125 176.7421875 C60.92304088 167.41968469 60.60627483 158.87653129 54.46875 151.4453125 C48.74074518 145.79267617 43.04875 143.57097831 35.097229 143.54705811 C33.95896667 143.54134796 32.82070435 143.53563782 31.64794922 143.52975464 C29.78082275 143.52807785 29.78082275 143.52807785 27.87597656 143.52636719 C26.5617572 143.52140228 25.24753784 143.51643738 23.89349365 143.51132202 C20.290003 143.49821896 16.68653096 143.49175702 13.08302021 143.48731136 C10.82959303 143.48437691 8.57617091 143.48027137 6.32274628 143.47580719 C-0.73375415 143.46213701 -7.79024299 143.45246833 -14.84675574 143.4486053 C-22.98106172 143.44412729 -31.11519943 143.42658941 -39.24945426 143.3976047 C-45.54430347 143.37595626 -51.83910545 143.36589931 -58.13399148 143.36456418 C-61.89015188 143.3635183 -65.64615401 143.3576571 -69.40227509 143.33974457 C-72.93833908 143.32320926 -76.47412676 143.3211346 -80.01021576 143.32988358 C-81.91710934 143.33101534 -83.82399398 143.31733971 -85.73083496 143.3031311 C-95.65002903 143.35118635 -103.49914344 145.00950428 -110.3125 152.6875 Z " fill="#000000" transform="translate(283.3125,208.3125)"/>
<path d="M0 0 C5.77795923 4.89988287 9.22566399 10.6667607 10.3125 18.15234375 C10.71756682 25.35493808 8.72929239 31.89782516 3.94140625 37.33984375 C-2.77366046 43.60195486 -8.13203303 45.43973438 -17.25 45.25390625 C-23.44401533 44.68201563 -28.58013276 42.41986724 -33 38 C-38.45723448 30.50209993 -39.86809589 24.27227054 -39 15 C-37.21204793 7.79125055 -33.08050927 3.10184263 -27 -1 C-18.13841254 -5.91145182 -8.62463137 -5.0749897 0 0 Z M-19.9375 15 C-22.33186879 17.89125758 -22.33186879 17.89125758 -22.0625 21.625 C-21.24290062 24.95198217 -21.24290062 24.95198217 -19.375 27 C-15.88418213 28.46981805 -13.60851044 27.98413921 -10 27 C-7.85217329 25.44202118 -7.85217329 25.44202118 -7 23 C-7.12743211 19.87791339 -7.46748462 17.81278664 -9.1875 15.1875 C-13.25695967 12.52130229 -15.89656583 12.24872567 -19.9375 15 Z " fill="#000000" transform="translate(429,157)"/>
<path d="M0 0 C5.82485779 3.51996782 10.54466582 8.98962934 12.5625 15.5 C13.36764105 23.33608208 13.68710392 31.11922577 8.5625 37.5 C3.75801361 42.54521222 -0.59927055 46.10562995 -7.70703125 46.8359375 C-16.22326573 46.92983204 -22.11345494 46.6177288 -28.40234375 40.62890625 C-34.7841668 33.72505269 -35.91792252 28.29832071 -35.7421875 18.9453125 C-35.04689797 11.08319245 -31.38995981 6.95041296 -25.53515625 1.9453125 C-18.47077988 -2.92213491 -7.84396301 -3.47595223 0 0 Z M-16.8125 17.125 C-18.92456506 20.21186432 -19.04945145 21.8282913 -18.4375 25.5 C-16.9375 28 -16.9375 28 -14.4375 29.5 C-10.7657913 30.11195145 -9.14936432 29.98706506 -6.0625 27.875 C-3.95043494 24.78813568 -3.82554855 23.1717087 -4.4375 19.5 C-5.9375 17 -5.9375 17 -8.4375 15.5 C-12.1092087 14.88804855 -13.72563568 15.01293494 -16.8125 17.125 Z " fill="#000000" transform="translate(491.4375,313.5)"/>
<path d="M0 0 C5.82485779 3.51996782 10.54466582 8.98962934 12.5625 15.5 C13.36764105 23.33608208 13.68710392 31.11922577 8.5625 37.5 C3.75801361 42.54521222 -0.59927055 46.10562995 -7.70703125 46.8359375 C-16.22326573 46.92983204 -22.11345494 46.6177288 -28.40234375 40.62890625 C-34.7841668 33.72505269 -35.91792252 28.29832071 -35.7421875 18.9453125 C-35.04689797 11.08319245 -31.38995981 6.95041296 -25.53515625 1.9453125 C-18.47077988 -2.92213491 -7.84396301 -3.47595223 0 0 Z M-16.8125 17.125 C-18.92456506 20.21186432 -19.04945145 21.8282913 -18.4375 25.5 C-16.9375 28 -16.9375 28 -14.4375 29.5 C-10.7657913 30.11195145 -9.14936432 29.98706506 -6.0625 27.875 C-3.95043494 24.78813568 -3.82554855 23.1717087 -4.4375 19.5 C-5.9375 17 -5.9375 17 -8.4375 15.5 C-12.1092087 14.88804855 -13.72563568 15.01293494 -16.8125 17.125 Z " fill="#000000" transform="translate(43.4375,313.5)"/>
<path d="M0 0 C5.68756599 5.00391866 9.4993276 9.83984415 10.2421875 17.49609375 C10.61264458 25.35196296 9.30643984 31.36103395 3.94140625 37.265625 C-2.72128867 43.51260371 -8.08371279 45.52712777 -17.19140625 45.3046875 C-23.74226736 44.59402385 -28.3833127 42.02359236 -32.875 37.25 C-37.45623915 31.49953509 -39.65871528 25.75719456 -39.33984375 18.359375 C-38.23839293 10.71252101 -35.21822041 5.17252857 -29.13671875 0.40625 C-19.85736428 -5.70082059 -9.55060291 -5.74875777 0 0 Z M-20 15 C-21.90701775 17.54269034 -22.00587759 18.85599893 -21.875 22.0625 C-21.20795705 25.01251564 -21.20795705 25.01251564 -19.375 26.9375 C-15.88680246 28.49800943 -13.63567102 27.99154664 -10 27 C-7.83333333 25.5 -7.83333333 25.5 -7 23 C-7.06715253 19.17230571 -7.15226202 16.90620267 -9.8125 14.0625 C-13.6153256 12.21541328 -16.61180548 12.74120365 -20 15 Z " fill="#000000" transform="translate(112,157)"/>
<path d="M0 0 C5.82485779 3.51996782 10.54466582 8.98962934 12.5625 15.5 C13.36764105 23.33608208 13.68710392 31.11922577 8.5625 37.5 C3.75801361 42.54521222 -0.59927055 46.10562995 -7.70703125 46.8359375 C-16.22326573 46.92983204 -22.11345494 46.6177288 -28.40234375 40.62890625 C-34.7841668 33.72505269 -35.91792252 28.29832071 -35.7421875 18.9453125 C-35.04689797 11.08319245 -31.38995981 6.95041296 -25.53515625 1.9453125 C-18.47077988 -2.92213491 -7.84396301 -3.47595223 0 0 Z M-16.8125 17.125 C-18.92456506 20.21186432 -19.04945145 21.8282913 -18.4375 25.5 C-16.9375 28 -16.9375 28 -14.4375 29.5 C-10.7657913 30.11195145 -9.14936432 29.98706506 -6.0625 27.875 C-3.95043494 24.78813568 -3.82554855 23.1717087 -4.4375 19.5 C-5.9375 17 -5.9375 17 -8.4375 15.5 C-12.1092087 14.88804855 -13.72563568 15.01293494 -16.8125 17.125 Z " fill="#000000" transform="translate(267.4375,89.5)"/>
<path d="M0 0 C2.5 2.125 2.5 2.125 4 5 C4.20306453 8.5874734 3.83800139 10.87702325 1.65820312 13.7980957 C-2.98840225 18.96240812 -7.77745623 23.96064539 -12.6875 28.875 C-13.43322266 29.63296875 -14.17894531 30.3909375 -14.94726562 31.171875 C-15.66978516 31.89632812 -16.39230469 32.62078125 -17.13671875 33.3671875 C-17.78342529 34.01800293 -18.43013184 34.66881836 -19.09643555 35.33935547 C-22.31194345 38.14452217 -24.18984549 39.01446704 -28.5 38.9375 C-32 38 -32 38 -34.5 35.9375 C-36.46266189 32.0939538 -36.17393108 29.03970933 -35 25 C-33.29868307 22.67467638 -31.84903725 20.97412096 -29.79296875 19.0390625 C-29.27116531 18.52242035 -28.74936188 18.0057782 -28.21174622 17.47348022 C-27.11272518 16.39151012 -26.00541553 15.31790104 -24.89038086 14.25244141 C-23.18697661 12.62449979 -21.50899308 10.97350436 -19.83398438 9.31640625 C-18.75919738 8.26420853 -17.68306968 7.21337817 -16.60546875 6.1640625 C-16.10428024 5.6745108 -15.60309174 5.18495911 -15.0867157 4.68057251 C-9.97551651 -0.19012949 -7.06917355 -1.89352863 0 0 Z " fill="#000000" transform="translate(388,201)"/>
<path d="M0 0 C8.23572887 2.65218387 14.55073282 10.8685063 20.5625 16.875 C21.32046875 17.62072266 22.0784375 18.36644531 22.859375 19.13476562 C23.58382812 19.85728516 24.30828125 20.57980469 25.0546875 21.32421875 C25.70550293 21.97092529 26.35631836 22.61763184 27.02685547 23.28393555 C29.83202217 26.49944345 30.70196704 28.37734549 30.625 32.6875 C29.6875 36.1875 29.6875 36.1875 27.5625 38.6875 C24.6875 40.1875 24.6875 40.1875 21.375 40.375 C13.13927113 37.72281613 6.82426718 29.5064937 0.8125 23.5 C0.05453125 22.75427734 -0.7034375 22.00855469 -1.484375 21.24023438 C-2.20882812 20.51771484 -2.93328125 19.79519531 -3.6796875 19.05078125 C-4.33050293 18.40407471 -4.98131836 17.75736816 -5.65185547 17.09106445 C-8.45702217 13.87555655 -9.32696704 11.99765451 -9.25 7.6875 C-8.3125 4.1875 -8.3125 4.1875 -6.1875 1.6875 C-3.3125 0.1875 -3.3125 0.1875 0 0 Z " fill="#000000" transform="translate(129.3125,199.8125)"/>
<path d="M0 0 C0.87269531 -0.0038269 1.74539063 -0.00765381 2.64453125 -0.01159668 C4.48699092 -0.0143149 6.32948924 -0.00695994 8.171875 0.00976562 C10.99045934 0.03117752 13.80649485 0.00996199 16.625 -0.015625 C18.41667229 -0.01298171 20.20834299 -0.00785669 22 0 C22.84175781 -0.00809692 23.68351562 -0.01619385 24.55078125 -0.02453613 C30.38715618 0.06889601 30.38715618 0.06889601 33.52929688 2.43945312 C35.12144695 4.7039853 35.542797 5.7922417 35.5 8.53125 C35.5103125 9.19125 35.520625 9.85125 35.53125 10.53125 C34.72011424 13.58493756 33.53019712 14.62236769 31 16.53125 C28.00263779 17.13239553 25.04890723 17.09182764 22 17.0625 C21.12730469 17.0663269 20.25460937 17.07015381 19.35546875 17.07409668 C17.51300908 17.0768149 15.67051076 17.06945994 13.828125 17.05273438 C11.00954066 17.03132248 8.19350515 17.05253801 5.375 17.078125 C3.58332771 17.07548171 1.79165701 17.07035669 0 17.0625 C-0.84175781 17.07059692 -1.68351562 17.07869385 -2.55078125 17.08703613 C-8.38715618 16.99360399 -8.38715618 16.99360399 -11.52929688 14.62304688 C-13.12144695 12.3585147 -13.542797 11.2702583 -13.5 8.53125 C-13.51546875 7.54125 -13.51546875 7.54125 -13.53125 6.53125 C-11.69061453 -0.39820116 -5.94975317 -0.05723107 0 0 Z " fill="#000000" transform="translate(413,327.46875)"/>
<path d="M0 0 C0.87269531 -0.0038269 1.74539062 -0.00765381 2.64453125 -0.01159668 C4.48699092 -0.0143149 6.32948924 -0.00695994 8.171875 0.00976562 C10.99045934 0.03117752 13.80649485 0.00996199 16.625 -0.015625 C18.41667229 -0.01298171 20.20834299 -0.00785669 22 0 C22.84175781 -0.00809692 23.68351562 -0.01619385 24.55078125 -0.02453613 C30.38715618 0.06889601 30.38715618 0.06889601 33.52929688 2.43945312 C35.12144695 4.7039853 35.542797 5.7922417 35.5 8.53125 C35.5103125 9.19125 35.520625 9.85125 35.53125 10.53125 C34.72011424 13.58493756 33.53019712 14.62236769 31 16.53125 C28.00263779 17.13239553 25.04890723 17.09182764 22 17.0625 C21.12730469 17.0663269 20.25460938 17.07015381 19.35546875 17.07409668 C17.51300908 17.0768149 15.67051076 17.06945994 13.828125 17.05273438 C11.00954066 17.03132248 8.19350515 17.05253801 5.375 17.078125 C3.58332771 17.07548171 1.79165701 17.07035669 0 17.0625 C-0.84175781 17.07059692 -1.68351562 17.07869385 -2.55078125 17.08703613 C-8.38715618 16.99360399 -8.38715618 16.99360399 -11.52929688 14.62304688 C-13.12144695 12.3585147 -13.542797 11.2702583 -13.5 8.53125 C-13.51546875 7.54125 -13.51546875 7.54125 -13.53125 6.53125 C-11.69061453 -0.39820116 -5.94975317 -0.05723107 0 0 Z " fill="#000000" transform="translate(77,327.46875)"/>
<path d="M0 0 C0.66 -0.0103125 1.32 -0.020625 2 -0.03125 C5.05368756 0.77988576 6.09111769 1.96980288 8 4.5 C8.60114553 7.49736221 8.56057764 10.45109277 8.53125 13.5 C8.5350769 14.37269531 8.53890381 15.24539062 8.54284668 16.14453125 C8.5455649 17.98699092 8.53820994 19.82948924 8.52148438 21.671875 C8.50007248 24.49045934 8.52128801 27.30649485 8.546875 30.125 C8.54423171 31.91667229 8.53910669 33.70834299 8.53125 35.5 C8.53934692 36.34175781 8.54744385 37.18351562 8.55578613 38.05078125 C8.46235399 43.88715618 8.46235399 43.88715618 6.09179688 47.02929688 C3.8272647 48.62144695 2.7390083 49.042797 0 49 C-0.99 49.01546875 -0.99 49.01546875 -2 49.03125 C-5.05368756 48.22011424 -6.09111769 47.03019712 -8 44.5 C-8.60114553 41.50263779 -8.56057764 38.54890723 -8.53125 35.5 C-8.5350769 34.62730469 -8.53890381 33.75460938 -8.54284668 32.85546875 C-8.5455649 31.01300908 -8.53820994 29.17051076 -8.52148438 27.328125 C-8.50007248 24.50954066 -8.52128801 21.69350515 -8.546875 18.875 C-8.54423171 17.08332771 -8.53910669 15.29165701 -8.53125 13.5 C-8.53934692 12.65824219 -8.54744385 11.81648437 -8.55578613 10.94921875 C-8.46235399 5.11284382 -8.46235399 5.11284382 -6.09179688 1.97070312 C-3.8272647 0.37855305 -2.7390083 -0.042797 0 0 Z " fill="#000000" transform="translate(256,143.5)"/>
<path d="M0 0 C0.7115625 -0.01546875 1.423125 -0.0309375 2.15625 -0.046875 C5.60314984 -0.02115187 7.64752229 0.24568064 10.46875 2.28125 C12.08267327 4.61979188 12.54379543 5.69709278 12.5 8.5 C12.5103125 9.16 12.520625 9.82 12.53125 10.5 C11.72167176 13.54782397 10.55457707 14.65682414 8 16.5 C5.16934716 16.90100915 2.81653341 17.06122899 0 17 C-0.7115625 17.01546875 -1.423125 17.0309375 -2.15625 17.046875 C-5.60314984 17.02115187 -7.64752229 16.75431936 -10.46875 14.71875 C-12.08267327 12.38020812 -12.54379543 11.30290722 -12.5 8.5 C-12.51546875 7.51 -12.51546875 7.51 -12.53125 6.5 C-10.82633794 0.08150756 -5.75061521 -0.12501337 0 0 Z " fill="#000000" transform="translate(132,327.5)"/>
</svg>
