<svg width="25" height="25" viewBox="0 0 25 25" fill="none" xmlns="http://www.w3.org/2000/svg">
<path d="M12.5 13.5V2.5L20.5 6.5L12.5 10.5" stroke="#591A0E" stroke-width="2" stroke-linecap="round" stroke-linejoin="round"/>
<path d="M21.061 10.7219C21.5932 12.362 21.643 14.1205 21.2045 15.7881C20.766 17.4558 19.8577 18.9623 18.5876 20.1286C17.3175 21.2948 15.7392 22.0717 14.0403 22.3667C12.3414 22.6617 10.5935 22.4625 9.00461 21.7928C7.41568 21.123 6.0526 20.0109 5.07753 18.5888C4.10246 17.1666 3.55645 15.4943 3.50446 13.7708C3.45247 12.0473 3.89668 10.3451 4.78425 8.86677C5.67182 7.38844 6.96539 6.1962 8.51105 5.43188" stroke="#591A0E" stroke-width="2" stroke-linecap="round" stroke-linejoin="round"/>
<path d="M8.50202 10.4971C8.00092 11.1641 7.6747 11.9459 7.55306 12.7713C7.43143 13.5966 7.51825 14.4393 7.80562 15.2225C8.09299 16.0057 8.57177 16.7046 9.19835 17.2554C9.82492 17.8063 10.5794 18.1916 11.393 18.3762C12.2065 18.5609 13.0534 18.539 13.8564 18.3127C14.6593 18.0863 15.3929 17.6626 15.9902 17.0802C16.5876 16.4977 17.0297 15.7751 17.2762 14.9781C17.5228 14.1811 17.5661 13.3351 17.402 12.5171" stroke="#591A0E" stroke-width="2" stroke-linecap="round" stroke-linejoin="round"/>
</svg>
