<svg width="25" height="25" viewBox="0 0 25 25" fill="none" xmlns="http://www.w3.org/2000/svg">
<path d="M3.5 13.611C3.5 20.722 8.789 22.5 11.433 22.5C12.787 22.5 14.748 22.143 16.5 21.11M19.22 18.5C20.002 17.254 20.5 15.652 20.5 13.611C20.5 9.08404 17.665 5.85104 15.102 3.99804C13.944 3.16004 12.5 4.08004 12.5 5.51004V5.83304C12.5 7.27504 11.894 9.90704 10.21 11.002C9.35 11.561 8.42 10.724 8.316 9.70404L8.23 8.86604C8.13 7.89204 7.138 7.30104 6.36 7.89504C5.60217 8.47046 4.96076 9.18484 4.47 10" stroke="#591A0E" stroke-width="1.5" stroke-linecap="round"/>
<path d="M8.5 18.9451C8.5 21.7891 10.989 22.5001 12.233 22.5001C13.323 22.5001 15.5 21.7891 15.5 18.9451C15.5 17.8431 14.91 17.1001 14.34 16.6711C13.942 16.3721 13.383 16.6411 13.246 17.1201C13.068 17.7441 12.423 18.1361 12.094 17.5761C11.794 17.0641 11.794 16.2961 11.794 15.8331C11.794 15.1971 11.154 14.7851 10.639 15.1591C9.606 15.9091 8.5 17.1801 8.5 18.9451Z" stroke="#591A0E" stroke-width="1.5"/>
</svg>
