<svg width="24" height="25" viewBox="0 0 24 25" fill="none" xmlns="http://www.w3.org/2000/svg">
<path d="M12 22.5C6.477 22.5 2 18.023 2 12.5C2 6.977 6.477 2.5 12 2.5C17.523 2.5 22 6.977 22 12.5C22 18.023 17.523 22.5 12 22.5ZM12 20.5C14.1217 20.5 16.1566 19.6571 17.6569 18.1569C19.1571 16.6566 20 14.6217 20 12.5C20 10.3783 19.1571 8.34344 17.6569 6.84315C16.1566 5.34285 14.1217 4.5 12 4.5C9.87827 4.5 7.84344 5.34285 6.34315 6.84315C4.84285 8.34344 4 10.3783 4 12.5C4 14.6217 4.84285 16.6566 6.34315 18.1569C7.84344 19.6571 9.87827 20.5 12 20.5ZM7 13.5H9C9 14.2956 9.31607 15.0587 9.87868 15.6213C10.4413 16.1839 11.2044 16.5 12 16.5C12.7956 16.5 13.5587 16.1839 14.1213 15.6213C14.6839 15.0587 15 14.2956 15 13.5H17C17 14.8261 16.4732 16.0979 15.5355 17.0355C14.5979 17.9732 13.3261 18.5 12 18.5C10.6739 18.5 9.40215 17.9732 8.46447 17.0355C7.52678 16.0979 7 14.8261 7 13.5ZM8 11.5C7.60218 11.5 7.22064 11.342 6.93934 11.0607C6.65804 10.7794 6.5 10.3978 6.5 10C6.5 9.60218 6.65804 9.22064 6.93934 8.93934C7.22064 8.65804 7.60218 8.5 8 8.5C8.39782 8.5 8.77936 8.65804 9.06066 8.93934C9.34196 9.22064 9.5 9.60218 9.5 10C9.5 10.3978 9.34196 10.7794 9.06066 11.0607C8.77936 11.342 8.39782 11.5 8 11.5ZM16 11.5C15.6022 11.5 15.2206 11.342 14.9393 11.0607C14.658 10.7794 14.5 10.3978 14.5 10C14.5 9.60218 14.658 9.22064 14.9393 8.93934C15.2206 8.65804 15.6022 8.5 16 8.5C16.3978 8.5 16.7794 8.65804 17.0607 8.93934C17.342 9.22064 17.5 9.60218 17.5 10C17.5 10.3978 17.342 10.7794 17.0607 11.0607C16.7794 11.342 16.3978 11.5 16 11.5Z" fill="#591A0E"/>
</svg>
