<svg width="25" height="25" viewBox="0 0 25 25" fill="none" xmlns="http://www.w3.org/2000/svg">
<path d="M11.204 4.82508C11.336 4.59848 11.5252 4.41045 11.7526 4.27977C11.98 4.14909 12.2377 4.08032 12.5 4.08032C12.7622 4.08032 13.0199 4.14909 13.2473 4.27977C13.4747 4.41045 13.6639 4.59848 13.7959 4.82508L15.614 7.94508C15.7186 8.12516 15.8596 8.28146 16.028 8.40405C16.1964 8.52663 16.3884 8.61281 16.5919 8.65708L20.122 9.42108C20.3782 9.4768 20.6153 9.5987 20.8097 9.77463C21.0041 9.95057 21.149 10.1744 21.23 10.4238C21.3109 10.6732 21.3251 10.9395 21.271 11.196C21.217 11.4526 21.0966 11.6905 20.922 11.8861L18.517 14.5791C18.3782 14.7343 18.2733 14.9167 18.2089 15.1147C18.1445 15.3127 18.1221 15.5219 18.143 15.7291L18.506 19.3221C18.5324 19.5831 18.4899 19.8464 18.3828 20.0859C18.2757 20.3254 18.1076 20.5325 17.8954 20.6868C17.6832 20.841 17.4343 20.9368 17.1735 20.9648C16.9126 20.9928 16.649 20.9518 16.409 20.8461L13.1049 19.3901C12.9143 19.3061 12.7083 19.2627 12.5 19.2627C12.2916 19.2627 12.0856 19.3061 11.895 19.3901L8.59095 20.8461C8.35088 20.9518 8.08727 20.9928 7.82644 20.9648C7.56561 20.9368 7.31667 20.841 7.10446 20.6868C6.89225 20.5325 6.7242 20.3254 6.61708 20.0859C6.50995 19.8464 6.4675 19.5831 6.49395 19.3221L6.85695 15.7291C6.87797 15.522 6.85566 15.3128 6.79144 15.1148C6.72722 14.9169 6.62251 14.7344 6.48395 14.5791L4.07795 11.8861C3.90328 11.6905 3.78292 11.4526 3.72887 11.196C3.67482 10.9395 3.68897 10.6732 3.76991 10.4238C3.85085 10.1744 3.99576 9.95057 4.19017 9.77463C4.38459 9.5987 4.62173 9.4768 4.87795 9.42108L8.40795 8.65708C8.61156 8.61305 8.80376 8.52709 8.97232 8.40467C9.14087 8.28226 9.28208 8.12608 9.38695 7.94608L11.204 4.82508Z" stroke="#591A0E" stroke-width="1.5" stroke-linecap="round" stroke-linejoin="round"/>
</svg>
