<svg width="25" height="25" viewBox="0 0 25 25" fill="none" xmlns="http://www.w3.org/2000/svg">
<path d="M12.5 22.5C18.0228 22.5 22.5 18.0228 22.5 12.5C22.5 6.97715 18.0228 2.5 12.5 2.5C6.97715 2.5 2.5 6.97715 2.5 12.5C2.5 18.0228 6.97715 22.5 12.5 22.5Z" stroke="#591A0E" stroke-width="2" stroke-linecap="round"/>
<path d="M8.3811 16.7441C8.8741 16.3171 9.5231 16.0091 10.2231 15.8071C10.9642 15.5997 11.7305 15.4964 12.5001 15.5001C13.2861 15.5001 14.0701 15.6031 14.7771 15.8071C15.4771 16.0091 16.1271 16.3171 16.6191 16.7441" stroke="#591A0E" stroke-width="2" stroke-linecap="round"/>
<path d="M9.5 11.75C10.1904 11.75 10.75 11.1904 10.75 10.5C10.75 9.80964 10.1904 9.25 9.5 9.25C8.80964 9.25 8.25 9.80964 8.25 10.5C8.25 11.1904 8.80964 11.75 9.5 11.75Z" fill="#591A0E" stroke="#591A0E" stroke-width="0.5" stroke-linecap="round"/>
<path d="M15.5 11.75C16.1904 11.75 16.75 11.1904 16.75 10.5C16.75 9.80964 16.1904 9.25 15.5 9.25C14.8096 9.25 14.25 9.80964 14.25 10.5C14.25 11.1904 14.8096 11.75 15.5 11.75Z" fill="#591A0E" stroke="#591A0E" stroke-width="0.5" stroke-linecap="round"/>
</svg>
