<?xml version="1.0" encoding="UTF-8"?>
<svg version="1.1" xmlns="http://www.w3.org/2000/svg" width="512" height="512">
<path d="M0 0 C1.33804688 1.07314453 1.33804688 1.07314453 2.703125 2.16796875 C4.81192793 4.22718844 4.81192793 4.22718844 7.3125 4.0625 C10.37234079 2.8527955 12.86827585 1.24987407 15.546875 -0.6484375 C22.21123339 -4.32020184 28.76893767 -5.53599208 36.3125 -5.4375 C37.14064209 -5.42920166 37.96878418 -5.42090332 38.82202148 -5.41235352 C51.25606816 -5.07197679 60.94939561 -0.62371233 70 7.87890625 C74.75172014 12.94809045 80 19.82333767 80 27 C80.96550781 26.67773438 81.93101562 26.35546875 82.92578125 26.0234375 C93.99079367 22.88265276 107.77752203 23.87363901 118 29 C128.31717984 34.88914167 135.70279842 42.85103923 140 54 C140 54.99 140 55.98 140 57 C140.95390625 56.67773438 141.9078125 56.35546875 142.890625 56.0234375 C152.7539365 53.22305006 166.1864106 53.42357068 175.55078125 57.61328125 C188.84143528 65.1382927 197.74880267 75.25353816 202 90 C202.37968537 92.93576458 202.50728292 95.86804661 202.6237793 98.82470703 C202.66365935 99.70080659 202.70353941 100.57690615 202.74462795 101.47955418 C203.25294095 113.35612381 203.51209838 125.23942058 203.6875 137.125 C203.70597363 138.29049 203.72444725 139.45598 203.74348068 140.65678787 C204.51738264 195.55039297 193.31364981 247.05905057 176 299 C176.99 299.309375 176.99 299.309375 178 299.625 C188.44503376 304.41230714 195.91912145 313.40310194 200.30859375 323.89453125 C201.89631504 328.72945654 202.13865672 333.28107283 202.17700195 338.35717773 C202.18357315 339.0797879 202.19014435 339.80239807 202.19691467 340.54690552 C202.21654251 342.92580281 202.22828395 345.30463744 202.23828125 347.68359375 C202.24235678 348.49896166 202.2464323 349.31432957 202.25063133 350.15440559 C202.27144284 354.46662259 202.28576821 358.77880819 202.29516602 363.09106445 C202.30624671 367.53757296 202.34067943 371.9835833 202.38033772 376.42991543 C202.40650234 379.85721251 202.41485747 383.28439047 202.41844749 386.71177864 C202.4233104 388.35080408 202.43491604 389.9898243 202.45348549 391.62875175 C202.47788478 393.92404546 202.47691171 396.21804353 202.4699707 398.51342773 C202.47877007 400.46937111 202.47877007 400.46937111 202.48774719 402.46482849 C201.7999995 407.44959533 199.62903965 410.5366254 195.92578125 413.86328125 C191.39324273 415.62425416 186.99932781 415.31353176 182.1875 415.1875 C181.20845703 415.17396484 180.22941406 415.16042969 179.22070312 415.14648438 C176.81323375 415.11125312 174.40690436 415.06199265 172 415 C172.00888245 416.02650665 172.01776489 417.05301331 172.0269165 418.11062622 C172.10805867 427.791918 172.16799245 437.47314064 172.20724869 447.15469551 C172.22810937 452.13192052 172.25639938 457.10887067 172.30175781 462.0859375 C172.34526959 466.89052908 172.36914854 471.69485654 172.37950897 476.49962997 C172.38689076 478.33124829 172.40130579 480.16285241 172.42292023 481.99435806 C172.45202541 484.56312365 172.45595308 487.13080266 172.45410156 489.69970703 C172.47567322 490.83151649 172.47567322 490.83151649 172.49768066 491.9861908 C172.45751785 497.14744391 171.3485492 500.08760282 168 504 C163.49638031 507.55485809 159.50079392 507.42671905 154.01112366 507.38768005 C153.1045363 507.39306559 152.19794895 507.39845113 151.26388925 507.40399987 C148.22534873 507.41831006 145.18724198 507.4111681 142.14868164 507.40405273 C139.97051136 507.40975469 137.79234408 507.41671826 135.61418152 507.42485046 C129.69686511 507.4428161 123.77969671 507.44160707 117.86236119 507.43590808 C112.92431772 507.4328212 107.98630289 507.43890309 103.04826349 507.44494683 C91.40007143 507.45900159 79.75195269 507.45742278 68.10375977 507.44604492 C56.08230854 507.43456203 44.06111461 507.44864017 32.03968912 507.4754414 C21.72194186 507.49758407 11.40426468 507.50423902 1.08649534 507.49836498 C-5.07737446 507.49499088 -11.24110125 507.49744072 -17.4049511 507.51461601 C-23.2006489 507.53006016 -28.99601576 507.52615747 -34.79170036 507.50731087 C-36.91937191 507.50361803 -39.04706783 507.5067536 -41.17471695 507.51719666 C-44.07824155 507.53036039 -46.98066313 507.5188997 -49.88414001 507.50120544 C-50.72704289 507.51081045 -51.56994576 507.52041546 -52.43839115 507.53031152 C-57.74142901 507.46377214 -60.85706127 506.61025127 -65 503 C-68.23872775 498.99413959 -68.3486169 495.84617969 -68.2641449 490.77915955 C-68.25294816 489.7030665 -68.25294816 489.7030665 -68.24152523 488.60523421 C-68.21337841 486.20377622 -68.16391553 483.80321708 -68.11499023 481.40209961 C-68.09124979 479.67609732 -68.06913593 477.95007201 -68.04852295 476.22402954 C-68.00258 472.49723418 -67.94910292 468.7706458 -67.89108086 465.0440197 C-67.80244079 459.08339818 -67.75583825 453.122901 -67.71925354 447.16175842 C-67.71289885 446.14949926 -67.70654415 445.13724009 -67.69999689 444.09430641 C-67.68715328 442.02223988 -67.67444577 439.95017251 -67.66187108 437.87810433 C-67.57695141 424.0149054 -67.47112706 410.15368166 -67.22875977 396.29223633 C-66.39537584 347.35868013 -66.94109596 304.30511558 -86.54933167 258.84663391 C-90.08526609 250.58859574 -92.85528728 242.07668368 -95.64120102 233.5432148 C-96.96793446 229.51416727 -98.35454224 225.50584137 -99.73828125 221.49609375 C-100.27574103 219.93219338 -100.81303561 218.36823622 -101.35009766 216.80419922 C-101.6187262 216.0222821 -101.88735474 215.24036499 -102.16412354 214.43475342 C-104.53823997 207.51939171 -106.90390112 200.60112907 -109.27078247 193.68328857 C-110.0932234 191.28034249 -110.91650349 188.8776855 -111.73999023 186.47509766 C-112.94823448 182.94920454 -114.151873 179.42176613 -115.35314941 175.89349365 C-115.97023322 174.08713482 -116.59383965 172.28300814 -117.21777344 170.47900391 C-117.57645508 169.43019043 -117.93513672 168.38137695 -118.3046875 167.30078125 C-118.61132324 166.41173096 -118.91795898 165.52268066 -119.23388672 164.60668945 C-124.09006935 148.0835977 -121.87597827 128.38407089 -114.875 112.8125 C-112.07960164 107.70454482 -108.46636518 103.21493186 -104.859375 98.6640625 C-101.69815477 94.65647941 -98.7225258 90.52352431 -95.75 86.375 C-91.0608365 79.8450405 -86.33396593 73.3451078 -81.5625 66.875 C-80.71220215 65.72136963 -80.71220215 65.72136963 -79.84472656 64.54443359 C-79.29913086 63.80531738 -78.75353516 63.06620117 -78.19140625 62.3046875 C-77.66482422 61.58144287 -77.13824219 60.85819824 -76.59570312 60.11303711 C-75.53652809 58.71047286 -74.43016292 57.34227801 -73.27929688 56.01391602 C-68.85988124 50.77795451 -68.23515794 46.93536291 -68.375 40.1875 C-68.14619062 27.05911271 -64.7961228 18.0104548 -56 8 C-50.97994372 3.27781792 -45.38381745 -0.39461222 -39 -3 C-38.12859375 -3.35578125 -37.2571875 -3.7115625 -36.359375 -4.078125 C-24.50982759 -7.32986127 -10.69143966 -6.03677128 0 0 Z M-34 30 C-38.42461144 35.95033952 -38.14921629 42.19229228 -38.15771484 49.30078125 C-38.16279556 50.22982269 -38.16787628 51.15886414 -38.17311096 52.11605835 C-38.18379209 54.12890691 -38.19242108 56.14176718 -38.19923019 58.15463257 C-38.21104144 61.34053715 -38.23049843 64.52630755 -38.25234985 67.7121582 C-38.31390343 76.76867216 -38.36806234 85.82517046 -38.40136719 94.88183594 C-38.4222988 100.42496509 -38.45758475 105.96784621 -38.50212479 111.51083374 C-38.51629102 113.62231531 -38.52500862 115.73384072 -38.52817917 117.84536743 C-38.53308184 120.79691598 -38.5562218 123.74780416 -38.58349609 126.69921875 C-38.58048996 127.57105804 -38.57748383 128.44289734 -38.5743866 129.34115601 C-38.6390884 134.05049604 -38.95029631 137.17394014 -42 141 C-45.6641753 143.83478427 -48.41072985 144.41012197 -53 144.375 C-54.010625 144.38273437 -55.02125 144.39046875 -56.0625 144.3984375 C-60.40873968 143.80892095 -62.94974606 142.37844836 -65.61254883 138.88354492 C-67.35708076 135.25787773 -67.47662078 132.01744383 -67.51171875 128.07421875 C-67.53864555 126.95283257 -67.53864555 126.95283257 -67.56611633 125.80879211 C-67.62003849 123.43508442 -67.65405554 121.06157568 -67.6875 118.6875 C-67.72068921 117.07223805 -67.75518035 115.45700229 -67.79101562 113.84179688 C-67.87575399 109.89467524 -67.94265049 105.94761073 -68 102 C-70.35093626 104.28702008 -72.51578909 106.52268604 -74.40234375 109.20703125 C-74.81806641 109.79419922 -75.23378906 110.38136719 -75.66210938 110.98632812 C-76.08298828 111.58896484 -76.50386719 112.19160156 -76.9375 112.8125 C-77.77994792 114.00651042 -78.62239583 115.20052083 -79.46484375 116.39453125 C-79.87951904 116.98685547 -80.29419434 117.57917969 -80.72143555 118.18945312 C-81.59340402 119.42422841 -82.47555546 120.6518602 -83.36645508 121.87304688 C-83.80755615 122.47826172 -84.24865723 123.08347656 -84.703125 123.70703125 C-85.10047852 124.24690674 -85.49783203 124.78678223 -85.90722656 125.34301758 C-89.8230233 131.28057622 -90.2861966 137.51083487 -90.375 144.4375 C-90.38893799 145.1289209 -90.40287598 145.8203418 -90.41723633 146.53271484 C-90.31884266 157.46335704 -85.33472125 167.84982746 -81.73361206 178.01983643 C-73.19924901 202.15741175 -65.13122636 226.4483861 -57.07519913 250.74866104 C-56.06123854 253.806691 -55.04626929 256.86438587 -54.03132248 259.92208862 C-53.14597524 262.59195783 -52.26343956 265.26275249 -51.38181496 267.93385315 C-48.36221328 277.00287613 -45.1838704 285.97903388 -42 295 C19.71 295 81.42 295 145 295 C150.94 271.57 156.88 248.14 163 224 C165.76310547 214.31076172 165.76310547 214.31076172 168.58203125 204.42578125 C173.46702403 184.80107166 173.10709316 165.24821783 172.73455811 145.14263916 C172.67080066 141.13882062 172.65006987 137.13525025 172.63057232 133.13100719 C172.60586025 128.30984013 172.56099844 123.48893967 172.51171875 118.66796875 C172.50341223 117.76674978 172.49510571 116.86553082 172.48654747 115.93700218 C172.45859478 113.39153013 172.41670736 110.84670041 172.36987305 108.30151367 C172.36292419 107.56037323 172.35597534 106.81923279 172.34881592 106.05563354 C172.21164641 99.97848508 171.61583526 94.8644253 167.5625 90.1875 C162.94907617 86.24921137 160.40981587 85.5545412 154.5078125 85.68359375 C150.80778087 86.15042017 148.74186303 87.5256358 146 90 C141.81801645 95.62404684 141.85552398 101.39724541 141.7890625 108.1875 C141.76100644 109.78907294 141.73234207 111.39063532 141.703125 112.9921875 C141.66183071 115.5003239 141.62491345 118.00826025 141.59863281 120.51660156 C141.57098139 122.94897316 141.52513156 125.38046803 141.4765625 127.8125 C141.47330963 128.55846436 141.47005676 129.30442871 141.46670532 130.07299805 C141.3614298 134.54819949 140.74340624 137.43199569 138 141 C134.3358247 143.83478427 131.58927015 144.41012197 127 144.375 C125.989375 144.38273437 124.97875 144.39046875 123.9375 144.3984375 C120.51532431 143.93425941 118.72646441 143.1093255 116 141 C113.1287977 137.09142082 112.62074703 134.29311318 112.59936523 129.48486328 C112.57935707 127.53726608 112.57935707 127.53726608 112.5589447 125.55032349 C112.55880946 124.14031983 112.55869293 122.73031616 112.55859375 121.3203125 C112.54681178 119.86447833 112.53344555 118.40865619 112.51856995 116.95285034 C112.48243207 113.1251111 112.46220116 109.29747849 112.44702148 105.46960449 C112.42217265 99.35073844 112.38227383 93.23210828 112.32512093 87.11346054 C112.30889455 84.98477301 112.30502336 82.8563111 112.30210876 80.72756958 C112.28682884 78.7705159 112.28682884 78.7705159 112.27124023 76.77392578 C112.26482765 75.06113937 112.26482765 75.06113937 112.25828552 73.31375122 C111.85191607 68.10011298 111.01682163 64.17325573 107.5625 60.1875 C102.94907617 56.24921137 100.40981587 55.5545412 94.5078125 55.68359375 C90.80778087 56.15042017 88.74186303 57.5256358 86 60 C82.13814195 65.19353324 81.87809726 70.22706537 81.84228516 76.546875 C81.83202301 77.85172852 81.82176086 79.15658203 81.81118774 80.50097656 C81.80774982 81.19324341 81.8043119 81.88551025 81.80076981 82.59875488 C81.78891807 84.77653886 81.76945173 86.95413007 81.74765015 89.13183594 C81.68622944 95.32089822 81.6319622 101.50993609 81.59863281 107.69921875 C81.57766514 111.49176587 81.54235356 115.28395289 81.49787521 119.07629395 C81.48374057 120.5179012 81.4749985 121.95957207 81.47182083 123.40124512 C81.4669014 125.41861668 81.44211454 127.43591001 81.41650391 129.453125 C81.40437363 131.17257324 81.40437363 131.17257324 81.39199829 132.92675781 C80.95415448 136.359426 80.03638353 138.22865998 78 141 C74.3358247 143.83478427 71.58927015 144.41012197 67 144.375 C65.989375 144.38273437 64.97875 144.39046875 63.9375 144.3984375 C59.62263923 143.81317713 57.09503254 142.3742924 54.38050842 138.96749878 C52.45934091 134.83781571 52.57564008 131.23372444 52.59936523 126.73095703 C52.59238617 125.80512817 52.5854071 124.87929932 52.57821655 123.92541504 C52.55824616 120.86945475 52.55874 117.81383224 52.55859375 114.7578125 C52.54681993 112.62937511 52.53345569 110.50094598 52.51856995 108.37252808 C52.48237412 102.76927321 52.46218184 97.16609147 52.44702148 91.56274414 C52.42220125 82.60136573 52.3824439 73.64014904 52.32512093 64.67892075 C52.30882973 61.55308989 52.30501731 58.42741221 52.30210876 55.30154419 C52.29232832 53.37697082 52.28206436 51.45239982 52.27124023 49.52783203 C52.27379318 48.66318329 52.27634613 47.79853455 52.27897644 46.90768433 C52.22531128 40.54021026 51.88976341 35.18049624 47.5625 30.1875 C42.94907617 26.24921137 40.40981587 25.5545412 34.5078125 25.68359375 C30.80778087 26.15042017 28.74186303 27.5256358 26 30 C21.57538856 35.95033952 21.85078371 42.19229228 21.84228516 49.30078125 C21.83720444 50.22982269 21.83212372 51.15886414 21.82688904 52.11605835 C21.81620791 54.12890691 21.80757892 56.14176718 21.80076981 58.15463257 C21.78895856 61.34053715 21.76950157 64.52630755 21.74765015 67.7121582 C21.68609657 76.76867216 21.63193766 85.82517046 21.59863281 94.88183594 C21.5777012 100.42496509 21.54241525 105.96784621 21.49787521 111.51083374 C21.48370898 113.62231531 21.47499138 115.73384072 21.47182083 117.84536743 C21.46691816 120.79691598 21.4437782 123.74780416 21.41650391 126.69921875 C21.42101311 128.00697769 21.42101311 128.00697769 21.4256134 129.34115601 C21.3609116 134.05049604 21.04970369 137.17394014 18 141 C14.3358247 143.83478427 11.58927015 144.41012197 7 144.375 C5.989375 144.38273437 4.97875 144.39046875 3.9375 144.3984375 C-0.37736077 143.81317713 -2.90496746 142.3742924 -5.61949158 138.96749878 C-7.54065909 134.83781571 -7.42435992 131.23372444 -7.40063477 126.73095703 C-7.41110336 125.34221375 -7.41110336 125.34221375 -7.42178345 123.92541504 C-7.44175384 120.86945475 -7.44126 117.81383224 -7.44140625 114.7578125 C-7.45318007 112.62937511 -7.46654431 110.50094598 -7.48143005 108.37252808 C-7.51762588 102.76927321 -7.53781816 97.16609147 -7.55297852 91.56274414 C-7.57779875 82.60136573 -7.6175561 73.64014904 -7.67487907 64.67892075 C-7.69117027 61.55308989 -7.69498269 58.42741221 -7.69789124 55.30154419 C-7.70767168 53.37697082 -7.71793564 51.45239982 -7.72875977 49.52783203 C-7.72620682 48.66318329 -7.72365387 47.79853455 -7.72102356 46.90768433 C-7.77468872 40.54021026 -8.11023659 35.18049624 -12.4375 30.1875 C-17.05092383 26.24921137 -19.59018413 25.5545412 -25.4921875 25.68359375 C-29.19221913 26.15042017 -31.25813697 27.5256358 -34 30 Z M-38 325 C-38 344.8 -38 364.6 -38 385 C31.3 385 100.6 385 172 385 C175.2946322 361.01528401 175.2946322 361.01528401 167.5625 330.1875 C161.54243012 325.04841595 156.67367351 324.84969256 148.99577332 324.87974548 C148.19520848 324.87889106 147.39464365 324.87803663 146.56981927 324.87715632 C143.89051747 324.87551079 141.21127844 324.88100773 138.53198242 324.88647461 C136.61008709 324.88675671 134.68819165 324.88659831 132.76629639 324.8860321 C127.54980725 324.88574501 122.33334108 324.89162757 117.11685729 324.89860606 C111.66492692 324.9048542 106.21299602 324.90544456 100.76106262 324.90663147 C90.43746959 324.90974047 80.11388713 324.91794806 69.79029876 324.92798096 C58.03708258 324.93915546 46.2838659 324.94465592 34.53064573 324.94967639 C10.3537566 324.96013102 -13.82311802 324.97847116 -38 325 Z M-38 415 C-38 435.46 -38 455.92 -38 477 C21.4 477 80.8 477 142 477 C142 456.54 142 436.08 142 415 C82.6 415 23.2 415 -38 415 Z " fill="#000000" transform="translate(219,5)"/>
<path d="M0 0 C3.48643009 2.89299519 6.74436825 5.85534925 7.30078125 10.5234375 C7.33998734 20.06358635 7.33998734 20.06358635 4 24 C3.50322754 24.62302002 3.00645508 25.24604004 2.49462891 25.88793945 C-1.15116809 28.97462861 -5.20144985 30.25655881 -9.6640625 31.85546875 C-10.61131195 32.20257401 -11.5585614 32.54967926 -12.53451538 32.90730286 C-14.53808647 33.63800163 -16.54373363 34.3630294 -18.55126953 35.08276367 C-21.59923138 36.17823844 -24.63759232 37.29767019 -27.67578125 38.41992188 C-29.62967597 39.12907269 -31.58408776 39.83680078 -33.5390625 40.54296875 C-34.88649033 41.0413752 -34.88649033 41.0413752 -36.26113892 41.54985046 C-43.42930475 44.09019383 -51.04794798 46.52484085 -58.375 43.5 C-62.35807909 41.12950354 -64.64854844 38.45134356 -66 34 C-66.76365416 28.98056482 -66.59114596 25.22776469 -64.375 20.625 C-59.30026828 15.01608599 -53.39223884 12.80259856 -46.40234375 10.36328125 C-45.034515 9.87591743 -45.034515 9.87591743 -43.63905334 9.37870789 C-41.71997625 8.69674014 -39.79948732 8.01873376 -37.87768555 7.34448242 C-34.94055962 6.3135739 -32.00811008 5.27016952 -29.07617188 4.22460938 C-27.20598979 3.56176421 -25.3355554 2.89963038 -23.46484375 2.23828125 C-22.59077377 1.92788406 -21.7167038 1.61748688 -20.81614685 1.29768372 C-13.30871628 -1.32927936 -7.69463094 -2.86279373 0 0 Z " fill="#000000" transform="translate(505,39)"/>
<path d="M0 0 C0.88165833 0.31825241 1.76331665 0.63650482 2.67169189 0.96440125 C4.51833093 1.63389639 6.36359875 2.30718504 8.20751953 2.98413086 C11.01743951 4.01238274 13.83441174 5.01933645 16.65234375 6.02539062 C18.45619602 6.68231321 20.25959793 7.34047407 22.0625 8 C23.31423004 8.44403923 23.31423004 8.44403923 24.59124756 8.89704895 C30.31661925 11.0290472 35.10741926 13.4868605 38.6171875 18.7109375 C40.29115217 23.84375689 40.14523922 29.69916838 37.765625 34.57421875 C35.10035461 38.50689044 31.78405802 40.4217626 27.265625 41.69921875 C20.08763004 41.84855338 13.53871314 39.74783911 6.875 37.3125 C5.92675354 36.97300827 4.97850708 36.63351654 4.00152588 36.28373718 C2.01288471 35.56752194 0.02638551 34.84533349 -1.95800781 34.11743164 C-4.98306449 33.01219756 -8.01795373 31.93790294 -11.0546875 30.86523438 C-12.99546198 30.16200343 -14.93559012 29.45698561 -16.875 28.75 C-17.77510803 28.4341243 -18.67521606 28.1182486 -19.6026001 27.7928009 C-25.30865786 25.66256509 -28.81492533 23.40060254 -32.734375 18.69921875 C-34.68329818 12.8524492 -34.72781945 6.75969613 -32.046875 1.19921875 C-22.69062099 -8.91565045 -11.26390194 -4.11768381 0 0 Z " fill="#000000" transform="translate(33.734375,42.30078125)"/>
<path d="M0 0 C0.94824646 0.33949173 1.89649292 0.67898346 2.87347412 1.02876282 C4.86211529 1.74497806 6.84861449 2.46716651 8.83300781 3.19506836 C11.85806449 4.30030244 14.89295373 5.37459706 17.9296875 6.44726562 C19.87046198 7.15049657 21.81059012 7.85551439 23.75 8.5625 C24.65010803 8.8783757 25.55021606 9.1942514 26.4776001 9.5196991 C32.18365786 11.64993491 35.68992533 13.91189746 39.609375 18.61328125 C41.55829818 24.4600508 41.60281945 30.55280387 38.921875 36.11328125 C35.4301194 39.88815217 32.00975674 42.20021712 26.77172852 42.74023438 C16.52766751 42.13879916 5.21732038 36.47812589 -4.42260742 33.03198242 C-6.03685311 32.4574204 -7.65310835 31.88847567 -9.27124023 31.32495117 C-11.64762357 30.49716849 -14.01754634 29.65285622 -16.38671875 28.8046875 C-17.10242538 28.55868301 -17.81813202 28.31267853 -18.55552673 28.05921936 C-23.96155187 26.09088574 -28.44950027 23.5025276 -31.7421875 18.6015625 C-33.41615217 13.46874311 -33.27023922 7.61333162 -30.890625 2.73828125 C-23.39889332 -8.31595221 -10.39411101 -3.79866067 0 0 Z " fill="#000000" transform="translate(471.390625,190.38671875)"/>
<path d="M0 0 C3.64413738 3.2103115 5.29943594 5.84464403 5.94140625 10.7109375 C6.2069504 16.41585366 5.58701333 19.93343263 1.625 24.3125 C-3.21035104 27.98074518 -8.20267708 29.94574797 -13.90234375 31.94921875 C-14.80948624 32.27412796 -15.71662872 32.59903717 -16.65126038 32.93379211 C-18.56190188 33.61586407 -20.47400015 34.29386752 -22.38745117 34.96801758 C-25.30342954 35.99679986 -28.21340387 37.04134307 -31.12304688 38.08789062 C-32.98664174 38.75094915 -34.8505636 39.41308947 -36.71484375 40.07421875 C-38.01046486 40.53981453 -38.01046486 40.53981453 -39.33226013 41.01481628 C-46.68002761 43.58638393 -52.85980424 45.37424642 -60.375 42.3125 C-63.80175732 39.34264365 -67.11817093 36.46719582 -67.67578125 31.7890625 C-67.71498734 22.24891365 -67.71498734 22.24891365 -64.375 18.3125 C-63.88257813 17.68947998 -63.39015625 17.06645996 -62.8828125 16.42456055 C-59.17798887 13.30438636 -55.0340252 12.04862289 -50.5 10.45703125 C-49.53852051 10.10992599 -48.57704102 9.76282074 -47.58642578 9.40519714 C-44.51963127 8.30120899 -41.44742999 7.21319237 -38.375 6.125 C-36.30693542 5.38184999 -34.23922267 4.63772014 -32.171875 3.89257812 C-28.38483024 2.5331168 -24.59745374 1.17472428 -20.8046875 -0.16870117 C-20.04397949 -0.43865402 -19.28327148 -0.70860687 -18.49951172 -0.98674011 C-11.89807282 -3.16419272 -6.31882983 -3.15941492 0 0 Z " fill="#000000" transform="translate(67.375,188.6875)"/>
<path d="M0 0 C1.71218971 -0.01902626 1.71218971 -0.01902626 3.45896912 -0.03843689 C4.68301956 -0.03550125 5.90707001 -0.03256561 7.16821289 -0.02954102 C8.43427872 -0.03478287 9.70034454 -0.04002472 11.004776 -0.04542542 C13.6805843 -0.05184519 16.35553862 -0.05195138 19.03125 -0.04199219 C22.44884287 -0.03050704 25.86540176 -0.05071248 29.28285885 -0.07990932 C32.55714826 -0.10273855 35.83136257 -0.09580175 39.10571289 -0.09204102 C40.93875221 -0.10889198 40.93875221 -0.10889198 42.80882263 -0.12608337 C49.20366271 -0.07367288 53.40236454 -0.02238369 58.20336914 4.40405273 C62.25967312 9.62665131 61.97734458 15.05745416 61.20336914 21.40405273 C59.01675955 26.02022854 56.70583625 28.12957514 52.20336914 30.40405273 C49.44056702 30.79173279 49.44056702 30.79173279 46.40673828 30.80810547 C44.69454857 30.82713173 44.69454857 30.82713173 42.94776917 30.84654236 C41.72371872 30.84360672 40.49966827 30.84067108 39.23852539 30.83764648 C37.97245956 30.84288834 36.70639374 30.84813019 35.40196228 30.85353088 C32.72615398 30.85995066 30.05119966 30.86005685 27.37548828 30.85009766 C23.95789541 30.83861251 20.54133652 30.85881795 17.12387943 30.88801479 C13.84959002 30.91084402 10.57537571 30.90390722 7.30102539 30.90014648 C5.46798607 30.91699745 5.46798607 30.91699745 3.59791565 30.93418884 C-2.79692443 30.88177835 -6.99562626 30.83048916 -11.79663086 26.40405273 C-15.85293484 21.18145416 -15.5706063 15.75065131 -14.79663086 9.40405273 C-11.65445975 2.77058039 -7.26597913 0.03921235 0 0 Z " fill="#000000" transform="translate(450.796630859375,119.595947265625)"/>
<path d="M0 0 C1.71218971 -0.01902626 1.71218971 -0.01902626 3.45896912 -0.03843689 C4.68301956 -0.03550125 5.90707001 -0.03256561 7.16821289 -0.02954102 C8.43427872 -0.03478287 9.70034454 -0.04002472 11.004776 -0.04542542 C13.6805843 -0.05184519 16.35553862 -0.05195138 19.03125 -0.04199219 C22.44884287 -0.03050704 25.86540176 -0.05071248 29.28285885 -0.07990932 C32.55714826 -0.10273855 35.83136257 -0.09580175 39.10571289 -0.09204102 C40.93875221 -0.10889198 40.93875221 -0.10889198 42.80882263 -0.12608337 C49.20366271 -0.07367288 53.40236454 -0.02238369 58.20336914 4.40405273 C62.25967312 9.62665131 61.97734458 15.05745416 61.20336914 21.40405273 C59.01675955 26.02022854 56.70583625 28.12957514 52.20336914 30.40405273 C49.44056702 30.79173279 49.44056702 30.79173279 46.40673828 30.80810547 C44.69454857 30.82713173 44.69454857 30.82713173 42.94776917 30.84654236 C41.72371872 30.84360672 40.49966827 30.84067108 39.23852539 30.83764648 C37.97245956 30.84288834 36.70639374 30.84813019 35.40196228 30.85353088 C32.72615398 30.85995066 30.05119966 30.86005685 27.37548828 30.85009766 C23.95789541 30.83861251 20.54133652 30.85881795 17.12387943 30.88801479 C13.84959002 30.91084402 10.57537571 30.90390722 7.30102539 30.90014648 C5.46798607 30.91699745 5.46798607 30.91699745 3.59791565 30.93418884 C-2.79692443 30.88177835 -6.99562626 30.83048916 -11.79663086 26.40405273 C-15.85293484 21.18145416 -15.5706063 15.75065131 -14.79663086 9.40405273 C-11.65445975 2.77058039 -7.26597913 0.03921235 0 0 Z " fill="#000000" transform="translate(14.796630859375,119.595947265625)"/>
</svg>
