<svg width="25" height="25" viewBox="0 0 25 25" fill="none" xmlns="http://www.w3.org/2000/svg">
<path d="M20.5 17.5C21.0733 17.5 21.5567 17.7 21.95 18.1C22.3433 18.5 22.5367 18.9667 22.53 19.5L14.5 22.5L7.50001 20.5V11.5H9.45001L16.72 14.19C17.24 14.3967 17.5 14.77 17.5 15.31C17.5 15.6233 17.3867 15.8967 17.16 16.13C16.9333 16.3633 16.6467 16.4867 16.3 16.5H13.5L11.75 15.83L11.42 16.77L13.5 17.5H20.5ZM16.5 3.73C17.2067 2.91 18.1067 2.5 19.2 2.5C20.1067 2.5 20.8733 2.83333 21.5 3.5C22.1267 4.16667 22.46 4.93333 22.5 5.8C22.5 6.48667 22.1667 7.30667 21.5 8.26C20.8333 9.21333 20.1767 10.01 19.53 10.65C18.8833 11.29 17.8733 12.24 16.5 13.5C15.1133 12.24 14.0933 11.29 13.44 10.65C12.7867 10.01 12.13 9.21333 11.47 8.26C10.81 7.30667 10.4867 6.48667 10.5 5.8C10.5 4.89333 10.8233 4.12667 11.47 3.5C12.1167 2.87333 12.8967 2.54 13.81 2.5C14.8767 2.5 15.7733 2.91 16.5 3.73ZM1.48401 11.5H5.50001V22.5H1.48401V11.5Z" fill="#591A0E"/>
</svg>
