<svg width="25" height="25" viewBox="0 0 25 25" fill="none" xmlns="http://www.w3.org/2000/svg">
<path fill-rule="evenodd" clip-rule="evenodd" d="M12.3791 5.99989C11.4241 6.11689 10.5191 6.45589 10.1371 6.76989C7.90907 8.61189 6.65107 11.0469 5.99807 13.1699C5.71689 14.0693 5.52858 14.9951 5.43607 15.9329C5.40207 16.3159 5.37107 16.7169 5.42907 17.0999C5.81207 17.5339 6.35407 17.8489 6.85707 18.1189C7.90807 18.6839 9.48707 19.2699 11.6101 19.5059C12.8121 19.6399 14.3301 19.7159 15.7301 19.6039C17.1831 19.4869 18.2971 19.1819 18.8751 18.7189C19.8491 17.9399 20.0951 17.0309 20.0061 16.2349C19.9111 15.3789 19.4301 14.6549 18.9461 14.3319C18.1111 13.7759 17.1711 13.7199 16.2851 13.9519C15.3731 14.1919 14.6241 14.7119 14.2701 15.1379C14.1813 15.245 14.0711 15.3325 13.9465 15.3946C13.822 15.4567 13.6858 15.4922 13.5468 15.4987C13.4078 15.5052 13.2689 15.4826 13.1391 15.4323C13.0094 15.3821 12.8915 15.3053 12.7931 15.2069C12.2431 14.6569 11.3081 14.4969 10.0551 15.3319C9.91837 15.4232 9.76127 15.4794 9.59768 15.4954C9.43409 15.5115 9.26905 15.4871 9.11718 15.4242C8.96531 15.3613 8.83128 15.2619 8.72695 15.1349C8.62263 15.0079 8.55123 14.8571 8.51907 14.6959C8.23307 13.2619 8.38207 11.7379 8.64607 10.4809C8.91207 9.22189 9.31207 8.13889 9.60607 7.55289C9.68921 7.38701 9.81686 7.24753 9.97474 7.15006C10.1326 7.05258 10.3145 7.00096 10.5001 7.00096C10.6856 7.00096 10.8675 7.05258 11.0254 7.15006C11.1833 7.24753 11.3109 7.38701 11.3941 7.55289C11.5971 7.95689 11.9681 8.31889 12.4001 8.47089C12.7351 8.25989 13.0261 7.96489 13.2621 7.64989C13.6961 7.07189 13.8411 6.52489 13.6481 6.04189C13.2561 5.90189 12.7821 5.95089 12.3791 5.99989ZM13.8621 4.03589C14.3461 4.12889 15.0531 4.37089 15.3941 5.05289C16.1411 6.54689 15.5241 7.96689 14.8621 8.84989C14.4301 9.42589 13.8741 9.96789 13.2271 10.2999C13.0921 10.3699 12.8171 10.4999 12.5001 10.4999C11.9091 10.4999 11.3301 10.2309 10.8551 9.89489C10.7651 10.2009 10.6781 10.5369 10.6031 10.8929C10.4548 11.5759 10.3744 12.272 10.3631 12.9709C11.4161 12.6309 12.4931 12.6669 13.4211 13.1909C14.1185 12.6432 14.9206 12.244 15.7781 12.0179C17.0781 11.6769 18.6381 11.7239 20.0551 12.6679C21.0701 13.3449 21.8391 14.6199 21.9941 16.0149C22.1561 17.4689 21.6511 19.0589 20.1241 20.2809C19.0461 21.1429 17.4031 21.4759 15.8911 21.5969C14.3261 21.7229 12.6731 21.6369 11.3901 21.4939C9.01207 21.2299 7.18607 20.5659 5.91007 19.8809C5.07307 19.4309 3.92807 18.8089 3.56507 17.8559C3.32007 17.2099 3.38407 16.4259 3.44407 15.7539C3.52407 14.8729 3.72007 13.7729 4.08707 12.5809C4.81907 10.2019 6.25207 7.38689 8.86307 5.22889C9.66607 4.56489 11.0101 4.15289 12.1351 4.01489C12.7151 3.94389 13.3251 3.93389 13.8621 4.03589Z" fill="#591A0E"/>
</svg>
