<svg width="24" height="25" viewBox="0 0 24 25" fill="none" xmlns="http://www.w3.org/2000/svg">
<path d="M6.75 5.75C4.275 5.75 2.25 7.775 2.25 10.25C2.25 11.738 2.98275 13.0625 4.10175 13.883C2.124 14.864 0.75 16.898 0.75 19.25H2.25C2.25 16.757 4.257 14.75 6.75 14.75C9.243 14.75 11.25 16.757 11.25 19.25H12.75C12.75 16.757 14.757 14.75 17.25 14.75C19.743 14.75 21.75 16.757 21.75 19.25H23.25C23.25 16.8973 21.876 14.864 19.8983 13.883C20.4711 13.466 20.9375 12.9196 21.2592 12.2883C21.581 11.657 21.7492 10.9586 21.75 10.25C21.75 7.775 19.725 5.75 17.25 5.75C14.775 5.75 12.75 7.775 12.75 10.25C12.75 11.738 13.4827 13.0625 14.6017 13.883C13.5059 14.4216 12.5988 15.2795 12 16.3438C11.4012 15.2795 10.4941 14.4216 9.39825 13.883C9.97114 13.466 10.4375 12.9196 10.7592 12.2883C11.081 11.657 11.2492 10.9586 11.25 10.25C11.25 7.775 9.225 5.75 6.75 5.75ZM6.75 7.25C8.41725 7.25 9.75 8.58275 9.75 10.25C9.75 11.9173 8.41725 13.25 6.75 13.25C5.08275 13.25 3.75 11.9173 3.75 10.25C3.75 8.58275 5.08275 7.25 6.75 7.25ZM17.25 7.25C18.9172 7.25 20.25 8.58275 20.25 10.25C20.25 11.9173 18.9172 13.25 17.25 13.25C15.5828 13.25 14.25 11.9173 14.25 10.25C14.25 8.58275 15.5828 7.25 17.25 7.25Z" fill="#591A0E"/>
</svg>
