<svg width="25" height="25" viewBox="0 0 25 25" fill="none" xmlns="http://www.w3.org/2000/svg">
<path d="M19.124 13.2267C18.92 12.7415 18.6882 12.1917 18.4618 11.513C17.8692 9.73625 19.7623 7.79825 19.7803 7.78025L18.7197 6.71975C18.6147 6.82475 16.1525 9.32825 17.0382 11.987C17.2828 12.7205 17.5273 13.2995 17.7418 13.8095C18.2418 14.7986 18.5015 15.8917 18.5 17C18.4121 17.8934 18.0691 18.7427 17.5119 19.4465C16.9547 20.1504 16.2069 20.6791 15.3575 20.9697C15.6258 19.918 15.6218 18.8153 15.3459 17.7655C15.0699 16.7157 14.5311 15.7536 13.7803 14.9697L12.9973 14.1868L12.5607 15.2045C11.1837 18.4175 9.545 19.82 8.58125 20.405C7.98945 20.0429 7.49215 19.5453 7.13031 18.9533C6.76846 18.3613 6.55243 17.6918 6.5 17C6.55127 16.0558 6.78803 15.1309 7.19675 14.2782C7.68159 13.2504 7.95476 12.1356 8 11V9.6665C8.6555 9.9365 9.5 10.6438 9.5 12.5V14.453L10.8073 13.0018C13.1412 10.4113 12.6545 7.3265 11.7118 5.27075C12.4284 5.50962 13.0438 5.9827 13.4588 6.61382C13.8739 7.24494 14.0645 7.99738 14 8.75H15.5C15.5 4.59725 12.0658 3.5 10.25 3.5H8.75L9.65 4.69925C9.75275 4.838 11.7965 7.6445 10.6648 10.4653C10.4132 9.75623 9.95171 9.1406 9.34173 8.70023C8.73175 8.25987 8.00217 8.01563 7.25 8H6.5V11C6.44873 11.9442 6.21197 12.8691 5.80325 13.7218C5.31841 14.7496 5.04524 15.8644 5 17C5 19.886 7.86725 23 12.5 23C17.1327 23 20 19.886 20 17C20.0005 15.6918 19.7008 14.4009 19.124 13.2267ZM10.1263 21.1445C11.5097 19.9993 12.6274 18.5666 13.4015 16.946C13.8151 17.6132 14.0501 18.3756 14.0839 19.1599C14.1176 19.9442 13.949 20.724 13.5942 21.4242C13.2316 21.4737 12.866 21.4991 12.5 21.5C11.6951 21.5059 10.8941 21.386 10.1263 21.1445Z" fill="#591A0E"/>
</svg>
