<svg width="24" height="25" viewBox="0 0 24 25" fill="none" xmlns="http://www.w3.org/2000/svg">
<path d="M8.36 15.83C8.15844 15.9993 8.03175 16.2412 8.00741 16.5033C7.98308 16.7654 8.06305 17.0265 8.23 17.23C8.31395 17.3313 8.41705 17.415 8.53339 17.4763C8.64974 17.5377 8.77705 17.5755 8.90803 17.5875C9.039 17.5996 9.17107 17.5857 9.29668 17.5467C9.42228 17.5076 9.53895 17.4442 9.64 17.36C10.3085 16.821 11.1413 16.5271 12 16.5271C12.8587 16.5271 13.6915 16.821 14.36 17.36C14.5399 17.5091 14.7663 17.5905 15 17.59C15.2036 17.588 15.4017 17.5239 15.5679 17.4063C15.734 17.2887 15.8603 17.1231 15.9299 16.9318C15.9995 16.7405 16.009 16.5325 15.9572 16.3356C15.9054 16.1387 15.7947 15.9623 15.64 15.83C14.6081 15.0006 13.3239 14.5484 12 14.5484C10.6761 14.5484 9.39188 15.0006 8.36 15.83ZM9.21 11.04C9.39736 11.2263 9.65081 11.3308 9.915 11.3308C10.1792 11.3308 10.4326 11.2263 10.62 11.04C10.8062 10.8526 10.9108 10.5992 10.9108 10.335C10.9108 10.0708 10.8062 9.81736 10.62 9.63C10.0477 9.08699 9.28889 8.78428 8.5 8.78428C7.7111 8.78428 6.95228 9.08699 6.38 9.63C6.27532 9.71965 6.19029 9.82997 6.13027 9.95403C6.07025 10.0781 6.03652 10.2132 6.0312 10.3509C6.02588 10.4887 6.04908 10.626 6.09936 10.7543C6.14963 10.8826 6.22589 10.9992 6.32335 11.0967C6.4208 11.1941 6.53735 11.2704 6.66567 11.3206C6.794 11.3709 6.93133 11.3941 7.06905 11.3888C7.20677 11.3835 7.3419 11.3497 7.46597 11.2897C7.59003 11.2297 7.70035 11.1447 7.79 11.04C7.88296 10.9463 7.99356 10.8719 8.11542 10.8211C8.23728 10.7703 8.36798 10.7442 8.5 10.7442C8.63201 10.7442 8.76271 10.7703 8.88457 10.8211C9.00643 10.8719 9.11703 10.9463 9.21 11.04ZM12 2.5C10.0222 2.5 8.08879 3.08649 6.44429 4.1853C4.7998 5.28412 3.51808 6.8459 2.7612 8.67317C2.00433 10.5004 1.80629 12.5111 2.19214 14.4509C2.578 16.3907 3.5304 18.1725 4.92893 19.5711C6.32745 20.9696 8.10928 21.922 10.0491 22.3079C11.9889 22.6937 13.9996 22.4957 15.8268 21.7388C17.6541 20.9819 19.2159 19.7002 20.3147 18.0557C21.4135 16.4112 22 14.4778 22 12.5C22 11.1868 21.7413 9.88642 21.2388 8.67317C20.7362 7.45991 19.9996 6.35752 19.0711 5.42893C18.1425 4.50035 17.0401 3.76375 15.8268 3.2612C14.6136 2.75866 13.3132 2.5 12 2.5ZM12 20.5C10.4177 20.5 8.87103 20.0308 7.55543 19.1518C6.23984 18.2727 5.21446 17.0233 4.60896 15.5615C4.00346 14.0997 3.84503 12.4911 4.15371 10.9393C4.4624 9.38743 5.22432 7.96197 6.34314 6.84315C7.46196 5.72433 8.88743 4.9624 10.4393 4.65372C11.9911 4.34504 13.5997 4.50346 15.0615 5.10896C16.5233 5.71447 17.7727 6.73984 18.6518 8.05544C19.5308 9.37103 20 10.9177 20 12.5C20 14.6217 19.1571 16.6566 17.6569 18.1569C16.1566 19.6571 14.1217 20.5 12 20.5ZM17.62 9.63C17.0477 9.08699 16.2889 8.78428 15.5 8.78428C14.7111 8.78428 13.9523 9.08699 13.38 9.63C13.2162 9.8213 13.1306 10.0674 13.1403 10.3191C13.15 10.5707 13.2543 10.8095 13.4324 10.9876C13.6105 11.1657 13.8493 11.27 14.1009 11.2797C14.3526 11.2894 14.5987 11.2038 14.79 11.04C14.883 10.9463 14.9936 10.8719 15.1154 10.8211C15.2373 10.7703 15.368 10.7442 15.5 10.7442C15.632 10.7442 15.7627 10.7703 15.8846 10.8211C16.0064 10.8719 16.117 10.9463 16.21 11.04C16.3974 11.2263 16.6508 11.3308 16.915 11.3308C17.1792 11.3308 17.4326 11.2263 17.62 11.04C17.8062 10.8526 17.9108 10.5992 17.9108 10.335C17.9108 10.0708 17.8062 9.81736 17.62 9.63Z" fill="#591A0E"/>
</svg>
