<svg width="24" height="25" viewBox="0 0 24 25" fill="none" xmlns="http://www.w3.org/2000/svg">
<path d="M12 2.5C6.486 2.5 2 6.986 2 12.5C2 18.014 6.486 22.5 12 22.5C17.514 22.5 22 18.014 22 12.5C22 6.986 17.514 2.5 12 2.5ZM12 20.5C7.589 20.5 4 16.911 4 12.5C4 8.089 7.589 4.5 12 4.5C16.411 4.5 20 8.089 20 12.5C20 16.911 16.411 20.5 12 20.5Z" fill="#591A0E"/>
<path d="M8.5 12.5C9.32843 12.5 10 11.8284 10 11C10 10.1716 9.32843 9.5 8.5 9.5C7.67157 9.5 7 10.1716 7 11C7 11.8284 7.67157 12.5 8.5 12.5Z" fill="#591A0E"/>
<path d="M15.493 12.486C16.3176 12.486 16.986 11.8176 16.986 10.993C16.986 10.1684 16.3176 9.5 15.493 9.5C14.6684 9.5 14 10.1684 14 10.993C14 11.8176 14.6684 12.486 15.493 12.486Z" fill="#591A0E"/>
<path d="M12 18.5C16 18.5 17 14.5 17 14.5H7C7 14.5 8 18.5 12 18.5Z" fill="#591A0E"/>
</svg>
