<svg width="25" height="25" viewBox="0 0 25 25" fill="none" xmlns="http://www.w3.org/2000/svg">
<path d="M12.4999 18.1499L8.7499 21.8999C8.36657 22.2832 7.8999 22.4749 7.3499 22.4749C6.7999 22.4749 6.33324 22.2832 5.9499 21.8999L3.0999 19.0499C2.71657 18.6666 2.5249 18.1999 2.5249 17.6499C2.5249 17.0999 2.71657 16.6332 3.0999 16.2499L6.8499 12.4999L3.0999 8.7499C2.71657 8.36657 2.5249 7.8999 2.5249 7.3499C2.5249 6.7999 2.71657 6.33324 3.0999 5.9499L5.9499 3.0999C6.33324 2.71657 6.7999 2.5249 7.3499 2.5249C7.8999 2.5249 8.36657 2.71657 8.7499 3.0999L12.4999 6.8499L16.2499 3.0999C16.6332 2.71657 17.0999 2.5249 17.6499 2.5249C18.1999 2.5249 18.6666 2.71657 19.0499 3.0999L21.8999 5.9499C22.2832 6.33324 22.4749 6.7999 22.4749 7.3499C22.4749 7.8999 22.2832 8.36657 21.8999 8.7499L18.1499 12.4999L21.8999 16.2499C22.2832 16.6332 22.4749 17.0999 22.4749 17.6499C22.4749 18.1999 22.2832 18.6666 21.8999 19.0499L19.0499 21.8999C18.6666 22.2832 18.1999 22.4749 17.6499 22.4749C17.0999 22.4749 16.6332 22.2832 16.2499 21.8999L12.4999 18.1499ZM12.4999 11.4999C12.7832 11.4999 13.0209 11.4042 13.2129 11.2129C13.4049 11.0216 13.5006 10.7839 13.4999 10.4999C13.4992 10.2159 13.4032 9.97857 13.2119 9.7879C13.0206 9.59724 12.7832 9.50124 12.4999 9.4999C12.2166 9.49857 11.9792 9.59457 11.7879 9.7879C11.5966 9.98124 11.5006 10.2186 11.4999 10.4999C11.4992 10.7812 11.5952 11.0189 11.7879 11.2129C11.9806 11.4069 12.2179 11.5026 12.4999 11.4999ZM8.2499 11.0999L11.0999 8.2499L7.3499 4.4999L4.4999 7.3499L8.2499 11.0999ZM10.4999 13.4999C10.7832 13.4999 11.0209 13.4039 11.2129 13.2119C11.4049 13.0199 11.5006 12.7826 11.4999 12.4999C11.4992 12.2172 11.4032 11.9799 11.2119 11.7879C11.0206 11.5959 10.7832 11.4999 10.4999 11.4999C10.2166 11.4999 9.97924 11.5959 9.7879 11.7879C9.59657 11.9799 9.50057 12.2172 9.4999 12.4999C9.49924 12.7826 9.59524 13.0202 9.7879 13.2129C9.98057 13.4056 10.2179 13.5012 10.4999 13.4999ZM12.4999 15.4999C12.7832 15.4999 13.0209 15.4039 13.2129 15.2119C13.4049 15.0199 13.5006 14.7826 13.4999 14.4999C13.4992 14.2172 13.4032 13.9799 13.2119 13.7879C13.0206 13.5959 12.7832 13.4999 12.4999 13.4999C12.2166 13.4999 11.9792 13.5959 11.7879 13.7879C11.5966 13.9799 11.5006 14.2172 11.4999 14.4999C11.4992 14.7826 11.5952 15.0202 11.7879 15.2129C11.9806 15.4056 12.2179 15.5012 12.4999 15.4999ZM14.4999 13.4999C14.7832 13.4999 15.0209 13.4039 15.2129 13.2119C15.4049 13.0199 15.5006 12.7826 15.4999 12.4999C15.4992 12.2172 15.4032 11.9799 15.2119 11.7879C15.0206 11.5959 14.7832 11.4999 14.4999 11.4999C14.2166 11.4999 13.9792 11.5959 13.7879 11.7879C13.5966 11.9799 13.5006 12.2172 13.4999 12.4999C13.4992 12.7826 13.5952 13.0202 13.7879 13.2129C13.9806 13.4056 14.2179 13.5012 14.4999 13.4999ZM13.8999 16.7499L17.6499 20.4999L20.4999 17.6499L16.7499 13.8999L13.8999 16.7499Z" fill="#591A0E"/>
</svg>
