<?xml version="1.0" encoding="UTF-8"?>
<svg version="1.1" xmlns="http://www.w3.org/2000/svg" width="500" height="500">
<path d="M0 0 C3.17482109 10.18384918 -0.88702685 20.72683913 -5 30 C-5.66 30 -6.32 30 -7 30 C-7 30.99 -7 31.98 -7 33 C-7.66 33 -8.32 33 -9 33 C-9.33 33.99 -9.66 34.98 -10 36 C-10.99 36.495 -10.99 36.495 -12 37 C-12.62619718 39.107109 -13.17511617 41.2373625 -13.6875 43.375 C-17.358121 56.60537021 -24.26601722 64.39802854 -35.6796875 71.71875 C-38 73 -38 73 -40 73 C-40.2475 73.53625 -40.495 74.0725 -40.75 74.625 C-41.1625 75.40875 -41.575 76.1925 -42 77 C-42.474375 77.9075 -42.94875 78.815 -43.4375 79.75 C-49.14340465 88.02669686 -58.86424223 92.13278476 -67.93359375 95.578125 C-71.03663466 97.01698728 -72.68896958 98.5363047 -75 101 C-75.66 101 -76.32 101 -77 101 C-77 101.66 -77 102.32 -77 103 C-77.99 103 -78.98 103 -80 103 C-80 103.66 -80 104.32 -80 105 C-80.99 105 -81.98 105 -83 105 C-83 105.66 -83 106.32 -83 107 C-89.33747307 111.42929231 -97.21371485 113.55061419 -104.75 114.9375 C-108.81561644 115.75652618 -111.7770621 117.44418526 -115.17578125 119.78125 C-118.65440199 122.10529641 -121.61838058 123.23025684 -125.75 123.875 C-129.16970316 124.50310874 -131.85090252 125.29182778 -134.875 127 C-139.15377908 129.35680718 -143.43601004 129.82425456 -148.2265625 130.5 C-151.53443758 131.09634931 -154.09766832 132.33115928 -157 134 C-159.82921834 135.03738006 -161.52780801 134.96359945 -164.625 134.75 C-169.27058148 134.66428816 -172.27539432 136.56087089 -176.26171875 138.76171875 C-180.2716666 140.57506179 -184.28461292 141.03936277 -188.62890625 141.54296875 C-189.41136719 141.69378906 -190.19382812 141.84460938 -191 142 C-191.33 142.66 -191.66 143.32 -192 144 C-194.64860427 144.59355614 -197.29197322 144.74209269 -200 145 C-200.13986328 145.55236328 -200.27972656 146.10472656 -200.42382812 146.67382812 C-203.68392562 159.32636084 -207.75157828 170.54242177 -214 182 C-215.00874095 183.9956056 -216.01010796 185.99497787 -217 188 C-217.66666667 189.33333333 -218.33333333 190.66666667 -219 192 C-220.32 191.67 -221.64 191.34 -223 191 C-223.29083455 186.43289197 -223.57532292 181.86544338 -223.85449219 177.29760742 C-223.949848 175.75095537 -224.04679526 174.20440043 -224.14550781 172.65795898 C-226.12455268 141.58897407 -226.05465974 106.84751351 -208 80 C-206.63354915 77.68413201 -205.31837469 75.34377723 -204 73 C-203.34 73 -202.68 73 -202 73 C-201.90332031 72.42121094 -201.80664062 71.84242188 -201.70703125 71.24609375 C-200.85209809 68.53014587 -199.61447857 67.14627768 -197.6875 65.0625 C-195.70993426 62.89278213 -193.83475266 60.78144707 -192.0625 58.4375 C-189.0504523 54.87780726 -185.58638645 51.96758507 -182 49 C-181.43925781 48.52820313 -180.87851562 48.05640625 -180.30078125 47.5703125 C-171.48138276 40.55443146 -161.10470709 34.93256274 -151 30 C-150.18144531 29.56300781 -149.36289062 29.12601563 -148.51953125 28.67578125 C-125.28318178 16.9737813 -97.60285403 11.93940585 -71.87890625 9.45703125 C-68.7774702 9.09160525 -65.78338047 8.61186176 -62.71875 8.03515625 C-57.14571606 6.99250883 -51.56733742 6.2801205 -45.9375 5.625 C-35.79816723 4.41136843 -25.71832875 2.92882226 -15.64233398 1.27001953 C-10.35577435 0.42062324 -5.35539316 -0.22029277 0 0 Z M-20.49609375 12.171875 C-21.77446358 12.35537003 -21.77446358 12.35537003 -23.07865906 12.54257202 C-25.86523608 12.94301685 -28.65137403 13.34642981 -31.4375 13.75 C-33.36113982 14.02735823 -35.28480533 14.30453832 -37.20849609 14.58154297 C-40.09814111 14.99768038 -42.98776056 15.41398733 -45.8772583 15.83114624 C-51.30601746 16.61449068 -56.73593108 17.38815995 -62.16796875 18.1484375 C-73.18942701 19.69189274 -84.19998071 21.29195911 -95.1875 23.0625 C-96.14994629 23.21283691 -97.11239258 23.36317383 -98.10400391 23.51806641 C-103.27669386 24.37268475 -108.10286922 25.56089493 -113.0456543 27.31079102 C-115.43732193 28.15422358 -117.85693017 28.80696293 -120.3125 29.4375 C-130.26219495 32.13220905 -139.33923075 35.44071917 -148.51171875 40.1953125 C-152.87885046 42.45467964 -157.32032505 44.54826383 -161.76953125 46.640625 C-164.31238191 47.86128213 -164.31238191 47.86128213 -165 51 C-166.64570295 51.71685705 -168.31624835 52.37774395 -170 53 C-177.98073706 58.1648921 -189.08047758 66.75762616 -192 76 C-192.66 76 -193.32 76 -194 76 C-196.57491979 79.50721834 -198.74220901 83.28278104 -201 87 C-201.70125 88.0725 -202.4025 89.145 -203.125 90.25 C-206.0345309 95.45980105 -207.62682311 101.35836682 -209.38867188 107.03466797 C-209.96999333 108.90353286 -210.57042666 110.76642122 -211.171875 112.62890625 C-215.86720225 127.8546957 -215.13138756 143.22742855 -215 159 C-211.16164992 153.24247488 -210.1165157 146.13749008 -209.0625 139.375 C-207.39857564 128.72588413 -204.87071036 118.12653058 -201.515625 107.8828125 C-200.86793342 105.84311362 -200.86793342 105.84311362 -201 103 C-200.01 103 -199.02 103 -198 103 C-198.144375 103.87140625 -198.28875 104.7428125 -198.4375 105.640625 C-200.77304235 119.2565224 -200.77304235 119.2565224 -198.75 132.6875 C-196.77842302 135.29279816 -196.07037167 135.42271938 -193 136 C-192.74473375 128.22856097 -193.17679563 120.7736819 -194.0625 113.0625 C-194.99193158 104.84993064 -195.00850038 97.23154362 -194 89 C-193.34 89.33 -192.68 89.66 -192 90 C-191.98541748 90.67466309 -191.97083496 91.34932617 -191.95581055 92.04443359 C-191.88050417 95.15514582 -191.78412156 98.26487969 -191.6875 101.375 C-191.66494141 102.43589844 -191.64238281 103.49679687 -191.61914062 104.58984375 C-191.34525763 112.70673965 -190.62669923 120.95526778 -185.5625 127.625 C-183.09335584 130.45317644 -183.09335584 130.45317644 -179 130 C-179.40053086 126.66224283 -179.81364694 123.54146361 -180.91015625 120.35546875 C-182.29178516 116.10163638 -183.18865959 111.81996718 -184.0625 107.4375 C-184.2387793 106.55868164 -184.41505859 105.67986328 -184.59667969 104.77441406 C-185.9366344 97.85173686 -186.74254209 91.05434665 -187 84 C-186.01 83.505 -186.01 83.505 -185 83 C-185 83.66 -185 84.32 -185 85 C-184.34 85 -183.68 85 -183 85 C-183.33 85.99 -183.66 86.98 -184 88 C-183.49816253 90.8972361 -182.92502587 93.70581835 -182.25 96.5625 C-182.06244141 97.37299805 -181.87488281 98.18349609 -181.68164062 99.01855469 C-179.14938493 111.30517019 -179.14938493 111.30517019 -173 122 C-169.54413165 123.9494642 -166.89891533 124.06509041 -163 124 C-163.50789063 123.030625 -164.01578125 122.06125 -164.5390625 121.0625 C-179.67072214 91.76197037 -179.67072214 91.76197037 -179 76 C-175.69492135 83.08874987 -173.09558547 90.29452891 -170.64453125 97.71484375 C-168.89441255 102.87017077 -166.86376827 107.36521713 -164 112 C-163.34 112 -162.68 112 -162 112 C-161.773125 112.598125 -161.54625 113.19625 -161.3125 113.8125 C-159.53956902 116.76738497 -158.18425322 117.64499863 -155 119 C-151.98150076 119.23803601 -149.02053633 119.17767861 -146 119 C-147.45729599 115.5996427 -149.37737153 113.57369884 -152 111 C-153.20279108 109.40155396 -154.36909749 107.77508958 -155.5 106.125 C-156.0671875 105.30257812 -156.634375 104.48015625 -157.21875 103.6328125 C-157.8065625 102.76398438 -158.394375 101.89515625 -159 101 C-159.63421875 100.07703125 -160.2684375 99.1540625 -160.921875 98.203125 C-163.36951321 94.43044957 -165.568073 90.55531151 -167.75 86.625 C-168.16121094 85.88894531 -168.57242188 85.15289062 -168.99609375 84.39453125 C-169.99958792 82.59757657 -171.00010351 80.79895906 -172 79 C-172.66 79 -173.32 79 -174 79 C-174.33 77.02 -174.66 75.04 -175 73 C-174.01 72.67 -173.02 72.34 -172 72 C-172 72.66 -172 73.32 -172 74 C-171.34 74 -170.68 74 -170 74 C-169.91363281 74.54914063 -169.82726562 75.09828125 -169.73828125 75.6640625 C-168.76759058 78.73534831 -167.12556415 80.80769424 -165.1875 83.375 C-161.71367722 88.03984774 -158.36335241 92.65503386 -155.4375 97.6875 C-154.11463942 99.81558007 -152.92708656 101.40805893 -151 103 C-150.34 103 -149.68 103 -149 103 C-149 103.66 -149 104.32 -149 105 C-148.34 105 -147.68 105 -147 105 C-146.34 106.32 -145.68 107.64 -145 109 C-144.01 109 -143.02 109 -142 109 C-142 109.66 -142 110.32 -142 111 C-135.77365347 113.60535067 -130.63682217 114.68775784 -124 113 C-122.64807016 112.37190134 -121.30835222 111.71444852 -120 111 C-121.39356046 108.21287908 -123.16505673 107.73536671 -125.9375 106.375 C-126.83339844 105.92898438 -127.72929687 105.48296875 -128.65234375 105.0234375 C-130.87872093 103.86679391 -130.87872093 103.86679391 -133 104 C-133.33 103.01 -133.66 102.02 -134 101 C-135.34892899 100.10071401 -136.70257027 99.20798675 -138.07421875 98.34375 C-146.56592934 92.41849961 -155.58846249 84.0931118 -161.66015625 75.70703125 C-162.10230469 75.14371094 -162.54445313 74.58039063 -163 74 C-163.66 74 -164.32 74 -165 74 C-165 73.34 -165 72.68 -165 72 C-165.474375 71.525625 -165.94875 71.05125 -166.4375 70.5625 C-168 69 -168 69 -169 66 C-167.68 66.33 -166.36 66.66 -165 67 C-165 67.66 -165 68.32 -165 69 C-163.68 69.33 -162.36 69.66 -161 70 C-161 70.66 -161 71.32 -161 72 C-160.34 72 -159.68 72 -159 72 C-159 72.66 -159 73.32 -159 74 C-156.58024554 76.5821022 -153.7255155 78.75067542 -151 81 C-150.42636719 81.4738916 -149.85273438 81.9477832 -149.26171875 82.43603516 C-147.32677563 84.02795653 -145.38366432 85.60932106 -143.4375 87.1875 C-142.81286865 87.69845215 -142.1882373 88.2094043 -141.54467773 88.73583984 C-137.53906584 91.95273031 -133.52196924 94.55898382 -129 97 C-127.75283203 97.69996094 -127.75283203 97.69996094 -126.48046875 98.4140625 C-120.73953769 101.44590003 -115.44102663 103.18662804 -109 104 C-107.906875 104.144375 -106.81375 104.28875 -105.6875 104.4375 C-99.80226836 103.73925218 -94.29924203 101.6310922 -89 99 C-88.01 97.515 -88.01 97.515 -87 96 C-87.53625 95.91363281 -88.0725 95.82726562 -88.625 95.73828125 C-106.5510229 92.52456991 -124.50531772 85.79915836 -139.6171875 75.5859375 C-141.91778152 74.05472247 -144.24924013 72.73515017 -146.6875 71.4375 C-150.55505334 69.35069064 -153.94623543 66.88352431 -157.37109375 64.13671875 C-158.94230094 62.80924204 -158.94230094 62.80924204 -161 63 C-161 62.01 -161 61.02 -161 60 C-157.3162303 61.36239957 -154.1458569 63.05668331 -150.8125 65.125 C-143.48820578 69.46163403 -135.80020883 72.82621965 -127.9765625 76.15576172 C-126.37380399 76.84033916 -124.77930307 77.54422738 -123.1875 78.25390625 C-115.74082062 81.46151308 -107.88097785 83.21353962 -100 85 C-98.99324219 85.22945313 -97.98648438 85.45890625 -96.94921875 85.6953125 C-84.13770267 88.32806979 -71.35064959 87.97220195 -60 81 C-57.80481776 79.44137381 -55.96354698 77.86536963 -54 76 C-54 75.34 -54 74.68 -54 74 C-54.62527588 73.96036133 -55.25055176 73.92072266 -55.89477539 73.87988281 C-81.13817433 72.22906348 -106.65654467 70.24250225 -131 63 C-131.75925781 62.77634766 -132.51851563 62.55269531 -133.30078125 62.32226562 C-139.61946823 60.44388253 -145.90677778 58.53209804 -152 56 C-152 55.34 -152 54.68 -152 54 C-151.36964844 54.13535156 -150.73929687 54.27070313 -150.08984375 54.41015625 C-147.58324135 54.88866063 -145.08880974 55.30352 -142.56640625 55.68359375 C-141.75236328 55.80669922 -140.93832031 55.92980469 -140.09960938 56.05664062 C-138.41259363 56.30988779 -136.72508986 56.55990566 -135.03710938 56.80664062 C-131.61426046 57.32886184 -128.41834414 57.85808217 -125.1328125 58.97265625 C-120.29429372 60.55935256 -115.33751694 61.23071233 -110.3125 62 C-109.18070312 62.17370117 -108.04890625 62.34740234 -106.8828125 62.52636719 C-71.42408965 68.67955533 -71.42408965 68.67955533 -37.25 60.625 C-32.11503159 56.78523568 -28.38430461 52.38981845 -25 47 C-25.33 46.34 -25.66 45.68 -26 45 C-26.82771912 45.06597885 -27.65543823 45.1319577 -28.50823975 45.19993591 C-37.59213861 45.89064839 -46.65902975 46.28113746 -55.765625 46.53515625 C-57.25275098 46.57841666 -58.73987247 46.62183161 -60.22698975 46.66539001 C-63.32965884 46.75555491 -66.43238041 46.84352086 -69.53515625 46.92993164 C-72.656998 47.01704867 -75.77872619 47.10718554 -78.90039062 47.20043945 C-94.30216612 47.66043806 -109.69975688 48.08252972 -125.109375 48.12109375 C-126.19510803 48.12593277 -127.28084106 48.13077179 -128.3994751 48.13575745 C-129.38107605 48.13406052 -130.362677 48.13236359 -131.37402344 48.13061523 C-132.22526794 48.1298851 -133.07651245 48.12915497 -133.95355225 48.12840271 C-136 48 -136 48 -138 47 C-125.66158847 45.10363404 -113.32746459 44.25564103 -100.875 43.5 C-55.42189081 43.69448485 -55.42189081 43.69448485 -15.84375 27.1484375 C-11.68254689 22.29957795 -9.63759389 17.37593887 -9 11 C-12.89158913 11 -16.65405614 11.61258999 -20.49609375 12.171875 Z " fill="#161416" transform="translate(482,163)"/>
<path d="M0 0 C2.0078125 0.1328125 2.0078125 0.1328125 5.0078125 1.1328125 C8.41299466 1.56527427 11.8185625 1.94027524 15.23242188 2.29492188 C19.11637145 2.72184395 22.9005037 3.28849044 26.72265625 4.10546875 C32.93496507 5.39662628 39.20060072 5.99437393 45.5078125 6.6328125 C52.70493399 7.36133092 59.77089286 8.17876413 66.84863281 9.69091797 C69.76018192 10.28679132 72.68010863 10.61843166 75.6328125 10.9453125 C105.89191436 14.86552003 134.03936789 23.97061254 161.0078125 38.1328125 C161.0078125 38.7928125 161.0078125 39.4528125 161.0078125 40.1328125 C162.4 40.5659375 162.4 40.5659375 163.8203125 41.0078125 C167.0078125 42.1328125 167.0078125 42.1328125 170.0078125 44.1328125 C170.0078125 44.7928125 170.0078125 45.4528125 170.0078125 46.1328125 C170.5646875 46.1946875 171.1215625 46.2565625 171.6953125 46.3203125 C174.97270859 47.47183005 176.6273893 49.6362711 179.0078125 52.1328125 C180.214375 53.0609375 180.214375 53.0609375 181.4453125 54.0078125 C184.74020676 56.74016384 187.30722102 59.82506227 190.0078125 63.1328125 C190.97267578 64.28330078 190.97267578 64.28330078 191.95703125 65.45703125 C208.86487753 85.97188474 218.19905765 112.76283668 218.140625 139.31640625 C218.14158173 140.28957291 218.14253845 141.26273956 218.14352417 142.26539612 C218.14420259 144.32203232 218.14237193 146.37867069 218.13818359 148.43530273 C218.13288296 151.52918527 218.13811293 154.62291913 218.14453125 157.71679688 C218.15641761 188.83560228 218.15641761 188.83560228 216.0078125 193.1328125 C215.0178125 192.8028125 214.0278125 192.4728125 213.0078125 192.1328125 C211.8203125 188.5703125 211.8203125 188.5703125 211.0078125 185.1328125 C210.3478125 185.1328125 209.6878125 185.1328125 209.0078125 185.1328125 C208.67910156 184.38451172 208.67910156 184.38451172 208.34375 183.62109375 C208.02664062 182.90308594 207.70953125 182.18507813 207.3828125 181.4453125 C207.01800781 180.61515625 206.65320313 179.785 206.27734375 178.9296875 C205.41410179 177.02789906 204.51401005 175.14250183 203.58203125 173.2734375 C199.11510076 164.17798213 196.49236376 154.92810086 194.0078125 145.1328125 C192.94304687 144.99617187 191.87828125 144.85953125 190.78125 144.71875 C187.85529171 144.26440865 185.3953596 143.74216836 182.6328125 142.7578125 C181.87613281 142.49226562 181.11945313 142.22671875 180.33984375 141.953125 C179.57027344 141.68242187 178.80070313 141.41171875 178.0078125 141.1328125 C176.44561259 140.63187567 174.88311718 140.13185937 173.3203125 139.6328125 C170.61773293 138.75062331 168.51323658 137.85461355 166.0078125 136.4453125 C163.00100627 135.12983478 161.85073834 135.0427185 158.6953125 135.1953125 C154.20098658 135.36730833 151.49099311 134.12744347 147.53125 132.140625 C144.48270593 130.92309502 141.63643987 130.54230794 138.3828125 130.1328125 C133.73641923 129.52582702 130.71232462 128.72540505 126.87109375 126.1328125 C124.37343989 124.79235257 121.89659023 124.3071677 119.1328125 123.6953125 C112.18308178 122.10829746 106.88194672 119.04890198 101.0078125 115.1328125 C97.7096722 114.24443665 94.40811179 113.46693483 91.07617188 112.72070312 C84.2233432 111.11166664 78.97674215 108.29093992 73.3203125 104.0703125 C70.57595145 102.03196965 67.85267664 100.02938859 65.0078125 98.1328125 C65.0078125 97.4728125 65.0078125 96.8128125 65.0078125 96.1328125 C63.8940625 95.9059375 62.7803125 95.6790625 61.6328125 95.4453125 C56.36598911 94.15220353 51.7623314 91.68544355 47.0078125 89.1328125 C47.0078125 88.4728125 47.0078125 87.8128125 47.0078125 87.1328125 C46.0178125 87.1328125 45.0278125 87.1328125 44.0078125 87.1328125 C42.359375 85.59375 42.359375 85.59375 40.6328125 83.5078125 C40.02566406 82.78078125 39.41851562 82.05375 38.79296875 81.3046875 C37.90931641 80.22960937 37.90931641 80.22960937 37.0078125 79.1328125 C36.49089844 78.53984375 35.97398438 77.946875 35.44140625 77.3359375 C32.0078125 73.38388088 32.0078125 73.38388088 32.0078125 71.1328125 C31.28464844 71.04 30.56148437 70.9471875 29.81640625 70.8515625 C22.27049271 68.92048031 16.20144519 62.01889907 12.25390625 55.56640625 C9.64577004 50.47277345 7.52186956 45.10052005 6.54296875 39.44921875 C5.75396731 36.03405192 3.49277085 34.56129453 1.0078125 32.1328125 C-4.37021164 24.88550362 -6.22829318 17.67079846 -6.6796875 8.7578125 C-6.72673828 8.03464844 -6.77378906 7.31148437 -6.82226562 6.56640625 C-6.92578959 4.75728247 -6.96473484 2.94468788 -6.9921875 1.1328125 C-5.11159717 -0.74777783 -2.49328712 0.00920032 0 0 Z M3.0078125 11.1328125 C3.99775921 19.8026616 7.54111294 26.02098937 14.38671875 31.53515625 C28.44374813 40.10344986 47.09388147 39.88612931 63.0078125 41.1328125 C64.01680603 41.21186829 65.02579956 41.29092407 66.06536865 41.37237549 C88.03662876 43.08392027 110.01578344 44.7103068 132.0078125 46.1328125 C132.0078125 46.7928125 132.0078125 47.4528125 132.0078125 48.1328125 C123.06916351 48.02368496 114.13057154 47.91078019 105.19202614 47.79347324 C101.03835601 47.73907138 96.8846788 47.68581595 92.73095703 47.63549805 C74.87984608 47.41844265 57.05164345 47.12712871 39.21484375 46.33789062 C32.81105219 46.06245363 26.41696171 46.02793551 20.0078125 46.1328125 C20.7679467 50.91195411 22.49570267 53.83106341 26.0078125 57.1328125 C42.08241459 68.06354192 60.68740775 66.98297208 79.1953125 64.8828125 C80.39929688 64.74931396 81.60328125 64.61581543 82.84375 64.47827148 C102.63129906 62.21547117 122.81561947 59.61833621 142.12353516 54.58081055 C144.0078125 54.1328125 144.0078125 54.1328125 146.0078125 54.1328125 C146.0078125 54.7928125 146.0078125 55.4528125 146.0078125 56.1328125 C125.71052271 64.64065852 104.43894822 68.32916528 82.71337891 70.8125 C79.1353395 71.23610474 75.57422101 71.74563557 72.0078125 72.2578125 C64.36350659 73.29903464 56.70793156 73.74831247 49.0078125 74.1328125 C49.0078125 75.1228125 49.0078125 76.1128125 49.0078125 77.1328125 C56.42990366 84.49763444 67.41660315 87.32799789 77.6953125 87.7578125 C98.43310638 86.90751571 119.08557584 78.59910533 137.23779297 69.05810547 C139.80987039 67.71352982 142.40832946 66.42341378 145.0078125 65.1328125 C145.7915625 64.7409375 146.5753125 64.3490625 147.3828125 63.9453125 C148.1871875 63.543125 148.1871875 63.543125 149.0078125 63.1328125 C149.0078125 62.4728125 149.0078125 61.8128125 149.0078125 61.1328125 C151.9778125 60.6378125 151.9778125 60.6378125 155.0078125 60.1328125 C153.64582969 64.21876094 151.68637628 64.78671084 148.0078125 66.9453125 C144.0749366 69.27943659 140.19735489 71.63898365 136.4453125 74.2578125 C132.11022285 77.19862193 127.52153727 79.47344466 122.8046875 81.73828125 C120.01471386 83.08024465 120.01471386 83.08024465 117.5 84.66015625 C107.0883532 90.81249299 94.62474638 93.25004644 83.0078125 96.1328125 C83.0078125 97.1228125 83.0078125 98.1128125 83.0078125 99.1328125 C95.86073822 104.77359495 103.42469324 105.68481369 116.6015625 100.62890625 C121.3673141 98.53569196 125.68141187 96.01174823 130.0078125 93.1328125 C131.1009375 92.4521875 132.1940625 91.7715625 133.3203125 91.0703125 C136.05950214 89.20451104 136.05950214 89.20451104 138.3203125 86.8203125 C140.65039548 84.49022952 142.94788184 82.60820553 145.5703125 80.6328125 C148.93757154 78.06701677 151.44487496 75.51955139 154.0078125 72.1328125 C155.66315245 70.78544277 157.32794023 69.44946914 159.0078125 68.1328125 C159.3378125 67.4728125 159.6678125 66.8128125 160.0078125 66.1328125 C160.9978125 66.1328125 161.9878125 66.1328125 163.0078125 66.1328125 C162.0178125 69.1028125 162.0178125 69.1028125 161.0078125 72.1328125 C160.3478125 72.1328125 159.6878125 72.1328125 159.0078125 72.1328125 C159.0078125 72.7928125 159.0078125 73.4528125 159.0078125 74.1328125 C158.12029297 74.51373047 158.12029297 74.51373047 157.21484375 74.90234375 C154.7647152 76.26834462 153.4718543 77.66217461 151.6953125 79.8203125 C142.93107199 90.17118275 142.93107199 90.17118275 139.0078125 92.1328125 C139.0078125 92.7928125 139.0078125 93.4528125 139.0078125 94.1328125 C138.3478125 94.1328125 137.6878125 94.1328125 137.0078125 94.1328125 C137.0078125 94.7928125 137.0078125 95.4528125 137.0078125 96.1328125 C136.4096875 96.2359375 135.8115625 96.3390625 135.1953125 96.4453125 C132.63385084 97.25034331 131.81673648 98.1791746 130.0078125 100.1328125 C125.26303069 104.43277101 119.63812342 107.17468067 114.0078125 110.1328125 C114.3378125 110.7928125 114.6678125 111.4528125 115.0078125 112.1328125 C121.22535519 114.20532673 126.83787764 115.04264267 132.9609375 112.23828125 C135.73854895 110.6802513 138.35897485 108.89870427 141.0078125 107.1328125 C141.0078125 106.4728125 141.0078125 105.8128125 141.0078125 105.1328125 C141.9978125 104.8028125 142.9878125 104.4728125 144.0078125 104.1328125 C145.74300468 102.08186749 147.35603403 100.04120852 148.9453125 97.8828125 C149.80817972 96.73146043 150.67145566 95.58041454 151.53515625 94.4296875 C151.94975098 93.87112061 152.3643457 93.31255371 152.79150391 92.73706055 C153.91416754 91.25632535 155.09356736 89.8190678 156.27734375 88.38671875 C158.17253411 85.91826539 158.6579939 84.19372527 159.0078125 81.1328125 C159.9978125 80.8028125 160.9878125 80.4728125 162.0078125 80.1328125 C164.97983262 76.50321174 164.97983262 76.50321174 166.0078125 72.1328125 C166.9978125 72.1328125 167.9878125 72.1328125 169.0078125 72.1328125 C168.74226562 72.71289062 168.47671875 73.29296875 168.203125 73.890625 C166.23219916 78.24967995 164.41731998 82.55191318 163.0078125 87.1328125 C162.3478125 87.1328125 161.6878125 87.1328125 161.0078125 87.1328125 C160.4921875 88.2465625 159.9765625 89.3603125 159.4453125 90.5078125 C155.16260558 99.02845938 149.07392424 106.4572041 143.20849609 113.93041992 C140.98652202 116.2763356 140.98652202 116.2763356 140.0078125 119.1328125 C145.96220347 119.5506645 150.32932492 119.19459036 155.0078125 115.1328125 C164.6331165 104.70539983 168.13568443 89.43471129 172.0078125 76.1328125 C172.6678125 76.4628125 173.3278125 76.7928125 174.0078125 77.1328125 C171.54694639 93.5601731 165.6272383 107.46069506 158.0078125 122.1328125 C157.6778125 122.7928125 157.3478125 123.4528125 157.0078125 124.1328125 C161.67267257 124.45826785 164.34432012 124.12145102 168.0078125 121.1328125 C171.04432194 116.38716525 172.76304078 112.2243362 174.0703125 106.6953125 C174.23241211 106.01662109 174.39451172 105.33792969 174.56152344 104.63867188 C176.30267387 97.18832681 177.68532455 89.66698627 179.0078125 82.1328125 C179.6678125 82.1328125 180.3278125 82.1328125 181.0078125 82.1328125 C180.72663883 85.46711634 180.43094256 88.79998542 180.1328125 92.1328125 C180.05417969 93.06738281 179.97554687 94.00195312 179.89453125 94.96484375 C179.38578787 100.56102091 178.50085081 105.71700051 177.0078125 111.1328125 C176.4801222 113.33951738 175.95883854 115.5477685 175.4453125 117.7578125 C175.19652344 118.82257813 174.94773438 119.88734375 174.69140625 120.984375 C174.03152262 124.02361045 173.49207838 127.06118322 173.0078125 130.1328125 C176.37725122 129.53112701 178.49857124 128.47477101 181.0078125 126.1328125 C182.22078899 123.8521418 182.22078899 123.8521418 183.0078125 121.1328125 C183.34296875 120.17761719 183.678125 119.22242188 184.0234375 118.23828125 C185.55790739 112.8428871 185.4741078 107.26650872 185.6328125 101.6953125 C185.69082031 100.0256543 185.69082031 100.0256543 185.75 98.32226562 C185.84372216 95.59260774 185.92943544 92.86294687 186.0078125 90.1328125 C186.6678125 89.8028125 187.3278125 89.4728125 188.0078125 89.1328125 C188.89425512 95.66867298 189.02895639 101.80682387 188.6328125 108.3828125 C188.56707031 109.68992187 188.56707031 109.68992187 188.5 111.0234375 C188.27247506 115.16944758 187.82497534 119.06073211 187.0078125 123.1328125 C186.94128395 125.40276669 186.92237499 127.67449945 186.9453125 129.9453125 C186.95433594 131.10675781 186.96335938 132.26820313 186.97265625 133.46484375 C186.98425781 134.34527344 186.99585938 135.22570312 187.0078125 136.1328125 C189.54123232 135.78337528 190.82085323 135.30120245 192.73828125 133.57421875 C194.5345854 130.11978769 194.41042459 126.86795283 194.3203125 123.0703125 C194.31193359 122.3182251 194.30355469 121.5661377 194.29492188 120.79125977 C194.16620697 114.77190737 193.42516016 108.99202648 192.0078125 103.1328125 C192.9978125 103.1328125 193.9878125 103.1328125 195.0078125 103.1328125 C194.9459375 103.7928125 194.8840625 104.4528125 194.8203125 105.1328125 C195.0228193 108.37292132 196.03004691 110.83266158 197.19018555 113.8359375 C198.62020027 117.85313025 199.5482432 121.98260815 200.5078125 126.1328125 C200.83036011 127.50288452 200.83036011 127.50288452 201.15942383 128.90063477 C202.76637511 135.82823257 204.13079149 142.77669606 205.33203125 149.78515625 C205.98557868 153.02267157 206.89353281 156.02705421 208.0078125 159.1328125 C208.3378125 159.1328125 208.6678125 159.1328125 209.0078125 159.1328125 C209.80461338 127.30572523 205.04729588 97.97319897 185.0078125 72.1328125 C183.38227967 70.42600303 181.71665255 68.75621055 180.0078125 67.1328125 C179.1828125 66.2871875 178.3578125 65.4415625 177.5078125 64.5703125 C175.1173547 62.23961614 172.62580253 60.19964674 170.0078125 58.1328125 C169.54761719 57.66230469 169.08742187 57.19179687 168.61328125 56.70703125 C149.70229262 38.16413972 119.99788388 29.38874585 94.76757812 24.65478516 C92.08607828 24.14761542 89.4143703 23.60473375 86.7421875 23.05078125 C76.12570882 20.88773988 65.5004298 19.32133553 54.73657227 18.08349609 C53.28915649 17.91648193 53.28915649 17.91648193 51.8125 17.74609375 C50.52835205 17.60361206 50.52835205 17.60361206 49.21826172 17.45825195 C47.0078125 17.1328125 47.0078125 17.1328125 44.0078125 16.1328125 C41.23697845 15.80891054 38.47196019 15.52080702 35.6953125 15.2578125 C24.75931125 14.17117798 13.8874455 12.67578163 3.0078125 11.1328125 Z " fill="#161416" transform="translate(23.9921875,162.8671875)"/>
<path d="M0 0 C2.78097507 3.27249625 4 5.61925993 4 10 C-1.34126059 18.01189089 -9.02268173 20.42658116 -18 23 C-20.33974129 23.44888076 -22.63056109 23.73672901 -25 24 C-25.33 24.33 -25.66 24.66 -26 25 C-36.78670645 26.77731289 -47.55066303 27.32330712 -58.46704102 27.26074219 C-60.69770129 27.24995065 -62.92756572 27.26076204 -65.15820312 27.2734375 C-74.22894066 27.28191378 -83.08118908 26.83991545 -92 25 C-92.495 24.505 -92.495 24.505 -93 24 C-94.58013217 23.74971189 -96.16442306 23.52559054 -97.75 23.3125 C-104.74080322 22.1274624 -110.71350275 19.17822914 -117 16 C-117 15.34 -117 14.68 -117 14 C-117.9590625 13.690625 -117.9590625 13.690625 -118.9375 13.375 C-121 12 -121 12 -122 9.25 C-122 6.00113445 -121.66178066 4.1196399 -119.68359375 1.51171875 C-94.77302058 -20.85577967 -25.87154674 -19.2636625 0 0 Z M-108 5 C-108 6.65 -108 8.3 -108 10 C-101.25286908 13.83660386 -94.57851194 15.47653473 -87 17 C-86.21066574 17.17367096 -85.42133148 17.34734192 -84.608078 17.52627563 C-82.09294688 17.98311738 -79.77272128 18.1520935 -77.2199707 18.19287109 C-75.83615959 18.21696548 -75.83615959 18.21696548 -74.4243927 18.24154663 C-70.17511187 18.28673863 -65.92598022 18.32714601 -61.67651367 18.35009766 C-59.45700501 18.36652772 -57.23754632 18.3936422 -55.01831055 18.43212891 C-31.40002978 18.98134619 -31.40002978 18.98134619 -10 10 C-9.58219121 7.37305578 -9.58219121 7.37305578 -10 5 C-17.24430131 0.71255637 -24.79554477 -0.67670077 -33 -2 C-34.89298828 -2.31130859 -34.89298828 -2.31130859 -36.82421875 -2.62890625 C-59.57458902 -5.91839356 -87.21912198 -6.05164876 -108 5 Z " fill="#1C1A1C" transform="translate(309,156)"/>
<path d="M0 0 C0.99 0.66 1.98 1.32 3 2 C0.76351495 16.92951865 -3.8975434 29.64361037 -11 43 C-12.24546405 40.50907189 -11.7767578 39.58919267 -11 37 C-12.98491642 37.26676204 -12.98491642 37.26676204 -15 38 C-15.33 38.99 -15.66 39.98 -16 41 C-17.8125 42.75 -17.8125 42.75 -20 44 C-22.25 43.6875 -22.25 43.6875 -24 43 C-22.989375 42.566875 -21.97875 42.13375 -20.9375 41.6875 C-8.67481229 34.57761844 -5.48044197 15.96428851 -1.796875 3.44921875 C-1 1 -1 1 0 0 Z " fill="#29252B" transform="translate(196,238)"/>
<path d="M0 0 C-0.50603992 2.16874252 -0.99983813 3.99967627 -2 6 C-2.66 6 -3.32 6 -4 6 C-4 6.66 -4 7.32 -4 8 C-6.375 10.625 -6.375 10.625 -9 13 C-9.66 13 -10.32 13 -11 13 C-11.2371875 13.56203125 -11.474375 14.1240625 -11.71875 14.703125 C-13.28947697 17.51894042 -15.21471464 19.47955416 -17.5 21.75 C-18.2940625 22.54921875 -19.088125 23.3484375 -19.90625 24.171875 C-22 26 -22 26 -24 26 C-24 26.66 -24 27.32 -24 28 C-24.66 28 -25.32 28 -26 28 C-26 28.66 -26 29.32 -26 30 C-26.639375 30.12375 -27.27875 30.2475 -27.9375 30.375 C-28.618125 30.58125 -29.29875 30.7875 -30 31 C-30.33 31.66 -30.66 32.32 -31 33 C-31.66 30.69 -32.32 28.38 -33 26 C-29.25 23 -29.25 23 -27 23 C-26.67 22.01 -26.34 21.02 -26 20 C-24.13392475 18.49740873 -22.20712038 17.06941793 -20.25 15.6875 C-15.80204124 12.47747181 -12.34890984 9.33388332 -9 5 C-3.86772487 0 -3.86772487 0 0 0 Z " fill="#232025" transform="translate(187,229)"/>
<path d="M0 0 C2.61856272 3.13521714 3.9354248 6.12152445 5.26171875 9.97265625 C5.65810547 11.11927734 6.05449219 12.26589844 6.46289062 13.44726562 C6.86701172 14.64029297 7.27113281 15.83332031 7.6875 17.0625 C8.10322266 18.25939453 8.51894531 19.45628906 8.94726562 20.68945312 C12 29.59702124 12 29.59702124 12 33 C11.34 33 10.68 33 10 33 C9.34 33.66 8.68 34.32 8 35 C7.03770486 32.64032946 6.08787044 30.27669484 5.15234375 27.90625 C4.41404216 26.04422836 3.6577812 24.18916801 2.87890625 22.34375 C0.06393057 15.33208897 -1.05788221 8.57099288 -1 1 C-0.67 0.67 -0.34 0.34 0 0 Z " fill="#211E23" transform="translate(303,238)"/>
<path d="M0 0 C1.36415039 0.26200195 1.36415039 0.26200195 2.75585938 0.52929688 C3.70912109 0.71943359 4.66238281 0.90957031 5.64453125 1.10546875 C6.57845703 1.28400391 7.51238281 1.46253906 8.47460938 1.64648438 C13.55451313 2.63672599 18.5073951 3.78000943 23.45703125 5.29296875 C22.46703125 5.95296875 21.47703125 6.61296875 20.45703125 7.29296875 C19.73320658 9.35222014 19.73320658 9.35222014 19.45703125 11.29296875 C15.78589503 10.3088809 12.12030666 9.30591991 8.45703125 8.29296875 C7.53921875 8.04160156 6.62140625 7.79023438 5.67578125 7.53125 C-2.8909952 5.09281514 -2.8909952 5.09281514 -6.54296875 2.29296875 C-6.54296875 1.63296875 -6.54296875 0.97296875 -6.54296875 0.29296875 C-3.95752107 -0.99975509 -2.81726539 -0.54683074 0 0 Z " fill="#1D1A1D" transform="translate(336.54296875,216.70703125)"/>
<path d="M0 0 C0.66 0 1.32 0 2 0 C3.7397583 6.62446429 4.1960302 12.31007342 3.75 19.125 C3.71003906 19.97964844 3.67007813 20.83429688 3.62890625 21.71484375 C3.3419193 26.76426276 2.58797071 31.19703942 1 36 C-1.39165187 33.51097708 -1.98302142 32.21068167 -2.26464844 28.71606445 C-2.2134082 27.444646 -2.16216797 26.17322754 -2.109375 24.86328125 C-2.08530579 24.18323532 -2.06123657 23.50318939 -2.03643799 22.80253601 C-1.98293631 21.37091378 -1.92197077 19.93955335 -1.85400391 18.50854492 C-1.74988529 16.31007779 -1.6678814 14.1116424 -1.58984375 11.91210938 C-1.16732514 1.16732514 -1.16732514 1.16732514 0 0 Z " fill="#1D1A20" transform="translate(210,252)"/>
<path d="M0 0 C0 0.66 0 1.32 0 2 C-3.63 2.33 -7.26 2.66 -11 3 C8.8 3.495 8.8 3.495 29 4 C29 4.33 29 4.66 29 5 C14.10779854 5.58388611 -0.78278172 6.1025123 -15.6875 6.1875 C-16.78433105 6.20039063 -17.88116211 6.21328125 -19.01123047 6.2265625 C-20.0220166 6.22785156 -21.03280273 6.22914063 -22.07421875 6.23046875 C-22.95682373 6.23457764 -23.83942871 6.23868652 -24.7487793 6.24291992 C-27 6 -27 6 -30 4 C-24.51200033 1.81215423 -19.14024192 1.36364915 -13.3125 0.875 C-11.8884082 0.74544922 -11.8884082 0.74544922 -10.43554688 0.61328125 C-6.94246094 0.30179588 -3.50849956 0 0 0 Z " fill="#4E4850" transform="translate(373,206)"/>
<path d="M0 0 C0.99 0.33 1.98 0.66 3 1 C3.19956481 4.47858216 3.38240361 7.9578599 3.5625 11.4375 C3.61857422 12.41138672 3.67464844 13.38527344 3.73242188 14.38867188 C4.0343548 20.40720159 3.83345928 26.02996204 3 32 C1 31 1 31 -0.0625 28.0625 C-2.51576128 18.36721141 -1.71020145 9.80892403 0 0 Z " fill="#201E24" transform="translate(288,252)"/>
<path d="M0 0 C-0.1015625 1.7421875 -0.1015625 1.7421875 -1 4 C-3.11515788 5.54412352 -5.11245694 6.84256719 -7.375 8.125 C-8.54960582 8.81488857 -9.72408899 9.50498601 -10.8984375 10.1953125 C-11.92195312 10.79085937 -12.94546875 11.38640625 -14 12 C-14.99 12.66 -15.98 13.32 -17 14 C-17.33 13.34 -17.66 12.68 -18 12 C-20.01669827 10.86649466 -20.01669827 10.86649466 -22 10 C-20.08588443 9.01585567 -18.1686033 8.03786651 -16.25 7.0625 C-14.64898437 6.24458984 -14.64898437 6.24458984 -13.015625 5.41015625 C-10.61554115 4.28783725 -8.58143248 3.49498341 -6 3 C-6 2.34 -6 1.68 -6 1 C-3 0 -3 0 0 0 Z " fill="#29242E" transform="translate(179,223)"/>
<path d="M0 0 C0.66 0.33 1.32 0.66 2 1 C0.50260417 2.171875 -0.99479167 3.34375 -2.4921875 4.515625 C-4.10382363 5.93792758 -4.10382363 5.93792758 -4.95703125 7.95703125 C-6.21465105 10.4204588 -7.68850198 11.67900833 -9.8125 13.4375 C-12.25685828 15.49358476 -14.47363922 17.49566896 -16.6875 19.8125 C-19.05725997 22.05416483 -20.91314387 23.02984522 -24 24 C-23.61328125 23.55269531 -23.2265625 23.10539062 -22.828125 22.64453125 C-22.30734375 22.03996094 -21.7865625 21.43539062 -21.25 20.8125 C-20.69570313 20.16925781 -20.14140625 19.52601563 -19.5703125 18.86328125 C-18.37606583 17.44622736 -17.2369065 15.982542 -16.125 14.5 C-13.09078291 10.93033283 -9.57920448 8.01009725 -6 5 C-5.38898438 4.48566406 -4.77796875 3.97132813 -4.1484375 3.44140625 C-2.77032686 2.2886265 -1.38591761 1.14338203 0 0 Z " fill="#3D3840" transform="translate(306,207)"/>
<path d="M0 0 C4.42323682 0.58265272 7.5155864 2.26766211 11.3125 4.5625 C12.38113281 5.20316406 13.44976562 5.84382812 14.55078125 6.50390625 C15.35902344 6.99761719 16.16726563 7.49132812 17 8 C16.01 8.495 16.01 8.495 15 9 C14.34 8.67 13.68 8.34 13 8 C13.33 8.99 13.66 9.98 14 11 C10.45112896 9.6825683 7.35848746 8.12916347 4.1875 6.0625 C3.39730469 5.55847656 2.60710937 5.05445313 1.79296875 4.53515625 C1.20128906 4.02855469 0.60960937 3.52195313 0 3 C0 2.01 0 1.02 0 0 Z " fill="#332E3A" transform="translate(321,223)"/>
<path d="M0 0 C7.16707877 0.32577631 12.76927124 3.65443628 19 7 C16 8 16 8 13.5625 6.9375 C11.0383409 5.69747657 11.0383409 5.69747657 8.6875 6.875 C7.8521875 7.431875 7.8521875 7.431875 7 8 C1.21538462 4.55384615 1.21538462 4.55384615 0.125 1.75 C0.08375 1.1725 0.0425 0.595 0 0 Z " fill="#28252A" transform="translate(334,231)"/>
<path d="M0 0 C0.99 0 1.98 0 3 0 C2.48474397 5.28137429 0.74522883 8.57221156 -2 13 C-2.66 12.34 -3.32 11.68 -4 11 C-5.32 11.99 -6.64 12.98 -8 14 C-7.48234722 10.16936944 -6.79845632 8.59116326 -4 6 C-3.34 4.948125 -2.68 3.89625 -2 2.8125 C-1.34 1.884375 -0.68 0.95625 0 0 Z " fill="#221F26" transform="translate(190,235)"/>
<path d="M0 0 C0.66 0 1.32 0 2 0 C2 4.29 2 8.58 2 13 C1.01 13 0.02 13 -1 13 C-1.66 13.99 -2.32 14.98 -3 16 C-2.57910004 10.39538469 -2.08386889 5.27913453 0 0 Z " fill="#221F24" transform="translate(203,245)"/>
<path d="M0 0 C0.66 0 1.32 0 2 0 C2.66 2.97 3.32 5.94 4 9 C2.68 9.33 1.36 9.66 0 10 C0 12.64 0 15.28 0 18 C-0.33 18 -0.66 18 -1 18 C-1.02684312 15.18743719 -1.04676188 12.37512759 -1.0625 9.5625 C-1.07087891 8.76005859 -1.07925781 7.95761719 -1.08789062 7.13085938 C-1.0965143 5.08704779 -1.0522815 3.04316098 -1 1 C-0.67 0.67 -0.34 0.34 0 0 Z " fill="#2C2A30" transform="translate(210,252)"/>
<path d="M0 0 C1.34384766 0.27553711 1.34384766 0.27553711 2.71484375 0.55664062 C3.65199219 0.75580078 4.58914063 0.95496094 5.5546875 1.16015625 C6.49957031 1.35544922 7.44445312 1.55074219 8.41796875 1.75195312 C10.75652416 2.23619945 13.09359838 2.72667197 15.4296875 3.22265625 C15.4296875 3.55265625 15.4296875 3.88265625 15.4296875 4.22265625 C10.1496875 3.89265625 4.8696875 3.56265625 -0.5703125 3.22265625 C0.7496875 3.88265625 2.0696875 4.54265625 3.4296875 5.22265625 C2.4396875 5.71765625 2.4396875 5.71765625 1.4296875 6.22265625 C-0.515625 5.4453125 -0.515625 5.4453125 -2.6953125 4.28515625 C-3.41976563 3.90488281 -4.14421875 3.52460938 -4.890625 3.1328125 C-5.44492187 2.83246094 -5.99921875 2.53210938 -6.5703125 2.22265625 C-6.5703125 1.56265625 -6.5703125 0.90265625 -6.5703125 0.22265625 C-3.96611232 -1.07944384 -2.82760891 -0.59057655 0 0 Z " fill="#58515B" transform="translate(336.5703125,216.77734375)"/>
<path d="M0 0 C7.13393752 0.51537952 14.01812817 1.44005901 21 3 C21 3.33 21 3.66 21 4 C14.25413726 4.22696361 7.41518242 4.41688268 1 2 C0.67 1.34 0.34 0.68 0 0 Z " fill="#5F5A5F" transform="translate(35,165)"/>
<path d="M0 0 C1.67542976 0.28604898 3.34385343 0.61781233 5 1 C5 1.66 5 2.32 5 3 C3.71086513 3.67154933 2.41859796 4.33708859 1.125 5 C0.40570313 5.37125 -0.31359375 5.7425 -1.0546875 6.125 C-3 7 -3 7 -5 7 C-5 6.34 -5 5.68 -5 5 C-3.68 5 -2.36 5 -1 5 C-1 4.34 -1 3.68 -1 3 C-3.31 3 -5.62 3 -8 3 C-8 2.67 -8 2.34 -8 2 C-6.865625 1.855625 -5.73125 1.71125 -4.5625 1.5625 C-1.19222799 1.38828522 -1.19222799 1.38828522 0 0 Z " fill="#534E58" transform="translate(165,216)"/>
<path d="M0 0 C2.64 1.32 5.28 2.64 8 4 C7.01 4.495 7.01 4.495 6 5 C5.34 4.67 4.68 4.34 4 4 C4.33 4.99 4.66 5.98 5 7 C1.62496331 5.8141763 -0.64722731 4.72426311 -3 2 C-2.01 2 -1.02 2 0 2 C0 1.34 0 0.68 0 0 Z " fill="#49454E" transform="translate(330,227)"/>
<path d="M0 0 C0 0.66 0 1.32 0 2 C-0.99 2.495 -0.99 2.495 -2 3 C-2 3.99 -2 4.98 -2 6 C-2.99 6.66 -3.98 7.32 -5 8 C-5.33 7.34 -5.66 6.68 -6 6 C-8.01669827 4.86649466 -8.01669827 4.86649466 -10 4 C-8.71086513 3.32845067 -7.41859796 2.66291141 -6.125 2 C-5.40570313 1.62875 -4.68640625 1.2575 -3.9453125 0.875 C-2 0 -2 0 0 0 Z " fill="#453E46" transform="translate(167,229)"/>
<path d="M0 0 C0.66 0 1.32 0 2 0 C2 0.66 2 1.32 2 2 C2.66 2 3.32 2 4 2 C4 2.66 4 3.32 4 4 C3.01 4 2.02 4 1 4 C1 7.3 1 10.6 1 14 C0.67 14 0.34 14 0 14 C-0.19393875 11.85473901 -0.37998676 9.70876323 -0.5625 7.5625 C-0.71912109 5.77005859 -0.71912109 5.77005859 -0.87890625 3.94140625 C-0.91886719 2.97074219 -0.95882813 2.00007812 -1 1 C-0.67 0.67 -0.34 0.34 0 0 Z " fill="#3C3840" transform="translate(295,246)"/>
<path d="M0 0 C-0.1875 1.875 -0.1875 1.875 -1 4 C-3.5625 5.25 -3.5625 5.25 -6 6 C-6.66 5.34 -7.32 4.68 -8 4 C-7.34 4 -6.68 4 -6 4 C-6 3.01 -6 2.02 -6 1 C-3 0 -3 0 0 0 Z " fill="#3D3947" transform="translate(179,223)"/>
<path d="M0 0 C0.33 0 0.66 0 1 0 C1.02690844 2.62506802 1.04679404 5.24986173 1.0625 7.875 C1.07087891 8.62136719 1.07925781 9.36773437 1.08789062 10.13671875 C1.11328125 15.7734375 1.11328125 15.7734375 0 18 C-0.99 17.67 -1.98 17.34 -3 17 C-3 16.34 -3 15.68 -3 15 C-2.34 14.67 -1.68 14.34 -1 14 C-0.52998967 10.72444392 -0.52998967 10.72444392 -0.375 6.9375 C-0.30023438 5.64714844 -0.22546875 4.35679687 -0.1484375 3.02734375 C-0.09945312 2.02832031 -0.05046875 1.02929688 0 0 Z " fill="#423C45" transform="translate(240,338)"/>
<path d="M0 0 C0.99 0 1.98 0 3 0 C2.67 2.64 2.34 5.28 2 8 C1.01 7.67 0.02 7.34 -1 7 C-0.67 4.69 -0.34 2.38 0 0 Z " fill="#353339" transform="translate(281,266)"/>
<path d="M0 0 C0.99 0 1.98 0 3 0 C3.33 1.32 3.66 2.64 4 4 C3.01 4 2.02 4 1 4 C1.33 6.31 1.66 8.62 2 11 C-0.67927341 6.98108988 -0.15601248 4.75838077 0 0 Z " fill="#47434B" transform="translate(216,266)"/>
<path d="M0 0 C-0.50603992 2.16874252 -0.99983813 3.99967627 -2 6 C-2.66 6 -3.32 6 -4 6 C-4 5.01 -4 4.02 -4 3 C-4.66 2.67 -5.32 2.34 -6 2 C-3 0 -3 0 0 0 Z " fill="#2F2B37" transform="translate(187,229)"/>
<path d="M0 0 C0.99 0.33 1.98 0.66 3 1 C2.67 1.66 2.34 2.32 2 3 C3.32 3.66 4.64 4.32 6 5 C2.30581799 5 0.22163822 3.71820705 -3 2 C-2.01 1.34 -1.02 0.68 0 0 Z " fill="#3F3C41" transform="translate(175,205)"/>
<path d="M0 0 C0.33 0.99 0.66 1.98 1 3 C0.34 3.99 -0.32 4.98 -1 6 C-1.625 4.125 -1.625 4.125 -2 2 C-1.34 1.34 -0.68 0.68 0 0 Z M-5 2 C-4.34 2.99 -3.68 3.98 -3 5 C-3.99 5.66 -4.98 6.32 -6 7 C-5.67 5.35 -5.34 3.7 -5 2 Z " fill="#3B383C" transform="translate(188,242)"/>
</svg>
