<svg width="25" height="25" viewBox="0 0 25 25" fill="none" xmlns="http://www.w3.org/2000/svg">
<path opacity="0.5" d="M19 7.5C20.3807 7.5 21.5 6.38071 21.5 5C21.5 3.61929 20.3807 2.5 19 2.5C17.6193 2.5 16.5 3.61929 16.5 5C16.5 6.38071 17.6193 7.5 19 7.5Z" stroke="#591A0E" stroke-width="1.5"/>
<path d="M9.5 17.5L8.5 18.7C7.762 19.586 7.393 20.028 6.89 20.264C6.387 20.5 5.81 20.5 4.657 20.5H3.5" stroke="#591A0E" stroke-width="1.5" stroke-linecap="round"/>
<path d="M4.12892 9.48389C3.956 9.58228 3.82925 9.74534 3.77655 9.93719C3.75046 10.0322 3.74333 10.1314 3.75557 10.2291C3.76782 10.3269 3.7992 10.4213 3.84792 10.5069C3.89664 10.5925 3.96175 10.6677 4.03953 10.7282C4.1173 10.7886 4.20623 10.8332 4.30122 10.8593C4.49307 10.912 4.698 10.8863 4.87092 10.7879L4.12892 9.48389ZM21.4999 13.2499C21.6988 13.2499 21.8896 13.1709 22.0303 13.0302C22.1709 12.8896 22.2499 12.6988 22.2499 12.4999C22.2499 12.301 22.1709 12.1102 22.0303 11.9696C21.8896 11.8289 21.6988 11.7499 21.4999 11.7499V13.2499ZM5.56592 8.66789L4.12892 9.48389L4.87092 10.7879L6.30592 9.97189L5.56592 8.66789ZM15.6259 11.0409L15.6889 11.1339L16.9369 10.3019L16.8739 10.2089L15.6259 11.0409ZM11.5459 6.40689C11.4551 6.39773 11.3641 6.39106 11.2729 6.38689L11.2069 7.88489C11.2556 7.88689 11.3169 7.89155 11.3909 7.89889L11.5459 6.40689ZM6.30592 9.97189C8.62492 8.65489 9.69192 8.06289 10.7569 7.91589L10.5519 6.42989C9.13292 6.62589 7.77392 7.41289 5.56592 8.66789L6.30592 9.97189ZM19.6409 13.2499H21.4999V11.7499H19.6399L19.6409 13.2499ZM11.2729 6.38689C11.0321 6.37951 10.7911 6.3939 10.5529 6.42989L10.7569 7.91589C10.9349 7.89189 11.0789 7.87789 11.2069 7.88489L11.2729 6.38689ZM15.6889 11.1349C16.1227 11.7855 16.7103 12.3189 17.3998 12.6879C18.0892 13.0568 18.859 13.2499 19.6409 13.2499V11.7499C19.1058 11.7498 18.5791 11.6175 18.1074 11.3649C17.6356 11.1123 17.2336 10.7472 16.9369 10.3019L15.6889 11.1349ZM16.8739 10.2089C15.6969 8.44289 13.9289 6.65489 11.5459 6.40689L11.3909 7.89889C13.0939 8.07589 14.5249 9.38889 15.6259 11.0409L16.8739 10.2089Z" fill="#591A0E"/>
<path opacity="0.5" d="M14.5001 9L12.2801 11.776C11.4431 12.821 11.0251 13.344 10.9581 13.913C10.9207 14.2329 10.9612 14.5571 11.0761 14.858C11.2801 15.394 11.8131 15.798 12.8811 16.607C13.6941 17.223 14.1001 17.53 14.3761 17.933C14.5334 18.1643 14.6567 18.4123 14.7461 18.677C14.9001 19.139 14.9001 19.649 14.9001 20.669V22.5" stroke="#591A0E" stroke-width="1.5" stroke-linecap="round"/>
</svg>
