<svg width="25" height="25" viewBox="0 0 25 25" fill="none" xmlns="http://www.w3.org/2000/svg">
<path d="M19.5712 13.642L13.9142 19.3C13.5391 19.675 13.0305 19.8856 12.5002 19.8856C11.9699 19.8856 11.4613 19.675 11.0862 19.3L5.4292 13.643C4.96157 13.1795 4.59011 12.6281 4.33613 12.0206C4.08216 11.4131 3.95067 10.7614 3.94923 10.103C3.94779 9.44454 4.07642 8.79229 4.32773 8.18368C4.57904 7.57508 4.94809 7.0221 5.41368 6.55651C5.87928 6.09091 6.43225 5.72186 7.04086 5.47055C7.64947 5.21924 8.30172 5.09061 8.96017 5.09205C9.61862 5.09349 10.2703 5.22498 10.8778 5.47895C11.4853 5.73293 12.0367 6.10439 12.5002 6.57202C13.4418 5.6539 14.7071 5.14369 16.0222 5.15193C17.3373 5.16017 18.5962 5.68619 19.5262 6.61605C20.4562 7.5459 20.9824 8.80472 20.9908 10.1198C20.9992 11.4349 20.4892 12.7003 19.5712 13.642Z" stroke="#591A0E" stroke-width="1.5" stroke-linecap="round" stroke-linejoin="round"/>
</svg>
