<?xml version="1.0" encoding="UTF-8"?>
<svg version="1.1" xmlns="http://www.w3.org/2000/svg" width="400" height="400">
<path d="M0 0 C0.99 0.495 0.99 0.495 2 1 C2.13277344 1.74636719 2.26554687 2.49273437 2.40234375 3.26171875 C3.12178434 6.55797925 4.43395224 8.21954181 6.5625 10.8125 C7.20316406 11.60269531 7.84382813 12.39289063 8.50390625 13.20703125 C9.24447266 14.09455078 9.24447266 14.09455078 10 15 C13.36487781 13.59127675 15.05709457 12.00344528 17.1875 9.0625 C17.69667969 8.37285156 18.20585937 7.68320313 18.73046875 6.97265625 C20.16158808 4.92771646 20.16158808 4.92771646 21 2 C23 0 23 0 26 -1 C27.69514137 -0.04906703 29.36368108 0.95107762 31 2 C31.66 2 32.32 2 33 2 C33.15275391 2.92039063 33.15275391 2.92039063 33.30859375 3.859375 C34.56401902 7.74622838 38.58040363 9.17136478 42 11 C45.22019697 12.63982197 48.46046957 14.23885789 51.70214844 15.83569336 C71.53221627 25.65614459 71.53221627 25.65614459 75 30 C75 30.66 75 31.32 75 32 C75.66 32 76.32 32 77 32 C80.03869658 34.3094094 80.38973302 36.33839811 81 40 C81.350625 40.86625 81.70125 41.7325 82.0625 42.625 C83 45 83 45 83 48 C84.98 48 86.96 48 89 48 C89.33 48.66 89.66 49.32 90 50 C90.99 50.33 91.98 50.66 93 51 C93 51.66 93 52.32 93 53 C93.99 53.33 94.98 53.66 96 54 C96 54.66 96 55.32 96 56 C96.66 56 97.32 56 98 56 C101.23942916 63.05359576 101.3753279 68.60221262 99 76 C96.29209998 80.79090004 91.89764451 83.64694174 87 86 C80.8 87.4 80.8 87.4 78 86 C77.38125 85.855625 76.7625 85.71125 76.125 85.5625 C73.87960045 84.96812953 72.04486745 84.09059597 70 83 C69.34 82.67 68.68 82.34 68 82 C64.07200704 78.80850572 63.00005945 75.91695898 62 71 C61.43637816 65.02560854 62.53222027 59.45664443 65 54 C67.375 52.0625 67.375 52.0625 70 51 C73.64943538 49.12987508 73.64943538 49.12987508 76 46 C70.48599616 31.88045879 59.02356798 26.90570886 46 21 C44.67335288 20.64097867 43.34109586 20.30058409 42 20 C42 19.34 42 18.68 42 18 C40.68 17.67 39.36 17.34 38 17 C38.04125 18.00160156 38.0825 19.00320312 38.125 20.03515625 C37.99429396 24.18098858 37.20623612 27.47953774 36 31.4375 C35.62875 32.67371094 35.2575 33.90992188 34.875 35.18359375 C34.58625 36.11300781 34.2975 37.04242188 34 38 C33.14619751 37.81824219 33.14619751 37.81824219 32.27514648 37.6328125 C29.66407345 37.08127072 27.05086554 36.54057037 24.4375 36 C23.54224609 35.80921875 22.64699219 35.6184375 21.72460938 35.421875 C14.32683301 33.90438241 8.07618059 33.4753218 0.6875 35.4375 C-0.33988281 35.70433594 -1.36726563 35.97117188 -2.42578125 36.24609375 C-4.95779472 36.90481553 -4.95779472 36.90481553 -7 38 C-8.98 38 -10.96 38 -13 38 C-13.33 33.71 -13.66 29.42 -14 25 C-14.66 25 -15.32 25 -16 25 C-16 22.36 -16 19.72 -16 17 C-17.97536745 17.34786708 -17.97536745 17.34786708 -20 18 C-20.33 18.66 -20.66 19.32 -21 20 C-22.609375 20.82421875 -22.609375 20.82421875 -24.75 21.6875 C-40.16971056 28.04866001 -40.16971056 28.04866001 -51 40 C-51.5775 41.051875 -52.155 42.10375 -52.75 43.1875 C-53.36875 44.5796875 -53.36875 44.5796875 -54 46 C-53.67 46.66 -53.34 47.32 -53 48 C-52.67 48.66 -52.34 49.32 -52 50 C-51.13375 50.185625 -51.13375 50.185625 -50.25 50.375 C-46.96820793 51.28660891 -45.38898941 52.54975445 -43 55 C-40.09057707 60.96893514 -38.94209635 67.05690456 -40.6875 73.5625 C-43.4035768 78.60664263 -47.19503037 82.87676974 -52 86 C-54.8125 86.25 -54.8125 86.25 -57 86 C-56.05125 86.2475 -55.1025 86.495 -54.125 86.75 C-43.99969589 89.72200222 -36.98978714 93.01531928 -31 102 C-31 102.99 -31 103.98 -31 105 C-30.01 105.495 -30.01 105.495 -29 106 C-27.85705539 110.68607291 -27.76441983 115.20986994 -28 120 C-28.66 120.99 -29.32 121.98 -30 123 C-32.5 123.125 -32.5 123.125 -35 123 C-35.99 123.495 -35.99 123.495 -37 124 C-38.61291837 124.09203364 -40.22967652 124.12037289 -41.84521484 124.11694336 C-42.85321136 124.11621323 -43.86120789 124.11548309 -44.89974976 124.11473083 C-49.50692287 124.08010305 -54.11379262 124.03851519 -58.72070312 123.9777832 C-61.15321469 123.95096837 -63.585896 123.93660749 -66.01855469 123.93481445 C-69.52109181 123.93172538 -73.02129676 123.89004683 -76.5234375 123.83984375 C-77.61208099 123.84580063 -78.70072449 123.85175751 -79.82235718 123.8578949 C-82.67588804 123.79376504 -85.22898995 123.6847639 -88 123 C-92 118.69056604 -92 118.69056604 -92 115 C-91.34 115 -90.68 115 -90 115 C-90.12375 114.0925 -90.2475 113.185 -90.375 112.25 C-90.38706637 106.37367834 -87.29775215 100.71414027 -84 96 C-82.34382346 95.30768396 -80.67811722 94.63729493 -79 94 C-78.11306697 91.95894361 -78.11306697 91.95894361 -78 90 C-72.34853777 88.82877141 -66.72398793 87.74660712 -61 87 C-61.63808594 86.80664062 -62.27617188 86.61328125 -62.93359375 86.4140625 C-64.17302734 86.02347656 -64.17302734 86.02347656 -65.4375 85.625 C-66.67306641 85.24214844 -66.67306641 85.24214844 -67.93359375 84.8515625 C-70 84 -70 84 -71 82 C-72.485 81.01 -72.485 81.01 -74 80 C-77.13684283 75.85936746 -78.45068401 71.117794 -79 66 C-77.81484462 59.46930001 -74.89645565 53.4706769 -70 49 C-66.99084942 48.23127582 -64.09929532 48.01350455 -61 48 C-61.061875 46.906875 -61.12375 45.81375 -61.1875 44.6875 C-61 41 -61 41 -59.5625 39.25 C-59.046875 38.8375 -58.53125 38.425 -58 38 C-57.67 37.01 -57.34 36.02 -57 35 C-56.34 34.01 -55.68 33.02 -55 32 C-54.34 32 -53.68 32 -53 32 C-53 31.34 -53 30.68 -53 30 C-44.96393148 22.87613385 -34.79607846 18.25670927 -25.16870117 13.66503906 C-21.42905693 12.06319925 -21.42905693 12.06319925 -19 9 C-18.236875 8.87625 -17.47375 8.7525 -16.6875 8.625 C-12.24486114 7.59182817 -10.44929224 4.67393836 -8 1 C-4.99667477 -1.00221682 -3.38093432 -1.23967592 0 0 Z M-5 7 C-7.32690634 9.04313727 -8.64292548 10.27576118 -10 13 C-10.20657756 17.08688579 -9.65505651 20.97057677 -9 25 C-8.814375 26.2375 -8.62875 27.475 -8.4375 28.75 C-8.293125 29.4925 -8.14875 30.235 -8 31 C-3.87026372 30.43260132 -3.87026372 30.43260132 0 29 C1.70225612 28.61769002 3.41173311 28.2669744 5.125 27.9375 C6.49011719 27.67259766 6.49011719 27.67259766 7.8828125 27.40234375 C8.93082031 27.20318359 8.93082031 27.20318359 10 27 C10 26.34 10 25.68 10 25 C9.34 25 8.68 25 8 25 C7.67 24.01 7.34 23.02 7 22 C5.60674166 19.97344241 4.21233113 18.20383789 2.4375 16.5 C1 15 1 15 0 12.9375 C-0.97325058 10.66757845 -0.97325058 10.66757845 -4 9 C-4.33 8.34 -4.66 7.68 -5 7 Z M26 8 C24.29115995 9.62339805 22.62553283 11.29319053 21 13 C21 13.66 21 14.32 21 15 C19.68945377 16.35573748 18.35251497 17.68612831 17 19 C14.6090225 21.66841084 14.6090225 21.66841084 14 25 C13.34 25 12.68 25 12 25 C12 25.66 12 26.32 12 27 C12.65226562 27.12117188 13.30453125 27.24234375 13.9765625 27.3671875 C18.79631668 28.29132916 23.35884282 29.37559499 28 31 C28.66 31 29.32 31 30 31 C30.49885558 28.10603661 30.94946235 25.21735439 31.375 22.3125 C31.59349609 21.08756836 31.59349609 21.08756836 31.81640625 19.83789062 C32.14867311 17.42406958 32.35356915 15.41381099 32 13 C30.20831177 10.6597671 28.54117608 9.60374994 26 8 Z M-69.75 58.5 C-72.60980722 61.93176867 -72.28758225 65.75816185 -72 70 C-70.39172184 74.82483448 -68.26226106 77.08761947 -63.828125 79.3046875 C-60.97775907 80.38880104 -59.00741961 80.51190121 -56 80 C-52.19495998 77.91095842 -49.09213972 75.85394159 -47 72 C-45.5199654 66.39701187 -46.10644396 63.01549713 -49 58 C-55.59558705 52.18036437 -63.49967253 53.14257645 -69.75 58.5 Z M70.125 58.6875 C68.49026588 62.0477868 67.88560857 65.29657757 68 69 C69.62172947 73.68499625 71.77477385 76.40724759 76 79 C81.60141647 80.55594902 84.9511379 79.81571155 90 77 C93.53137044 73.23320487 94.49381202 69.29648016 94.3984375 64.13671875 C93.63278274 60.03070746 91.35182824 57.38336967 88 55 C81.39699913 52.66741817 75.3235207 54.00883137 70.125 58.6875 Z M-78.8125 100.3125 C-83.38091736 105.92512704 -84 109.70214854 -84 117 C-67.83 117 -51.66 117 -35 117 C-34.505 115.515 -34.505 115.515 -34 114 C-34.33 113.67 -34.66 113.34 -35 113 C-35.33926947 110.66752239 -35.67240066 108.33414529 -36 106 C-36.495 105.01 -36.495 105.01 -37 104 C-37.66 104 -38.32 104 -39 104 C-39.495 102.02 -39.495 102.02 -40 100 C-40.99 100 -41.98 100 -43 100 C-43.226875 99.360625 -43.45375 98.72125 -43.6875 98.0625 C-44.82985584 95.76563526 -44.82985584 95.76563526 -47.375 95.3125 C-48.24125 95.209375 -49.1075 95.10625 -50 95 C-50.57492188 94.835 -51.14984375 94.67 -51.7421875 94.5 C-62.13935643 92.19751276 -70.72456581 93.66242077 -78.8125 100.3125 Z " fill="#020202" transform="translate(189,176)"/>
<path d="M0 0 C6.44616358 -0.34935502 11.24876145 1.56113619 17.046875 4.19140625 C17.90152344 4.48273438 18.75617188 4.7740625 19.63671875 5.07421875 C22.44915175 6.37787489 23.57510773 7.68328895 25.359375 10.19140625 C25.87113281 10.89265625 26.38289063 11.59390625 26.91015625 12.31640625 C28.046875 14.19140625 28.046875 14.19140625 28.046875 16.19140625 C28.706875 16.19140625 29.366875 16.19140625 30.046875 16.19140625 C30.57642734 17.98051528 31.0952687 19.77279773 31.609375 21.56640625 C31.89941406 22.56414062 32.18945312 23.561875 32.48828125 24.58984375 C33.046875 27.19140625 33.046875 27.19140625 32.046875 29.19140625 C32.706875 29.52140625 33.366875 29.85140625 34.046875 30.19140625 C33.716875 34.81140625 33.386875 39.43140625 33.046875 44.19140625 C32.386875 44.19140625 31.726875 44.19140625 31.046875 44.19140625 C30.964375 44.99578125 30.881875 45.80015625 30.796875 46.62890625 C29.84490825 51.1507483 28.03107321 55.03843326 26.046875 59.19140625 C25.386875 59.19140625 24.726875 59.19140625 24.046875 59.19140625 C23.716875 60.18140625 23.386875 61.17140625 23.046875 62.19140625 C22.386875 62.19140625 21.726875 62.19140625 21.046875 62.19140625 C20.881875 62.93390625 20.716875 63.67640625 20.546875 64.44140625 C17.96310339 69.17832087 12.98713075 70.54465433 8.046875 72.19140625 C5.53177677 72.33868678 3.06241865 72.4222402 0.546875 72.44140625 C-0.12988281 72.46203125 -0.80664062 72.48265625 -1.50390625 72.50390625 C-6.50180122 72.54333737 -6.50180122 72.54333737 -8.69140625 70.8359375 C-9.10777344 70.29324219 -9.52414063 69.75054687 -9.953125 69.19140625 C-11.7824623 67.87130631 -13.64866485 66.62356299 -15.52734375 65.375 C-15.99785156 64.98441406 -16.46835938 64.59382813 -16.953125 64.19140625 C-16.953125 63.53140625 -16.953125 62.87140625 -16.953125 62.19140625 C-17.71625 61.98515625 -18.479375 61.77890625 -19.265625 61.56640625 C-22.84137233 59.73695413 -23.44532226 57.8532129 -24.953125 54.19140625 C-25.345 53.32515625 -25.736875 52.45890625 -26.140625 51.56640625 C-26.953125 49.19140625 -26.953125 49.19140625 -26.953125 45.19140625 C-27.613125 45.19140625 -28.273125 45.19140625 -28.953125 45.19140625 C-30.21897185 34.59681848 -30.60687174 25.13586507 -25.953125 15.19140625 C-23.48046875 12.45703125 -23.48046875 12.45703125 -20.953125 10.19140625 C-20.025 9.34578125 -19.096875 8.50015625 -18.140625 7.62890625 C-12.74062487 3.21705048 -6.91246438 0.67742151 0 0 Z M-17.953125 16.19140625 C-19.59558694 19.1015712 -20.86508034 22.03464508 -21.953125 25.19140625 C-18.41804397 24.89681616 -17.19109056 24.44259212 -14.703125 21.81640625 C-12.82704791 19.25170399 -12.82704791 19.25170399 -11.953125 16.19140625 C-7.48149404 17.9011475 -3.26623298 19.99754407 0.984375 22.19140625 C9.21553688 26.18227262 16.82832778 28.58368486 26.046875 28.19140625 C25.44257561 20.6376639 22.64943489 16.52064847 17.234375 11.44140625 C6.06399229 2.07069631 -9.03627984 5.62403896 -17.953125 16.19140625 Z M-9.953125 24.19140625 C-10.283125 24.76890625 -10.613125 25.34640625 -10.953125 25.94140625 C-13.38174476 28.67360348 -15.79818036 29.72566677 -19.11328125 31.1640625 C-21.28298198 32.19215402 -21.28298198 32.19215402 -22.953125 35.19140625 C-23.01623222 37.38600492 -23.01623222 37.38600492 -22.640625 39.69140625 C-22.54136719 40.46484375 -22.44210938 41.23828125 -22.33984375 42.03515625 C-20.64209629 51.50138452 -14.51609056 58.67293468 -6.953125 64.19140625 C-1.7283158 66.86186428 3.44244709 66.4601611 9.046875 65.19140625 C14.52460315 62.24966335 18.35272734 58.77214069 21.046875 53.19140625 C21.706875 52.86140625 22.366875 52.53140625 23.046875 52.19140625 C24.19240629 49.59845738 24.19240629 49.59845738 25.171875 46.50390625 C25.70167969 44.95123047 25.70167969 44.95123047 26.2421875 43.3671875 C27.05196359 40.17132359 27.19444728 37.47242994 27.046875 34.19140625 C26.4384375 34.17722656 25.83 34.16304687 25.203125 34.1484375 C19.08002442 33.81526879 13.55584182 32.64572135 7.734375 30.81640625 C7.06535156 30.60733643 6.39632812 30.3982666 5.70703125 30.18286133 C1.61514647 28.84759863 -2.13480543 27.16485692 -5.953125 25.19140625 C-8.18837535 24.50504 -8.18837535 24.50504 -9.953125 24.19140625 Z " fill="#020102" transform="translate(197.953125,100.80859375)"/>
<path d="M0 0 C5.94 0 11.88 0 18 0 C18 0.66 18 1.32 18 2 C19.32 1.67 20.64 1.34 22 1 C22 1.66 22 2.32 22 3 C22.886875 3.268125 23.77375 3.53625 24.6875 3.8125 C31.42812158 6.22894925 33.89543768 8.67589157 37 15 C37 15.66 37 16.32 37 17 C37.66 17 38.32 17 39 17 C39.33708908 19.08272894 39.66953116 21.16621037 40 23.25 C40.185625 24.41015625 40.37125 25.5703125 40.5625 26.765625 C41 30 41 30 41 34 C37.6050162 36.26332253 36.36998324 36.26458644 32.3828125 36.30639648 C30.65587158 36.33037758 30.65587158 36.33037758 28.89404297 36.35484314 C27.65025879 36.36020584 26.40647461 36.36556854 25.125 36.37109375 C23.84898926 36.38012222 22.57297852 36.3891507 21.25830078 36.39845276 C18.55812461 36.41297194 15.85837209 36.42264147 13.15820312 36.42553711 C9.6975518 36.43092975 6.23806295 36.46864662 2.77774048 36.51428127 C-0.52310457 36.5511577 -3.82397653 36.55256247 -7.125 36.55859375 C-8.36878418 36.57812607 -9.61256836 36.59765839 -10.89404297 36.61778259 C-12.04533691 36.61170486 -13.19663086 36.60562714 -14.3828125 36.59936523 C-15.39746582 36.60443588 -16.41211914 36.60950653 -17.45751953 36.61473083 C-20 36 -20 36 -21.86669922 33.67347717 C-23.40013 30.05608606 -22.78926213 27.81476698 -22 24 C-21.814375 22.700625 -21.62875 21.40125 -21.4375 20.0625 C-21.293125 19.051875 -21.14875 18.04125 -21 17 C-20.34 17 -19.68 17 -19 17 C-19 15.35 -19 13.7 -19 12 C-18.0409375 11.5978125 -18.0409375 11.5978125 -17.0625 11.1875 C-14.66868314 10.11332248 -14.66868314 10.11332248 -14 7 C-12.22265625 5.83203125 -12.22265625 5.83203125 -10.0625 4.8125 C-8.99708984 4.29623047 -8.99708984 4.29623047 -7.91015625 3.76953125 C-6 3 -6 3 -4 3 C-3.67 2.34 -3.34 1.68 -3 1 C-2.01 1.33 -1.02 1.66 0 2 C0 1.34 0 0.68 0 0 Z M-10.6796875 13.34765625 C-14.62522352 18.28541286 -16 23.80883819 -16 30 C0.5 30 17 30 34 30 C33.39383037 23.54613613 33.39383037 23.54613613 31.4375 18 C30.963125 17.01 30.48875 16.02 30 15 C29.34 15 28.68 15 28 15 C27.79375 14.401875 27.5875 13.80375 27.375 13.1875 C25.37626688 10.00769731 23.51456284 9.31796106 20 8 C16.67212032 7.42123832 13.37103755 7.1727395 10 7 C9.29359375 6.94714844 8.5871875 6.89429688 7.859375 6.83984375 C0.90128498 6.52481212 -5.45671529 8.65268943 -10.6796875 13.34765625 Z " fill="#020202" transform="translate(191,263)"/>
<path d="M0 0 C0 0.66 0 1.32 0 2 C2.475 2.99 2.475 2.99 5 4 C5 4.66 5 5.32 5 6 C5.66 6 6.32 6 7 6 C11.59225513 17.52164009 11.59225513 17.52164009 11 23 C11.66 23.33 12.32 23.66 13 24 C10.125 29.875 10.125 29.875 9 31 C7.37967871 31.12802357 5.7539456 31.18835495 4.12890625 31.22119141 C3.09113037 31.24436432 2.05335449 31.26753723 0.98413086 31.29141235 C-0.14500732 31.3112619 -1.27414551 31.33111145 -2.4375 31.3515625 C-3.58790771 31.37471527 -4.73831543 31.39786804 -5.92358398 31.42172241 C-8.36144469 31.46944215 -10.7993553 31.5146662 -13.23730469 31.55761719 C-16.98390901 31.62471184 -20.73018838 31.70244118 -24.4765625 31.78125 C-26.83852955 31.82616262 -29.2005085 31.8704544 -31.5625 31.9140625 C-32.69163818 31.93796051 -33.82077637 31.96185852 -34.98413086 31.98648071 C-36.54079468 32.0117836 -36.54079468 32.0117836 -38.12890625 32.03759766 C-39.04744385 32.05456696 -39.96598145 32.07153625 -40.91235352 32.08901978 C-43 32 -43 32 -44 31 C-44.804375 31.04125 -45.60875 31.0825 -46.4375 31.125 C-47.283125 31.08375 -48.12875 31.0425 -49 31 C-52.56334257 25.65498614 -51.01378848 19.08273091 -50 13 C-49.34 13 -48.68 13 -48 13 C-47.89945313 12.4225 -47.79890625 11.845 -47.6953125 11.25 C-46.04630795 5.91389539 -41.15878917 1.42202209 -36.4375 -1.375 C-23.84455628 -7.32802794 -12.45949034 -5.39911248 0 0 Z M-36.1875 5.875 C-36.90292969 6.38804687 -37.61835938 6.90109375 -38.35546875 7.4296875 C-38.89816406 7.94789063 -39.44085938 8.46609375 -40 9 C-40 9.99 -40 10.98 -40 12 C-40.66 12 -41.32 12 -42 12 C-42.53394179 13.4117783 -43.05165104 14.82970244 -43.5625 16.25 C-43.85253906 17.03890625 -44.14257812 17.8278125 -44.44140625 18.640625 C-45.25632628 21.27666421 -45.25632628 21.27666421 -44 25 C-27.83 25 -11.66 25 5 25 C5.59628479 17.81989159 5.59628479 17.81989159 4 15 C3.34 15 2.68 15 2 15 C1.9175 14.21625 1.835 13.4325 1.75 12.625 C1.27193661 9.85250896 1.27193661 9.85250896 -1.0625 8.6875 C-1.701875 8.460625 -2.34125 8.23375 -3 8 C-3 7.34 -3 6.68 -3 6 C-4.96466413 4.93224776 -6.96855359 3.93446535 -9 3 C-9.66 3.33 -10.32 3.66 -11 4 C-11 3.34 -11 2.68 -11 2 C-13.93756119 1.9730499 -16.87487555 1.95318526 -19.8125 1.9375 C-20.64587891 1.92912109 -21.47925781 1.92074219 -22.33789062 1.91210938 C-23.14033203 1.90888672 -23.94277344 1.90566406 -24.76953125 1.90234375 C-25.50792236 1.89710693 -26.24631348 1.89187012 -27.00708008 1.88647461 C-30.8001739 2.10254574 -33.20963438 3.69448637 -36.1875 5.875 Z " fill="#020202" transform="translate(290,268)"/>
<path d="M0 0 C4.74505558 1.72477788 7.85691962 4.29954321 10.4375 8.625 C12.9977574 14.15515597 14.12896595 19.15288674 12.38671875 25.08984375 C9.64251973 31.3882036 5.12833119 35.01318972 -0.98046875 37.953125 C-5.0060732 39.33516884 -7.64002127 39.06632591 -11.5625 37.4375 C-13.06038603 36.6600505 -14.54055744 35.84741826 -16 35 C-16.67804688 34.62359375 -17.35609375 34.2471875 -18.0546875 33.859375 C-21.41248712 31.76945822 -22.8038154 30.4435478 -24.4375 26.75 C-25.48654472 19.75636853 -26.05181442 14.1475805 -22 8 C-15.44919882 0.5872513 -9.73296645 -1.32550127 0 0 Z M-14 8 C-14 8.66 -14 9.32 -14 10 C-14.99 10.33 -15.98 10.66 -17 11 C-19.52959495 14.46155098 -19.35833913 17.84326612 -19 22 C-17.66729029 26.24801219 -16.05095908 28.28656967 -12.25 30.4375 C-8.17881396 32.23031587 -5.33676255 32.22738563 -1 31 C2.42031129 29.5230474 3.75394062 28.37333147 5.8125 25.25 C7.17749042 21.51423674 7.43094177 18.95029953 7 15 C5.77401355 12.09075658 5.77401355 12.09075658 4 10 C3.34 10 2.68 10 2 10 C2 9.34 2 8.68 2 8 C-2.7458499 4.83610007 -9.2541501 4.83610007 -14 8 Z " fill="#020202" transform="translate(206,224)"/>
<path d="M0 0 C3 1 3 1 3 1 Z " fill="#010005" transform="translate(205,262)"/>
<path d="M0 0 C3 1 3 1 3 1 Z " fill="#000003" transform="translate(192,262)"/>
<path d="M0 0 C3 1 3 1 3 1 Z " fill="#000002" transform="translate(121,262)"/>
<path d="M0 0 C0.99 0.495 0.99 0.495 2 1 C1.01 1.495 1.01 1.495 0 2 C0 1.34 0 0.68 0 0 Z " fill="#000000" transform="translate(181,187)"/>
<path d="M0 0 C0.33 0.66 0.66 1.32 1 2 C0.34 1.67 -0.32 1.34 -1 1 C-0.67 0.67 -0.34 0.34 0 0 Z " fill="#000000" transform="translate(182,117)"/>
<path d="M0 0 C3 1 3 1 3 1 Z " fill="#000000" transform="translate(208,110)"/>
<path d="" fill="#050003" transform="translate(0,0)"/>
<path d="M0 0 C2 1 2 1 2 1 Z " fill="#040003" transform="translate(253,265)"/>
<path d="M0 0 C2 1 2 1 2 1 Z " fill="#010003" transform="translate(183,265)"/>
<path d="M0 0 C2 1 2 1 2 1 Z " fill="#000000" transform="translate(145,265)"/>
<path d="M0 0 C2 1 2 1 2 1 Z " fill="#000003" transform="translate(276,262)"/>
<path d="M0 0 C2 1 2 1 2 1 Z " fill="#000003" transform="translate(260,262)"/>
<path d="M0 0 C2 1 2 1 2 1 Z " fill="#000000" transform="translate(259,260)"/>
<path d="" fill="#000000" transform="translate(0,0)"/>
<path d="" fill="#000001" transform="translate(0,0)"/>
<path d="" fill="#000000" transform="translate(0,0)"/>
<path d="" fill="#000000" transform="translate(0,0)"/>
<path d="" fill="#000000" transform="translate(0,0)"/>
<path d="" fill="#000000" transform="translate(0,0)"/>
<path d="" fill="#000000" transform="translate(0,0)"/>
<path d="M0 0 C2 1 2 1 2 1 Z " fill="#000000" transform="translate(279,225)"/>
<path d="" fill="#000000" transform="translate(0,0)"/>
<path d="M0 0 C2 1 2 1 2 1 Z " fill="#000000" transform="translate(218,214)"/>
<path d="M0 0 C2 1 2 1 2 1 Z " fill="#000001" transform="translate(208,203)"/>
<path d="M0 0 C2 1 2 1 2 1 Z " fill="#000000" transform="translate(190,203)"/>
<path d="M0 0 C2 1 2 1 2 1 Z " fill="#070007" transform="translate(203,201)"/>
<path d="M0 0 C2 1 2 1 2 1 Z " fill="#040009" transform="translate(195,201)"/>
<path d="" fill="#000000" transform="translate(0,0)"/>
<path d="M0 0 C2 1 2 1 2 1 Z " fill="#000000" transform="translate(244,193)"/>
<path d="M0 0 C2 1 2 1 2 1 Z " fill="#000000" transform="translate(154,193)"/>
<path d="" fill="#000000" transform="translate(0,0)"/>
<path d="" fill="#010000" transform="translate(0,0)"/>
<path d="" fill="#000000" transform="translate(0,0)"/>
<path d="" fill="#000000" transform="translate(0,0)"/>
<path d="" fill="#000000" transform="translate(0,0)"/>
<path d="" fill="#000000" transform="translate(0,0)"/>
<path d="" fill="#000000" transform="translate(0,0)"/>
<path d="M0 0 C2 1 2 1 2 1 Z " fill="#000000" transform="translate(187,115)"/>
<path d="M0 0 C2 1 2 1 2 1 Z " fill="#000000" transform="translate(189,110)"/>
<path d="M0 0 C2 1 2 1 2 1 Z " fill="#000000" transform="translate(200,108)"/>
<path d="" fill="#000000" transform="translate(0,0)"/>
<path d="" fill="#000000" transform="translate(0,0)"/>
<path d="" fill="#000000" transform="translate(0,0)"/>
<path d="" fill="#000000" transform="translate(0,0)"/>
<path d="" fill="#000000" transform="translate(0,0)"/>
<path d="" fill="#000000" transform="translate(0,0)"/>
<path d="" fill="#000000" transform="translate(0,0)"/>
<path d="" fill="#000000" transform="translate(0,0)"/>
<path d="" fill="#000000" transform="translate(0,0)"/>
<path d="" fill="#000000" transform="translate(0,0)"/>
<path d="" fill="#000000" transform="translate(0,0)"/>
<path d="" fill="#000000" transform="translate(0,0)"/>
<path d="" fill="#020000" transform="translate(0,0)"/>
<path d="" fill="#000000" transform="translate(0,0)"/>
<path d="" fill="#010000" transform="translate(0,0)"/>
<path d="" fill="#020001" transform="translate(0,0)"/>
<path d="" fill="#000000" transform="translate(0,0)"/>
<path d="" fill="#000000" transform="translate(0,0)"/>
<path d="" fill="#000001" transform="translate(0,0)"/>
<path d="" fill="#000000" transform="translate(0,0)"/>
<path d="" fill="#000000" transform="translate(0,0)"/>
<path d="" fill="#000000" transform="translate(0,0)"/>
<path d="" fill="#000000" transform="translate(0,0)"/>
<path d="" fill="#000000" transform="translate(0,0)"/>
<path d="" fill="#000000" transform="translate(0,0)"/>
<path d="" fill="#000000" transform="translate(0,0)"/>
<path d="" fill="#040004" transform="translate(0,0)"/>
<path d="" fill="#000000" transform="translate(0,0)"/>
<path d="" fill="#000000" transform="translate(0,0)"/>
<path d="" fill="#000000" transform="translate(0,0)"/>
<path d="" fill="#000000" transform="translate(0,0)"/>
<path d="" fill="#000000" transform="translate(0,0)"/>
<path d="" fill="#000000" transform="translate(0,0)"/>
<path d="" fill="#040002" transform="translate(0,0)"/>
<path d="" fill="#000000" transform="translate(0,0)"/>
<path d="" fill="#000000" transform="translate(0,0)"/>
<path d="" fill="#020001" transform="translate(0,0)"/>
<path d="" fill="#000000" transform="translate(0,0)"/>
<path d="" fill="#000000" transform="translate(0,0)"/>
<path d="" fill="#000000" transform="translate(0,0)"/>
<path d="" fill="#000000" transform="translate(0,0)"/>
<path d="" fill="#000000" transform="translate(0,0)"/>
<path d="" fill="#000000" transform="translate(0,0)"/>
<path d="" fill="#000000" transform="translate(0,0)"/>
<path d="" fill="#000000" transform="translate(0,0)"/>
<path d="" fill="#000000" transform="translate(0,0)"/>
<path d="" fill="#000000" transform="translate(0,0)"/>
<path d="" fill="#000000" transform="translate(0,0)"/>
<path d="" fill="#000000" transform="translate(0,0)"/>
<path d="" fill="#020000" transform="translate(0,0)"/>
<path d="" fill="#020001" transform="translate(0,0)"/>
<path d="" fill="#000000" transform="translate(0,0)"/>
<path d="" fill="#000000" transform="translate(0,0)"/>
<path d="" fill="#000001" transform="translate(0,0)"/>
<path d="" fill="#030003" transform="translate(0,0)"/>
<path d="" fill="#000002" transform="translate(0,0)"/>
<path d="" fill="#010003" transform="translate(0,0)"/>
<path d="" fill="#000000" transform="translate(0,0)"/>
<path d="" fill="#000000" transform="translate(0,0)"/>
<path d="" fill="#000002" transform="translate(0,0)"/>
<path d="" fill="#000002" transform="translate(0,0)"/>
<path d="" fill="#000000" transform="translate(0,0)"/>
<path d="" fill="#000000" transform="translate(0,0)"/>
<path d="" fill="#000000" transform="translate(0,0)"/>
<path d="" fill="#000000" transform="translate(0,0)"/>
<path d="" fill="#000000" transform="translate(0,0)"/>
<path d="" fill="#000000" transform="translate(0,0)"/>
<path d="" fill="#000000" transform="translate(0,0)"/>
<path d="" fill="#000000" transform="translate(0,0)"/>
<path d="" fill="#000000" transform="translate(0,0)"/>
<path d="" fill="#000000" transform="translate(0,0)"/>
<path d="" fill="#000000" transform="translate(0,0)"/>
<path d="" fill="#000000" transform="translate(0,0)"/>
<path d="" fill="#020004" transform="translate(0,0)"/>
<path d="" fill="#000004" transform="translate(0,0)"/>
<path d="" fill="#000000" transform="translate(0,0)"/>
<path d="" fill="#000000" transform="translate(0,0)"/>
<path d="" fill="#000000" transform="translate(0,0)"/>
<path d="" fill="#000000" transform="translate(0,0)"/>
<path d="" fill="#000000" transform="translate(0,0)"/>
<path d="" fill="#000000" transform="translate(0,0)"/>
<path d="" fill="#000000" transform="translate(0,0)"/>
<path d="" fill="#000000" transform="translate(0,0)"/>
<path d="" fill="#000000" transform="translate(0,0)"/>
<path d="" fill="#000000" transform="translate(0,0)"/>
<path d="" fill="#000000" transform="translate(0,0)"/>
<path d="" fill="#000000" transform="translate(0,0)"/>
<path d="" fill="#000000" transform="translate(0,0)"/>
<path d="" fill="#000000" transform="translate(0,0)"/>
<path d="" fill="#000000" transform="translate(0,0)"/>
<path d="" fill="#000000" transform="translate(0,0)"/>
<path d="" fill="#000000" transform="translate(0,0)"/>
<path d="" fill="#000000" transform="translate(0,0)"/>
<path d="" fill="#000000" transform="translate(0,0)"/>
<path d="" fill="#000000" transform="translate(0,0)"/>
<path d="" fill="#000000" transform="translate(0,0)"/>
<path d="" fill="#000000" transform="translate(0,0)"/>
<path d="" fill="#000000" transform="translate(0,0)"/>
<path d="" fill="#000000" transform="translate(0,0)"/>
<path d="" fill="#000000" transform="translate(0,0)"/>
<path d="" fill="#000000" transform="translate(0,0)"/>
<path d="" fill="#000000" transform="translate(0,0)"/>
<path d="" fill="#000000" transform="translate(0,0)"/>
<path d="" fill="#000000" transform="translate(0,0)"/>
<path d="" fill="#000000" transform="translate(0,0)"/>
<path d="" fill="#000000" transform="translate(0,0)"/>
<path d="" fill="#000000" transform="translate(0,0)"/>
<path d="" fill="#000000" transform="translate(0,0)"/>
<path d="" fill="#000000" transform="translate(0,0)"/>
<path d="" fill="#000000" transform="translate(0,0)"/>
<path d="" fill="#000000" transform="translate(0,0)"/>
<path d="" fill="#000000" transform="translate(0,0)"/>
<path d="" fill="#000000" transform="translate(0,0)"/>
<path d="" fill="#000000" transform="translate(0,0)"/>
<path d="" fill="#000000" transform="translate(0,0)"/>
<path d="" fill="#000000" transform="translate(0,0)"/>
<path d="" fill="#000000" transform="translate(0,0)"/>
<path d="" fill="#000000" transform="translate(0,0)"/>
<path d="" fill="#000000" transform="translate(0,0)"/>
<path d="" fill="#000000" transform="translate(0,0)"/>
<path d="" fill="#000000" transform="translate(0,0)"/>
<path d="" fill="#000000" transform="translate(0,0)"/>
<path d="" fill="#000000" transform="translate(0,0)"/>
<path d="" fill="#000000" transform="translate(0,0)"/>
<path d="" fill="#000000" transform="translate(0,0)"/>
<path d="" fill="#000000" transform="translate(0,0)"/>
<path d="" fill="#000000" transform="translate(0,0)"/>
<path d="" fill="#000000" transform="translate(0,0)"/>
<path d="" fill="#000000" transform="translate(0,0)"/>
<path d="" fill="#000000" transform="translate(0,0)"/>
<path d="" fill="#000000" transform="translate(0,0)"/>
<path d="" fill="#000000" transform="translate(0,0)"/>
<path d="" fill="#000000" transform="translate(0,0)"/>
<path d="" fill="#000000" transform="translate(0,0)"/>
<path d="" fill="#000000" transform="translate(0,0)"/>
</svg>
