<svg width="24" height="25" viewBox="0 0 24 25" fill="none" xmlns="http://www.w3.org/2000/svg">
<path d="M22 12.5C22 16.271 22 18.157 20.828 19.328C19.656 20.499 17.771 20.5 14 20.5H10C6.229 20.5 4.343 20.5 3.172 19.328C2.001 18.156 2 16.271 2 12.5C2 8.729 2 6.843 3.172 5.672C4.344 4.501 6.229 4.5 10 4.5H14C17.771 4.5 19.657 4.5 20.828 5.672C21.482 6.325 21.771 7.2 21.898 8.5" stroke="#591A0E" stroke-width="1.5" stroke-linecap="round"/>
<path d="M18 8.5L15.841 10.3C14.005 11.83 13.086 12.595 12 12.595C11.35 12.595 10.761 12.321 10 11.775M6 8.5L6.9 9.25L7.8 10" stroke="#591A0E" stroke-width="1.5" stroke-linecap="round"/>
</svg>
