<svg width="24" height="25" viewBox="0 0 24 25" fill="none" xmlns="http://www.w3.org/2000/svg">
<path fill-rule="evenodd" clip-rule="evenodd" d="M14.1251 20.472C13.9031 20.636 13.6621 20.772 13.3971 20.842C12.6511 21.042 11.8361 20.744 11.1241 20.544C6.35105 19.201 3.15405 17.098 2.23705 13.96C1.50505 11.454 2.20905 8.94396 3.75705 7.38396C5.19105 5.93896 7.31705 5.35296 9.49805 6.29196C10.9181 4.38796 13.0531 3.83196 15.0171 4.36696C17.1371 4.94396 19.0011 6.76596 19.6201 9.30196C19.7414 9.79929 19.8024 10.3056 19.8031 10.821C20.0591 10.9523 20.2991 11.1123 20.5231 11.301C21.6801 12.28 22.298 13.943 21.9531 15.672C21.5131 17.878 19.4681 19.427 16.5431 20.533C16.0421 20.723 15.4941 20.958 14.9471 20.862C14.6431 20.808 14.3711 20.652 14.1251 20.472ZM4.15705 13.399C3.62205 11.566 4.16005 9.81796 5.17705 8.79296C6.15305 7.80896 7.60005 7.44296 9.20005 8.37896C9.75905 8.70596 10.4801 8.51196 10.8001 7.95096C11.7181 6.33996 13.1541 5.93296 14.4911 6.29696C15.8851 6.67696 17.2251 7.92096 17.6771 9.77596C17.7324 9.99863 17.7691 10.227 17.7871 10.461C17.4207 10.5078 17.0634 10.6093 16.7271 10.762C15.6531 9.71496 14.2311 9.50896 12.9771 9.97096C11.5551 10.494 10.4051 11.846 10.1371 13.589C9.86405 15.374 10.7071 17.114 12.2761 18.787C12.0781 18.737 11.8731 18.677 11.6661 18.619C7.03505 17.316 4.76605 15.484 4.15705 13.399ZM12.1151 13.892C12.2751 12.842 12.9541 12.111 13.6681 11.847C14.3281 11.605 15.0611 11.732 15.6181 12.537C15.7011 12.6569 15.8071 12.7592 15.9299 12.8379C16.0527 12.9167 16.19 12.9703 16.3336 12.9957C16.4773 13.021 16.6246 13.0177 16.7669 12.9858C16.9093 12.954 17.0439 12.8942 17.1631 12.81C17.9631 12.243 18.6951 12.375 19.2311 12.828C19.8131 13.32 20.1991 14.24 19.9911 15.281C19.7661 16.411 18.6231 17.609 15.8361 18.662C15.6591 18.729 15.4831 18.801 15.3011 18.854C15.1481 18.741 15.0071 18.614 14.8631 18.491C12.6051 16.548 11.9401 15.031 12.1151 13.891V13.892Z" fill="#591A0E"/>
</svg>
