<svg width="24" height="25" viewBox="0 0 24 25" fill="none" xmlns="http://www.w3.org/2000/svg">
<g clip-path="url(#clip0_712_41)">
<path d="M18.6874 23.2143L9.08567 14.2212C8.91974 14.084 8.71121 14.009 8.49595 14.009C8.28069 14.009 8.07216 14.084 7.90624 14.2212L0.884521 19.2714M16.9028 14.0086C16.2208 14.0086 15.5668 13.7377 15.0845 13.2554C14.6023 12.7732 14.3314 12.1191 14.3314 11.4372C14.3314 10.7552 14.6023 10.1011 15.0845 9.61888C15.5668 9.13664 16.2208 8.86572 16.9028 8.86572C17.5848 8.86572 18.2388 9.13664 18.7211 9.61888C19.2033 10.1011 19.4742 10.7552 19.4742 11.4372C19.4742 12.1191 19.2033 12.7732 18.7211 13.2554C18.2388 13.7377 17.5848 14.0086 16.9028 14.0086Z" stroke="#591A0E" stroke-width="1.71429" stroke-linecap="round" stroke-linejoin="round"/>
<path d="M0.857117 21.4999V3.49993C0.857117 3.04527 1.03773 2.60923 1.35922 2.28774C1.68071 1.96625 2.11675 1.78564 2.5714 1.78564H8.89712C9.28872 1.77423 9.67241 1.8973 9.98433 2.13435C10.2962 2.3714 10.5175 2.70814 10.6114 3.0885L11.1428 5.21421H21.4285C21.8832 5.21421 22.3192 5.39482 22.6407 5.71631C22.9622 6.0378 23.1428 6.47384 23.1428 6.9285V21.4999C23.1428 21.9546 22.9622 22.3906 22.6407 22.7121C22.3192 23.0336 21.8832 23.2142 21.4285 23.2142H2.5714C2.11675 23.2142 1.68071 23.0336 1.35922 22.7121C1.03773 22.3906 0.857117 21.9546 0.857117 21.4999Z" stroke="#591A0E" stroke-width="1.71429" stroke-linecap="round" stroke-linejoin="round"/>
</g>
<defs>
<clipPath id="clip0_712_41">
<rect width="24" height="24" fill="white" transform="translate(0 0.5)"/>
</clipPath>
</defs>
</svg>
