<svg width="25" height="25" viewBox="0 0 25 25" fill="none" xmlns="http://www.w3.org/2000/svg">
<path d="M14 11C14 11.7956 13.6839 12.5587 13.1213 13.1213C12.5587 13.6839 11.7956 14 11 14C10.2044 14 9.44129 13.6839 8.87868 13.1213C8.31607 12.5587 8 11.7956 8 11C8 10.2044 8.31607 9.44129 8.87868 8.87868C9.44129 8.31607 10.2044 8 11 8C11.7956 8 12.5587 8.31607 13.1213 8.87868C13.6839 9.44129 14 10.2044 14 11ZM12.5 11C12.5 10.6022 12.342 10.2206 12.0607 9.93934C11.7794 9.65804 11.3978 9.5 11 9.5C10.6022 9.5 10.2206 9.65804 9.93934 9.93934C9.65804 10.2206 9.5 10.6022 9.5 11C9.5 11.3978 9.65804 11.7794 9.93934 12.0607C10.2206 12.342 10.6022 12.5 11 12.5C11.3978 12.5 11.7794 12.342 12.0607 12.0607C12.342 11.7794 12.5 11.3978 12.5 11ZM2 6.875C2 5.84 2.84 5 3.875 5H18.125C19.16 5 20 5.84 20 6.875V15.125C20 16.16 19.16 17 18.125 17H3.875C2.84 17 2 16.16 2 15.125V6.875ZM3.875 6.5C3.77554 6.5 3.68016 6.53951 3.60984 6.60983C3.53951 6.68016 3.5 6.77554 3.5 6.875V8H4.25C4.44891 8 4.63968 7.92098 4.78033 7.78033C4.92098 7.63968 5 7.44891 5 7.25V6.5H3.875ZM3.5 15.125C3.5 15.332 3.668 15.5 3.875 15.5H5V14.75C5 14.5511 4.92098 14.3603 4.78033 14.2197C4.63968 14.079 4.44891 14 4.25 14H3.5V15.125ZM6.5 14.75V15.5H15.5V14.75C15.5 14.1533 15.7371 13.581 16.159 13.159C16.581 12.7371 17.1533 12.5 17.75 12.5H18.5V9.5H17.75C17.1533 9.5 16.581 9.26295 16.159 8.84099C15.7371 8.41903 15.5 7.84674 15.5 7.25V6.5H6.5V7.25C6.5 7.84674 6.26295 8.41903 5.84099 8.84099C5.41903 9.26295 4.84674 9.5 4.25 9.5H3.5V12.5H4.25C4.84674 12.5 5.41903 12.7371 5.84099 13.159C6.26295 13.581 6.5 14.1533 6.5 14.75ZM17 15.5H18.125C18.2245 15.5 18.3198 15.4605 18.3902 15.3902C18.4605 15.3198 18.5 15.2245 18.5 15.125V14H17.75C17.5511 14 17.3603 14.079 17.2197 14.2197C17.079 14.3603 17 14.5511 17 14.75V15.5ZM18.5 8V6.875C18.5 6.77554 18.4605 6.68016 18.3902 6.60983C18.3198 6.53951 18.2245 6.5 18.125 6.5H17V7.25C17 7.44891 17.079 7.63968 17.2197 7.78033C17.3603 7.92098 17.5511 8 17.75 8H18.5ZM7.25 20C6.77483 20.0002 6.3118 19.8499 5.92728 19.5708C5.54276 19.2916 5.25649 18.8979 5.1095 18.446C5.3175 18.482 5.531 18.5 5.75 18.5H18.125C19.0201 18.5 19.8785 18.1444 20.5115 17.5115C21.1444 16.8785 21.5 16.0201 21.5 15.125V8.1275C21.9389 8.28266 22.3188 8.57012 22.5875 8.95026C22.8561 9.3304 23.0002 9.78451 23 10.25V15.125C23 15.7652 22.8739 16.3991 22.6289 16.9906C22.3839 17.582 22.0248 18.1195 21.5721 18.5721C21.1195 19.0248 20.582 19.3839 19.9906 19.6289C19.3991 19.8739 18.7652 20 18.125 20H7.25Z" fill="#591A0E"/>
</svg>
