<?xml version="1.0" encoding="UTF-8"?>
<svg version="1.1" xmlns="http://www.w3.org/2000/svg" width="512" height="512">
<path d="M0 0 C5.74400407 4.95316293 10.54592492 10.47520649 11.625 18.2265625 C11.69308037 25.86858439 11.40610216 31.12279188 6.15625 36.859375 C0.52380018 41.71629497 -5.85518199 45.28912898 -12.34375 48.859375 C-14.40054877 50.00636265 -16.45651288 51.15484808 -18.51171875 52.3046875 C-19.56149902 52.8915332 -20.6112793 53.47837891 -21.69287109 54.08300781 C-26.71231085 56.91281129 -31.68506611 59.82087118 -36.65625 62.734375 C-48.26288765 69.52871194 -59.90768334 76.25527602 -71.56152344 82.96826172 C-76.99034942 86.09617648 -82.41694281 89.22795948 -87.84375 92.359375 C-90.01040583 93.60939379 -92.1770725 94.85939378 -94.34375 96.109375 C-95.41625 96.728125 -96.48875 97.346875 -97.59375 97.984375 C-100.84375 99.859375 -104.09375 101.734375 -107.34375 103.609375 C-108.41705566 104.22868896 -109.49036133 104.84800293 -110.59619141 105.48608398 C-112.75437307 106.7309891 -114.91289967 107.97529642 -117.07177734 109.21899414 C-122.62130149 112.41703211 -128.16372789 115.62648671 -133.6953125 118.85546875 C-172.2526859 141.32494862 -203.52366969 150.08040253 -248.22827148 150.31567383 C-251.71100717 150.33746337 -255.19322743 150.37686664 -258.67578125 150.41796875 C-260.24184868 150.41814247 -260.24184868 150.41814247 -261.83955383 150.4183197 C-275.66311467 150.60173282 -288.1624458 154.31221723 -298.46875 163.796875 C-302.19400357 167.75875992 -305.16201301 172.07277114 -308.03125 176.671875 C-308.44262207 177.31825928 -308.85399414 177.96464355 -309.27783203 178.63061523 C-310.55278245 180.69577412 -310.55278245 180.69577412 -311.84375 183.859375 C-311.3373687 186.11695197 -311.3373687 186.11695197 -309.84375 187.859375 C-309.15419524 189.19164684 -308.46669033 190.52498166 -307.78125 191.859375 C-307.43964844 192.519375 -307.09804688 193.179375 -306.74609375 193.859375 C-304.18168219 199.54326556 -303.76959873 206.18680802 -305.52075195 212.17407227 C-308.23008292 218.87074715 -311.61756493 224.99113944 -315.34375 231.171875 C-315.91222656 232.13416016 -316.48070312 233.09644531 -317.06640625 234.08789062 C-324.36329511 246.31991429 -324.36329511 246.31991429 -329.90625 249.609375 C-330.91365234 250.22039062 -330.91365234 250.22039062 -331.94140625 250.84375 C-337.94606995 254.04952528 -345.24655822 253.91908384 -351.84375 252.859375 C-357.57299313 250.85897471 -362.62658921 247.92854901 -367.84375 244.859375 C-369.63111912 243.8300494 -371.41890378 242.80144514 -373.20703125 241.7734375 C-377.2489273 239.43657234 -381.27617442 237.07625349 -385.296875 234.703125 C-392.10867232 230.68939809 -398.97262915 226.77011504 -405.84375 222.859375 C-415.55350181 217.32780005 -425.23647643 211.75310508 -434.87109375 206.09130859 C-439.5756031 203.33047956 -444.29102023 200.59586201 -449.05148315 197.93232727 C-450.82930757 196.93730443 -452.60417252 195.93717938 -454.37841797 194.93579102 C-456.61879133 193.67418018 -458.86487881 192.42263993 -461.11767578 191.18334961 C-468.44327983 187.04070956 -477.56577348 181.55436239 -480.42578125 173.0703125 C-482.96514448 159.63779297 -479.50244826 151.15128079 -472.84375 139.859375 C-472.05616653 138.4706896 -471.26970717 137.08136605 -470.484375 135.69140625 C-469.71150262 134.34973184 -468.93556013 133.00982031 -468.15625 131.671875 C-467.62269897 130.75438477 -467.62269897 130.75438477 -467.07836914 129.81835938 C-462.79471779 122.73063005 -457.29028248 117.50623888 -449.46875 114.609375 C-444.23127597 113.52575968 -439.01459225 113.13576092 -433.84375 114.859375 C-433.58053955 114.15482178 -433.3173291 113.45026855 -433.04614258 112.72436523 C-431.76449945 109.67054146 -430.25235411 106.89278635 -428.60546875 104.01953125 C-427.95658691 102.88459229 -427.30770508 101.74965332 -426.63916016 100.58032227 C-425.93688383 99.36063226 -425.23423879 98.1411545 -424.53125 96.921875 C-423.80777422 95.66398441 -423.08430423 94.4060905 -422.36083984 93.14819336 C-420.89447523 90.60112756 -419.42507332 88.05584395 -417.95361328 85.51171875 C-416.04188071 82.20578189 -414.14407549 78.89197653 -412.24609375 75.578125 C-398.50945369 51.75949185 -382.22857014 30.33822448 -354.8125 21.9296875 C-337.39659244 17.31183322 -318.71390261 17.47571798 -301.44237423 22.72095013 C-290.02748518 26.12284179 -279.27259934 26.56244994 -267.43359375 26.49609375 C-265.44445183 26.50416196 -263.45531858 26.51469605 -261.46620178 26.52754211 C-256.28997502 26.55576942 -251.11415153 26.55672026 -245.93786621 26.54968262 C-237.62558577 26.54228935 -229.3134296 26.57391041 -221.00125313 26.61213112 C-218.12199107 26.62090066 -215.2430151 26.61571886 -212.36375427 26.60856628 C-198.62321563 26.61341589 -186.06886996 26.67992478 -175.59375 36.671875 C-171.72737498 40.75135731 -167.84375 44.99707414 -167.84375 50.859375 C-166.97947891 50.42612915 -166.11520782 49.9928833 -165.2247467 49.54650879 C-157.00479851 45.4263161 -148.78374444 41.30833726 -140.56165409 37.19242096 C-136.33654109 35.07727585 -132.1117963 32.96140264 -127.88793945 30.84375 C-123.7974557 28.79300055 -119.70594425 26.74431439 -115.61376762 24.69694519 C-114.0672411 23.92277132 -112.52106136 23.14790423 -110.97526741 22.37226868 C-102.2732534 18.00648492 -93.54275535 13.72297817 -84.71057987 9.6256485 C-80.64519585 7.73440055 -76.63527103 5.75925655 -72.65229893 3.69983673 C-49.95344901 -8.0127757 -22.55522963 -17.13611602 0 0 Z M-63.51293945 13.90258789 C-64.51640821 14.38647759 -65.51987696 14.8703673 -66.55375385 15.36892033 C-68.6360138 16.37330819 -70.71756168 17.37917357 -72.79840469 18.38649368 C-75.64064109 19.76114137 -78.48582204 21.12940887 -81.33261108 22.49459839 C-91.82258309 27.52763143 -102.28611501 32.61316966 -112.72915173 37.74288845 C-117.92684633 40.29477172 -123.13132551 42.83034267 -128.35327148 45.33227539 C-133.47443683 47.78659876 -138.57491869 50.27972555 -143.66344643 52.80098152 C-145.58745196 53.74586523 -147.51835743 54.67684024 -149.45619774 55.59301567 C-159.98502973 60.14930984 -159.98502973 60.14930984 -167.82144165 68.03665161 C-168.93568305 71.1654194 -168.93568305 71.1654194 -169.37763977 74.18080139 C-170.55768141 80.96209085 -176.28029088 85.57442428 -181.5234375 89.53515625 C-187.50966252 92.95153719 -192.93986558 94.30776784 -199.78857422 94.23168945 C-200.91204506 94.23716545 -200.91204506 94.23716545 -202.05821228 94.24275208 C-204.50519295 94.25078283 -206.95149606 94.23731849 -209.3984375 94.22265625 C-211.10857137 94.22213707 -212.81870583 94.22265701 -214.52883911 94.22416687 C-218.0977682 94.2240775 -221.6664697 94.21371507 -225.23535156 94.19555664 C-229.81543852 94.17276709 -234.39519644 94.17234774 -238.97532463 94.17907429 C-242.4994094 94.18240888 -246.0234187 94.17579556 -249.54748917 94.16594505 C-251.23723074 94.16209168 -252.9269807 94.1609454 -254.61672592 94.1625309 C-256.96974597 94.16290039 -259.32233717 94.15031802 -261.67529297 94.1340332 C-262.37554092 94.13651062 -263.07578888 94.13898804 -263.79725647 94.14154053 C-268.61499384 94.08813116 -268.61499384 94.08813116 -270.84375 91.859375 C-271.39248109 86.70130272 -271.39248109 86.70130272 -269.75639343 84.19102478 C-266.85816452 82.17317564 -264.4308661 82.48781826 -260.92895508 82.49047852 C-260.22935669 82.48671204 -259.5297583 82.48294556 -258.80895996 82.47906494 C-257.28991345 82.47263073 -255.77082669 82.47296418 -254.25177956 82.47924995 C-251.84211529 82.48836128 -249.43322915 82.47813449 -247.02360535 82.46263123 C-240.17289467 82.42254559 -233.32224398 82.42132096 -226.47143555 82.42358398 C-222.27919302 82.42363528 -218.08736707 82.40436537 -213.89523888 82.37425041 C-211.53093828 82.36347565 -209.16745082 82.37552865 -206.80317688 82.38807678 C-198.20340482 82.36667829 -191.63880338 81.99719133 -184.8203125 76.11328125 C-180.48850416 70.69226098 -178.27986999 66.40322657 -178.46875 59.33203125 C-179.39515973 53.22351712 -182.28874444 47.64312645 -187.21875 43.859375 C-193.21471407 39.84237444 -199.91370572 39.57121213 -206.87402344 39.61987305 C-207.75160812 39.61785889 -208.62919281 39.61584473 -209.53337097 39.61376953 C-211.43102454 39.61023735 -213.3286899 39.61097461 -215.22634125 39.61554527 C-218.24829948 39.62117795 -221.26987936 39.61191158 -224.29180908 39.5983429 C-232.88156741 39.56140553 -241.47119946 39.54257587 -250.06103516 39.55395508 C-255.32781091 39.55987222 -260.59405758 39.54122306 -265.8607254 39.50806618 C-267.84900684 39.50020963 -269.8373475 39.50125379 -271.82561493 39.51209068 C-283.72622817 39.57410192 -294.26434598 38.53310156 -305.67803955 35.05891418 C-324.53983043 29.34063408 -344.86916212 30.55125014 -362.31713867 39.67382812 C-367.59431867 42.57105187 -372.37593878 45.80675432 -376.84375 49.859375 C-377.49214844 50.42785156 -378.14054687 50.99632812 -378.80859375 51.58203125 C-390.42091758 62.41253525 -397.66760351 76.59595763 -405.21484375 90.3359375 C-409.26510604 97.68507086 -413.5617321 104.88081654 -417.93286133 112.04296875 C-418.44743896 112.89761719 -418.9620166 113.75226563 -419.4921875 114.6328125 C-419.94770996 115.37966309 -420.40323242 116.12651367 -420.87255859 116.89599609 C-422.06543769 118.94246808 -422.06543769 118.94246808 -421.84375 121.859375 C-421.27269531 122.17986816 -420.70164062 122.50036133 -420.11328125 122.83056641 C-408.03144443 129.61819611 -396.00047063 136.48377801 -384.04101562 143.48486328 C-376.65857914 147.80556394 -369.25650786 152.09092132 -361.84375 156.359375 C-349.48275933 163.4789694 -337.1573945 170.65822675 -324.84375 177.859375 C-322.25607337 175.42544892 -320.62579449 172.87490801 -318.88989258 169.76977539 C-310.70534332 155.2048464 -299.21341717 144.58106562 -282.90625 139.921875 C-274.99989226 138.02986229 -267.36699314 137.70419005 -259.26953125 137.6484375 C-256.9680923 137.6203319 -254.66666012 137.59166727 -252.36523438 137.5625 C-248.78084785 137.52160513 -245.19658258 137.48467506 -241.61206055 137.45800781 C-201.59458446 137.13535353 -173.21474861 127.12600779 -138.97802734 106.71679688 C-133.66919757 103.57070115 -128.31808734 100.4984161 -122.96875 97.421875 C-120.78379083 96.16287033 -118.59889519 94.90375539 -116.4140625 93.64453125 C-115.32899414 93.01949707 -114.24392578 92.39446289 -113.12597656 91.75048828 C-107.69715058 88.62257352 -102.27055719 85.49079052 -96.84375 82.359375 C-94.67709417 81.10935621 -92.5104275 79.85935622 -90.34375 78.609375 C-89.27125 77.990625 -88.19875 77.371875 -87.09375 76.734375 C-51.34375 56.109375 -51.34375 56.109375 -48.08837891 54.23168945 C-45.93913798 52.99146909 -43.79036844 51.75043146 -41.64208984 50.50854492 C-36.57156031 47.57867442 -31.49665532 44.65732939 -26.40460205 41.76504517 C-24.00225054 40.39983835 -21.60259109 39.02993829 -19.203125 37.65966797 C-17.51041782 36.69560642 -15.81384646 35.73833967 -14.1171875 34.78125 C-13.09109375 34.19472656 -12.065 33.60820312 -11.0078125 33.00390625 C-9.65357178 32.23590698 -9.65357178 32.23590698 -8.27197266 31.45239258 C-5.73937945 29.79090347 -3.80239799 28.16998056 -1.84375 25.859375 C-0.93880079 21.41004139 -0.91113969 19.3231886 -3.359375 15.48046875 C-8.44426064 9.40463099 -14.01474241 5.39721578 -21.84375 3.859375 C-37.36564099 2.49438459 -49.76020871 7.22160189 -63.51293945 13.90258789 Z M-451.84375 130.859375 C-454.81413086 135.05285386 -457.30459204 139.41771363 -459.7578125 143.92724609 C-460.76051141 145.71127469 -461.86095757 147.43941249 -462.96875 149.16015625 C-466.51814632 154.67746383 -468.62853563 158.87897212 -468.48046875 165.5078125 C-466.8514244 171.52428303 -463.88580394 174.0619281 -458.6796875 177.19921875 C-456.53383446 178.41232662 -454.3795948 179.61067698 -452.21875 180.796875 C-451.0512416 181.45162633 -449.88458914 182.10790601 -448.71875 182.765625 C-446.29851339 184.12946806 -443.87474406 185.48669308 -441.44824219 186.83935547 C-435.87829764 189.9515326 -430.36419425 193.16051456 -424.84375 196.359375 C-422.67734391 197.60982655 -420.51067635 198.85982522 -418.34375 200.109375 C-414.01041667 202.609375 -409.67708333 205.109375 -405.34375 207.609375 C-404.26996094 208.2288501 -403.19617188 208.8483252 -402.08984375 209.48657227 C-399.9361328 210.72913519 -397.78248633 211.97180989 -395.62890625 213.21459961 C-390.60690738 216.11252123 -385.58432193 219.00940849 -380.55932617 221.90213013 C-378.79329478 222.91884698 -377.02747569 223.93593158 -375.26171875 224.953125 C-373.05640845 226.22338373 -370.85070784 227.49296518 -368.64453125 228.76171875 C-367.13439453 229.63183594 -367.13439453 229.63183594 -365.59375 230.51953125 C-364.14500488 231.35242676 -364.14500488 231.35242676 -362.66699219 232.20214844 C-360.78181571 233.30873595 -358.91234837 234.44252193 -357.05957031 235.60253906 C-356.18913086 236.14749023 -355.31869141 236.69244141 -354.421875 237.25390625 C-353.66293945 237.74093018 -352.90400391 238.2279541 -352.12207031 238.72973633 C-348.18907485 240.67979741 -344.07748056 240.91097904 -339.84375 239.859375 C-332.91313299 236.70822908 -330.18166903 230.34136149 -326.59375 223.921875 C-325.65789062 222.29475586 -325.65789062 222.29475586 -324.703125 220.63476562 C-318.97730807 211.39467381 -318.97730807 211.39467381 -318.18310547 200.89672852 C-320.09775252 194.9921721 -325.28026228 191.20799904 -330.54882812 188.40161133 C-331.26490234 188.03704834 -331.98097656 187.67248535 -332.71875 187.296875 C-334.33220992 186.43767071 -335.94410954 185.57553194 -337.5546875 184.7109375 C-338.4115918 184.25364258 -339.26849609 183.79634766 -340.15136719 183.32519531 C-344.9447449 180.7155254 -349.63919897 177.93749212 -354.34375 175.171875 C-356.39818101 173.96831208 -358.45287305 172.76519462 -360.5078125 171.5625 C-361.5484082 170.95341797 -362.58900391 170.34433594 -363.66113281 169.71679688 C-369.00266126 166.59940286 -374.36026603 163.51000619 -379.71875 160.421875 C-380.79181396 159.80328613 -381.86487793 159.18469727 -382.97045898 158.54736328 C-387.39560182 155.99707925 -391.82145354 153.44802771 -396.24755859 150.89941406 C-398.51847391 149.59165212 -400.78914659 148.28346874 -403.05957031 146.97485352 C-405.2675942 145.70283975 -407.47655958 144.43245867 -409.68652344 143.16381836 C-414.48245328 140.40516598 -419.25853975 137.62709455 -423.97265625 134.73046875 C-424.742146 134.26165283 -425.51163574 133.79283691 -426.30444336 133.30981445 C-427.68387192 132.46504089 -429.05662707 131.60920161 -430.42016602 130.73901367 C-437.52651776 126.40080638 -445.31452527 124.94611487 -451.84375 130.859375 Z " fill="#000000" transform="translate(490.84375,249.140625)"/>
<path d="M0 0 C13.90737769 11.12239904 23.64903288 24.89419725 26.625 42.75 C28.33276113 58.89610526 25.86479692 73.82764982 15.75 86.91015625 C14.21621242 88.71080214 12.6810694 90.51029442 11.14453125 92.30859375 C-0.76052835 107.24955197 -0.44848812 126.17768976 -0.43579102 144.31640625 C-0.45545514 157.38387436 -1.3816293 167.11208507 -10.78515625 177.0234375 C-19.03522144 184.38592954 -28.25492765 186.53872896 -39.1015625 186.37890625 C-47.81550725 185.53195972 -56.26479185 181.74730371 -62 175 C-67.71308187 166.99373213 -70.27943949 159.64241802 -70.30859375 149.75 C-70.33378308 148.15494473 -70.35918061 146.55989273 -70.38476562 144.96484375 C-70.41324737 142.49496564 -70.43730665 140.02514514 -70.45629883 137.55517578 C-70.62895631 118.6994606 -72.65000896 103.41423114 -85.01171875 88.421875 C-96.88758771 73.95618 -98.53134845 59.24214657 -97 41 C-94.79408914 24.58425612 -84.56013885 10.59665364 -71.6875 0.6875 C-50.68021993 -13.85600158 -21.19814361 -14.66862946 0 0 Z M-72.4453125 19.0703125 C-82.80124799 31.92416208 -85.55396341 45.8919327 -84 62 C-82.67349834 70.09864173 -78.27320892 75.44498507 -73.21728516 81.60327148 C-64.58423538 92.24511555 -60.89681739 103.79051269 -58 117 C-52.72 117 -47.44 117 -42 117 C-41.98018066 115.41018311 -41.96036133 113.82036621 -41.93994141 112.18237305 C-41.86398261 106.29500236 -41.77525017 100.40788197 -41.68261719 94.52075195 C-41.64428722 91.97067194 -41.60944152 89.42053711 -41.578125 86.87036133 C-41.53256201 83.20894757 -41.47455262 79.5479125 -41.4140625 75.88671875 C-41.40251129 74.7428923 -41.39096008 73.59906586 -41.37905884 72.420578 C-41.35918915 71.35970474 -41.33931946 70.29883148 -41.31884766 69.20581055 C-41.30552399 68.27093307 -41.29220032 67.3360556 -41.2784729 66.37284851 C-41 64 -41 64 -39 61 C-35.5 60.6875 -35.5 60.6875 -32 61 C-29.42714198 63.57285802 -29.73108413 64.60563737 -29.68115234 68.18408203 C-29.66128265 69.26505157 -29.64141296 70.34602112 -29.62094116 71.45974731 C-29.60938995 72.63060883 -29.59783875 73.80147034 -29.5859375 75.0078125 C-29.56657135 76.20356903 -29.5472052 77.39932556 -29.5272522 78.63131714 C-29.46732056 82.46247148 -29.4210164 86.29365565 -29.375 90.125 C-29.33683276 92.71746125 -29.29778179 95.30990966 -29.2578125 97.90234375 C-29.16160775 104.26812519 -29.07762686 110.63396599 -29 117 C-23.72 117 -18.44 117 -13 117 C-12.67128906 115.64648438 -12.34257812 114.29296875 -12.00390625 112.8984375 C-8.28152499 98.34743239 -3.21205208 88.2131104 6.375 76.6875 C9.93847438 72.37307475 11.77757126 68.43770025 13 63 C13.226875 62.01 13.45375 61.02 13.6875 60 C15.04345914 46.98279226 12.7059651 33.91988657 4.6875 23.3125 C3.47542391 21.86056043 2.24678867 20.42224293 1 19 C0.48824219 18.38253906 -0.02351563 17.76507813 -0.55078125 17.12890625 C-8.21398147 8.59099831 -19.28118723 3.52972245 -30.5859375 2.75390625 C-46.67765582 2.08211607 -61.26440863 7.03345426 -72.4453125 19.0703125 Z M-57 130 C-57 134.95 -57 139.9 -57 145 C-42.81 145 -28.62 145 -14 145 C-14 140.05 -14 135.1 -14 130 C-28.19 130 -42.38 130 -57 130 Z M-56 158 C-52.03085593 165.93828814 -49.3288276 170.1908688 -41 173 C-33.93981746 173.90758699 -27.78726124 173.33412796 -22 169 C-18.30570584 165.52349174 -16.24564102 162.98256407 -15 158 C-28.53 158 -42.06 158 -56 158 Z " fill="#000000" transform="translate(350,74)"/>
<path d="M0 0 C2.98925603 1.99926586 5.4540521 4.47188711 8 7 C8.89074219 7.86496094 9.78148437 8.72992188 10.69921875 9.62109375 C18.88667152 17.66839041 18.88667152 17.66839041 19.25 21.9375 C19 25 19 25 17.9375 26.875 C15.64875887 28.20394646 13.72865564 28.61553823 11.08374023 28.56689453 C6.27054198 27.25743392 2.93719062 22.96986723 -0.4375 19.5 C-1.26443359 18.70851563 -2.09136719 17.91703125 -2.94335938 17.1015625 C-9.527348 10.4686425 -9.527348 10.4686425 -9.72265625 5.53125 C-8.56146776 -0.14288188 -5.30902183 -0.90153201 0 0 Z " fill="#000000" transform="translate(240,42)"/>
<path d="M0 0 C1.14210938 0.00386719 2.28421875 0.00773437 3.4609375 0.01171875 C4.64945312 0.03621094 5.83796875 0.06070313 7.0625 0.0859375 C8.25101562 0.08722656 9.43953125 0.08851562 10.6640625 0.08984375 C20.84664889 0.1932786 20.84664889 0.1932786 24.0625 2.4609375 C25.04522152 5.99873497 25.64049932 8.29443214 23.97460938 11.65649414 C21.22084013 14.25520564 19.27166282 13.96290437 15.53125 13.95703125 C13.60345703 13.95799805 13.60345703 13.95799805 11.63671875 13.95898438 C10.96817871 13.94859131 10.29963867 13.93819824 9.61083984 13.92749023 C7.56916026 13.89853197 5.53007784 13.90688075 3.48828125 13.91992188 C-6.38505392 13.85555209 -6.38505392 13.85555209 -8.81835938 12.11743164 C-10.60253983 9.4765799 -10.37975976 7.55675581 -9.9375 4.4609375 C-6.93283271 0.53768531 -4.85649896 -0.03826969 0 0 Z " fill="#000000" transform="translate(405.9375,118.5390625)"/>
<path d="M0 0 C1.18400391 -0.00257812 2.36800781 -0.00515625 3.58789062 -0.0078125 C13.60549565 0.10570144 13.60549565 0.10570144 16.9375 3.5 C17.67455948 9.39647582 17.67455948 9.39647582 15.8046875 12.19604492 C13.07517088 14.1022097 10.92869732 13.87193335 7.625 13.86328125 C6.38492188 13.86263672 5.14484375 13.86199219 3.8671875 13.86132812 C1.92199219 13.8371582 1.92199219 13.8371582 -0.0625 13.8125 C-1.35929687 13.81572266 -2.65609375 13.81894531 -3.9921875 13.82226562 C-13.662029 13.76698067 -13.662029 13.76698067 -17.0625 11.5 C-18.0625 8.6875 -18.0625 8.6875 -18.0625 5.5 C-13.76424844 -1.3113824 -7.38718345 -0.17751834 0 0 Z " fill="#000000" transform="translate(216.0625,118.5)"/>
<path d="M0 0 C3.5 0.4375 3.5 0.4375 5.19604492 1.5703125 C7.1022097 4.29982912 6.87193335 6.44630268 6.86328125 9.75 C6.86263672 10.99007813 6.86199219 12.23015625 6.86132812 13.5078125 C6.84521484 14.80460937 6.82910156 16.10140625 6.8125 17.4375 C6.81572266 18.73429687 6.81894531 20.03109375 6.82226562 21.3671875 C6.76698067 31.037029 6.76698067 31.037029 4.5 34.4375 C1.6875 35.4375 1.6875 35.4375 -1.5 35.4375 C-4.11246314 33.78893248 -5.07907782 33.08386295 -6.5 30.4375 C-7.2027287 26.07270168 -7.1059835 21.78535864 -7 17.375 C-7.00257813 16.19099609 -7.00515625 15.00699219 -7.0078125 13.78710938 C-6.86130319 0.8576629 -6.86130319 0.8576629 0 0 Z " fill="#000000" transform="translate(314.5,9.5625)"/>
<path d="M0 0 C3.00390625 0.67578125 3.00390625 0.67578125 5.00390625 2.30078125 C6.36076671 5.52332484 5.86211524 7.31057445 5.00390625 10.67578125 C2.52827758 14.16679022 -0.57987039 17.04787252 -3.62109375 20.05078125 C-4.41644531 20.88222656 -5.21179688 21.71367188 -6.03125 22.5703125 C-12.66956199 29.20862449 -12.66956199 29.20862449 -16.9609375 29.3203125 C-19.99609375 28.67578125 -19.99609375 28.67578125 -21.93359375 26.98828125 C-23.20697229 24.21681031 -23.35191464 22.70487082 -22.99609375 19.67578125 C-20.41300383 16.01913923 -17.11320451 13.00540213 -13.93359375 9.86328125 C-13.08603516 8.97962891 -12.23847656 8.09597656 -11.36523438 7.18554688 C-4.28637455 0.10668705 -4.28637455 0.10668705 0 0 Z " fill="#000000" transform="translate(392.99609375,41.32421875)"/>
</svg>
