<svg width="25" height="25" viewBox="0 0 25 25" fill="none" xmlns="http://www.w3.org/2000/svg">
<path d="M13.5 3.5C17.4 3.5 20.5 6.6 20.5 10.5C20.5 13.3 18.9 15.7 16.5 16.8V21.5H9.50002V18.5H8.50002C7.40002 18.5 6.50002 17.6 6.50002 16.5V13.5H5.00002C4.60002 13.5 4.30002 13 4.60002 12.7L6.50002 10.2C6.70002 6.4 9.70002 3.5 13.5 3.5ZM13.5 1.5C8.90002 1.5 5.10002 4.9 4.60002 9.4L3.00002 11.5C2.40002 12.3 2.40002 13.3 2.80002 14.1C3.20002 14.8 3.80002 15.3 4.50002 15.4V16.5C4.50002 18.4 5.80002 19.9 7.50002 20.4V23.5H18.5V18C21 16.3 22.5 13.6 22.5 10.5C22.5 5.5 18.5 1.5 13.5 1.5ZM10.5 10.5C9.90002 10.5 9.50002 10.1 9.50002 9.5C9.50002 8.9 9.90002 8.5 10.5 8.5C11.1 8.5 11.5 8.9 11.5 9.5C11.5 10.1 11.1 10.5 10.5 10.5ZM13.5 10.5C12.9 10.5 12.5 10.1 12.5 9.5C12.5 8.9 12.9 8.5 13.5 8.5C14.1 8.5 14.5 8.9 14.5 9.5C14.5 10.1 14.1 10.5 13.5 10.5ZM16.5 10.5C16 10.5 15.5 10.1 15.5 9.5C15.5 8.9 16 8.5 16.5 8.5C17 8.5 17.5 8.9 17.5 9.5C17.5 10.1 17 10.5 16.5 10.5Z" fill="#591A0E"/>
</svg>
