<svg width="25" height="25" viewBox="0 0 25 25" fill="none" xmlns="http://www.w3.org/2000/svg">
<path d="M7.5 9.5C8.16304 9.5 8.79893 9.23661 9.26777 8.76777C9.73661 8.29893 10 7.66304 10 7C10 6.33696 9.73661 5.70107 9.26777 5.23223C8.79893 4.76339 8.16304 4.5 7.5 4.5C6.83696 4.5 6.20107 4.76339 5.73223 5.23223C5.26339 5.70107 5 6.33696 5 7C5 7.66304 5.26339 8.29893 5.73223 8.76777C6.20107 9.23661 6.83696 9.5 7.5 9.5ZM7.5 11.5C6.90905 11.5 6.32389 11.3836 5.77792 11.1575C5.23196 10.9313 4.73588 10.5998 4.31802 10.182C3.90016 9.76412 3.56869 9.26804 3.34254 8.72208C3.1164 8.17611 3 7.59095 3 7C3 6.40905 3.1164 5.82389 3.34254 5.27792C3.56869 4.73196 3.90016 4.23588 4.31802 3.81802C4.73588 3.40016 5.23196 3.06869 5.77792 2.84254C6.32389 2.6164 6.90905 2.5 7.5 2.5C8.69347 2.5 9.83807 2.97411 10.682 3.81802C11.5259 4.66193 12 5.80653 12 7C12 8.19347 11.5259 9.33807 10.682 10.182C9.83807 11.0259 8.69347 11.5 7.5 11.5ZM18 13.5C18.5304 13.5 19.0391 13.2893 19.4142 12.9142C19.7893 12.5391 20 12.0304 20 11.5C20 10.9696 19.7893 10.4609 19.4142 10.0858C19.0391 9.71071 18.5304 9.5 18 9.5C17.4696 9.5 16.9609 9.71071 16.5858 10.0858C16.2107 10.4609 16 10.9696 16 11.5C16 12.0304 16.2107 12.5391 16.5858 12.9142C16.9609 13.2893 17.4696 13.5 18 13.5ZM18 15.5C16.9391 15.5 15.9217 15.0786 15.1716 14.3284C14.4214 13.5783 14 12.5609 14 11.5C14 10.4391 14.4214 9.42172 15.1716 8.67157C15.9217 7.92143 16.9391 7.5 18 7.5C19.0609 7.5 20.0783 7.92143 20.8284 8.67157C21.5786 9.42172 22 10.4391 22 11.5C22 12.5609 21.5786 13.5783 20.8284 14.3284C20.0783 15.0786 19.0609 15.5 18 15.5ZM20.5 21.5V21C20.5 20.337 20.2366 19.7011 19.7678 19.2322C19.2989 18.7634 18.663 18.5 18 18.5C17.337 18.5 16.7011 18.7634 16.2322 19.2322C15.7634 19.7011 15.5 20.337 15.5 21V21.5H13.5V21C13.5 20.4091 13.6164 19.8239 13.8425 19.2779C14.0687 18.732 14.4002 18.2359 14.818 17.818C15.2359 17.4002 15.732 17.0687 16.2779 16.8425C16.8239 16.6164 17.4091 16.5 18 16.5C18.5909 16.5 19.1761 16.6164 19.7221 16.8425C20.268 17.0687 20.7641 17.4002 21.182 17.818C21.5998 18.2359 21.9313 18.732 22.1575 19.2779C22.3836 19.8239 22.5 20.4091 22.5 21V21.5H20.5ZM10.5 21.5V17.5C10.5 17.106 10.4224 16.7159 10.2716 16.3519C10.1209 15.988 9.8999 15.6573 9.62132 15.3787C9.34274 15.1001 9.01203 14.8791 8.64805 14.7284C8.28407 14.5776 7.89397 14.5 7.5 14.5C7.10603 14.5 6.71593 14.5776 6.35195 14.7284C5.98797 14.8791 5.65726 15.1001 5.37868 15.3787C5.1001 15.6573 4.87913 15.988 4.72836 16.3519C4.5776 16.7159 4.5 17.106 4.5 17.5V21.5H2.5V17.5C2.5 16.1739 3.02678 14.9021 3.96447 13.9645C4.90215 13.0268 6.17392 12.5 7.5 12.5C8.82608 12.5 10.0979 13.0268 11.0355 13.9645C11.9732 14.9021 12.5 16.1739 12.5 17.5V21.5H10.5Z" fill="#591A0E"/>
</svg>
