<svg width="25" height="25" viewBox="0 0 25 25" fill="none" xmlns="http://www.w3.org/2000/svg">
<path d="M19.3437 8.375C19.2064 10.2814 17.7922 11.75 16.25 11.75C14.7078 11.75 13.2912 10.2819 13.1562 8.375C13.0156 6.39172 14.3923 5 16.25 5C18.1076 5 19.4844 6.42781 19.3437 8.375Z" stroke="#591A0E" stroke-width="1.5" stroke-linecap="round" stroke-linejoin="round"/>
<path d="M16.2501 14.75C13.1952 14.75 10.2576 16.2673 9.52162 19.2223C9.42412 19.6133 9.66928 20 10.071 20H22.4296C22.8313 20 23.0751 19.6133 22.979 19.2223C22.243 16.22 19.3054 14.75 16.2501 14.75Z" stroke="#591A0E" stroke-width="1.5" stroke-miterlimit="10"/>
<path d="M9.87496 9.21594C9.76527 10.7384 8.62246 11.9375 7.39058 11.9375C6.15871 11.9375 5.01402 10.7389 4.90621 9.21594C4.79418 7.63203 5.90652 6.5 7.39058 6.5C8.87465 6.5 9.98699 7.66109 9.87496 9.21594Z" stroke="#591A0E" stroke-width="1.5" stroke-linecap="round" stroke-linejoin="round"/>
<path d="M10.1562 14.8438C9.31013 14.4562 8.37825 14.3071 7.3906 14.3071C4.9531 14.3071 2.60466 15.5188 2.01638 17.879C1.93903 18.1912 2.13497 18.5001 2.4556 18.5001H7.71872" stroke="#591A0E" stroke-width="1.5" stroke-miterlimit="10" stroke-linecap="round"/>
</svg>
