<svg width="25" height="25" viewBox="0 0 25 25" fill="none" xmlns="http://www.w3.org/2000/svg">
<path d="M4.5 8.5C4.5 5.672 4.5 4.257 5.379 3.379C6.257 2.5 7.672 2.5 10.5 2.5H14.5C17.328 2.5 18.743 2.5 19.621 3.379C20.5 4.257 20.5 5.672 20.5 8.5V16.5C20.5 19.328 20.5 20.743 19.621 21.621C18.743 22.5 17.328 22.5 14.5 22.5H10.5C7.672 22.5 6.257 22.5 5.379 21.621C4.5 20.743 4.5 19.328 4.5 16.5V8.5Z" stroke="#591A0E" stroke-width="1.5"/>
<path opacity="0.5" d="M20.398 16.5H8.398C7.468 16.5 7.003 16.5 6.621 16.602C6.11231 16.7384 5.64849 17.0063 5.27618 17.3788C4.90386 17.7513 4.63616 18.2152 4.5 18.724" stroke="#591A0E" stroke-width="1.5"/>
<path opacity="0.5" d="M8.5 7.5H16.5M8.5 11H13.5" stroke="#591A0E" stroke-width="1.5" stroke-linecap="round"/>
</svg>
