<svg width="24" height="25" viewBox="0 0 24 25" fill="none" xmlns="http://www.w3.org/2000/svg">
<path d="M3.5 19.5C3.89782 19.5 4.27936 19.658 4.56066 19.9393C4.84196 20.2206 5 20.6022 5 21C5 21.3978 4.84196 21.7794 4.56066 22.0607C4.27936 22.342 3.89782 22.5 3.5 22.5C3.10218 22.5 2.72064 22.342 2.43934 22.0607C2.15804 21.7794 2 21.3978 2 21C2 20.6022 2.15804 20.2206 2.43934 19.9393C2.72064 19.658 3.10218 19.5 3.5 19.5ZM8.5 16.5C9.16304 16.5 9.79893 16.7634 10.2678 17.2322C10.7366 17.7011 11 18.337 11 19C11 19.663 10.7366 20.2989 10.2678 20.7678C9.79893 21.2366 9.16304 21.5 8.5 21.5C7.83696 21.5 7.20107 21.2366 6.73223 20.7678C6.26339 20.2989 6 19.663 6 19C6 18.337 6.26339 17.7011 6.73223 17.2322C7.20107 16.7634 7.83696 16.5 8.5 16.5ZM14.5 15.5C13.31 15.5 12.23 15 11.5 14.15C10.77 15 9.69 15.5 8.5 15.5C6.54 15.5 4.91 14.09 4.57 12.24C3.8148 11.9479 3.16539 11.4346 2.70682 10.7673C2.24825 10.1 2.00189 9.3097 2 8.5C2 7.43913 2.42143 6.42172 3.17157 5.67157C3.92172 4.92143 4.93913 4.5 6 4.5L6.77 4.57C7.5 3.91 8.45 3.5 9.5 3.5C10.69 3.5 11.77 4 12.5 4.85C13.23 4 14.31 3.5 15.5 3.5C17.46 3.5 19.09 4.91 19.43 6.76C20.1852 7.05206 20.8346 7.56536 21.2932 8.2327C21.7517 8.90003 21.9981 9.6903 22 10.5C22 11.5609 21.5786 12.5783 20.8284 13.3284C20.0783 14.0786 19.0609 14.5 18 14.5L17.23 14.43C16.5 15.09 15.55 15.5 14.5 15.5ZM6 6.5C5.46957 6.5 4.96086 6.71071 4.58579 7.08579C4.21071 7.46086 4 7.96957 4 8.5C4 9.03043 4.21071 9.53914 4.58579 9.91421C4.96086 10.2893 5.46957 10.5 6 10.5C6.33 10.5 6.64 10.42 6.92 10.28C6.64907 10.6291 6.50138 11.0581 6.5 11.5C6.5 12.0304 6.71071 12.5391 7.08579 12.9142C7.46086 13.2893 7.96957 13.5 8.5 13.5C9.1 13.5 9.64 13.23 10 12.81L11.47 11.13L13 12.84C13.38 13.24 13.91 13.5 14.5 13.5C15.5 13.5 16.33 12.76 16.5 11.8C16.84 12.23 17.39 12.5 18 12.5C18.5304 12.5 19.0391 12.2893 19.4142 11.9142C19.7893 11.5391 20 11.0304 20 10.5C20 9.96957 19.7893 9.46086 19.4142 9.08579C19.0391 8.71071 18.5304 8.5 18 8.5C17.67 8.5 17.36 8.58 17.08 8.72C17.3509 8.3709 17.4986 7.9419 17.5 7.5C17.5 6.96957 17.2893 6.46086 16.9142 6.08579C16.5391 5.71071 16.0304 5.5 15.5 5.5C14.91 5.5 14.38 5.76 14 6.16L12.47 7.87L11 6.19C10.64 5.77 10.1 5.5 9.5 5.5C8.5 5.5 7.67 6.24 7.5 7.2C7.16 6.77 6.61 6.5 6 6.5ZM8.5 18C8.23478 18 7.98043 18.1054 7.79289 18.2929C7.60536 18.4804 7.5 18.7348 7.5 19C7.5 19.2652 7.60536 19.5196 7.79289 19.7071C7.98043 19.8946 8.23478 20 8.5 20C8.76522 20 9.01957 19.8946 9.20711 19.7071C9.39464 19.5196 9.5 19.2652 9.5 19C9.5 18.7348 9.39464 18.4804 9.20711 18.2929C9.01957 18.1054 8.76522 18 8.5 18Z" fill="#591A0E"/>
</svg>
