<?xml version="1.0" encoding="UTF-8"?>
<svg version="1.1" xmlns="http://www.w3.org/2000/svg" width="512" height="512">
<path d="M0 0 C0.74121094 -0.01933594 1.48242188 -0.03867188 2.24609375 -0.05859375 C8.63887494 1.31051791 12.05766492 7.54703392 15.5625 12.5625 C16.71856314 14.1902369 17.87481849 15.8178373 19.03125 17.4453125 C19.61777344 18.27579102 20.20429688 19.10626953 20.80859375 19.96191406 C23.53265628 23.80684643 26.298389 27.62131394 29.0625 31.4375 C30.14605946 32.93733666 31.22939218 34.43733716 32.3125 35.9375 C33.116875 37.05125 33.116875 37.05125 33.9375 38.1875 C35.5625 40.4375 37.1875 42.6875 38.8125 44.9375 C39.6183252 46.0524585 39.6183252 46.0524585 40.44042969 47.18994141 C41.51604588 48.68032712 42.58963772 50.17217606 43.66113281 51.66552734 C46.47211551 55.57746401 49.32073559 59.45282178 52.234375 63.2890625 C52.83314453 64.08828125 53.43191406 64.8875 54.04882812 65.7109375 C55.19090046 67.23370062 56.3451571 68.74743221 57.51367188 70.25 C61.08868705 75.05239242 62.44112547 78.4134905 62.5625 84.4375 C61.36534335 88.16981189 60.38418567 89.8728408 57.15234375 92.09375 C52.11387396 93.97974957 47.51586682 93.75906858 42.1875 93.625 C40.65416016 93.60469727 40.65416016 93.60469727 39.08984375 93.58398438 C36.58017951 93.54880217 34.0716191 93.49957539 31.5625 93.4375 C31.48444226 105.74732742 31.45528865 118.05622946 31.48734188 130.36629105 C31.5007179 136.08343835 31.49769988 141.7995677 31.45629883 147.51660156 C31.41690809 153.04142948 31.42177923 158.56465833 31.45642281 164.08950043 C31.46199102 166.18966139 31.4520215 168.28992691 31.42573357 170.38993073 C31.29131997 181.98616406 31.24012831 190.38342467 39.51026917 199.07318115 C42.24917256 202.22859662 42.69695802 204.91095675 42.953125 208.98828125 C41.83187062 216.01854622 38.3174558 220.25101336 33.36328125 225.02734375 C32.76823288 225.61673233 32.17318451 226.20612091 31.56010437 226.81336975 C29.67432104 228.67692496 27.77505912 230.52601385 25.875 232.375 C24.58697094 233.64294663 23.29985168 234.91181819 22.01367188 236.18164062 C18.87370211 239.27772325 15.72157349 242.36091713 12.5625 245.4375 C13.28566406 247.17386719 13.28566406 247.17386719 14.0234375 248.9453125 C14.66156673 250.48433006 15.29958151 252.02339508 15.9375 253.5625 C16.25460937 254.32304687 16.57171875 255.08359375 16.8984375 255.8671875 C18.61486586 260.0152227 20.20743915 264.15331771 21.5625 268.4375 C22.77309082 268.45208252 23.98368164 268.46666504 25.23095703 268.48168945 C29.73759981 268.53981685 34.24375049 268.6170489 38.75 268.69995117 C40.69750968 268.73313265 42.64511397 268.76118557 44.59277344 268.78393555 C47.39819515 268.81760634 50.20275528 268.86992827 53.0078125 268.92578125 C53.87366974 268.93217117 54.73952698 268.9385611 55.63162231 268.94514465 C60.66933101 269.06669206 64.194288 269.66134991 68.5625 272.4375 C73.42299367 277.5680211 74.76578499 282.29170231 75.1875 289.25 C75.29964844 290.99216797 75.29964844 290.99216797 75.4140625 292.76953125 C75.46304687 293.64996094 75.51203125 294.53039062 75.5625 295.4375 C79.1925 295.4375 82.8225 295.4375 86.5625 295.4375 C86.5625 259.7975 86.5625 224.1575 86.5625 187.4375 C78.3125 187.4375 70.0625 187.4375 61.5625 187.4375 C54.68705516 181.70796263 54.68705516 181.70796263 54.25 177.25 C54.89352848 169.39895256 60.85559193 163.19585827 65.5 157.125 C70.49584003 150.53362991 75.43083148 143.90920394 80.25 137.1875 C85.26871633 130.1983993 90.37657372 123.28476266 95.56640625 116.421875 C97.68463505 113.61811034 99.77001396 110.79279695 101.83984375 107.953125 C102.37923584 107.21852051 102.91862793 106.48391602 103.47436523 105.72705078 C104.50768549 104.31868532 105.53489033 102.90580557 106.55493164 101.48779297 C107.25477173 100.53864014 107.25477173 100.53864014 107.96875 99.5703125 C108.57686523 98.73330811 108.57686523 98.73330811 109.19726562 97.87939453 C111.84418273 95.08384867 114.20877178 94.46965711 118 94.125 C122.47062971 94.5171605 125.00257675 95.61628217 127.97045898 99.08129883 C129.55251809 101.18834144 131.06441777 103.33244512 132.5625 105.5 C133.71849969 107.13689555 134.87475683 108.77360931 136.03125 110.41015625 C136.61777344 111.24691895 137.20429688 112.08368164 137.80859375 112.94580078 C140.52351032 116.80276605 143.29394191 120.61895869 146.0625 124.4375 C147.14613683 125.93728076 148.22946931 127.43728147 149.3125 128.9375 C150.116875 130.05125 150.116875 130.05125 150.9375 131.1875 C152.5625 133.4375 154.1875 135.6875 155.8125 137.9375 C156.34963623 138.68112793 156.88677246 139.42475586 157.44018555 140.19091797 C158.51494803 141.6792497 159.58933445 143.16785308 160.66333008 144.65673828 C163.49964864 148.58766283 166.34384671 152.51257611 169.19921875 156.4296875 C169.79347656 157.24695313 170.38773437 158.06421875 171 158.90625 C172.13952836 160.4731015 173.28134129 162.03829487 174.42578125 163.6015625 C175.19535156 164.66117187 175.19535156 164.66117187 175.98046875 165.7421875 C176.65758911 166.6700708 176.65758911 166.6700708 177.34838867 167.61669922 C179.68531376 171.12138196 180.91644428 173.62029485 180.5625 177.875 C180.52125 178.61621094 180.48 179.35742188 180.4375 180.12109375 C179.0818657 183.70989347 176.91641513 185.73952146 173.5625 187.4375 C169.41906065 188.04737055 165.36401794 187.90987848 161.1875 187.75 C159.51107422 187.71616211 159.51107422 187.71616211 157.80078125 187.68164062 C155.0533011 187.62293378 152.30860239 187.54086846 149.5625 187.4375 C149.57249275 188.34165901 149.57249275 188.34165901 149.58268738 189.26408386 C149.64909636 195.54196841 149.69432377 201.81975303 149.72729492 208.09790039 C149.74237428 210.44038954 149.76284078 212.7828505 149.78881836 215.12524414 C149.82523821 218.49372317 149.84223513 221.86182864 149.85546875 225.23046875 C149.87095261 226.27647751 149.88643646 227.32248627 149.90238953 228.40019226 C149.90450705 237.5643063 149.90450705 237.5643063 146.5625 241.4375 C143.70925563 242.86412219 141.72795451 242.74783868 138.5625 242.4375 C135.39228701 240.46670118 133.79186475 239.41955155 132.92758179 235.71902466 C132.92161484 234.16065384 132.92161484 234.16065384 132.91552734 232.57080078 C132.89976654 231.38922394 132.88400574 230.20764709 132.86776733 228.99026489 C132.88294907 227.08082596 132.88294907 227.08082596 132.8984375 225.1328125 C132.89365387 223.82093964 132.88887024 222.50906677 132.88394165 221.15744019 C132.87657651 218.38151587 132.88725859 215.60639692 132.91064453 212.83056641 C132.93907907 209.28376392 132.92276392 205.73885764 132.89278221 202.19212532 C132.8702907 198.79720551 132.88607605 195.40278609 132.8984375 192.0078125 C132.88831635 190.73890167 132.87819519 189.46999084 132.86776733 188.16262817 C132.99800176 178.34694653 132.99800176 178.34694653 135.91650391 174.65185547 C139.1859196 171.91577867 141.44172994 171.30877241 145.57421875 171.33984375 C146.71020508 171.34467773 146.71020508 171.34467773 147.86914062 171.34960938 C149.04766602 171.36217773 149.04766602 171.36217773 150.25 171.375 C151.04728516 171.37951172 151.84457031 171.38402344 152.66601562 171.38867188 C154.63154257 171.4004415 156.59703085 171.41837652 158.5625 171.4375 C151.40641688 161.25136366 144.19225918 151.11076871 136.88671875 141.03125 C134.56670296 137.83008433 132.2583935 134.62085124 129.95703125 131.40625 C129.36784912 130.58503662 128.77866699 129.76382324 128.17163086 128.91772461 C127.04139424 127.34194913 125.91319918 125.76470669 124.78735352 124.18579102 C124.27744873 123.47608154 123.76754395 122.76637207 123.2421875 122.03515625 C122.79601074 121.41133057 122.34983398 120.78750488 121.89013672 120.14477539 C120.5577791 118.43142916 119.12920346 116.93674738 117.5625 115.4375 C106.34167074 130.33695277 95.23773118 145.31969028 84.3125 160.4375 C83.76343994 161.19724121 83.21437988 161.95698242 82.64868164 162.73974609 C80.57586509 165.6150599 78.52905102 168.48767347 76.5625 171.4375 C77.80386719 171.40269531 79.04523438 171.36789063 80.32421875 171.33203125 C81.96613226 171.30388416 83.60806046 171.27658499 85.25 171.25 C86.06662109 171.22486328 86.88324219 171.19972656 87.72460938 171.17382812 C92.50951082 171.11571191 95.71873234 171.26407401 99.5625 174.4375 C102.27379185 177.46819207 102.93617861 179.351534 102.92326355 183.39825439 C102.92944954 184.89580765 102.92944954 184.89580765 102.9357605 186.4236145 C102.92497467 187.51262054 102.91418884 188.60162659 102.90307617 189.72363281 C102.90351425 190.87513824 102.90395233 192.02664368 102.90440369 193.21304321 C102.90231225 197.0224091 102.87896363 200.83133591 102.85546875 204.640625 C102.84987408 207.28049479 102.84560337 209.92036769 102.84260559 212.5602417 C102.83328432 218.80047769 102.80866955 225.04055586 102.77855712 231.28072238 C102.74501557 238.38585717 102.72852774 245.49099953 102.71347082 252.59619379 C102.68211999 267.21004391 102.62935795 281.82376975 102.5625 296.4375 C103.52590302 296.63879013 104.48930603 296.84008026 105.48190308 297.04747009 C107.37587326 297.44730858 107.37587326 297.44730858 109.30810547 297.85522461 C110.56025848 298.11838974 111.8124115 298.38155487 113.10250854 298.6526947 C116.83249659 299.49874141 120.15278865 300.55809089 123.6875 302 C124.72132813 302.41378906 125.75515625 302.82757813 126.8203125 303.25390625 C129.11572416 304.24466086 131.33361606 305.30877413 133.5625 306.4375 C133.53631592 305.21643555 133.51013184 303.99537109 133.4831543 302.73730469 C133.39262436 298.20510191 133.3352406 293.67297894 133.2878418 289.14013672 C133.26270396 287.17873697 133.22858835 285.21743084 133.18530273 283.25634766 C133.12461792 280.43628856 133.09628359 277.61746806 133.07421875 274.796875 C133.03550911 273.48260529 133.03550911 273.48260529 132.99601746 272.14178467 C132.99321788 266.05901038 132.99321788 266.05901038 135.90161133 262.88378906 C139.149553 261.1184155 140.91929191 260.81737947 144.5625 261.4375 C146.86525556 263.3045991 148.24073871 264.79397741 149.5625 267.4375 C149.65266377 269.04104452 149.68006075 270.64832222 149.67602539 272.25439453 C149.67594986 273.25528107 149.67587433 274.2561676 149.67579651 275.28738403 C149.67063522 276.37075043 149.66547394 277.45411682 149.66015625 278.5703125 C149.65803383 280.23077103 149.65803383 280.23077103 149.65586853 281.92477417 C149.65025772 285.47070993 149.63770337 289.01658323 149.625 292.5625 C149.61998639 294.96223867 149.61542325 297.36197833 149.61132812 299.76171875 C149.60028478 305.65366725 149.5835361 311.54557916 149.5625 317.4375 C150.17061523 317.72560547 150.77873047 318.01371094 151.40527344 318.31054688 C170.1047338 328.07930073 182.67599069 352.9761512 188.8125 372.0625 C197.53402756 400.59872613 193.32945839 430.97221099 179.75 457.125 C176.33052892 463.48384681 172.34029437 469.01109492 167.5625 474.4375 C166.89863281 475.24445313 166.23476563 476.05140625 165.55078125 476.8828125 C148.77985301 496.66072788 124.17166645 509.13059842 98.5625 512.4375 C93.80884269 512.72872377 89.07416488 512.77179822 84.3125 512.75 C83.02706299 512.74436035 81.74162598 512.7387207 80.41723633 512.73291016 C53.50882102 512.38830229 29.77180235 501.89466772 9.5625 484.4375 C8.81484375 483.79296875 8.0671875 483.1484375 7.296875 482.484375 C-4.61599976 471.34632137 -12.08601647 457.14545885 -18.77392578 442.51367188 C-21.55608858 437.36907967 -25.70896361 433.61277859 -29.8125 429.5 C-30.66328125 428.61248047 -31.5140625 427.72496094 -32.390625 426.81054688 C-33.63199219 425.56047852 -33.63199219 425.56047852 -34.8984375 424.28515625 C-35.64915527 423.52211182 -36.39987305 422.75906738 -37.17333984 421.97290039 C-39.33858482 420.1654202 -39.33858482 420.1654202 -42.01245117 420.61108398 C-46.46209543 422.1274482 -50.68627505 424.12573767 -54.96484375 426.0625 C-58.19918549 427.34313925 -61.0178973 427.92871448 -64.4375 428.4375 C-64.41655273 429.67314697 -64.39560547 430.90879395 -64.37402344 432.18188477 C-64.30136547 436.7869091 -64.2556066 441.39188322 -64.21777344 445.99731445 C-64.19771663 447.98665908 -64.17046415 449.97594518 -64.13574219 451.96508789 C-64.08696229 454.83234131 -64.06447173 457.69881211 -64.046875 460.56640625 C-64.02622986 461.44897598 -64.00558472 462.33154572 -63.98431396 463.24085999 C-63.98218397 469.16534538 -65.02916779 472.56314541 -68.4375 477.4375 C-78.27675979 486.19848475 -99.46300336 483.80324936 -111.6953125 483.1953125 C-113.65186694 483.05818128 -115.60769827 482.91018883 -117.5625 482.75 C-118.91988281 482.65174927 -118.91988281 482.65174927 -120.3046875 482.55151367 C-125.68811367 482.02795509 -129.15831377 480.99577232 -133.4375 477.4375 C-138.49187833 471.01707348 -138.58529461 465.46060191 -138.53515625 457.63671875 C-138.53303383 456.3821563 -138.53303383 456.3821563 -138.53086853 455.10224915 C-138.52529184 452.443129 -138.51274365 449.7840945 -138.5 447.125 C-138.49498199 445.31705851 -138.49041961 443.5091157 -138.48632812 441.70117188 C-138.47533004 437.27991516 -138.4580815 432.85872207 -138.4375 428.4375 C-139.68112305 428.14004883 -140.92474609 427.84259766 -142.20605469 427.53613281 C-147.58575813 426.24940924 -152.27739773 423.85868405 -157.265625 421.484375 C-160.21264929 420.16800908 -160.21264929 420.16800908 -162.27832031 421.02246094 C-165.28040201 422.9899039 -167.67236717 425.46710996 -170.15625 428.03125 C-170.69600464 428.57857788 -171.23575928 429.12590576 -171.79187012 429.68981934 C-173.51198405 431.43430559 -175.22549101 433.18506122 -176.9375 434.9375 C-179.19212387 437.24536773 -181.45330015 439.54651386 -183.71875 441.84375 C-184.23240112 442.3739978 -184.74605225 442.90424561 -185.27526855 443.45056152 C-189.54746949 447.78068103 -192.53646521 449.72664165 -198.625 449.9375 C-209.9282416 449.65342382 -217.73376614 439.81140258 -225.4375 432.4375 C-226.77748047 431.17679687 -226.77748047 431.17679687 -228.14453125 429.890625 C-244.47692193 414.13526194 -244.47692193 414.13526194 -244.75 404.75 C-244.80607422 403.50669922 -244.80607422 403.50669922 -244.86328125 402.23828125 C-243.84734679 395.55548299 -239.24518522 390.81488431 -234.578125 386.28515625 C-234.02888367 385.74015976 -233.47964233 385.19516327 -232.91375732 384.63365173 C-231.17865879 382.91518398 -229.43336925 381.20751705 -227.6875 379.5 C-226.50060877 378.32817577 -225.31440398 377.15565584 -224.12890625 375.98242188 C-221.23963864 373.12601614 -218.34118998 370.27924036 -215.4375 367.4375 C-217.56101772 360.91744234 -219.92146138 354.53547352 -222.44921875 348.16015625 C-223.4375 345.4375 -223.4375 345.4375 -223.4375 343.4375 C-224.61256104 343.45321045 -225.78762207 343.4689209 -226.99829102 343.48510742 C-231.37973104 343.53962276 -235.76114137 343.57392841 -240.14282227 343.60229492 C-242.03512625 343.61733246 -243.92739566 343.63776785 -245.81958008 343.66381836 C-248.54777586 343.70042399 -251.27550871 343.7172769 -254.00390625 343.73046875 C-254.84272842 343.74595261 -255.6815506 343.76143646 -256.54579163 343.77738953 C-263.34947638 343.77931589 -268.07683761 342.58832574 -273.25 337.875 C-279.1676359 329.85553738 -277.74676062 317.83327863 -277.69824219 308.36938477 C-277.68750805 305.87686928 -277.69819193 303.38507194 -277.7109375 300.89257812 C-277.70961594 299.28124844 -277.70705362 297.66991919 -277.703125 296.05859375 C-277.70717346 295.32708603 -277.71122192 294.59557831 -277.71539307 293.84190369 C-277.65682889 287.26667198 -277.29213626 279.53656658 -272.625 274.5 C-271.90376953 273.68208984 -271.90376953 273.68208984 -271.16796875 272.84765625 C-266.25553854 268.84452463 -260.99860837 269.17086563 -254.98046875 269.2421875 C-254.07750565 269.2450174 -253.17454254 269.24784729 -252.24421692 269.25076294 C-249.37100766 269.26192393 -246.49811445 269.28702103 -243.625 269.3125 C-241.67253056 269.32253507 -239.72005621 269.33166 -237.76757812 269.33984375 C-232.99076434 269.36184992 -228.21418569 269.39635169 -223.4375 269.4375 C-223.30682129 268.52887207 -223.17614258 267.62024414 -223.04150391 266.68408203 C-222.53332279 263.9525572 -221.95949102 261.96361923 -220.7734375 259.4921875 C-220.45632812 258.80769531 -220.13921875 258.12320312 -219.8125 257.41796875 C-219.14136587 256.00491682 -218.46683874 254.59347181 -217.7890625 253.18359375 C-216.01692059 249.53359356 -216.01692059 249.53359356 -215.49291992 245.57861328 C-216.96737863 242.23640526 -219.55858347 239.99249224 -222.15234375 237.5 C-222.72328262 236.93804932 -223.2942215 236.37609863 -223.88246155 235.79711914 C-225.70631195 234.00327104 -227.53971763 232.21964502 -229.375 230.4375 C-231.20584053 228.6545293 -233.03433357 226.86938474 -234.85682678 225.07788086 C-235.99028907 223.96412879 -237.12865411 222.85533881 -238.27244568 221.75219727 C-242.55722449 217.54889621 -244.71753633 214.65519325 -244.8125 208.625 C-244.84085938 207.81417969 -244.86921875 207.00335938 -244.8984375 206.16796875 C-243.8027639 199.67749547 -239.41546117 194.96052019 -235 190.375 C-234.06242886 189.38541382 -233.12622553 188.3945299 -232.19140625 187.40234375 C-231.73314453 186.91701172 -231.27488281 186.43167969 -230.80273438 185.93164062 C-229.42046869 184.41886058 -228.11432529 182.8628139 -226.81640625 181.27734375 C-223.67527287 177.52758354 -220.22044753 174.52037744 -216.4375 171.4375 C-215.56480469 170.715625 -214.69210938 169.99375 -213.79296875 169.25 C-208.9180579 165.43188801 -204.95929751 162.61158916 -198.703125 162.08203125 C-191.771037 163.16965195 -187.54663993 166.76277087 -182.84765625 171.63671875 C-182.25826767 172.23176712 -181.66887909 172.82681549 -181.06163025 173.43989563 C-179.19807504 175.32567896 -177.34898615 177.22494088 -175.5 179.125 C-174.23205337 180.41302906 -172.96318181 181.70014832 -171.69335938 182.98632812 C-168.59727675 186.12629789 -165.51408287 189.27842651 -162.4375 192.4375 C-156.66173422 190.55619262 -151.21768219 188.16880769 -145.6796875 185.6796875 C-142.4375 184.4375 -142.4375 184.4375 -138.4375 184.4375 C-138.44797363 183.29273193 -138.45844727 182.14796387 -138.46923828 180.96850586 C-138.50558983 176.69884398 -138.52845543 172.42919564 -138.54736328 168.15942383 C-138.55738642 166.31565038 -138.57100852 164.47189269 -138.58837891 162.62817383 C-138.61278995 159.9695241 -138.62402017 157.31108557 -138.6328125 154.65234375 C-138.64313507 153.83539536 -138.65345764 153.01844696 -138.66409302 152.17674255 C-138.66530314 145.92610651 -138.24743245 140.52588359 -134 135.625 C-122.46141 125.77498415 -100.28258049 128.7421508 -86.04199219 129.578125 C-77.91509426 130.23939825 -72.12005627 131.24700493 -66.625 137.5 C-64.77525701 140.51800172 -64.30676156 143.07892765 -64.23217773 146.54174805 C-64.21223251 147.36237228 -64.19228729 148.18299652 -64.17173767 149.02848816 C-64.14666893 150.3504998 -64.14666893 150.3504998 -64.12109375 151.69921875 C-64.0899221 153.05790825 -64.0899221 153.05790825 -64.05812073 154.44404602 C-63.99273442 157.33762016 -63.93379096 160.23128507 -63.875 163.125 C-63.8318044 165.08659793 -63.78818977 167.04818668 -63.74414062 169.00976562 C-63.63706418 173.81891739 -63.53576586 178.62816046 -63.4375 183.4375 C-61.82681641 184.03498047 -61.82681641 184.03498047 -60.18359375 184.64453125 C-58.74736242 185.17959782 -57.31116638 185.71475914 -55.875 186.25 C-55.17052734 186.51103516 -54.46605469 186.77207031 -53.74023438 187.04101562 C-49.2468213 188.71828041 -44.83160506 190.51471815 -40.4375 192.4375 C-36.8527477 190.2996117 -34.6015938 188.01706213 -32.4375 184.4375 C-30.84203859 177.74395148 -31.36657203 170.58042623 -31.4375 163.75 C-31.42997612 161.72117561 -31.41893745 159.69236148 -31.40454102 157.66357422 C-31.37617691 152.34331171 -31.39535175 147.0242565 -31.42462158 141.70404053 C-31.44605544 136.26745829 -31.42226383 130.83109142 -31.40234375 125.39453125 C-31.36994388 114.7419155 -31.38779331 104.09002705 -31.4375 93.4375 C-32.10281738 93.45321045 -32.76813477 93.4689209 -33.45361328 93.48510742 C-36.4898212 93.54775597 -39.52589272 93.58658509 -42.5625 93.625 C-44.13257813 93.66270508 -44.13257813 93.66270508 -45.734375 93.70117188 C-51.37461506 93.75471846 -55.61760493 93.7432504 -60.4375 90.4375 C-62.75377713 87.65796745 -63.38287887 85.75308873 -64 82.1875 C-63.44216049 78.46856991 -62.86848506 77.23947394 -60.80859375 74.2578125 C-60.26323975 73.46632813 -59.71788574 72.67484375 -59.15600586 71.859375 C-56.46028316 68.06031701 -53.71767015 64.30014293 -50.9375 60.5625 C-49.6978609 58.88806212 -48.45827919 57.21358175 -47.21875 55.5390625 C-46.59097656 54.6924707 -45.96320313 53.84587891 -45.31640625 52.97363281 C-42.34854875 48.96764221 -39.3935098 44.95223584 -36.4375 40.9375 C-35.27997508 39.36716748 -34.12242288 37.79685506 -32.96484375 36.2265625 C-30.53708526 32.93208676 -28.11315164 29.63483568 -25.69140625 26.3359375 C-24.76424805 25.07426758 -24.76424805 25.07426758 -23.81835938 23.78710938 C-22.65067876 22.19801019 -21.4839311 20.60822479 -20.31835938 19.01757812 C-18.70059978 16.81719202 -17.07258605 14.62503888 -15.4375 12.4375 C-14.83534668 11.62958008 -14.23319336 10.82166016 -13.61279297 9.98925781 C-13.00709473 9.19100586 -12.40139648 8.39275391 -11.77734375 7.5703125 C-11.23327881 6.8498877 -10.68921387 6.12946289 -10.12866211 5.38720703 C-7.09968548 1.89516035 -4.6897887 0.00812788 0 0 Z M-1.4375 20.4375 C-2.94142942 22.34227011 -4.32030873 24.2493579 -5.6875 26.25 C-6.59228063 27.54529844 -7.49861541 28.83951227 -8.40625 30.1328125 C-8.89480469 30.83051758 -9.38335937 31.52822266 -9.88671875 32.24707031 C-12.59982474 36.0792471 -15.39539836 39.85019685 -18.1875 43.625 C-18.77152588 44.41640381 -19.35555176 45.20780762 -19.95727539 46.02319336 C-23.07935873 50.25257898 -26.20811573 54.47697132 -29.33984375 58.69921875 C-30.29068848 59.98372925 -30.29068848 59.98372925 -31.26074219 61.29418945 C-32.47428738 62.93349258 -33.68968757 64.57142463 -34.90722656 66.20776367 C-37.60834095 69.85869874 -40.20298244 73.47379748 -42.4375 77.4375 C-41.51469238 77.45151855 -41.51469238 77.45151855 -40.57324219 77.46582031 C-37.77718914 77.51961085 -34.9827938 77.60323819 -32.1875 77.6875 C-31.21941406 77.70167969 -30.25132812 77.71585938 -29.25390625 77.73046875 C-22.06068015 77.97851103 -22.06068015 77.97851103 -18.828125 80.359375 C-16.16595998 84.33766654 -16.26710982 87.61682043 -16.23217773 92.28369141 C-16.22227814 93.09352982 -16.21237854 93.90336823 -16.20217896 94.73774719 C-16.17052601 97.42148896 -16.14579156 100.10524845 -16.12109375 102.7890625 C-16.1005275 104.6470893 -16.07953111 106.50511139 -16.05812073 108.36312866 C-16.0028661 113.25887235 -15.95347179 118.15465851 -15.90527344 123.05047607 C-15.85508315 128.04410593 -15.7993842 133.03767395 -15.74414062 138.03125 C-15.63651758 147.83328054 -15.53508183 157.63536472 -15.4375 167.4375 C-14.76275635 167.1502002 -14.0880127 166.86290039 -13.39282227 166.56689453 C-12.50135498 166.19677246 -11.6098877 165.82665039 -10.69140625 165.4453125 C-9.8104126 165.0755127 -8.92941895 164.70571289 -8.02172852 164.32470703 C-4.16868556 163.00189569 -1.24095987 163.01212572 2.5625 164.4375 C4.98381422 165.82282903 7.23378736 167.31738121 9.484375 168.96484375 C11.45165024 170.3589467 13.39904826 171.38712441 15.5625 172.4375 C15.56392502 171.33360428 15.56535004 170.22970856 15.56681824 169.09236145 C15.58348738 158.68940272 15.62625852 148.28683519 15.69459057 137.88408375 C15.72888211 132.53586531 15.75397394 127.18793319 15.75805664 121.83959961 C15.7623349 116.67814546 15.7907587 111.51733742 15.83593178 106.35608482 C15.84892185 104.3869573 15.85320913 102.41775252 15.84865379 100.44858742 C15.84375853 97.69003146 15.86979175 94.93337171 15.90307617 92.17504883 C15.89445053 91.36080948 15.88582489 90.54657013 15.87693787 89.70765686 C15.96305766 85.45034355 16.20519378 83.88654528 18.95349121 80.43261719 C21.74775293 78.2958365 22.96825374 77.79738864 26.42578125 77.73046875 C27.75512695 77.68696289 27.75512695 77.68696289 29.11132812 77.64257812 C30.02333984 77.63677734 30.93535156 77.63097656 31.875 77.625 C32.80634766 77.59986328 33.73769531 77.57472656 34.69726562 77.54882812 C36.98610186 77.49014002 39.27303426 77.45372832 41.5625 77.4375 C37.67419844 71.52344772 33.66594969 65.72139274 29.5 60 C28.35798529 58.42584481 27.21606088 56.85162412 26.07421875 55.27734375 C25.49462402 54.47925293 24.9150293 53.68116211 24.31787109 52.85888672 C22.02621343 49.6977378 19.74645809 46.52809681 17.46630859 43.35864258 C15.33219196 40.39564184 13.19101752 37.43781946 11.04638672 34.48242188 C10.08051647 33.15137067 9.11593007 31.81938658 8.15283203 30.48632812 C6.9003794 28.75659815 5.63945017 27.03347002 4.375 25.3125 C3.68019531 24.36117188 2.98539062 23.40984375 2.26953125 22.4296875 C1.70621094 21.77226562 1.14289063 21.11484375 0.5625 20.4375 C-0.0975 20.4375 -0.7575 20.4375 -1.4375 20.4375 Z M-122.4375 147.4375 C-122.54847725 150.46826758 -122.59917102 153.48006694 -122.61328125 156.51171875 C-122.63648982 158.39519334 -122.66060757 160.27865691 -122.68554688 162.16210938 C-122.72060356 165.13996637 -122.74996574 168.1174212 -122.76342773 171.09545898 C-122.77894303 173.96387986 -122.81918886 176.8311131 -122.86328125 179.69921875 C-122.86137283 180.58381271 -122.85946442 181.46840668 -122.85749817 182.37980652 C-122.96548341 187.86186297 -123.72058018 191.12958449 -127.4375 195.4375 C-133.47491498 199.08273169 -140.19834397 201.40515424 -146.75390625 203.97265625 C-149.25022515 204.96535995 -151.67720811 205.99121314 -154.12109375 207.09375 C-157.00075423 208.26053823 -158.88281113 208.86930095 -161.9375 208.875 C-162.6284375 208.89433594 -163.319375 208.91367188 -164.03125 208.93359375 C-170.4876572 207.60248382 -175.1520295 203.15048476 -179.58984375 198.578125 C-180.13484024 198.02888367 -180.67983673 197.47964233 -181.24134827 196.91375732 C-182.95981602 195.17865879 -184.66748295 193.43336925 -186.375 191.6875 C-187.54682423 190.50060877 -188.71934416 189.31440398 -189.89257812 188.12890625 C-192.74898386 185.23963864 -195.59575964 182.34118998 -198.4375 179.4375 C-206.03425653 183.13321939 -211.73199835 189.62011887 -217.6875 195.5 C-218.28997559 196.08942383 -218.89245117 196.67884766 -219.51318359 197.28613281 C-220.09148926 197.86331055 -220.66979492 198.44048828 -221.265625 199.03515625 C-221.7802832 199.54570557 -222.29494141 200.05625488 -222.82519531 200.58227539 C-224.95872307 203.0372538 -226.67390284 205.70918174 -228.4375 208.4375 C-227.66559326 209.19893311 -226.89368652 209.96036621 -226.09838867 210.74487305 C-223.22510342 213.58185034 -220.35853043 216.42552975 -217.49389648 219.27124023 C-216.2551473 220.49995644 -215.01460577 221.7268685 -213.7722168 222.9519043 C-211.98267467 224.71707941 -210.19976268 226.4887269 -208.41796875 228.26171875 C-207.86473434 228.80463058 -207.31149994 229.34754242 -206.74150085 229.90690613 C-202.12387884 234.52318751 -198.96823759 238.58833407 -198.37890625 245.359375 C-198.48288993 249.04732963 -199.97768855 252.12262128 -201.4375 255.4375 C-202.14133257 257.23842402 -202.84482404 259.03948725 -203.54321289 260.8425293 C-211.02155498 279.99287597 -211.02155498 279.99287597 -216.4375 283.4375 C-219.12077394 284.33192465 -220.77899739 284.58331687 -223.54174805 284.64282227 C-224.36237228 284.66276749 -225.18299652 284.68271271 -226.02848816 284.70326233 C-227.3504998 284.72833107 -227.3504998 284.72833107 -228.69921875 284.75390625 C-229.60501175 284.77468735 -230.51080475 284.79546844 -231.44404602 284.81687927 C-234.33762016 284.88226558 -237.23128507 284.94120904 -240.125 285 C-242.08659793 285.0431956 -244.04818668 285.08681023 -246.00976562 285.13085938 C-250.81891739 285.23793582 -255.62816046 285.33923414 -260.4375 285.4375 C-261.51897876 289.35199822 -261.58181499 293.08756787 -261.5703125 297.125 C-261.57126923 297.86451904 -261.57222595 298.60403809 -261.57321167 299.3659668 C-261.57389067 300.92594488 -261.57205592 302.48592582 -261.56787109 304.04589844 C-261.56251886 306.42910122 -261.56782553 308.81211555 -261.57421875 311.1953125 C-261.57355792 312.71354208 -261.57227665 314.23177155 -261.5703125 315.75 C-261.57233673 316.46051514 -261.57436096 317.17103027 -261.57644653 317.90307617 C-261.56061471 321.2555792 -261.32841612 324.21275837 -260.4375 327.4375 C-259.19137939 327.45208252 -257.94525879 327.46666504 -256.66137695 327.48168945 C-252.02990288 327.539743 -247.39891138 327.61697576 -242.76782227 327.69995117 C-240.76497236 327.73316727 -238.7620296 327.76120952 -236.7590332 327.78393555 C-233.87671406 327.81754234 -230.99524332 327.86986148 -228.11328125 327.92578125 C-227.22038895 327.93217117 -226.32749664 327.9385611 -225.407547 327.94514465 C-219.25087906 328.09013804 -215.70984649 329.08578847 -211.3125 333.63671875 C-209.03689619 337.03590194 -207.75904059 340.40093996 -206.4375 344.25 C-204.88128782 348.62219169 -203.36429979 352.85790293 -201.125 356.9375 C-198.45431072 362.4767074 -197.82578864 366.32311518 -199.54614258 372.26953125 C-201.35874317 376.83318274 -204.12592845 379.77174693 -207.63671875 383.125 C-208.23176712 383.71297363 -208.82681549 384.30094727 -209.43989563 384.90673828 C-211.32341872 386.76250953 -213.22364073 388.60002563 -215.125 390.4375 C-216.41325902 391.70065149 -217.70038054 392.96496419 -218.98632812 394.23046875 C-222.12373065 397.3130572 -225.27622293 400.37940813 -228.4375 403.4375 C-226.07814165 407.50350081 -223.3968004 410.89457591 -220.1875 414.3125 C-219.69660889 414.8398877 -219.20571777 415.36727539 -218.69995117 415.91064453 C-217.28483939 417.42509098 -215.86247608 418.93233954 -214.4375 420.4375 C-213.77878906 421.13875 -213.12007812 421.84 -212.44140625 422.5625 C-208.44983478 426.69234762 -204.10062322 430.09688956 -199.4375 433.4375 C-192.6095585 427.8244612 -186.49724405 421.54631935 -180.3269043 415.23095703 C-178.94764945 413.8214752 -177.56179705 412.41845898 -176.17578125 411.015625 C-175.36149658 410.18450195 -174.54721191 409.35337891 -173.70825195 408.49707031 C-169.29894506 404.49783228 -165.60211102 403.83213807 -159.765625 403.91796875 C-153.50194975 404.89574904 -148.00940714 407.87727355 -142.32958984 410.58300781 C-139.69801345 411.77146167 -136.99292365 412.66670037 -134.25 413.5625 C-129.79716009 415.12266797 -127.31882774 416.69177394 -124.4375 420.4375 C-123.53433675 423.14698975 -123.290925 424.83885334 -123.23217773 427.63354492 C-123.21223251 428.47418991 -123.19228729 429.3148349 -123.17173767 430.18095398 C-123.14666893 431.53577629 -123.14666893 431.53577629 -123.12109375 432.91796875 C-123.0899221 434.30995232 -123.0899221 434.30995232 -123.05812073 435.73005676 C-122.99272677 438.6949624 -122.93378738 441.65995672 -122.875 444.625 C-122.83180513 446.6347748 -122.78819053 448.64454063 -122.74414062 450.65429688 C-122.63705573 455.58194032 -122.53575955 460.50967299 -122.4375 465.4375 C-110.44958812 469.43347063 -94.81465152 467.9140085 -82.4375 466.4375 C-81.7775 466.1075 -81.1175 465.7775 -80.4375 465.4375 C-80.42348145 463.68276367 -80.42348145 463.68276367 -80.40917969 461.89257812 C-80.36909938 457.523711 -80.30329141 453.15553477 -80.22998047 448.78710938 C-80.20187503 446.90178346 -80.18060894 445.01634201 -80.16650391 443.13085938 C-80.14492911 440.409559 -80.09820651 437.68963269 -80.046875 434.96875 C-80.04564636 434.13508911 -80.04441772 433.30142822 -80.04315186 432.44250488 C-79.90357718 426.77825395 -78.81482686 422.09272959 -75.4375 417.4375 C-72.66052557 415.6560447 -70.47428383 414.5950185 -67.4375 413.4375 C-65.5620208 412.68369003 -63.68657899 411.9297857 -61.81176758 411.17431641 C-60.50820399 410.65314567 -59.20213563 410.13818391 -57.89331055 409.63037109 C-54.94394805 408.48204899 -52.13949609 407.27871509 -49.34375 405.7890625 C-44.45033007 403.51335915 -39.7107849 403.55401771 -34.4375 404.4375 C-31.35670131 406.06509176 -28.98132034 408.08283553 -26.4375 410.4375 C-25.7775 410.7675 -25.1175 411.0975 -24.4375 411.4375 C-24.47875 410.179375 -24.52 408.92125 -24.5625 407.625 C-24.47397695 376.37636177 -13.80442087 348.31486685 8.08203125 325.8515625 C22.33912451 312.28331854 39.67499697 303.565473 58.5625 298.4375 C59.47766241 295.18358922 59.54742416 292.55813691 59.08984375 289.25 C58.91582031 287.991875 58.74179687 286.73375 58.5625 285.4375 C57.35190918 285.42291748 56.14131836 285.40833496 54.89404297 285.39331055 C50.38740019 285.33518315 45.88124951 285.2579511 41.375 285.17504883 C39.42749032 285.14186735 37.47988603 285.11381443 35.53222656 285.09106445 C32.72680485 285.05739366 29.92224472 285.00507173 27.1171875 284.94921875 C26.25133026 284.94282883 25.38547302 284.9364389 24.49337769 284.92985535 C18.39436934 284.78270141 13.96411658 283.78161931 9.44140625 279.3671875 C6.84252084 275.31487138 5.20535328 271.05096354 3.5 266.5625 C2.82235352 264.81481747 2.14398107 263.06741624 1.46484375 261.3203125 C1.14451172 260.48653076 0.82417969 259.65274902 0.49414062 258.79370117 C-0.3388194 256.68707192 -1.23164131 254.62431893 -2.16015625 252.55859375 C-4.18153885 247.61949681 -4.32900014 243.65063159 -2.2878418 238.58349609 C-0.09677828 234.85819666 2.4615032 232.15928438 5.54296875 229.1640625 C6.11582108 228.59545502 6.6886734 228.02684753 7.27888489 227.44100952 C9.09562179 225.6409567 10.92254666 223.85166568 12.75 222.0625 C13.98962235 220.83793773 15.2285621 219.61268406 16.46679688 218.38671875 C19.49085947 215.39558901 22.52409915 212.41406094 25.5625 209.4375 C23.92784635 204.99611523 21.67774567 202.01696102 18.4375 198.625 C17.94540039 198.10091553 17.45330078 197.57683105 16.94628906 197.03686523 C15.49302016 195.49589907 14.02914512 193.96572574 12.5625 192.4375 C11.81742187 191.65117187 11.07234375 190.86484375 10.3046875 190.0546875 C6.34116165 185.96681574 2.30122575 182.5966505 -2.4375 179.4375 C-6.50233258 181.0469997 -9.17472903 183.95339253 -12.15625 187.03125 C-12.69600464 187.57857788 -13.23575928 188.12590576 -13.79187012 188.68981934 C-15.51198405 190.43430559 -17.22549101 192.18506122 -18.9375 193.9375 C-21.19212387 196.24536773 -23.45330015 198.54651386 -25.71875 200.84375 C-26.23240112 201.3739978 -26.74605225 201.90424561 -27.27526855 202.45056152 C-31.04629946 206.2727166 -34.14066749 208.69327126 -39.5625 209.0625 C-47.42666851 208.94582094 -54.43766796 204.71280036 -61.38037109 201.38574219 C-63.95095773 200.20081951 -66.58024534 199.24911558 -69.25 198.3125 C-73.73045468 196.57439258 -75.79819194 194.43903157 -78.4375 190.4375 C-79.33192465 187.75422606 -79.58331687 186.09600261 -79.64282227 183.33325195 C-79.66276749 182.51262772 -79.68271271 181.69200348 -79.70326233 180.84651184 C-79.72833107 179.5245002 -79.72833107 179.5245002 -79.75390625 178.17578125 C-79.77468735 177.26998825 -79.79546844 176.36419525 -79.81687927 175.43095398 C-79.88226558 172.53737984 -79.94120904 169.64371493 -80 166.75 C-80.0431956 164.78840207 -80.08681023 162.82681332 -80.13085938 160.86523438 C-80.23793582 156.05608261 -80.33923414 151.24683954 -80.4375 146.4375 C-85.30999556 145.84887018 -90.11653728 145.31113967 -95.03125 145.3046875 C-95.99933594 145.30339844 -96.96742188 145.30210937 -97.96484375 145.30078125 C-98.94582031 145.30464844 -99.92679688 145.30851563 -100.9375 145.3125 C-101.91847656 145.30863281 -102.89945313 145.30476562 -103.91015625 145.30078125 C-113.78195802 144.67445619 -113.78195802 144.67445619 -122.4375 147.4375 Z M24.5625 332.4375 C23.75425781 333.10265625 22.94601562 333.7678125 22.11328125 334.453125 C3.28868445 350.48141876 -7.03199293 373.18357948 -9.10498047 397.51147461 C-10.64922268 421.59159142 -3.20239061 445.02860258 12.5625 463.4375 C13.22894531 464.24832031 13.89539063 465.05914062 14.58203125 465.89453125 C31.06542829 485.22911049 54.32267831 495.2228365 79.28515625 497.21875 C105.08654357 498.7821221 128.40366788 488.61533411 147.75 472.1875 C164.26698921 456.68776458 176.02365816 433.82445069 176.80078125 410.98046875 C177.30287555 382.42864011 169.86033761 358.98186125 150.0546875 337.83984375 C116.06419565 305.07471446 60.94937753 300.8436991 24.5625 332.4375 Z " fill="#000000" transform="translate(298.4375,-0.4375)"/>
<path d="M0 0 C16.81980938 13.98090771 30.14269589 34.20300482 33.19238281 56.21020508 C33.46689041 60.0966547 33.04166785 61.9289534 30.77832031 65.12426758 C27.40068201 67.47392901 25.93027668 67.80970696 21.90332031 67.12426758 C19.86425781 66.11254883 19.86425781 66.11254883 17.90332031 64.12426758 C16.97645495 61.3261283 16.24481401 58.67128845 15.59082031 55.81176758 C12.43233832 43.3788339 7.27127083 32.9448452 -1.09667969 23.12426758 C-1.81855469 22.13426758 -2.54042969 21.14426758 -3.28417969 20.12426758 C-14.26692318 7.20339288 -32.54843543 -0.73656914 -49.09667969 -2.87573242 C-70.61204551 -4.32199561 -89.92328154 0.01254863 -107.09667969 13.56176758 C-124.6056587 28.95082537 -132.98505671 48.00677836 -135.38574219 70.87817383 C-136.13175841 90.91888231 -127.39771124 110.37488471 -114.69433594 125.38989258 C-100.01820577 140.83845065 -80.19694646 148.78140079 -59.03417969 149.37426758 C-38.24509676 149.15796498 -19.06973359 141.02749977 -4.15917969 126.74926758 C5.54801603 116.51466181 11.17224298 104.39313225 15.81347656 91.21801758 C17.1347619 88.67963428 18.46619561 87.59391366 20.90332031 86.12426758 C24.53476968 85.59468121 26.18890221 85.62224405 29.21582031 87.74926758 C31.27881037 90.65273507 31.57071473 92.59087319 31.90332031 96.12426758 C27.768685 117.28387181 12.36598589 137.76239079 -5.18823242 149.87915039 C-16.81898807 157.44928898 -29.40655331 162.74088903 -43.09667969 165.12426758 C-44.37542969 165.35114258 -45.65417969 165.57801758 -46.97167969 165.81176758 C-73.18770495 168.37875339 -97.55650186 161.67722408 -118.16943359 145.19995117 C-136.91451462 129.68546344 -148.60902543 107.65814371 -151.78417969 83.56176758 C-151.90930481 82.08422623 -152.01259251 80.60471145 -152.09667969 79.12426758 C-152.17595703 77.86163086 -152.17595703 77.86163086 -152.25683594 76.57348633 C-153.0333093 52.16521499 -144.74912277 28.2813729 -128.22167969 10.24926758 C-115.0595467 -3.525539 -99.74630389 -13.39288783 -81.09667969 -17.87573242 C-80.28070313 -18.09874023 -79.46472656 -18.32174805 -78.62402344 -18.55151367 C-51.63929993 -24.83797065 -21.44103095 -17.07237412 0 0 Z " fill="#000000" transform="translate(256.0966796875,232.875732421875)"/>
<path d="M0 0 C1.2684375 0.59361328 1.2684375 0.59361328 2.5625 1.19921875 C10.6074804 5.18742636 16.71143446 10.73578301 23 17 C23.80566406 17.77085937 24.61132812 18.54171875 25.44140625 19.3359375 C36.23961924 30.340725 44.65983085 47.08172411 45.5625 62.5625 C45.39812664 66.04834884 45.16112785 66.80095971 42.875 69.625 C39.51827734 71.2303891 37.67118573 71.62488268 34 71 C29.97864071 67.90309112 28.93536078 64.34815867 27.6875 59.625 C22.26962985 41.12062977 12.64382675 27.16597373 -4 17 C-20.70258859 7.93694767 -39.21284721 5.74434684 -57.48828125 11.00390625 C-76.85630959 18.03206504 -90.1265592 29.58868201 -99 48 C-99.64582031 49.33611328 -99.64582031 49.33611328 -100.3046875 50.69921875 C-106.6224778 65.75585037 -106.25560911 83.51167924 -100.8125 98.6875 C-92.34459285 118.70700303 -79.63322929 131.09450026 -59.6875 139.375 C-41.14092739 145.46654291 -22.61776287 143.34089113 -5.32421875 134.65625 C8.41412359 126.96448757 18.49991932 115.44717913 24.67578125 101.078125 C28.41281139 92.39145907 28.41281139 92.39145907 32 90 C35.97879218 89.39453162 37.54750501 89.70154586 40.9375 91.9375 C43.20280535 95.30113522 43.60395462 97.16550646 42.8984375 101.15234375 C36.12014575 122.63658153 20.62151164 140.09792262 0.98046875 150.6171875 C-18.39468241 160.22114652 -42.03655527 162.96122408 -62.828125 156.1875 C-63.87484375 155.795625 -64.9215625 155.40375 -66 155 C-67.02609375 154.649375 -68.0521875 154.29875 -69.109375 153.9375 C-89.40341726 146.36666558 -104.97979701 129.95980092 -114.5546875 110.90625 C-123.49993932 90.79266603 -124.23897925 68.02322418 -117.25390625 47.22265625 C-113.26874937 36.98043063 -108.21594455 28.31693403 -101 20 C-100.39285156 19.19433594 -99.78570312 18.38867188 -99.16015625 17.55859375 C-75.97966437 -9.89750422 -31.17590097 -16.21834554 0 0 Z " fill="#000000" transform="translate(420,328)"/>
<path d="M0 0 C2.48013243 2.17568504 4.81148111 4.42295655 7.109375 6.7890625 C7.67011719 7.32917969 8.23085937 7.86929687 8.80859375 8.42578125 C18.66724262 18.69844162 23.04377583 33.7191699 23.546875 47.6015625 C23.09910532 64.37426853 17.06208033 78.31901068 5.48828125 90.5390625 C-8.08112685 103.37318247 -23.44886095 107.45388344 -41.61328125 107.09765625 C-58.00105847 106.39252247 -71.27578765 98.63908301 -82.2578125 86.83203125 C-94.03196067 73.56427206 -96.73024194 57.32390177 -96.06542969 40.18359375 C-94.97816407 25.28987706 -86.69192556 11.74354109 -75.890625 1.7890625 C-53.45433892 -15.48519085 -23.03500293 -17.6186644 0 0 Z M-71.20703125 20.39453125 C-78.81300493 31.2123082 -81.2074859 42.71592592 -79.890625 55.7890625 C-78.2500181 63.34890451 -74.62288058 69.73269648 -69.890625 75.7890625 C-69.41238281 76.40523438 -68.93414062 77.02140625 -68.44140625 77.65625 C-61.94113992 85.02431007 -50.94368095 90.40161611 -41.16796875 91.02734375 C-27.23757605 91.38428595 -16.14468749 88.56549388 -5.73046875 78.75390625 C3.37784492 69.10079625 7.71864117 57.99319032 7.421875 44.75 C6.10606326 32.28268373 0.38290944 22.20991003 -8.55859375 13.64453125 C-27.90226613 -1.74616286 -55.49539187 1.22045159 -71.20703125 20.39453125 Z " fill="#000000" transform="translate(233.890625,258.2109375)"/>
<path d="M0 0 C7.33164148 5.86531319 11.96958711 12.73892801 13.1953125 22.20703125 C13.52987206 30.89442778 11.46905497 38.15542059 6.125 45.0625 C1.29104471 50.27873237 -5.53561594 53.95983895 -12.62890625 54.5234375 C-22.54178396 54.87246548 -29.80222281 54.1087578 -37.46484375 47.1953125 C-45.28371853 39.02296237 -46.8406651 32.19775069 -46.60546875 20.953125 C-45.73137209 13.20879197 -42.1573163 7.22484692 -36.1875 2.25 C-35.40052734 1.58871094 -35.40052734 1.58871094 -34.59765625 0.9140625 C-24.11721844 -7.30868462 -11.2166252 -6.15814717 0 0 Z M-28.0625 16.875 C-30.77735654 21.18683097 -31.15800654 24.28171881 -30.1875 29.25 C-28.12026951 33.23680167 -25.97233303 35.86569183 -22.1875 38.25 C-17.30202906 39.14486349 -13.22979122 38.74271949 -8.75 36.625 C-5.31767851 33.44382399 -3.3428892 30.87278139 -3.05859375 26.07421875 C-3.38145434 20.25294446 -4.93765395 17.21008382 -9.1875 13.25 C-16.48141711 9.23834559 -22.17652059 11.50084489 -28.0625 16.875 Z " fill="#000000" transform="translate(214.1875,280.75)"/>
<path d="M0 0 C2.65112305 1.42480469 2.65112305 1.42480469 5 4 C5.75910987 7.18437712 5.72131583 10.31611878 5.70703125 13.578125 C5.72215256 14.5046991 5.73727386 15.43127319 5.75285339 16.38592529 C5.79578804 19.3408633 5.80457394 22.29478093 5.8125 25.25 C5.83563982 27.25523557 5.86100408 29.26044679 5.88867188 31.265625 C5.9515813 36.17717376 5.98387151 41.08808381 6 46 C7.02407959 45.31510498 8.04815918 44.63020996 9.10327148 43.92456055 C10.46335557 43.01607834 11.82346429 42.10763302 13.18359375 41.19921875 C13.85660522 40.74897339 14.5296167 40.29872803 15.22302246 39.83483887 C28.45711869 31 28.45711869 31 33.375 31 C36.09675353 32.03685849 37.37253282 32.60162732 39 35 C39.99408136 37.90577628 40.14629013 39.49978212 39.28100586 42.45849609 C37.78271792 45.43108567 36.45869262 46.47442062 33.69140625 48.2890625 C32.34780029 49.18093262 32.34780029 49.18093262 30.97705078 50.09082031 C29.99462402 50.72084961 29.01219727 51.35087891 28 52 C26.44321533 53.01078613 26.44321533 53.01078613 24.85498047 54.04199219 C21.55877035 56.16848396 18.25043855 58.27467819 14.9375 60.375 C12.69559967 61.79789653 10.45498643 63.22277058 8.21484375 64.6484375 C7.23636475 65.26895996 6.25788574 65.88948242 5.24975586 66.52880859 C3.11952625 67.81220607 3.11952625 67.81220607 2 69 C0.0390625 69.203125 0.0390625 69.203125 -2.375 69.25 C-3.16648437 69.27578125 -3.95796875 69.3015625 -4.7734375 69.328125 C-7 69 -7 69 -8.7265625 67.734375 C-11.22285591 64.33451526 -11.12885466 60.67934088 -11.14526367 56.57641602 C-11.15164352 55.49171524 -11.15802338 54.40701447 -11.16459656 53.28944397 C-11.16570938 52.12271652 -11.1668222 50.95598907 -11.16796875 49.75390625 C-11.17129715 48.55064194 -11.17462555 47.34737762 -11.17805481 46.10765076 C-11.18311687 43.56322614 -11.18546336 41.01879488 -11.18530273 38.47436523 C-11.18748955 34.58110634 -11.20565414 30.68813064 -11.22460938 26.79492188 C-11.22754336 24.32291764 -11.22952812 21.85091205 -11.23046875 19.37890625 C-11.23765427 18.21420303 -11.24483978 17.04949982 -11.25224304 15.84950256 C-11.24916641 14.76164963 -11.24608978 13.67379669 -11.24291992 12.55297852 C-11.24434494 11.5990773 -11.24576996 10.64517609 -11.24723816 9.66236877 C-10.97425579 6.72277508 -10.34986058 4.62292412 -9 2 C-5.48746854 -0.34168764 -4.13530644 -0.49623677 0 0 Z " fill="#000000" transform="translate(385,342)"/>
</svg>
