<svg width="25" height="25" viewBox="0 0 25 25" fill="none" xmlns="http://www.w3.org/2000/svg">
<path d="M10.625 18.5C10.625 18.5 11.375 17.75 12.5 17.75C13.625 17.75 14.375 18.5 14.375 18.5M22.25 12.5C22.25 17.885 17.885 22.25 12.5 22.25C7.115 22.25 2.75 17.885 2.75 12.5C2.75 7.115 7.115 2.75 12.5 2.75C17.885 2.75 22.25 7.115 22.25 12.5ZM17.75 14C17.75 14.1989 17.671 14.3897 17.5303 14.5303C17.3897 14.671 17.1989 14.75 17 14.75C16.8011 14.75 16.6103 14.671 16.4697 14.5303C16.329 14.3897 16.25 14.1989 16.25 14C16.25 13.8011 16.329 13.6103 16.4697 13.4697C16.6103 13.329 16.8011 13.25 17 13.25C17.1989 13.25 17.3897 13.329 17.5303 13.4697C17.671 13.6103 17.75 13.8011 17.75 14ZM8.75 14C8.75 14.1989 8.67098 14.3897 8.53033 14.5303C8.38968 14.671 8.19891 14.75 8 14.75C7.80109 14.75 7.61032 14.671 7.46967 14.5303C7.32902 14.3897 7.25 14.1989 7.25 14C7.25 13.8011 7.32902 13.6103 7.46967 13.4697C7.61032 13.329 7.80109 13.25 8 13.25C8.19891 13.25 8.38968 13.329 8.53033 13.4697C8.67098 13.6103 8.75 13.8011 8.75 14Z" stroke="#591A0E" stroke-width="1.5" stroke-linecap="round" stroke-linejoin="round"/>
</svg>
