<svg width="24" height="25" viewBox="0 0 24 25" fill="none" xmlns="http://www.w3.org/2000/svg">
<path d="M12 22.5C17.5228 22.5 22 18.0228 22 12.5C22 6.97715 17.5228 2.5 12 2.5C6.47715 2.5 2 6.97715 2 12.5C2 18.0228 6.47715 22.5 12 22.5Z" stroke="#591A0E" stroke-width="1.5" stroke-linecap="round" stroke-linejoin="round"/>
<path d="M8 15.5C8.46574 16.121 9.06966 16.625 9.76393 16.9721C10.4582 17.3193 11.2238 17.5 12 17.5C12.7762 17.5 13.5418 17.3193 14.2361 16.9721C14.9303 16.625 15.5343 16.121 16 15.5M15 8.5C15 8.5 14 9.5 14 10.5C14.75 9.5 16.25 9.5 17 10.5M9 8.5C9 8.5 10 9.5 10 10.5C9.25 9.5 7.75 9.5 7 10.5" stroke="#591A0E" stroke-width="1.5" stroke-linecap="round" stroke-linejoin="round"/>
</svg>
