<svg width="25" height="25" viewBox="0 0 25 25" fill="none" xmlns="http://www.w3.org/2000/svg">
<path d="M9.5 10.5H9.51M15.5 10.5H15.51M3.5 12.5C3.5 13.6819 3.73279 14.8522 4.18508 15.9442C4.63738 17.0361 5.30031 18.0282 6.13604 18.864C6.97177 19.6997 7.96392 20.3626 9.05585 20.8149C10.1478 21.2672 11.3181 21.5 12.5 21.5C13.6819 21.5 14.8522 21.2672 15.9442 20.8149C17.0361 20.3626 18.0282 19.6997 18.864 18.864C19.6997 18.0282 20.3626 17.0361 20.8149 15.9442C21.2672 14.8522 21.5 13.6819 21.5 12.5C21.5 11.3181 21.2672 10.1478 20.8149 9.05585C20.3626 7.96392 19.6997 6.97177 18.864 6.13604C18.0282 5.30031 17.0361 4.63738 15.9442 4.18508C14.8522 3.73279 13.6819 3.5 12.5 3.5C11.3181 3.5 10.1478 3.73279 9.05585 4.18508C7.96392 4.63738 6.97177 5.30031 6.13604 6.13604C5.30031 6.97177 4.63738 7.96392 4.18508 9.05585C3.73279 10.1478 3.5 11.3181 3.5 12.5Z" stroke="#591A0E" stroke-width="2" stroke-linecap="round" stroke-linejoin="round"/>
<path d="M10 15.75C10.3259 15.4174 10.7148 15.1531 11.1441 14.9728C11.5734 14.7924 12.0344 14.6995 12.5 14.6995C12.9656 14.6995 13.4266 14.7924 13.8559 14.9728C14.2852 15.1531 14.6741 15.4174 15 15.75" stroke="#591A0E" stroke-width="2" stroke-linecap="round" stroke-linejoin="round"/>
<path d="M9.5 10.5H9.51M15.5 10.5H15.51M3.5 12.5C3.5 13.6819 3.73279 14.8522 4.18508 15.9442C4.63738 17.0361 5.30031 18.0282 6.13604 18.864C6.97177 19.6997 7.96392 20.3626 9.05585 20.8149C10.1478 21.2672 11.3181 21.5 12.5 21.5C13.6819 21.5 14.8522 21.2672 15.9442 20.8149C17.0361 20.3626 18.0282 19.6997 18.864 18.864C19.6997 18.0282 20.3626 17.0361 20.8149 15.9442C21.2672 14.8522 21.5 13.6819 21.5 12.5C21.5 11.3181 21.2672 10.1478 20.8149 9.05585C20.3626 7.96392 19.6997 6.97177 18.864 6.13604C18.0282 5.30031 17.0361 4.63738 15.9442 4.18508C14.8522 3.73279 13.6819 3.5 12.5 3.5C11.3181 3.5 10.1478 3.73279 9.05585 4.18508C7.96392 4.63738 6.97177 5.30031 6.13604 6.13604C5.30031 6.97177 4.63738 7.96392 4.18508 9.05585C3.73279 10.1478 3.5 11.3181 3.5 12.5Z" stroke="#591A0E" stroke-width="2" stroke-linecap="round" stroke-linejoin="round"/>
<path d="M10 15.75C10.3259 15.4174 10.7148 15.1531 11.1441 14.9728C11.5734 14.7924 12.0344 14.6995 12.5 14.6995C12.9656 14.6995 13.4266 14.7924 13.8559 14.9728C14.2852 15.1531 14.6741 15.4174 15 15.75" stroke="#591A0E" stroke-width="2" stroke-linecap="round" stroke-linejoin="round"/>
</svg>
