<?xml version="1.0" encoding="UTF-8"?>
<svg version="1.1" xmlns="http://www.w3.org/2000/svg" width="256" height="256">
<path d="M0 0 C9.98696488 2.78325251 17.96554935 14.15318277 25.03515625 21.32421875 C29.62202922 25.95115175 34.22794399 30.43635274 39.23632812 34.60742188 C41.53922604 36.73339331 42.73382582 38.43310659 43.125 41.5625 C42.8125 44.0625 42.8125 44.0625 41.5859375 45.70703125 C39.29081828 47.46123031 37.97786104 47.37403744 35.125 47.25 C33.91263672 47.20939453 33.91263672 47.20939453 32.67578125 47.16796875 C32.06089844 47.13316406 31.44601563 47.09835938 30.8125 47.0625 C30.82249275 48.83109627 30.82249275 48.83109627 30.83268738 50.63542175 C30.89349049 61.74452448 30.93846886 72.85359347 30.96793652 83.96282482 C30.98359539 89.67426168 31.00483796 95.38556425 31.03881836 101.09692383 C31.07140352 106.60823703 31.08935134 112.11942104 31.09713173 117.63082314 C31.10267672 119.7339818 31.11350466 121.83713335 31.12969017 123.94023705 C31.15145298 126.88503705 31.15446737 129.82930249 31.15307617 132.77416992 C31.163862 133.6445137 31.17464783 134.51485748 31.1857605 135.41157532 C31.16184302 140.08731158 30.96268955 143.33689959 27.8125 147.0625 C23.95755298 149.809677 19.55302025 149.34968401 15.01980591 149.33665466 C14.12224008 149.34189134 13.22467426 149.34712802 12.29990947 149.35252339 C9.28599509 149.36755037 6.27225008 149.36822913 3.25830078 149.36889648 C1.09998283 149.3765161 -1.05833239 149.38494326 -3.21664429 149.39411926 C-9.08439696 149.41608944 -14.95209752 149.42486646 -20.81988668 149.42994571 C-24.48440388 149.43358602 -28.14890736 149.43982435 -31.81341934 149.4469471 C-44.59355521 149.47144944 -57.37365044 149.48449539 -70.15380859 149.48803711 C-82.07357791 149.49167394 -93.99308998 149.52157805 -105.91278064 149.56344169 C-116.14132952 149.59810867 -126.36979299 149.61358492 -136.59840024 149.61428314 C-142.70980025 149.61507712 -148.82093827 149.62387156 -154.93227768 149.65228081 C-160.67957117 149.67839994 -166.42638428 149.68070081 -172.17370987 149.66462517 C-174.28365371 149.66280584 -176.3936248 149.66954479 -178.50350952 149.68544388 C-181.38319134 149.70582173 -184.26117929 149.69540126 -187.14083862 149.67723083 C-187.97664172 149.6904308 -188.81244482 149.70363077 -189.67357528 149.71723074 C-193.81998385 149.657433 -196.40801431 149.2983057 -199.69041634 146.64907932 C-203.79440722 142.39800111 -203.36231609 138.94787481 -203.390625 133.29296875 C-203.39632507 132.41981522 -203.40202515 131.54666168 -203.40789795 130.64704895 C-203.41735345 128.79685683 -203.42388411 126.94664782 -203.42773438 125.09643555 C-203.43742565 122.27167156 -203.46843755 119.44763956 -203.5 116.62304688 C-203.50653152 114.82552515 -203.51178141 113.02799823 -203.515625 111.23046875 C-203.5279718 110.38759811 -203.5403186 109.54472748 -203.55303955 108.67631531 C-203.53540344 104.01034978 -203.32386912 100.78372847 -200.1875 97.0625 C-197.09614998 95.14156179 -194.75359872 94.81721667 -191.14355469 94.83544922 C-189.64245148 94.83567581 -189.64245148 94.83567581 -188.11102295 94.83590698 C-187.03797913 94.84622955 -185.9649353 94.85655212 -184.859375 94.8671875 C-183.75523254 94.8700174 -182.65109009 94.87284729 -181.51348877 94.87576294 C-177.9880488 94.88695511 -174.46286315 94.91205825 -170.9375 94.9375 C-168.54687867 94.94753103 -166.15625336 94.95665667 -163.765625 94.96484375 C-157.90616327 94.9868913 -152.04684981 95.02035947 -146.1875 95.0625 C-146.20925293 93.92470093 -146.20925293 93.92470093 -146.23144531 92.76391602 C-146.24272461 91.77061279 -146.25400391 90.77730957 -146.265625 89.75390625 C-146.28737793 88.27579468 -146.28737793 88.27579468 -146.30957031 86.76782227 C-146.1576488 83.4009378 -145.44935289 81.56669427 -143.1875 79.0625 C-140.08902229 77.15086733 -137.75690275 76.81719999 -134.14355469 76.83544922 C-132.64245148 76.83567581 -132.64245148 76.83567581 -131.11102295 76.83590698 C-130.03797913 76.84622955 -128.9649353 76.85655212 -127.859375 76.8671875 C-126.75523254 76.8700174 -125.65109009 76.87284729 -124.51348877 76.87576294 C-120.9880488 76.88695511 -117.46286315 76.91205825 -113.9375 76.9375 C-111.54687867 76.94753103 -109.15625336 76.95665667 -106.765625 76.96484375 C-100.90616327 76.9868913 -95.04684981 77.02035947 -89.1875 77.0625 C-89.20200195 76.30396729 -89.21650391 75.54543457 -89.23144531 74.76391602 C-89.24272461 73.77061279 -89.25400391 72.77730957 -89.265625 71.75390625 C-89.28012695 70.76849854 -89.29462891 69.78309082 -89.30957031 68.76782227 C-89.1576488 65.4009378 -88.44935289 63.56669427 -86.1875 61.0625 C-83.08902229 59.15086733 -80.75690275 58.81719999 -77.14355469 58.83544922 C-75.64245148 58.83567581 -75.64245148 58.83567581 -74.11102295 58.83590698 C-73.03797913 58.84622955 -71.9649353 58.85655212 -70.859375 58.8671875 C-69.75523254 58.8700174 -68.65109009 58.87284729 -67.51348877 58.87576294 C-63.9880488 58.88695511 -60.46286315 58.91205825 -56.9375 58.9375 C-54.54687867 58.94753103 -52.15625336 58.95665667 -49.765625 58.96484375 C-43.90615205 58.98689135 -38.04686914 59.02141489 -32.1875 59.0625 C-32.1875 55.1025 -32.1875 51.1425 -32.1875 47.0625 C-33.425 47.145 -34.6625 47.2275 -35.9375 47.3125 C-39.09611045 47.30688968 -40.01509424 47.1760355 -42.75 45.375 C-44.1875 43.0625 -44.1875 43.0625 -44.16235352 40.82958984 C-42.73358663 36.77408173 -40.07371646 34.43464228 -37.02734375 31.4765625 C-36.40404678 30.85655365 -35.78074982 30.2365448 -35.13856506 29.5977478 C-33.14322105 27.61813329 -31.13416947 25.65307042 -29.125 23.6875 C-27.79926794 22.37326507 -26.4743887 21.05816928 -25.15039062 19.7421875 C-5.32630224 0.1044373 -5.32630224 0.1044373 0 0 Z M-1.1875 6.0625 C-10.18147053 14.36176384 -19.02355953 22.79324099 -27.6875 31.4375 C-28.53030518 32.27579346 -29.37311035 33.11408691 -30.24145508 33.9777832 C-31.0177124 34.75597412 -31.79396973 35.53416504 -32.59375 36.3359375 C-33.28791016 37.03122559 -33.98207031 37.72651367 -34.69726562 38.44287109 C-36.30034996 39.81833053 -36.30034996 39.81833053 -36.1875 41.0625 C-33.2175 41.3925 -30.2475 41.7225 -27.1875 42.0625 C-26.8575 75.3925 -26.5275 108.7225 -26.1875 143.0625 C-10.3475 143.0625 5.4925 143.0625 21.8125 143.0625 C25.05093458 139.9443775 25.05093458 139.9443775 25.21122742 135.98127747 C25.22376556 135.15256638 25.23630371 134.32385529 25.2492218 133.47003174 C25.24778671 132.56444519 25.24635162 131.65885864 25.24487305 130.72583008 C25.2550647 129.76954208 25.26525635 128.81325409 25.27575684 127.82798767 C25.30598557 124.66261003 25.31516794 121.49753451 25.32421875 118.33203125 C25.34105809 116.13912441 25.35920731 113.94622727 25.37861633 111.75334167 C25.42620319 105.97806834 25.45595642 100.2028343 25.48205566 94.4274292 C25.51181736 88.53552486 25.55836273 82.64375606 25.60351562 76.75195312 C25.68964759 65.18887286 25.75694887 53.62576477 25.8125 42.0625 C30.7625 41.5675 30.7625 41.5675 35.8125 41.0625 C32.62253446 37.1170163 29.38078644 33.59265214 25.5625 30.25 C19.39470178 24.8378279 13.69482449 18.96892568 7.96972656 13.09448242 C7.21788086 12.33111572 6.46603516 11.56774902 5.69140625 10.78125 C5.0166626 10.08966797 4.34191895 9.39808594 3.64672852 8.68554688 C1.80504887 6.84232255 1.80504887 6.84232255 -1.1875 6.0625 Z M-81.96289062 66.13220215 C-83.81387038 69.04982005 -83.58031615 71.94338554 -83.52807617 75.2878418 C-83.52851425 76.01979767 -83.52895233 76.75175354 -83.52940369 77.50588989 C-83.52731398 79.92477105 -83.50397515 82.34295871 -83.48046875 84.76171875 C-83.47487342 86.43894573 -83.47060303 88.11617762 -83.46760559 89.79341125 C-83.45615178 94.20762675 -83.42668011 98.62154605 -83.39349365 103.03564453 C-83.35740839 108.33196136 -83.34363415 113.62837722 -83.32613373 118.9247818 C-83.29704294 126.97089385 -83.23955988 135.01635605 -83.1875 143.0625 C-66.3575 143.0625 -49.5275 143.0625 -32.1875 143.0625 C-32.1875 117.3225 -32.1875 91.5825 -32.1875 65.0625 C-40.045625 65.000625 -47.90375 64.93875 -56 64.875 C-58.47862549 64.84768799 -60.95725098 64.82037598 -63.51098633 64.79223633 C-65.47216301 64.78347579 -67.43334512 64.77583083 -69.39453125 64.76953125 C-70.92611877 64.7465094 -70.92611877 64.7465094 -72.48864746 64.72302246 C-73.94990051 64.72247864 -73.94990051 64.72247864 -75.44067383 64.72192383 C-76.70975334 64.71193108 -76.70975334 64.71193108 -78.00447083 64.70173645 C-80.2124658 64.92850947 -80.2124658 64.92850947 -81.96289062 66.13220215 Z M-138.96289062 84.23547363 C-140.66896126 86.7808045 -140.54829117 88.58303267 -140.52807617 91.63549805 C-140.52784958 92.77645432 -140.52762299 93.91741058 -140.52738953 95.09294128 C-140.51190567 96.32426285 -140.49642181 97.55558441 -140.48046875 98.82421875 C-140.47622391 100.08514847 -140.47197906 101.34607819 -140.46760559 102.6452179 C-140.45364627 105.99424943 -140.42670104 109.34266758 -140.39349365 112.69152832 C-140.36278106 116.11005256 -140.34893332 119.52864209 -140.33398438 122.94726562 C-140.30342182 129.65268937 -140.24470299 136.35703839 -140.1875 143.0625 C-123.3575 143.0625 -106.5275 143.0625 -89.1875 143.0625 C-89.1875 123.2625 -89.1875 103.4625 -89.1875 83.0625 C-97.045625 83.000625 -104.90375 82.93875 -113 82.875 C-115.47862549 82.84768799 -117.95725098 82.82037598 -120.51098633 82.79223633 C-122.47216301 82.78347579 -124.43334512 82.77583083 -126.39453125 82.76953125 C-127.92611877 82.7465094 -127.92611877 82.7465094 -129.48864746 82.72302246 C-130.94990051 82.72247864 -130.94990051 82.72247864 -132.44067383 82.72192383 C-133.70975334 82.71193108 -133.70975334 82.71193108 -135.00447083 82.70173645 C-137.22971662 82.91704156 -137.22971662 82.91704156 -138.96289062 84.23547363 Z M-197.1875 104.0625 C-197.48575343 106.82669033 -197.60794886 109.36098594 -197.5859375 112.125 C-197.58880768 112.91269775 -197.59167786 113.70039551 -197.59463501 114.51196289 C-197.59667522 116.17627685 -197.59114832 117.84061481 -197.57861328 119.50488281 C-197.56255809 122.05327947 -197.57846244 124.60009021 -197.59765625 127.1484375 C-197.59567381 128.7656285 -197.59183011 130.38281852 -197.5859375 132 C-197.59201019 132.76256104 -197.59808289 133.52512207 -197.6043396 134.31079102 C-197.61728317 138.27877092 -197.61728317 138.27877092 -195.95991516 141.7660675 C-193.65058304 143.45522774 -192.287148 143.42548935 -189.44067383 143.40307617 C-188.47990433 143.40284958 -187.51913483 143.40262299 -186.5292511 143.40238953 C-185.49479355 143.38690567 -184.460336 143.37142181 -183.39453125 143.35546875 C-182.33336594 143.35122391 -181.27220062 143.34697906 -180.17887878 143.34260559 C-176.78566235 143.32579706 -173.39303728 143.28814019 -170 143.25 C-167.70118044 143.234956 -165.40235159 143.22126711 -163.10351562 143.20898438 C-157.46443198 143.17843679 -151.82662883 143.11971777 -146.1875 143.0625 C-146.1875 129.2025 -146.1875 115.3425 -146.1875 101.0625 C-152.9688847 100.99369226 -159.74906212 100.93393854 -166.53051758 100.89770508 C-168.83817648 100.88260324 -171.14580661 100.86212031 -173.45336914 100.83618164 C-176.76716199 100.79986025 -180.08057592 100.78278764 -183.39453125 100.76953125 C-184.4289888 100.75404739 -185.46344635 100.73856354 -186.5292511 100.72261047 C-187.4900206 100.72238388 -188.4507901 100.72215729 -189.44067383 100.72192383 C-190.70975334 100.71193108 -190.70975334 100.71193108 -192.00447083 100.70173645 C-194.71762413 101.15010738 -195.5911214 101.84714296 -197.1875 104.0625 Z " fill="#83C3FF" transform="translate(208.1875,101.9375)"/>
<path d="M0 0 C2.43828279 1.83797608 4.65370756 3.91579011 6.91894531 5.9609375 C9.84173516 8.36124062 12.25177351 10.09079948 16.14428711 9.78759766 C18.62450899 9.1959851 21.00417149 8.46671394 23.41894531 7.6484375 C29.28351029 5.74453844 33.74065186 4.31860633 39.91894531 5.9609375 C42.50192313 8.15085347 44.40310375 9.92925438 45.91894531 12.9609375 C45.93847656 14.984375 45.93847656 14.984375 45.73144531 17.3359375 C45.67601562 18.10679688 45.62058594 18.87765625 45.56347656 19.671875 C44.69992883 22.73877784 43.32801564 23.8936861 40.91894531 25.9609375 C38.32861328 27.05761719 38.32861328 27.05761719 35.41113281 27.8828125 C34.34121094 28.18574219 33.27128906 28.48867187 32.16894531 28.80078125 C31.05519531 29.10113281 29.94144531 29.40148437 28.79394531 29.7109375 C27.70339844 30.02675781 26.61285156 30.34257813 25.48925781 30.66796875 C10.1403495 34.90911447 10.1403495 34.90911447 3.97851562 32.06542969 C2.29394531 30.9609375 2.29394531 30.9609375 -0.08105469 28.9609375 C-0.02081974 31.04506657 0.06802852 33.12838185 0.16894531 35.2109375 C0.21535156 36.37109375 0.26175781 37.53125 0.30957031 38.7265625 C1.04662276 42.63861013 1.73013547 43.62080303 4.91894531 45.9609375 C8.40072862 47.77157568 12.01193758 49.27505273 15.63183594 50.78515625 C16.73108398 51.27048828 16.73108398 51.27048828 17.85253906 51.765625 C18.51310303 52.04390137 19.17366699 52.32217773 19.85424805 52.60888672 C22.91549108 54.61351767 25.19356898 56.74787787 26.91894531 59.9609375 C27.63028091 63.37466735 27.62067293 66.70190426 27.58300781 70.1796875 C27.58779144 71.15578979 27.59257507 72.13189209 27.59750366 73.13757324 C27.60089625 75.19508482 27.59173886 77.25265076 27.57080078 79.31005859 C27.54402641 82.45142312 27.57057077 85.58921477 27.60253906 88.73046875 C27.59923485 90.73438285 27.59282838 92.73829474 27.58300781 94.7421875 C27.59818954 96.14398254 27.59818954 96.14398254 27.61367798 97.57409668 C27.5346441 101.99251963 27.34042323 105.02556457 24.50244141 108.53710938 C20.5068777 112.28573501 17.79894435 112.35116181 12.46972656 112.3203125 C8.36026027 111.74133716 6.70544954 109.96178821 3.91894531 106.9609375 C2.44688518 104.01681723 2.68087339 100.99807835 2.60253906 97.765625 C2.58175797 97.05818146 2.56097687 96.35073792 2.53956604 95.62185669 C2.47413453 93.35998325 2.41521557 91.09799288 2.35644531 88.8359375 C2.31325398 87.30337328 2.26963949 85.77082093 2.22558594 84.23828125 C2.11845976 80.47928677 2.01717441 76.72017458 1.91894531 72.9609375 C-1.05105469 71.6409375 -4.02105469 70.3209375 -7.08105469 68.9609375 C-9.55210312 76.57698932 -11.71259353 84.23504933 -13.70214844 91.98828125 C-14.16762888 93.78711309 -14.63312388 95.58594116 -15.09863281 97.38476562 C-15.81490651 100.15641196 -16.52621629 102.92892745 -17.22387695 105.70532227 C-17.91025567 108.42866511 -18.61690368 111.14607926 -19.32714844 113.86328125 C-19.52940536 114.68835678 -19.73166229 115.51343231 -19.94004822 116.36351013 C-21.36320938 121.71696059 -23.18147302 124.99614933 -27.08105469 128.9609375 C-30.80572318 130.82327175 -35.02600782 130.53224579 -39.08105469 129.9609375 C-42.20683612 128.2888628 -44.47386644 126.175314 -46.08105469 122.9609375 C-46.91618524 115.09379424 -45.10699393 108.04863772 -42.98339844 100.53125 C-42.51372398 98.80211868 -42.51372398 98.80211868 -42.03456116 97.03805542 C-41.04111101 93.38397133 -40.03147515 89.73466838 -39.01855469 86.0859375 C-38.00313553 82.41552772 -36.99154726 78.74427067 -35.99183655 75.06954956 C-35.37142496 72.78987999 -34.74187717 70.51267298 -34.10227966 68.23831177 C-33.8219136 67.20979095 -33.54154755 66.18127014 -33.25268555 65.12158203 C-32.87629189 63.76783981 -32.87629189 63.76783981 -32.49229431 62.38674927 C-32.05768225 59.82306866 -32.18720418 58.38174257 -33.08105469 55.9609375 C-34.06134085 54.61304403 -35.06076603 53.27881035 -36.08105469 51.9609375 C-37.18017017 48.66359104 -37.19500029 46.23135005 -37.17871094 42.76171875 C-37.17548828 41.55322266 -37.17226562 40.34472656 -37.16894531 39.09960938 C-37.15637695 37.2056543 -37.15637695 37.2056543 -37.14355469 35.2734375 C-37.13904297 33.99919922 -37.13453125 32.72496094 -37.12988281 31.41210938 C-37.11808342 28.26167186 -37.10162066 25.11132801 -37.08105469 21.9609375 C-40.89960807 22.45900968 -43.14295789 22.80811352 -45.62548828 25.85888672 C-47.10434554 28.3308452 -48.45698902 30.83380765 -49.76855469 33.3984375 C-50.68128863 35.13045576 -51.60160809 36.85850255 -52.53027344 38.58203125 C-52.92561279 39.3495874 -53.32095215 40.11714355 -53.72827148 40.90795898 C-55.7542416 43.98256334 -57.99208835 45.58839638 -61.45605469 46.7734375 C-65.87091594 47.08878473 -68.93877396 45.85623861 -72.39355469 43.1484375 C-74.44180847 40.49329371 -75.00619853 39.32946466 -75.08105469 35.9609375 C-73.40710556 28.80082716 -69.90800464 22.78855445 -66.08105469 16.5859375 C-65.54738281 15.69777344 -65.01371094 14.80960938 -64.46386719 13.89453125 C-57.91561898 3.12738681 -51.27850441 1.54870059 -39.21777344 -1.55078125 C-27.17096714 -4.29417887 -11.02831023 -7.02181528 0 0 Z M-55.33886719 10.9921875 C-55.91378906 11.971875 -56.48871094 12.9515625 -57.08105469 13.9609375 C-57.54785645 14.74251221 -58.0146582 15.52408691 -58.49560547 16.3293457 C-60.14465937 19.12428839 -61.74235142 21.94379735 -63.33105469 24.7734375 C-64.1625 26.24200195 -64.1625 26.24200195 -65.01074219 27.74023438 C-66.3714564 30.14494483 -67.72808025 32.5518666 -69.08105469 34.9609375 C-67.04303333 39.02118071 -67.04303333 39.02118071 -63.08105469 40.9609375 C-59.9135286 38.16997046 -57.8225535 35.75338043 -56.00292969 31.9296875 C-50.00145468 19.39138811 -50.00145468 19.39138811 -43.86230469 16.73828125 C-37.69985413 14.6938916 -31.5921812 13.72547223 -25.08105469 13.9609375 C-25.26855469 15.8359375 -25.26855469 15.8359375 -26.08105469 17.9609375 C-28.63183594 19.09375 -28.63183594 19.09375 -31.08105469 19.9609375 C-31.16827999 24.35664544 -31.22152338 28.75213021 -31.26855469 33.1484375 C-31.29369141 34.39431641 -31.31882813 35.64019531 -31.34472656 36.92382812 C-31.35922852 38.7269043 -31.35922852 38.7269043 -31.37402344 40.56640625 C-31.39758911 42.22385864 -31.39758911 42.22385864 -31.42163086 43.91479492 C-30.92856584 48.32481089 -29.12178347 50.88768594 -26.08105469 54.0234375 C-22.6681304 56.22761777 -19.37407566 57.37782901 -15.54199219 58.6796875 C-10.2775822 60.62858872 -5.20127219 62.98155046 -0.09985352 65.31933594 C1.0251355 65.83028809 1.0251355 65.83028809 2.17285156 66.3515625 C2.84646729 66.66125977 3.52008301 66.97095703 4.21411133 67.29003906 C5.92377625 68.08300164 5.92377625 68.08300164 7.91894531 67.9609375 C7.93352783 69.00548096 7.94811035 70.05002441 7.96313477 71.1262207 C8.02110083 75.00108095 8.09833306 78.87535901 8.18139648 82.74975586 C8.21465395 84.42674309 8.24268339 86.10384247 8.26538086 87.78100586 C8.29891268 90.19172975 8.3512251 92.60142512 8.40722656 95.01171875 C8.41361649 95.76181717 8.42000641 96.51191559 8.42658997 97.28474426 C8.53345971 101.34695335 8.53345971 101.34695335 10.26342773 104.93432617 C12.88352003 106.55908478 14.91894667 106.33593733 17.91894531 105.9609375 C19.90539317 104.44126986 20.79786203 103.54127813 21.31335449 101.0705719 C21.32177368 100.36093796 21.33019287 99.65130402 21.33886719 98.92016602 C21.35477905 98.11245255 21.37069092 97.30473907 21.38708496 96.47254944 C21.38738708 95.16936012 21.38738708 95.16936012 21.38769531 93.83984375 C21.39530884 92.94353745 21.40292236 92.04723114 21.4107666 91.12376404 C21.42157108 89.22828965 21.42441929 87.33275571 21.41992188 85.43725586 C21.41894994 82.5372382 21.46055718 79.63986956 21.50488281 76.74023438 C21.51009011 74.89844302 21.512778 73.05664246 21.51269531 71.21484375 C21.52909058 70.3480751 21.54548584 69.48130646 21.56237793 68.58827209 C21.53240422 63.53602361 21.53240422 63.53602361 18.63818359 59.50756836 C16.38104389 58.22376695 14.19845029 56.99183214 11.81738281 55.9609375 C11.08003906 55.6309375 10.34269531 55.3009375 9.58300781 54.9609375 C8.05040301 54.29140366 6.51653289 53.62475915 4.98144531 52.9609375 C-2.01129548 49.82033813 -2.01129548 49.82033813 -4.08105469 45.9609375 C-5.22022686 42.54342097 -5.19443949 39.92605813 -5.17871094 36.32421875 C-5.17548828 35.02548828 -5.17226562 33.72675781 -5.16894531 32.38867188 C-5.16059 31.01692642 -5.15212506 29.64518163 -5.14355469 28.2734375 C-5.13853804 26.88997555 -5.13397542 25.50651187 -5.12988281 24.12304688 C-5.11807998 20.73563355 -5.10161487 17.34830717 -5.08105469 13.9609375 C-3.76105469 13.9609375 -2.44105469 13.9609375 -1.08105469 13.9609375 C-1.08105469 14.9921875 -1.08105469 16.0234375 -1.08105469 17.0859375 C-0.44647323 21.53707314 2.07682193 23.28794688 5.52050781 25.89453125 C12.20358856 28.86599875 19.50303997 26.00838338 26.16894531 24.1484375 C27.16152344 23.88740234 28.15410156 23.62636719 29.17675781 23.35742188 C30.60375 22.96586914 30.60375 22.96586914 32.05957031 22.56640625 C32.92098633 22.33074951 33.78240234 22.09509277 34.66992188 21.85229492 C37.09508121 20.89112941 38.33680841 20.02385029 39.91894531 17.9609375 C40.08104751 15.35445245 40.08104751 15.35445245 38.91894531 12.9609375 C36.47956028 11.34920096 34.7180128 10.84227968 31.80957031 11.27416992 C29.32051067 11.89154119 26.87306505 12.59180931 24.41894531 13.3359375 C22.74351133 13.82856127 21.06645823 14.31571776 19.38769531 14.796875 C18.64970703 15.01907715 17.91171875 15.2412793 17.15136719 15.47021484 C13.73100926 16.22206518 11.09564421 16.71151876 8.0480957 14.76757812 C7.1662561 13.95063477 7.1662561 13.95063477 6.26660156 13.1171875 C-2.676971 5.40735684 -9.51654258 1.38097776 -21.51391602 1.88989258 C-39.5873885 3.33396274 -39.5873885 3.33396274 -55.33886719 10.9921875 Z M-26.08105469 61.9609375 C-28.08732295 69.23498472 -30.07967564 76.51274046 -32.0625 83.79321289 C-32.73835239 86.26836837 -33.41735985 88.74266463 -34.09960938 91.21606445 C-35.08095104 94.7759314 -36.0508228 98.33875638 -37.01855469 101.90234375 C-37.3247876 103.00365128 -37.63102051 104.1049588 -37.9465332 105.23963928 C-39.39428029 110.61425469 -40.58980783 115.38695829 -40.08105469 120.9609375 C-39.1005653 123.02496435 -39.1005653 123.02496435 -37.08105469 123.9609375 C-33.02060344 124.50652548 -33.02060344 124.50652548 -29.49516296 122.75315857 C-27.74245984 120.53180712 -27.18620846 118.64329044 -26.45532227 115.91040039 C-26.17525833 114.88245865 -25.8951944 113.85451691 -25.60664368 112.79542542 C-25.31589462 111.68602097 -25.02514557 110.57661652 -24.72558594 109.43359375 C-24.41908615 108.29313095 -24.11258636 107.15266815 -23.79679871 105.97764587 C-23.15078993 103.56557113 -22.50974671 101.15216185 -21.87329102 98.73754883 C-20.89755828 95.03861485 -19.90567687 91.34430595 -18.91113281 87.65039062 C-18.28582525 85.30754731 -17.66144503 82.96445625 -17.03808594 80.62109375 C-16.74126419 79.51371353 -16.44444244 78.40633331 -16.1386261 77.26539612 C-15.86801865 76.23430222 -15.59741119 75.20320831 -15.31860352 74.14086914 C-15.07894363 73.23502579 -14.83928375 72.32918243 -14.59236145 71.39588928 C-13.9440517 68.72317612 -13.9440517 68.72317612 -14.08105469 64.9609375 C-15.13292969 64.4659375 -16.18480469 63.9709375 -17.26855469 63.4609375 C-17.86023438 63.1825 -18.45191406 62.9040625 -19.06152344 62.6171875 C-21.47747945 61.83211862 -23.55458466 61.91728359 -26.08105469 61.9609375 Z " fill="#83C3FF" transform="translate(121.0810546875,44.0390625)"/>
<path d="M0 0 C4.98561526 2.59933787 8.24313469 5.94815406 10.015625 11.265625 C10.83479501 17.19875638 10.11342562 21.60920379 6.6328125 26.53515625 C2.92667662 30.50090068 -1.19637393 32.01019628 -6.484375 32.765625 C-12.50595514 31.90539927 -16.60775621 29.99522297 -20.421875 25.203125 C-23.08601211 20.19454723 -24.03152306 15.78057422 -22.37109375 10.20703125 C-20.33120487 5.4532814 -17.7355838 2.60283521 -13.1953125 0.11328125 C-8.7074822 -1.607318 -4.51482621 -1.6708412 0 0 Z M-14.984375 9.265625 C-17.09294953 11.92426245 -16.98461114 13.25263707 -16.921875 16.703125 C-15.78351174 21.02890539 -14.56886195 22.61622161 -10.984375 25.265625 C-6.58914348 26.62415111 -4.79648549 26.67934166 -0.671875 24.578125 C2.55156094 21.93296822 2.55156094 21.93296822 4.015625 18.265625 C4.0734431 14.2679163 3.62788116 11.2207446 1.453125 7.828125 C-4.57938823 3.96112934 -9.58390028 4.50806393 -14.984375 9.265625 Z " fill="#84C3FF" transform="translate(108.984375,5.734375)"/>
</svg>
