<svg width="24" height="25" viewBox="0 0 24 25" fill="none" xmlns="http://www.w3.org/2000/svg">
<path d="M12.5 2.51201C12.3335 2.50384 12.1667 2.49984 12 2.50001C6.477 2.50001 2 6.97701 2 12.5C2 18.023 6.477 22.5 12 22.5C17.523 22.5 22 18.023 22 12.5C22 11.637 21.89 10.799 21.685 10" stroke="#591A0E" stroke-width="1.5" stroke-linecap="round" stroke-linejoin="round"/>
<path d="M8 15.5001C8.46574 16.1211 9.06966 16.6251 9.76393 16.9722C10.4582 17.3194 11.2238 17.5001 12 17.5001C12.7762 17.5001 13.5418 17.3194 14.2361 16.9722C14.9303 16.6251 15.5343 16.1211 16 15.5001M10 10.0001H8.707C8.254 10.0001 7.82 10.1801 7.5 10.5001M14 10.0001H15.293C15.746 10.0001 16.18 10.1801 16.5 10.5001M15.888 2.83111C16.827 2.28311 17.646 2.50411 18.138 2.85611C18.34 3.00011 18.441 3.07211 18.5 3.07211C18.56 3.07211 18.66 3.00011 18.862 2.85611C19.354 2.50411 20.173 2.28311 21.112 2.83111C22.344 3.55111 22.622 5.92511 19.782 7.92811C19.24 8.30911 18.969 8.50011 18.5 8.50011C18.031 8.50011 17.76 8.31011 17.219 7.92811C14.378 5.92511 14.656 3.55111 15.889 2.83111" stroke="#591A0E" stroke-width="1.5" stroke-linecap="round" stroke-linejoin="round"/>
</svg>
