<?xml version="1.0" encoding="UTF-8"?>
<svg version="1.1" xmlns="http://www.w3.org/2000/svg" width="426" height="586">
<path d="M0 0 C5.39359407 3.0643068 9.04827416 7.17777744 12.91015625 11.96875 C14.81620745 13.8748012 18.30666127 13.23713483 20.84765625 13.34375 C30.33623062 13.86926758 37.8749099 15.90305121 45.91015625 20.96875 C45.91015625 21.62875 45.91015625 22.28875 45.91015625 22.96875 C46.90015625 23.29875 47.89015625 23.62875 48.91015625 23.96875 C51.11152868 26.19596014 51.85255454 27.57513833 52.30859375 30.69140625 C52.08726095 62.23133004 46.11867615 95.40269452 34.70703125 124.8671875 C33.79274293 127.18473008 33.79274293 127.18473008 32.91015625 130.53125 C31.85858141 134.1460385 30.5394698 137.54311171 29.11328125 141.0234375 C27.9469546 143.87866572 26.81731154 146.74708958 25.68945312 149.61767578 C23.34938873 155.55141051 20.8478375 161.30322188 17.91015625 166.96875 C17.45576172 168.10570312 17.45576172 168.10570312 16.9921875 169.265625 C14.88529032 174.52906488 12.37096575 179.61967145 9.95605469 184.74755859 C9.24736339 186.25261775 8.53971282 187.75816731 7.83300781 189.26416016 C2.99397425 199.57443052 -1.9573888 209.81612483 -7.09277344 219.98193359 C-8.13668368 222.0620858 -9.16555708 224.14916735 -10.19140625 226.23828125 C-11.53913331 228.98239544 -12.90600182 231.71500531 -14.296875 234.4375 C-15.3551669 236.52180474 -16.38583966 238.62122397 -17.3515625 240.75 C-18.46484375 242.96875 -18.46484375 242.96875 -21.08984375 245.96875 C-24.56807561 246.84391802 -27.63636601 246.97552656 -31.08984375 245.96875 C-33.32489049 243.61581068 -34.02480693 242.38684382 -34.52734375 239.15625 C-34.04973203 235.67650746 -33.03978941 233.68033274 -31.16015625 230.77734375 C-30.0131192 228.94858205 -30.0131192 228.94858205 -29.20703125 226.72265625 C-27.76190499 223.1603695 -25.92267967 219.84119971 -24.08984375 216.46875 C-18.72788103 206.4725038 -13.89420691 196.24171201 -9.08984375 185.96875 C-8.59073486 184.90430664 -8.59073486 184.90430664 -8.08154297 183.81835938 C-6.62900374 180.72021709 -5.18233234 177.6195607 -3.7421875 174.515625 C-2.5991195 172.06194711 -1.44719407 169.61456829 -0.28125 167.171875 C3.01851199 160.23398185 6.04939129 153.26097758 8.73828125 146.05859375 C9.85292397 143.11965246 11.05049559 140.23397836 12.28515625 137.34375 C17.96127766 123.83601803 23.32241188 109.96492296 26.31640625 95.59375 C26.76676277 93.6027001 27.27772053 91.62523918 27.81640625 89.65625 C32.65982828 71.75026553 35.21442864 52.52936597 34.91015625 33.96875 C28.66705698 31.19403921 23.71219 30.59240797 16.91015625 30.96875 C15.11860282 36.72224098 14.07116773 42.46529477 13.09765625 48.40625 C11.63004786 57.00814362 10.09764544 65.59457974 8.41015625 74.15625 C8.22090576 75.17710693 8.03165527 76.19796387 7.83666992 77.24975586 C6.41792437 84.27810362 6.41792437 84.27810362 3.96875 87.609375 C0.77996409 89.71506285 -1.36670465 89.55661407 -5.08984375 88.96875 C-8.08984375 87.03125 -8.08984375 87.03125 -10.08984375 83.96875 C-10.13905334 82.07569885 -10.13905334 82.07569885 -9.84399414 79.94360352 C-9.73386993 79.14528107 -9.62374573 78.34695862 -9.51028442 77.52444458 C-8.78197049 73.09730873 -7.92485205 68.7034366 -7.0234375 64.30859375 C-6.61632571 62.27803703 -6.2094312 60.24743675 -5.80273438 58.21679688 C-5.16483043 55.05431741 -4.52451364 51.89236635 -3.88012695 48.73120117 C-3.25449946 45.6541451 -2.6384116 42.57529405 -2.0234375 39.49609375 C-1.73284706 38.09108864 -1.73284706 38.09108864 -1.43638611 36.65769958 C-0.37588782 31.31621989 0.10708237 26.41465238 -0.08984375 20.96875 C-0.74984375 20.96875 -1.40984375 20.96875 -2.08984375 20.96875 C-3.27874307 19.48262585 -4.46686482 17.9958622 -5.6484375 16.50390625 C-7.77489077 14.23914708 -10.25686233 13.1546492 -13.08984375 11.96875 C-13.88408236 13.52994422 -14.67511498 15.09276964 -15.46484375 16.65625 C-16.12613281 17.96142578 -16.12613281 17.96142578 -16.80078125 19.29296875 C-17.61247282 20.97784368 -18.37564431 22.6878242 -19.06640625 24.42578125 C-20.25003674 27.36678678 -21.64492433 30.14720337 -23.08984375 32.96875 C-23.58742188 33.94972656 -24.085 34.93070312 -24.59765625 35.94140625 C-31.30182031 48.75056996 -39.73635153 60.15252461 -48.79882812 71.37060547 C-49.69336099 72.47794513 -50.57954872 73.5920585 -51.45898438 74.71142578 C-52.62411366 76.16783739 -53.85229593 77.57335169 -55.08984375 78.96875 C-55.74984375 78.96875 -56.40984375 78.96875 -57.08984375 78.96875 C-57.08984375 79.95875 -57.08984375 80.94875 -57.08984375 81.96875 C-58.73335832 83.33051922 -60.40507031 84.65837066 -62.08984375 85.96875 C-63.27535884 87.41059268 -64.46010197 88.85317185 -65.62890625 90.30859375 C-68.45038753 93.51482248 -71.66763266 96.41531215 -75.08984375 98.96875 C-75.74984375 98.96875 -76.40984375 98.96875 -77.08984375 98.96875 C-77.41984375 99.95875 -77.74984375 100.94875 -78.08984375 101.96875 C-78.74984375 101.96875 -79.40984375 101.96875 -80.08984375 101.96875 C-80.41984375 102.95875 -80.74984375 103.94875 -81.08984375 104.96875 C-83.20189822 106.79345012 -85.29985904 108.48623205 -87.52734375 110.15625 C-88.12611328 110.61966797 -88.72488281 111.08308594 -89.34179688 111.56054688 C-93.82416122 114.96875 -93.82416122 114.96875 -96.08984375 114.96875 C-96.41984375 115.95875 -96.74984375 116.94875 -97.08984375 117.96875 C-99.20703125 119.51171875 -99.20703125 119.51171875 -101.96484375 121.15625 C-105.99880961 123.62985908 -109.8569335 126.20499586 -113.65234375 129.03125 C-120.28947376 133.91428136 -127.02077488 138.84531082 -135.08984375 140.96875 C-135.08984375 141.62875 -135.08984375 142.28875 -135.08984375 142.96875 C-142.4763991 147.2014952 -150.04990202 150.9013279 -157.75830078 154.50292969 C-162.31982618 156.63910233 -166.83394138 158.83809466 -171.3112793 161.14526367 C-179.02809613 165.11339213 -186.84217143 168.27781898 -195.00390625 171.20361328 C-197.92574768 172.27536551 -200.81458816 173.42544568 -203.70703125 174.57373047 C-210.73509611 177.3597259 -217.80295362 179.98352482 -224.96484375 182.40625 C-225.72007324 182.66535156 -226.47530273 182.92445313 -227.25341797 183.19140625 C-230.74024344 184.34917544 -233.37672772 184.96875 -237.08984375 184.96875 C-237.08540253 185.6739679 -237.0809613 186.37918579 -237.0763855 187.10577393 C-237.03628878 193.75620691 -237.00584919 200.4066061 -236.98621941 207.05713272 C-236.97578823 210.47612928 -236.96164132 213.89502584 -236.93896484 217.31396484 C-236.91305042 221.245756 -236.90336543 225.17750685 -236.89453125 229.109375 C-236.87904739 230.94861542 -236.87904739 230.94861542 -236.86325073 232.82501221 C-236.86309967 233.96589294 -236.86294861 235.10677368 -236.86279297 236.28222656 C-236.85835175 237.28594299 -236.85391052 238.28965942 -236.84933472 239.3237915 C-237.09500698 242.02553178 -237.70629265 243.6606186 -239.08984375 245.96875 C-240.88077566 246.04961147 -242.67274003 246.10787702 -244.46484375 246.15625 C-245.46257812 246.19105469 -246.4603125 246.22585938 -247.48828125 246.26171875 C-248.34679687 246.16503906 -249.2053125 246.06835938 -250.08984375 245.96875 C-252.1200505 242.92343987 -252.34125982 242.32782928 -252.35726929 238.90771484 C-252.36579926 238.08333923 -252.37432922 237.25896362 -252.38311768 236.40960693 C-252.3822113 235.50873352 -252.38130493 234.60786011 -252.38037109 233.6796875 C-252.38708832 232.72821838 -252.39380554 231.77674927 -252.40072632 230.79644775 C-252.41975342 227.64549567 -252.42363262 224.49475598 -252.42578125 221.34375 C-252.4322049 219.15803946 -252.43893293 216.9723298 -252.44595337 214.78662109 C-252.45793723 210.20343023 -252.46163295 205.62031481 -252.46044922 201.03710938 C-252.46024574 195.15539015 -252.48757298 189.27415254 -252.52199364 183.39254761 C-252.54419396 178.8784766 -252.54828891 174.36452286 -252.54722977 169.85040283 C-252.54959513 167.68139991 -252.55847088 165.5123942 -252.5738945 163.34344482 C-252.59341953 160.31455379 -252.58776998 157.28671937 -252.57568359 154.2578125 C-252.59254211 152.90650238 -252.59254211 152.90650238 -252.60974121 151.52789307 C-252.54810749 145.47121508 -252.54810749 145.47121508 -250.20254517 142.89941406 C-247.68252789 141.78932368 -246.18561513 141.73886678 -243.46484375 142.09375 C-242.68882812 142.17882812 -241.9128125 142.26390625 -241.11328125 142.3515625 C-239.08984375 142.96875 -239.08984375 142.96875 -237.08984375 145.96875 C-236.86279297 148.4206543 -236.86279297 148.4206543 -236.89453125 151.29296875 C-236.90419922 152.83500977 -236.90419922 152.83500977 -236.9140625 154.40820312 C-236.93082031 155.48005859 -236.94757813 156.55191406 -236.96484375 157.65625 C-236.97386719 158.73970703 -236.98289062 159.82316406 -236.9921875 160.93945312 C-237.01577035 163.6161071 -237.04868249 166.29231797 -237.08984375 168.96875 C-236.2184375 168.65421875 -235.34703125 168.3396875 -234.44921875 168.015625 C-227.69696426 165.58949027 -220.94283676 163.22582954 -214.1015625 161.05859375 C-210.81399514 159.8689293 -207.67287032 158.4616831 -204.48803711 157.02368164 C-201.36015912 155.64777196 -198.18541391 154.4145847 -195 153.17919922 C-185.66404006 149.55284985 -176.70624589 145.49005745 -167.82714844 140.86523438 C-165.31007822 139.56637521 -162.76059718 138.33524071 -160.21484375 137.09375 C-154.96100712 134.46321832 -149.79990543 131.67506376 -144.65234375 128.84375 C-143.49726318 128.21364014 -143.49726318 128.21364014 -142.31884766 127.57080078 C-138.25560042 125.31581894 -134.70377679 122.91001667 -131.08984375 119.96875 C-128.27734375 119.21875 -128.27734375 119.21875 -126.08984375 118.96875 C-126.08984375 118.30875 -126.08984375 117.64875 -126.08984375 116.96875 C-125.09984375 116.4325 -124.10984375 115.89625 -123.08984375 115.34375 C-117.9156909 112.38263843 -113.30758361 108.73512294 -108.65234375 105.02734375 C-107.44578125 104.07021484 -107.44578125 104.07021484 -106.21484375 103.09375 C-105.47492188 102.49820313 -104.735 101.90265625 -103.97265625 101.2890625 C-102.08984375 99.96875 -102.08984375 99.96875 -100.08984375 99.96875 C-100.08984375 99.30875 -100.08984375 98.64875 -100.08984375 97.96875 C-98.6217487 96.65721237 -97.08788591 95.41880925 -95.52734375 94.21875 C-92.301285 91.71111852 -89.14517837 89.18173211 -86.08984375 86.46875 C-83.08984375 83.96875 -83.08984375 83.96875 -81.08984375 83.96875 C-80.75984375 82.97875 -80.42984375 81.98875 -80.08984375 80.96875 C-79.42984375 80.96875 -78.76984375 80.96875 -78.08984375 80.96875 C-77.82171875 80.38609375 -77.55359375 79.8034375 -77.27734375 79.203125 C-76.07503384 76.94088399 -74.75158462 75.16298682 -73.08984375 73.21875 C-72.57421875 72.60515625 -72.05859375 71.9915625 -71.52734375 71.359375 C-70.08984375 69.96875 -70.08984375 69.96875 -68.08984375 69.96875 C-67.75984375 68.97875 -67.42984375 67.98875 -67.08984375 66.96875 C-66.42984375 66.96875 -65.76984375 66.96875 -65.08984375 66.96875 C-64.82341064 66.3914917 -64.55697754 65.8142334 -64.2824707 65.21948242 C-63.04949208 62.8925981 -61.6580889 61.00650109 -60.0078125 58.95703125 C-59.10385742 57.81911133 -59.10385742 57.81911133 -58.18164062 56.65820312 C-56.92621953 55.09118008 -55.66845836 53.52602852 -54.40820312 51.96289062 C-50.36928011 46.86809613 -47.11907455 41.71090369 -44.08984375 35.96875 C-43.40938384 34.77979723 -42.72233121 33.59458222 -42.02734375 32.4140625 C-36.03521802 22.14529865 -31.26630839 11.87673188 -27.3984375 0.62109375 C-26.08984375 -2.03125 -26.08984375 -2.03125 -24.26171875 -3.3828125 C-15.90623487 -5.87743538 -7.57491841 -3.73790367 0 0 Z " fill="#131314" transform="translate(332.08984375,340.03125)"/>
<path d="M0 0 C1.34416489 -0.01007584 1.34416489 -0.01007584 2.71548462 -0.02035522 C28.79205711 -0.13389099 56.74526753 7.86039989 76.5625 25.625 C77.85546875 27.859375 77.85546875 27.859375 78.5625 29.625 C79.5525 29.625 80.5425 29.625 81.5625 29.625 C81.5625 30.285 81.5625 30.945 81.5625 31.625 C82.5525 31.955 83.5425 32.285 84.5625 32.625 C86.10568872 34.31881304 87.57650272 36.07942502 89 37.875 C89.76183594 38.82890625 90.52367187 39.7828125 91.30859375 40.765625 C92.05238281 41.70921875 92.79617188 42.6528125 93.5625 43.625 C94.31660156 44.50671875 95.07070313 45.3884375 95.84765625 46.296875 C97.5625 48.625 97.5625 48.625 97.5625 51.625 C98.2225 51.625 98.8825 51.625 99.5625 51.625 C100.87745542 54.22795276 102.18954986 56.83228033 103.5 59.4375 C103.87318359 60.17548828 104.24636719 60.91347656 104.63085938 61.67382812 C104.98857422 62.38603516 105.34628906 63.09824219 105.71484375 63.83203125 C106.2097229 64.81393433 106.2097229 64.81393433 106.71459961 65.81567383 C107.5625 67.625 107.5625 67.625 108.5625 70.625 C110.91574786 71.36038996 113.16058645 71.92692049 115.5625 72.4375 C125.75092213 74.89793654 133.66731659 79.71033241 139.5625 88.625 C144.97684923 99.68491622 143.18903158 112.125724 139.73046875 123.46875 C136.59754929 131.93496714 136.59754929 131.93496714 132.5625 134.625 C128.63992004 135.05291781 126.45498592 135.25913473 123.1875 132.9375 C121.2509261 130.18160637 120.5625 129.01631707 120.5625 125.625 C121.43265242 123.30600157 122.44090393 121.11823976 123.5546875 118.90625 C126.6445693 111.91209894 126.50223048 103.14898932 124.5625 95.875 C124.2325 95.1325 123.9025 94.39 123.5625 93.625 C122.9025 93.625 122.2425 93.625 121.5625 93.625 C121.5625 92.965 121.5625 92.305 121.5625 91.625 C112.63332811 88.00506545 105.519205 87.65451336 96.27734375 90.578125 C94.39043693 91.48647126 94.39043693 91.48647126 93.86328125 93.5234375 C93.76402344 94.21695313 93.66476562 94.91046875 93.5625 95.625 C93.315 96.73875 93.0675 97.8525 92.8125 99 C92.52223558 103.20883403 93.30530852 105.11381326 95.5625 108.625 C96.2225 108.955 96.8825 109.285 97.5625 109.625 C97.5625 110.285 97.5625 110.945 97.5625 111.625 C98.284375 111.686875 99.00625 111.74875 99.75 111.8125 C103.59479755 112.92321929 105.19232531 114.41829307 107.5625 117.625 C107.44605009 121.06027244 107.09995581 123.55008839 105.5625 126.625 C99.44623031 128.37063062 95.06419113 127.54426468 89.5625 124.625 C88.9025 124.295 88.2425 123.965 87.5625 123.625 C87.5625 122.965 87.5625 122.305 87.5625 121.625 C86.96824219 121.39425781 86.37398437 121.16351563 85.76171875 120.92578125 C82.98693416 119.28456763 81.99199 117.58507669 80.375 114.8125 C79.86582031 113.96042969 79.35664063 113.10835938 78.83203125 112.23046875 C75.81333158 106.03516819 75.4687161 98.53541912 77.31640625 91.9296875 C80.5598567 83.40768043 84.73171854 79.09158651 92.5625 74.625 C85.68163564 60.60946891 77.63585081 45.91655263 64.0625 37.25 C63.2375 36.71375 62.4125 36.1775 61.5625 35.625 C61.5625 34.965 61.5625 34.305 61.5625 33.625 C61.02882813 33.53605469 60.49515625 33.44710937 59.9453125 33.35546875 C56.7555951 32.37763735 54.27200572 30.69650178 51.4375 28.9375 C39.98656077 22.14051679 26.81525455 17.9175526 13.5625 16.625 C12.9137793 16.55941895 12.26505859 16.49383789 11.59667969 16.42626953 C-11.45477216 14.22863455 -32.41992168 18.29230317 -52.84765625 29.3046875 C-55.4375 30.625 -55.4375 30.625 -57.4375 30.625 C-57.4375 31.285 -57.4375 31.945 -57.4375 32.625 C-59.08984375 33.8515625 -59.08984375 33.8515625 -61.375 35.25 C-73.18022416 42.90393655 -80.91885464 52.92425098 -88.4375 64.625 C-89.035625 65.5325 -89.63375 66.44 -90.25 67.375 C-91.52892707 69.79823023 -92.05148151 71.9228706 -92.4375 74.625 C-91.385625 75.181875 -90.33375 75.73875 -89.25 76.3125 C-82.82381493 80.01792123 -78.08069881 85.34717601 -75.84765625 92.51953125 C-73.96709797 102.17306378 -76.03388706 110.51958059 -81.4375 118.625 C-82.0975 118.625 -82.7575 118.625 -83.4375 118.625 C-83.9325 120.11 -83.9325 120.11 -84.4375 121.625 C-85.0975 121.625 -85.7575 121.625 -86.4375 121.625 C-86.4375 122.285 -86.4375 122.945 -86.4375 123.625 C-90.79180452 127.2535871 -95.95328416 127.58781888 -101.4375 127.625 C-104.4375 126.625 -104.4375 126.625 -105.625 124.875 C-106.61728008 122.12714747 -106.9326567 120.5252035 -106.4375 117.625 C-104.0117702 114.57551111 -102.39721495 112.90225099 -98.625 111.8125 C-97.903125 111.750625 -97.18125 111.68875 -96.4375 111.625 C-96.4375 110.965 -96.4375 110.305 -96.4375 109.625 C-95.4375 108.625 -94.4375 107.625 -93.4375 106.625 C-91.51168166 103.92885432 -91.43849179 102.57045153 -91.5 99.1875 C-92.62532021 94.91128321 -94.00412711 93.35609207 -97.4375 90.625 C-102.50356189 87.66979723 -108.46635592 87.84737833 -114.01953125 89.30078125 C-116.18538475 90.02045856 -118.31665355 90.78267801 -120.4375 91.625 C-120.4375 92.285 -120.4375 92.945 -120.4375 93.625 C-121.0975 93.625 -121.7575 93.625 -122.4375 93.625 C-125.90023508 102.87742812 -125.44188608 111.47070607 -121.4140625 120.41015625 C-120.01815812 123.57606738 -119.36955784 126.15994981 -119.4375 129.625 C-121.5325489 132.37849284 -123.30510695 134.04053907 -126.375 135.625 C-129.81913244 135.625 -131.60834484 134.57004417 -134.4375 132.625 C-136.26121536 130.13035256 -137.3559042 127.50925547 -138.4375 124.625 C-138.73785156 123.8309375 -139.03820312 123.036875 -139.34765625 122.21875 C-142.60857069 112.14783284 -143.48908924 99.62952268 -138.83203125 89.87109375 C-133.39463989 81.11339057 -126.55850031 75.15525008 -116.4375 72.625 C-114.10537973 72.54977031 -111.7689689 72.53174124 -109.4375 72.625 C-109.1075 71.449375 -108.7775 70.27375 -108.4375 69.0625 C-106.0593158 61.82353932 -102.11960832 55.26329031 -98.4375 48.625 C-97.7775 48.625 -97.1175 48.625 -96.4375 48.625 C-96.1075 47.305 -95.7775 45.985 -95.4375 44.625 C-94.7775 44.625 -94.1175 44.625 -93.4375 44.625 C-93.22609375 43.92761719 -93.0146875 43.23023438 -92.796875 42.51171875 C-91.05853017 38.8202336 -88.56182191 36.25868744 -85.6875 33.4375 C-85.11257812 32.87015137 -84.53765625 32.30280273 -83.9453125 31.71826172 C-60.60210331 9.24031759 -31.84445904 0.04567888 0 0 Z " fill="#141415" transform="translate(212.4375,-0.625)"/>
<path d="M0 0 C0 0.66 0 1.32 0 2 C0.99 2.33 1.98 2.66 3 3 C3 3.66 3 4.32 3 5 C3.7425 5.0825 4.485 5.165 5.25 5.25 C8.6427671 6.17530012 9.93127504 7.16508061 12 10 C12.45689827 13.66522789 12.46329833 15.36813554 10.25 18.38671875 C9.5075 19.14597656 8.765 19.90523437 8 20.6875 C3.98094742 25.38112854 3.18567992 28.4572744 3.5234375 34.5546875 C4.00278764 37.01430381 4.76076679 38.83386064 6 41 C6.66 41 7.32 41 8 41 C8.33 41.66 8.66 42.32 9 43 C12.03673614 44.10467427 15.11538484 44.98986896 18.21484375 45.90234375 C21 47 21 47 23 50 C23.19850603 53.70544587 23.17664871 56.47005387 22 60 C20.02043058 61.69088222 18.02054804 63.35830472 16 65 C13.92023433 69.15953134 14.5797848 74.51308469 15.8125 78.875 C18.09718739 82.96338796 20.494069 84.6687022 25 86 C28.7316971 86.19301882 31.45010155 86.18329948 35 85 C42.8542971 84.13204326 42.8542971 84.13204326 46.0625 86.5625 C47.35112019 89.91291248 47.3815335 92.43902068 47 96 C45.625 98.4375 45.625 98.4375 44 100 C43.34 100 42.68 100 42 100 C42 104.95 42 109.9 42 115 C42.66 115 43.32 115 44 115 C44.5775 115.78375 45.155 116.5675 45.75 117.375 C48.43424087 120.50661434 49.98016791 121.21179763 54 122 C57.43230448 121.73606499 57.43230448 121.73606499 61 121 C69.68583774 119.44185353 69.68583774 119.44185353 74 122 C74.85546875 124.64453125 74.85546875 124.64453125 75.1875 127.8125 C75.64652106 131.87307088 76.17851391 135.31066271 78 139 C78.66 139.33 79.32 139.66 80 140 C80 140.66 80 141.32 80 142 C86.79743364 144.06350664 91.80519256 144.59802188 98.625 142 C101.08531579 139.92815512 102.26544862 138.0969441 103.9375 135.375 C106.61794554 131.14814356 106.61794554 131.14814356 110.0625 129.8125 C113.23671355 130.01510938 115.16935467 130.56474322 118 132 C119.5546875 134.05859375 119.5546875 134.05859375 120.875 136.4375 C123.78323237 141.07575777 125.71516966 142.58442044 131 144 C135.75665117 144.4954845 139.51499113 143.43520284 144 142 C144 141.34 144 140.68 144 140 C144.66 139.67 145.32 139.34 146 139 C147.96966322 134.69312875 149.07527874 130.27137639 149.4375 125.5625 C149.623125 124.386875 149.80875 123.21125 150 122 C152.8704326 119.98053636 154.90324572 119.80989235 158.3125 120.3125 C159.49392578 120.46912109 159.49392578 120.46912109 160.69921875 120.62890625 C162.68386902 120.94901113 164.65639333 121.34270207 166.625 121.75 C170.84442681 122.06255013 173.25584446 120.87207777 177 119 C177.99 118.67 178.98 118.34 180 118 C182.65126457 112.92064127 182.85139374 107.59605399 182 102 C180.94640131 100.17231228 180.94640131 100.17231228 179.5 98.75 C177 96 177 96 176.4375 92.375 C177 89 177 89 178.5 86.5625 C182.19238985 84.25475635 184.67323085 84.65660562 189 85 C189.99 85.33 190.98 85.66 192 86 C196.83105392 86.27345588 200.49302254 85.75882047 205 84 C205 83.34 205 82.68 205 82 C206 81 207 80 208 79 C209.35624248 74.93127256 209.66606438 71.24978036 209 67 C207.29459077 63.9264453 205.18841729 61.59420864 202 60 C200.22075424 57.47159813 199.99485585 56.12345954 200.125 53 C201.1909776 49.34521965 201.88386856 48.20409297 205 46 C207.59804572 45.11054167 210.19079757 44.37417923 212.85546875 43.7109375 C213.91701172 43.35902344 213.91701172 43.35902344 215 43 C215.33 42.34 215.66 41.68 216 41 C216.66 41 217.32 41 218 41 C220.77207741 36.15449884 221.11982588 31.44018637 220 26 C218.10198816 23.23223542 215.97475218 20.85397938 213.734375 18.359375 C211.84659988 15.79132056 211.43587848 14.69633164 211.6875 11.5625 C213 8 213 8 215.375 6 C218 5 218 5 221 5 C221.33 4.01 221.66 3.02 222 2 C222.66 2 223.32 2 224 2 C224.33 1.01 224.66 0.02 225 -1 C229.03098931 -2.15171123 231.29341391 -2.00356005 235 0 C237.44576827 3.66865241 237.23607254 5.67200343 237 10 C236.67 10.66 236.34 11.32 236 12 C235.34 12 234.68 12 234 12 C233.1558637 14.37844693 232.82096902 15.55377202 233.77734375 17.9375 C234.16019531 18.618125 234.54304687 19.29875 234.9375 20 C237.97686467 26.44938357 238.04745726 32.86901689 236.3046875 39.7421875 C234.31375538 45.24652923 231.47535783 50.13840553 227 54 C226.34 54 225.68 54 225 54 C225 54.66 225 55.32 225 56 C224.01 56.99 224.01 56.99 223 58 C223.31453125 58.69351563 223.6290625 59.38703125 223.953125 60.1015625 C226.56555281 67.33447829 226.9376221 75.86577491 224 83 C223.76539063 83.63164062 223.53078125 84.26328125 223.2890625 84.9140625 C220.26484689 92.10004272 214.90505256 97.33109398 207.74609375 100.390625 C204.84759221 101.36249565 201.96012681 102.23868143 199 103 C199.04640625 103.59425781 199.0928125 104.18851562 199.140625 104.80078125 C199.5048649 113.1652903 197.69431621 121.57334392 192 128 C191.34 128 190.68 128 190 128 C189.67 128.99 189.34 129.98 189 131 C184.25787802 134.81406947 178.54273826 138.02096295 172.359375 137.984375 C169.34491131 138.00049513 166.88474421 138.10351026 164 139 C162.23270625 141.34143994 161.30693592 143.63896007 160.22265625 146.359375 C157.38379738 152.49058457 150.99061537 156.86898171 144.8125 159.3359375 C136.45250058 161.30982625 126.99150307 161.55511927 119.25 157.5625 C118.53328125 157.11003906 117.8165625 156.65757812 117.078125 156.19140625 C114.66775367 154.80952043 112.76399792 154.25856755 110 154 C106.94236782 155.78831775 106.94236782 155.78831775 104 158 C96.587008 161.75291008 86.29516658 161.29092299 78.46484375 158.9375 C70.51423835 155.23860899 64.62442655 150.08786075 61.0625 142 C60.711875 141.01 60.36125 140.02 60 139 C59.31035156 138.97421875 58.62070313 138.9484375 57.91015625 138.921875 C48.66503728 138.36387056 41.34635896 135.65104535 34 130 C34 129.34 34 128.68 34 128 C33.01 127.67 32.02 127.34 31 127 C29.6484375 125.109375 29.6484375 125.109375 28.375 122.75 C27.73691406 121.59757812 27.73691406 121.59757812 27.0859375 120.421875 C25.18781231 116.18864616 24.87617577 112.28681733 24.9375 107.6875 C24.94652344 106.80449219 24.95554688 105.92148437 24.96484375 105.01171875 C24.97644531 104.34785156 24.98804688 103.68398438 25 103 C24.23816406 102.8040625 23.47632813 102.608125 22.69140625 102.40625 C14.79090308 100.11796444 9.46900783 97.17216597 4 91 C3.17628906 90.10087891 3.17628906 90.10087891 2.3359375 89.18359375 C-2.99897929 81.80710266 -1.87305374 70.69185784 -1 62 C-0.67 61.34 -0.34 60.68 0 60 C0.66 60 1.32 60 2 60 C0.86574523 56.59723568 -0.08405449 55.8894922 -2.8125 53.6875 C-9.01418649 48.37335361 -12.2391657 43.15179606 -13 35 C-12.93137801 28.57240709 -12.50052088 22.94636063 -10 17 C-9.83201738 14.29113059 -9.83201738 14.29113059 -10 12 C-10.66 12 -11.32 12 -12 12 C-12.88612202 7.97217261 -13.19648329 5.55842619 -11.8125 1.625 C-10 -1 -10 -1 -8.1875 -2 C-5.18670826 -2 -2.77942003 -1.07386683 0 0 Z " fill="#141314" transform="translate(101,220)"/>
<path d="M0 0 C3 2 3 2 3.46875 4.27734375 C3.48421875 5.59412109 3.48421875 5.59412109 3.5 6.9375 C3.5309375 7.81277344 3.561875 8.68804687 3.59375 9.58984375 C3 12 3 12 0.87890625 13.64453125 C-13.41741418 20.37563463 -28.63167038 25.2669092 -43.625 30.1875 C-47.89628693 31.59934798 -52.07132184 33.15771336 -56.23046875 34.87109375 C-58.3687838 35.74270595 -60.51985353 36.58306814 -62.67578125 37.41015625 C-69.56036527 40.06123487 -75.83549557 42.89033038 -82 47 C-82.66 47 -83.32 47 -84 47 C-84.33 47.99 -84.66 48.98 -85 50 C-86.66666667 51.33333333 -88.33333333 52.66666667 -90 54 C-104.51782168 67.89339924 -107.73311292 90.09400065 -108.19702148 109.26550293 C-108.30669216 116.15461471 -108.32755483 123.04376717 -108.33885384 129.93364239 C-108.34715314 133.40976369 -108.36807977 136.88580704 -108.38806152 140.36187744 C-108.44074004 149.90733019 -108.47461944 159.45283029 -108.50782013 168.99836731 C-108.53854831 177.79103761 -108.57331373 186.58363884 -108.62413073 195.37621903 C-108.64742372 199.50305616 -108.66120465 203.6297808 -108.66762543 207.75667715 C-108.67495315 210.91562411 -108.69496049 214.07449656 -108.71289062 217.23339844 C-108.71141777 218.94141129 -108.71141777 218.94141129 -108.70991516 220.68392944 C-108.71818832 221.72648895 -108.72646149 222.76904846 -108.73498535 223.84320068 C-108.73791847 224.74789974 -108.74085159 225.6525988 -108.7438736 226.58471298 C-109.01567909 229.14785473 -109.7051606 230.7910603 -111 233 C-112.62463842 233.05395478 -114.24978541 233.09277195 -115.875 233.125 C-116.77992187 233.14820313 -117.68484375 233.17140625 -118.6171875 233.1953125 C-121 233 -121 233 -123 231 C-123.25726891 228.53128529 -123.25726891 228.53128529 -123.26742554 225.35566711 C-123.27595551 224.15454285 -123.28448547 222.95341858 -123.29327393 221.71589661 C-123.29257479 220.37741076 -123.29165167 219.03892501 -123.29052734 217.70043945 C-123.29650974 216.29592531 -123.30331462 214.89141446 -123.31088257 213.48690796 C-123.32859793 209.66174359 -123.33324079 205.83666864 -123.33451414 202.01146722 C-123.33593532 199.61694614 -123.34020471 197.22244779 -123.34550858 194.82793236 C-123.3640403 186.45941095 -123.37217691 178.09095335 -123.37060547 169.72241211 C-123.36940925 161.94953045 -123.39040073 154.17692883 -123.4220928 146.40411788 C-123.44837964 139.7159872 -123.45896732 133.0279471 -123.45769465 126.33976525 C-123.45718783 122.35248668 -123.46271164 118.36545581 -123.48405075 114.37822914 C-123.50363832 110.61474541 -123.5034202 106.8517399 -123.48901749 103.08823776 C-123.48597928 101.07412607 -123.50246902 99.0600133 -123.51989746 97.04597473 C-123.40446813 80.01453665 -118.00602532 63.79778228 -108 50 C-107.53078125 49.30390625 -107.0615625 48.6078125 -106.578125 47.890625 C-105.44229601 46.22028824 -104.22827501 44.60358127 -103 43 C-102.34 43 -101.68 43 -101 43 C-100.67 42.01 -100.34 41.02 -100 40 C-89.56322907 30.18135218 -76.12834903 23.78584556 -62.625 19.5 C-55.62610329 17.25912517 -48.79682936 14.79556547 -42 12 C-34.44038779 8.97966713 -26.88809864 6.28586482 -19.078125 3.984375 C-16.14200871 3.04541395 -13.38493875 1.92126065 -10.5625 0.6875 C-6.65785107 -0.92887253 -4.13182825 -1.41086818 0 0 Z " fill="#0F0F10" transform="translate(123,353)"/>
<path d="M0 0 C3.12465188 0.57391565 4.74535115 1.25306464 6.85546875 3.64453125 C9.04795807 7.12838968 10.27902247 10.99588268 11.6640625 14.85546875 C13.19782693 18.92122977 14.95484741 22.8246993 16.8125 26.75 C17.27148682 27.72138916 17.27148682 27.72138916 17.73974609 28.71240234 C18.8289485 31.00517036 19.92730457 33.29210913 21.0625 35.5625 C21.68125 34.9025 22.3 34.2425 22.9375 33.5625 C25.0625 31.5625 25.0625 31.5625 27.0625 31.5625 C27.5575 30.0775 27.5575 30.0775 28.0625 28.5625 C30.13671875 26.625 30.13671875 26.625 32.75 24.5625 C33.59949219 23.881875 34.44898438 23.20125 35.32421875 22.5 C40.9014859 18.55374535 45.32583165 17.11530916 52.12817383 17.14257812 C52.91438614 17.13410858 53.70059845 17.12563904 54.51063538 17.11691284 C57.09710084 17.09360823 59.68296894 17.09251926 62.26953125 17.09375 C64.07785782 17.08664338 65.88618214 17.07894365 67.69450378 17.07067871 C71.48137683 17.05724811 75.26804147 17.05565824 79.05493164 17.06152344 C83.89027934 17.06741166 88.72462025 17.036858 93.55977345 16.99640656 C97.29434019 16.97046024 101.02866694 16.96765853 104.76331139 16.97129822 C106.54498507 16.96961278 108.32667054 16.96002611 110.10825539 16.94215393 C127.98010829 16.78261994 127.98010829 16.78261994 135.0625 22.5625 C135.0625 23.2225 135.0625 23.8825 135.0625 24.5625 C135.64 24.830625 136.2175 25.09875 136.8125 25.375 C139.11800043 26.59179189 141.08306192 27.86583879 143.0625 29.5625 C143.0625 30.2225 143.0625 30.8825 143.0625 31.5625 C143.68125 31.85125 144.3 32.14 144.9375 32.4375 C147.0625 33.5625 147.0625 33.5625 149.0625 35.5625 C152.82763773 28.38156722 156.1080686 21.19011601 158.88671875 13.5703125 C161.03425656 8.07661113 162.80616526 3.61850857 168.0625 0.5625 C172.03381876 0.48145268 173.54005834 1.0936421 176.5 3.75 C178.52924306 7.40263751 178.04210038 8.5199238 177.0625 12.5625 C175.92526265 15.85993893 174.63290122 19.08465188 173.3125 22.3125 C172.77278564 23.64885498 172.77278564 23.64885498 172.22216797 25.01220703 C170.04368275 30.34661526 167.71351632 35.53961041 165.02734375 40.640625 C163.74505227 43.19482503 162.85603562 45.82119514 162.0625 48.5625 C161.4025 48.5625 160.7425 48.5625 160.0625 48.5625 C159.7325 49.5525 159.4025 50.5425 159.0625 51.5625 C155.11262476 54.69916564 152.02657116 55.09436477 147.0625 54.5625 C144.125 53.1875 144.125 53.1875 142.0625 51.5625 C142.0625 50.9025 142.0625 50.2425 142.0625 49.5625 C141.5159375 49.32273437 140.969375 49.08296875 140.40625 48.8359375 C137.49297848 47.25305997 135.11705397 45.29991963 132.5625 43.1875 C131.6240625 42.41664063 130.685625 41.64578125 129.71875 40.8515625 C127.37787393 38.83427812 125.13244527 36.85701481 123.0625 34.5625 C123.0625 33.9025 123.0625 33.2425 123.0625 32.5625 C97.9825 32.5625 72.9025 32.5625 47.0625 32.5625 C46.7325 33.5525 46.4025 34.5425 46.0625 35.5625 C44.49609375 37.140625 44.49609375 37.140625 42.5 38.8125 C38.8447681 41.90133561 35.2723489 45.06353337 31.7265625 48.27734375 C30.0625 49.5625 30.0625 49.5625 28.0625 49.5625 C28.0625 50.2225 28.0625 50.8825 28.0625 51.5625 C23.84922212 53.97008736 20.9266549 55.17051936 16.0625 54.5625 C11.23487248 52.7639721 9.44637612 51.03795136 7.0625 46.5625 C6.43595736 44.95366592 5.85387769 43.32695508 5.3125 41.6875 C3.65902335 36.97509154 1.70399626 32.50337401 -0.4375 28 C-7.9375 12.10952508 -7.9375 12.10952508 -7.9375 7.1875 C-6.28951993 2.86155232 -4.6210298 0.88487805 0 0 Z " fill="#121213" transform="translate(127.9375,212.4375)"/>
<path d="M0 0 C7.75 -0.125 7.75 -0.125 10 1 C10 1.66 10 2.32 10 3 C10.99 3.33 11.98 3.66 13 4 C14.76321889 6.28129322 16.36607835 8.52980773 17.9375 10.9375 C18.60845703 11.95432861 18.60845703 11.95432861 19.29296875 12.99169922 C22.59656135 18.1134823 25.06467716 23.2150676 27 29 C27.31178853 29.74770503 27.62357706 30.49541006 27.94481373 31.26577282 C31.7805568 41.20505392 32.43449652 51.11474803 32.37231445 61.6628418 C32.37474948 63.08021816 32.37847564 64.49759279 32.38337708 65.91496277 C32.39268317 69.72008513 32.38345368 73.52494569 32.37004495 77.33004737 C32.35864008 81.32491526 32.36284425 85.31977197 32.36479187 89.31465149 C32.36567089 96.00790642 32.35466768 102.70105927 32.33618164 109.39428711 C32.31492467 117.13520361 32.31152658 124.87597178 32.3177436 132.61691159 C32.32342936 140.07870676 32.31780707 147.54044969 32.30657005 155.00223732 C32.30192328 158.17405983 32.30105041 161.34585041 32.3031559 164.5176754 C32.30503413 168.24177605 32.29697121 171.96572473 32.2810955 175.68979073 C32.27480825 177.71223111 32.27836655 179.73469452 32.28216553 181.75714111 C32.27153831 183.55054176 32.27153831 183.55054176 32.26069641 185.38017273 C32.25864354 186.42335002 32.25659067 187.46652731 32.25447559 188.54131603 C32 191 32 191 30 193 C27.6171875 193.1953125 27.6171875 193.1953125 24.875 193.125 C23.96492188 193.10695313 23.05484375 193.08890625 22.1171875 193.0703125 C21.41851562 193.04710937 20.71984375 193.02390625 20 193 C18.13643735 189.82350999 17.74831741 187.49613679 17.74171448 183.83215332 C17.73488647 182.7869603 17.72805847 181.74176727 17.72102356 180.66490173 C17.72485298 178.95228905 17.72485298 178.95228905 17.72875977 177.20507812 C17.72353302 175.99791641 17.71830627 174.7907547 17.71292114 173.54701233 C17.70266951 170.92075321 17.69596187 168.29475568 17.69503975 165.66850281 C17.69309143 161.49560299 17.67498881 157.32286765 17.65428162 153.15002441 C17.6051642 142.77089977 17.57439886 132.39172981 17.55297852 122.01251221 C17.53634323 113.97035505 17.51316949 105.92833798 17.46995777 97.88627386 C17.45195826 94.4282104 17.43953788 90.97033662 17.44125557 87.51222229 C17.75077654 50.1036783 17.75077654 50.1036783 2 17 C1.071875 16.0925 0.14375 15.185 -0.8125 14.25 C-3.26732933 11.72503268 -3.82163579 10.47810204 -4 7 C-3.5625 4.6875 -3.5625 4.6875 -3 3 C-2.34 3 -1.68 3 -1 3 C-0.67 2.01 -0.34 1.02 0 0 Z " fill="#0D0D0D" transform="translate(394,393)"/>
<path d="M0 0 C3.5 0.5 3.5 0.5 5.875 2.25 C8.41981132 5.77358491 8.41981132 5.77358491 8.5 8.5 C6.51485196 13.63803022 3.21119291 18.42699163 -0.5 22.5 C-1.16 22.5 -1.82 22.5 -2.5 22.5 C-2.75265625 23.06976563 -3.0053125 23.63953125 -3.265625 24.2265625 C-5.81903117 28.92935487 -9.83787437 32.63905924 -13.5 36.5 C-14.28310547 37.32612793 -14.28310547 37.32612793 -15.08203125 38.16894531 C-32.87853035 56.78858459 -53.36051081 70.39548678 -77.5 79.5 C-79.0001579 80.1246209 -80.50015046 80.74963901 -82 81.375 C-94.50938887 86.35143395 -107.34952347 90.12954981 -120.390625 93.421875 C-122.90923222 94.05999875 -125.29278272 94.77186554 -127.7578125 95.6171875 C-131.74060658 96.89939756 -135.36502211 97.11985437 -139.5 96.5 C-142.0625 94.9375 -142.0625 94.9375 -143.5 92.5 C-144.06040426 88.57717021 -144.18217904 86.47079325 -141.875 83.1875 C-138.05969411 80.47662476 -134.47847699 79.63496234 -129.875 79 C-126.77298343 78.54044199 -125.21822733 77.86778921 -122.5 76.5 C-120.43594509 76.05543433 -118.37151646 75.61252832 -116.30517578 75.17871094 C-110.9222203 73.87630743 -105.69037207 72.05683142 -100.44311523 70.29638672 C-98.44048143 69.62599804 -96.43435815 68.96692909 -94.42773438 68.30859375 C-87.84167469 66.12477916 -81.62829721 63.76229216 -75.5 60.5 C-73.82253507 59.82853269 -72.13632277 59.17793329 -70.4375 58.5625 C-66.57677042 57.05587382 -63.52987397 55.29111488 -60.26171875 52.76953125 C-58.33550296 51.38146 -56.35996688 50.3367263 -54.25 49.25 C-49.22913991 46.56241396 -45.0847666 42.99994645 -40.78515625 39.29296875 C-38.5 37.5 -38.5 37.5 -36.5 37.5 C-36.17 36.51 -35.84 35.52 -35.5 34.5 C-34.84 34.5 -34.18 34.5 -33.5 34.5 C-33.5 33.84 -33.5 33.18 -33.5 32.5 C-31.85546875 30.9140625 -31.85546875 30.9140625 -29.6875 29.125 C-27.43749143 27.26433718 -25.59649715 25.63127297 -23.86328125 23.2734375 C-23.41339844 22.68820312 -22.96351563 22.10296875 -22.5 21.5 C-21.84 21.5 -21.18 21.5 -20.5 21.5 C-20.005 20.015 -20.005 20.015 -19.5 18.5 C-18.84 18.5 -18.18 18.5 -17.5 18.5 C-17.24992187 17.76910156 -16.99984375 17.03820312 -16.7421875 16.28515625 C-15.39737936 13.26991033 -13.8559476 11.35786768 -11.625 8.9375 C-10.60792969 7.82181641 -10.60792969 7.82181641 -9.5703125 6.68359375 C-8.54550781 5.60271484 -8.54550781 5.60271484 -7.5 4.5 C-6.82710937 3.75878906 -6.15421875 3.01757812 -5.4609375 2.25390625 C-3.5 0.5 -3.5 0.5 0 0 Z " fill="#161516" transform="translate(281.5,457.5)"/>
<path d="M0 0 C2.58523814 0.1627073 3.89226387 0.49424656 6.00390625 2.00390625 C7.62951069 4.28179084 7.55788806 5.66857462 7.4375 8.4375 C7.39689453 9.64986328 7.39689453 9.64986328 7.35546875 10.88671875 C7.32066406 11.50160156 7.28585937 12.11648438 7.25 12.75 C6.26 13.08 5.27 13.41 4.25 13.75 C3.51676204 15.76508358 3.51676204 15.76508358 3.25 17.75 C2.59 17.75 1.93 17.75 1.25 17.75 C1.25 18.74 1.25 19.73 1.25 20.75 C-0.3722454 22.45993434 -2.04413425 24.12347684 -3.75 25.75 C-4.306875 26.513125 -4.86375 27.27625 -5.4375 28.0625 C-5.870625 28.619375 -6.30375 29.17625 -6.75 29.75 C-7.41 29.75 -8.07 29.75 -8.75 29.75 C-8.75 30.41 -8.75 31.07 -8.75 31.75 C-10.2890625 33.30078125 -10.2890625 33.30078125 -12.375 35.0625 C-13.10203125 35.67867187 -13.8290625 36.29484375 -14.578125 36.9296875 C-15.29484375 37.53039062 -16.0115625 38.13109375 -16.75 38.75 C-17.34296875 39.26820313 -17.9359375 39.78640625 -18.546875 40.3203125 C-22.50571429 43.75 -22.50571429 43.75 -24.75 43.75 C-24.75 44.41 -24.75 45.07 -24.75 45.75 C-26.07592773 46.9074707 -26.07592773 46.9074707 -27.93359375 48.17578125 C-28.60898193 48.64000488 -29.28437012 49.10422852 -29.98022461 49.58251953 C-30.70862549 50.07091309 -31.43702637 50.55930664 -32.1875 51.0625 C-32.92814697 51.56378418 -33.66879395 52.06506836 -34.43188477 52.58154297 C-39.41317932 55.92427537 -44.42441898 58.98766592 -49.75 61.75 C-51.00371422 62.44200312 -52.25619421 63.13624443 -53.5078125 63.83203125 C-61.82541952 68.40970013 -70.1000795 72.24709306 -79.046875 75.41796875 C-82.36198787 76.61043024 -85.57933251 77.91635949 -88.8125 79.3125 C-94.66708041 81.800898 -100.64721942 83.78081931 -106.6953125 85.734375 C-109.62376852 86.62764215 -109.62376852 86.62764215 -111.75 87.75 C-113.7253988 87.89779962 -115.70678924 87.97118966 -117.6875 88 C-118.74839844 88.02578125 -119.80929688 88.0515625 -120.90234375 88.078125 C-123.75 87.75 -123.75 87.75 -125.609375 86.453125 C-127.50279636 83.62596159 -127.04374013 81.03988942 -126.75 77.75 C-124.28175063 74.04762594 -121.76625118 73.34928764 -117.75 71.9375 C-116.69389526 71.55283569 -116.69389526 71.55283569 -115.61645508 71.16040039 C-110.25852333 69.2288133 -104.85084992 67.45612774 -99.4375 65.6875 C-93.6373584 63.78911646 -88.06431556 61.73070857 -82.55859375 59.07421875 C-79.80809474 57.77739098 -77.01616069 56.62165792 -74.20458984 55.46508789 C-66.22161273 52.14029677 -58.96917469 48.05968185 -51.68920898 43.39404297 C-50.97192627 42.93658691 -50.25464355 42.47913086 -49.515625 42.0078125 C-48.88430664 41.5967627 -48.25298828 41.18571289 -47.60253906 40.76220703 C-45.75 39.75 -45.75 39.75 -43.57714844 39.29638672 C-42.97418945 39.1160791 -42.37123047 38.93577148 -41.75 38.75 C-41.42 37.76 -41.09 36.77 -40.75 35.75 C-39.76 35.75 -38.77 35.75 -37.75 35.75 C-37.75 35.09 -37.75 34.43 -37.75 33.75 C-37.193125 33.523125 -36.63625 33.29625 -36.0625 33.0625 C-33.10308639 31.38283282 -31.12591214 29.18248148 -28.75 26.75 C-27.67647765 25.84243279 -26.59309773 24.94639243 -25.5 24.0625 C-22.73257806 22.0457678 -22.73257806 22.0457678 -21.75 19.75 C-20.76 19.75 -19.77 19.75 -18.75 19.75 C-18.75 18.76 -18.75 17.77 -18.75 16.75 C-17.375 15.0625 -17.375 15.0625 -15.75 13.75 C-15.09 13.75 -14.43 13.75 -13.75 13.75 C-13.48316406 13.18796875 -13.21632813 12.6259375 -12.94140625 12.046875 C-6.78445582 0.17708204 -6.78445582 0.17708204 0 0 Z " fill="#151516" transform="translate(305.75,498.25)"/>
<path d="M0 0 C3.63747057 3.20139953 4.48633143 6.00204765 4.86767578 10.83096313 C4.96987695 13.87339063 5.00149264 16.90898058 5.0078125 19.953125 C5.0144693 21.06714691 5.0211261 22.18116882 5.02798462 23.32894897 C5.03808576 25.67729038 5.04280243 28.02566033 5.04248047 30.37402344 C5.04686843 33.97117929 5.08325708 37.56712231 5.12109375 41.1640625 C5.12695937 43.44791247 5.13093047 45.73176827 5.1328125 48.015625 C5.14718353 49.09172028 5.16155457 50.16781555 5.17636108 51.27651978 C5.17020782 52.27790985 5.16405457 53.27929993 5.15771484 54.31103516 C5.16056488 55.190065 5.16341492 56.06909485 5.16635132 56.97476196 C4.5101698 60.12883128 3.10935666 61.31807273 0.671875 63.3515625 C-6.31998003 66.84749002 -20.06427739 65.14258935 -27.328125 62.9765625 C-30.10254782 61.96675419 -32.70272924 60.69942193 -35.328125 59.3515625 C-35.328125 58.6915625 -35.328125 58.0315625 -35.328125 57.3515625 C-36.08867188 57.10535156 -36.84921875 56.85914063 -37.6328125 56.60546875 C-43.23815363 53.99776657 -46.06847016 47.56492777 -48.203125 41.9765625 C-51.42789668 30.85399671 -48.47646479 21.34676272 -43.328125 11.3515625 C-42.668125 11.3515625 -42.008125 11.3515625 -41.328125 11.3515625 C-41.10125 10.7740625 -40.874375 10.1965625 -40.640625 9.6015625 C-37.57901358 4.35308578 -31.92718546 1.44075185 -26.25 -0.27734375 C-18.04948299 -2.21885688 -7.71091963 -3.81925831 0 0 Z M-28.328125 19.3515625 C-31.23254306 22.40884467 -33.25468267 25.25296451 -34.328125 29.3515625 C-34.05489952 34.36069637 -32.77273034 37.99378777 -30.328125 42.3515625 C-29.668125 42.3515625 -29.008125 42.3515625 -28.328125 42.3515625 C-28.1425 42.9496875 -27.956875 43.5478125 -27.765625 44.1640625 C-25.69186382 47.31978604 -22.90514046 48.52897358 -19.328125 49.3515625 C-16.688125 49.3515625 -14.048125 49.3515625 -11.328125 49.3515625 C-11.328125 37.8015625 -11.328125 26.2515625 -11.328125 14.3515625 C-21.13231535 14.33737279 -21.13231535 14.33737279 -28.328125 19.3515625 Z " fill="#161617" transform="translate(118.328125,143.6484375)"/>
<path d="M0 0 C9.41436295 3.83022712 15.65742344 9.98453073 19.8515625 19.16015625 C23.78448249 28.99245622 22.14299877 37.65018981 18.3359375 47.21484375 C15.82082856 52.20534939 12.68661395 55.60685851 8.1640625 58.84765625 C7.37644531 59.42902344 6.58882813 60.01039063 5.77734375 60.609375 C-1.21330464 64.31469865 -8.69543306 64.47995854 -16.4609375 64.41015625 C-17.34072266 64.41789062 -18.22050781 64.425625 -19.12695312 64.43359375 C-19.97580078 64.43101562 -20.82464844 64.4284375 -21.69921875 64.42578125 C-22.45887939 64.42352539 -23.21854004 64.42126953 -24.0012207 64.41894531 C-26.48101897 64.12007252 -28.04168288 63.4957802 -30.1484375 62.16015625 C-32.30330148 58.92786028 -32.40035888 58.0518183 -32.40722656 54.32495117 C-32.41353088 53.34350632 -32.41983521 52.36206146 -32.42633057 51.35087585 C-32.4222821 50.29149307 -32.41823364 49.23211029 -32.4140625 48.140625 C-32.41597595 47.04929764 -32.4178894 45.95797028 -32.41986084 44.83357239 C-32.42122274 42.5227536 -32.417526 40.21192716 -32.40917969 37.90112305 C-32.39851126 34.37205679 -32.40905912 30.84350318 -32.421875 27.31445312 C-32.4205528 25.0690093 -32.41798916 22.82356579 -32.4140625 20.578125 C-32.41811096 19.52481491 -32.42215942 18.47150482 -32.42633057 17.38627625 C-32.35203133 5.70806161 -32.35203133 5.70806161 -28.1484375 0.84765625 C-21.51143786 -4.75231219 -7.82441621 -2.2671826 0 0 Z M-16.1484375 14.16015625 C-16.1484375 25.71015625 -16.1484375 37.26015625 -16.1484375 49.16015625 C-8.73574604 49.16015625 -5.87374786 49.06203814 -0.1484375 45.16015625 C3.36028262 41.65143613 5.28540276 37.85863546 6.8515625 33.16015625 C6.8515625 27.57762286 4.19445386 22.53162956 0.8515625 18.16015625 C-4.54108614 13.75439756 -9.06325607 14.16015625 -16.1484375 14.16015625 Z " fill="#161616" transform="translate(335.1484375,143.83984375)"/>
<path d="M0 0 C1.43745323 -0.00810448 1.43745323 -0.00810448 2.90394592 -0.01637268 C6.06713886 -0.02886536 9.22942262 -0.0123649 12.39257812 0.00561523 C14.59305875 0.00546026 16.79353966 0.00397153 18.99401855 0.00120544 C23.60404539 -0.0001788 28.2137612 0.01238404 32.82373047 0.03515625 C38.73206005 0.06354065 44.63987284 0.06080374 50.54824066 0.04806614 C55.09157727 0.0411102 59.63479448 0.04889734 64.17811584 0.06132317 C66.3566085 0.06583847 68.53511397 0.06617378 70.71360779 0.06225777 C73.75855773 0.05934645 76.80279622 0.07584931 79.84765625 0.09765625 C80.74754776 0.0931546 81.64743927 0.08865295 82.57460022 0.08401489 C87.80471379 0.14622882 91.53756012 0.61544098 95.42382812 4.50170898 C95.98764299 10.2338268 95.98764299 10.2338268 95.42382812 12.50170898 C92.51860069 15.66421033 90.24817412 16.76469124 86.05981445 17.00964355 C84.29198547 17.03335149 82.52377723 17.03503065 80.75585938 17.01928711 C79.78780365 17.02629639 78.81974792 17.03330566 77.82235718 17.04052734 C74.62672121 17.05811307 71.43197289 17.04648215 68.23632812 17.03295898 C66.01342601 17.03565372 63.79052504 17.03953599 61.56762695 17.04455566 C56.91053029 17.05045151 52.25374065 17.04188467 47.59667969 17.02319336 C41.62772686 17.00040411 35.65949345 17.01352667 29.69056702 17.03748322 C25.10089703 17.05193863 20.51139754 17.0473363 15.92172241 17.03697205 C13.72089554 17.03430407 11.52005317 17.03757699 9.31924438 17.04689026 C6.24301153 17.05705129 3.16794303 17.04156017 0.09179688 17.01928711 C-0.81744537 17.02738403 -1.72668762 17.03548096 -2.66348267 17.04382324 C-6.83721573 16.98785029 -9.02186024 16.84691103 -12.63891602 14.59436035 C-14.71833626 12.348141 -15.26001045 11.514244 -15.20117188 8.50170898 C-15.2140625 7.84170898 -15.22695312 7.18170898 -15.24023438 6.50170898 C-12.91965482 -0.48733063 -6.08503357 -0.06537445 0 0 Z " fill="#030303" transform="translate(172.576171875,128.498291015625)"/>
<path d="M0 0 C1.26811523 -0.01260864 2.53623047 -0.02521729 3.84277344 -0.03820801 C5.22331295 -0.03104817 6.60384739 -0.02284418 7.984375 -0.01367188 C9.40397406 -0.0163675 10.82357131 -0.02025051 12.24316406 -0.02526855 C15.21567394 -0.03116045 18.18770241 -0.02261142 21.16015625 -0.00390625 C24.96696287 0.01888413 28.77264149 0.00575925 32.57940674 -0.01819611 C35.51001456 -0.03266301 38.44035574 -0.02804423 41.37097168 -0.01768494 C42.77437474 -0.01502007 44.17780215 -0.01827905 45.58117676 -0.02760315 C47.54369635 -0.03778128 49.50630102 -0.01951228 51.46875 0 C52.58475586 0.00318237 53.70076172 0.00636475 54.85058594 0.00964355 C58.40464545 0.63563583 59.58153637 1.66557739 61.734375 4.51757812 C62.359375 7.95507812 62.359375 7.95507812 61.734375 11.51757812 C58.96076885 14.95124021 57.2432688 16.28775866 52.84631348 16.9574585 C49.1792196 17.1141554 45.54492209 17.10515677 41.875 17.04101562 C40.52074033 17.03421933 39.16646878 17.02950128 37.81219482 17.02676392 C34.26156912 17.01339999 30.71195423 16.96916654 27.16168213 16.91918945 C24.25714826 16.88368987 21.35271424 16.87069274 18.44800186 16.85877037 C12.45383375 16.83319659 6.45949662 16.79056247 0.46582031 16.71044922 C-0.59529968 16.69758881 -1.65641968 16.68472839 -2.74969482 16.67147827 C-5.265625 16.51757812 -5.265625 16.51757812 -7.265625 15.51757812 C-7.265625 14.85757813 -7.265625 14.19757813 -7.265625 13.51757812 C-7.925625 13.51757812 -8.585625 13.51757812 -9.265625 13.51757812 C-10.81149376 10.42584061 -10.55922021 7.9232826 -10.265625 4.51757812 C-7.24175528 0.44183891 -4.95486505 0.01412916 0 0 Z " fill="#131313" transform="translate(187.265625,99.482421875)"/>
<path d="M0 0 C12.80399188 3.34744886 24.32504128 2.51298719 36.94140625 -1.08984375 C46.43287201 -3.63933132 46.43287201 -3.63933132 50.5 -1.5625 C52.5625 0.9375 52.5625 0.9375 53.125 4.4375 C52.48223225 8.4369438 51.71367298 9.50659513 48.5625 11.9375 C42.12017429 16.23238381 34.08754441 16.83060224 26.5625 17.9375 C25.33917969 18.13859375 24.11585938 18.3396875 22.85546875 18.546875 C17.78621445 19.16537109 12.87184983 18.64801296 7.8125 18.125 C6.88050781 18.04185547 5.94851562 17.95871094 4.98828125 17.87304688 C0.66840446 17.44849657 -2.5880079 17.01923708 -6.4375 14.9375 C-7.74172032 14.6107967 -9.05510639 14.31863777 -10.375 14.0625 C-14.24427378 13.10783806 -16.79660284 12.07356537 -19.4375 8.9375 C-20.14706471 6.11087335 -20.14835517 3.76358274 -19.4375 0.9375 C-14.16018253 -5.61916716 -7.02843663 -2.00709705 0 0 Z " fill="#181819" transform="translate(196.4375,270.0625)"/>
<path d="M0 0 C11.66186545 6.40446709 11.66186545 6.40446709 14.90625 12.046875 C15.50636905 15.72260416 15.43300145 17.29726716 13.28125 20.359375 C10.32888709 22.45710654 8.52337495 22.87505055 4.90625 23.046875 C2.01953125 21.4296875 2.01953125 21.4296875 -0.78125 19.171875 C-6.01598504 15.01594428 -9.26918768 13.2885903 -16.09375 14.046875 C-20.43440088 16.15709912 -24.45504559 18.71770365 -28.203125 21.7578125 C-30.09375 23.046875 -30.09375 23.046875 -33.15625 22.859375 C-36.09375 22.046875 -36.09375 22.046875 -39.09375 20.046875 C-40.04942453 16.42896427 -40.45486475 14.03392199 -39.15625 10.484375 C-29.87343226 -0.48622779 -13.6127955 -6.11422171 0 0 Z " fill="#141415" transform="translate(177.09375,160.953125)"/>
<path d="M0 0 C4.97120864 2.74483913 10.16230874 5.71627008 13.91015625 10.0546875 C14.8430418 13.35566715 15.05682783 15.4680012 14.22265625 18.8046875 C12.6626984 21.47890096 11.88676003 22.22785312 8.91015625 23.0546875 C3.40473808 22.9350045 0.94405745 20.58435105 -3.08984375 17.0546875 C-6.89701158 14.65451648 -10.29429414 13.35121198 -14.8671875 13.4921875 C-19.6100291 14.69248485 -23.30583261 18.0839363 -27.08984375 21.0546875 C-30.08984375 23.0546875 -30.08984375 23.0546875 -33.02734375 22.9296875 C-36.60967572 21.90616408 -37.9863271 21.12905799 -40.08984375 18.0546875 C-40.77734375 14.6796875 -40.77734375 14.6796875 -40.08984375 11.0546875 C-38.43436319 9.21012921 -36.71192891 7.78612403 -34.71875 6.31640625 C-32.94878713 5.13361985 -32.94878713 5.13361985 -32.08984375 3.0546875 C-29.91015625 2.01953125 -29.91015625 2.01953125 -27.21484375 0.9921875 C-26.33054688 0.65058594 -25.44625 0.30898437 -24.53515625 -0.04296875 C-16.78486337 -2.90290111 -7.70102364 -3.43357742 0 0 Z " fill="#161617" transform="translate(274.08984375,160.9453125)"/>
<path d="M0 0 C2.15820312 1.015625 2.15820312 1.015625 4 3 C4.40552703 5.81879545 4.56118811 8.24295574 4.53125 11.0625 C4.5350769 11.85019775 4.53890381 12.63789551 4.54284668 13.44946289 C4.54556696 15.11378254 4.53819746 16.77814486 4.52148438 18.44238281 C4.5000739 20.99120312 4.52127939 23.53720495 4.546875 26.0859375 C4.54423174 27.70313123 4.5391068 29.3203232 4.53125 30.9375 C4.53934692 31.70006104 4.54744385 32.46262207 4.55578613 33.24829102 C4.46256786 38.50365735 4.46256786 38.50365735 2.15429688 40.98046875 C-0.77940867 42.36885886 -2.7902535 42.40121831 -6 42 C-8.40928809 40.69768211 -9.68607522 39.90390242 -10.5949707 37.28686523 C-11.53730687 31.96627278 -11.18478641 26.44897929 -11.1875 21.0625 C-11.19974609 19.78697266 -11.21199219 18.51144531 -11.22460938 17.19726562 C-11.22654297 15.96814453 -11.22847656 14.73902344 -11.23046875 13.47265625 C-11.23457764 12.35125244 -11.23868652 11.22984863 -11.24291992 10.07446289 C-10.99415724 6.92605238 -10.47168549 4.78563569 -9 2 C-5.51131349 -0.32579101 -4.10281481 -0.41865457 0 0 Z " fill="#0B0B0B" transform="translate(216,177)"/>
<path d="M0 0 C1.43986267 -0.00569504 1.43986267 -0.00569504 2.90881348 -0.01150513 C6.07683141 -0.01890523 9.24392903 0.0024633 12.41186523 0.02490234 C14.61473991 0.02728701 16.81761665 0.02819204 19.02049255 0.02767944 C23.63472241 0.03080645 28.24864132 0.04736553 32.86279297 0.07421875 C38.78011464 0.10821816 44.697095 0.11584668 50.61450291 0.11432838 C55.16207645 0.11487195 59.70957525 0.12583669 64.25712395 0.14033127 C66.43923311 0.14669919 68.62135075 0.15063815 70.8034687 0.15211868 C73.85089708 0.15645055 76.89796209 0.17394883 79.9453125 0.1953125 C80.84879929 0.19440613 81.75228607 0.19349976 82.68315125 0.19256592 C83.51442535 0.20109589 84.34569946 0.20962585 85.2021637 0.21841431 C86.28198186 0.22344184 86.28198186 0.22344184 87.38361454 0.22857094 C89.72673605 0.52635243 91.36430032 1.3290515 93.40795898 2.48583984 C92.74795898 3.14583984 92.08795898 3.80583984 91.40795898 4.48583984 C91.40795898 3.82583984 91.40795898 3.16583984 91.40795898 2.48583984 C40.91795898 2.98083984 40.91795898 2.98083984 -10.59204102 3.48583984 C-10.59204102 4.14583984 -10.59204102 4.80583984 -10.59204102 5.48583984 C-11.58204102 5.98083984 -11.58204102 5.98083984 -12.59204102 6.48583984 C-13.2497653 9.51518475 -13.2497653 9.51518475 -13.59204102 12.48583984 C-13.92204102 12.48583984 -14.25204102 12.48583984 -14.59204102 12.48583984 C-15.08032227 6.62646484 -15.08032227 6.62646484 -14.59204102 4.48583984 C-10.19015608 -0.3090637 -6.0920735 -0.07595312 0 0 Z " fill="#747476" transform="translate(172.592041015625,128.51416015625)"/>
<path d="M0 0 C0.66 0.33 1.32 0.66 2 1 C2 1.66 2 2.32 2 3 C35.66 3 69.32 3 104 3 C101.63695644 5.36304356 101.19348893 5.25272525 97.99002075 5.26742554 C96.73244461 5.28022049 96.73244461 5.28022049 95.44946289 5.29327393 C94.06706421 5.29191437 94.06706421 5.29191437 92.65673828 5.29052734 C91.68751434 5.29724457 90.71829041 5.30396179 89.71969604 5.31088257 C86.50318327 5.32994113 83.28687829 5.33379079 80.0703125 5.3359375 C77.84072787 5.3423602 75.6111441 5.34908816 73.38156128 5.35610962 C68.70243373 5.36810223 64.02338012 5.37178843 59.34423828 5.37060547 C53.34264505 5.37040222 47.34152506 5.39770153 41.34004402 5.43214989 C36.73328465 5.45436698 32.12664008 5.45844459 27.51983261 5.45738602 C25.30699915 5.45974992 23.09416289 5.46861755 20.88138199 5.48405075 C17.78793286 5.50360452 14.69551585 5.49791406 11.60205078 5.48583984 C10.68450012 5.49707886 9.76694946 5.50831787 8.82159424 5.51989746 C2.58642773 5.45792448 2.58642773 5.45792448 -0.60012817 2.96963501 C-1.06208588 2.31965546 -1.52404358 1.6696759 -2 1 C-1.34 0.67 -0.68 0.34 0 0 Z " fill="#868588" transform="translate(161,140)"/>
<path d="M0 0 C3.375 1.0625 3.375 1.0625 5.3125 2.75 C6.72089562 5.81533164 6.85272045 7.71845685 6.375 11.0625 C4.75 13.9375 4.75 13.9375 2.375 16.0625 C-1.41462702 16.78817326 -3.11388666 16.34027899 -6.5 14.5 C-8.625 12.0625 -8.625 12.0625 -9.25 8.625 C-8.625 5.0625 -8.625 5.0625 -6.5625 2.0625 C-3.625 0.0625 -3.625 0.0625 0 0 Z " fill="#242425" transform="translate(262.625,176.9375)"/>
<path d="M0 0 C3.5 0.875 3.5 0.875 5.4375 2.5 C6.95259656 5.88668643 7.02368962 8.20917263 6.5 11.875 C3.88478226 14.87480859 2.31645726 15.76069598 -1.625 16.3125 C-4.5 15.875 -4.5 15.875 -6.3125 14.75 C-7.99101602 12.09971155 -8.31265411 9.99743153 -8.5 6.875 C-7.13941609 1.88619232 -5.44785627 -0.1945663 0 0 Z " fill="#232224" transform="translate(165.5,177.125)"/>
<path d="M0 0 C1.875 1.5 1.875 1.5 3 3 C0.69 2.67 -1.62 2.34 -4 2 C-4.66 3.32 -5.32 4.64 -6 6 C-6.66 5.67 -7.32 5.34 -8 5 C-8.33 16.22 -8.66 27.44 -9 39 C-11.05490985 34.89018031 -11.25662451 33.12986482 -11.265625 28.66015625 C-11.26820313 27.43232422 -11.27078125 26.20449219 -11.2734375 24.93945312 C-11.26570312 23.66005859 -11.25796875 22.38066406 -11.25 21.0625 C-11.25773438 19.78697266 -11.26546875 18.51144531 -11.2734375 17.19726562 C-11.27085937 15.96814453 -11.26828125 14.73902344 -11.265625 13.47265625 C-11.26336914 12.35125244 -11.26111328 11.22984863 -11.25878906 10.07446289 C-10.99451213 6.93480305 -10.46619855 4.78045783 -9 2 C-5.53076119 -0.31282587 -4.07794425 -0.42478586 0 0 Z " fill="#464649" transform="translate(216,177)"/>
<path d="M0 0 C1.281026 0.00030212 2.562052 0.00060425 3.88189697 0.00091553 C5.27511214 0.02134061 6.66832094 0.04220457 8.06152344 0.06347656 C9.49069426 0.07094025 10.91987533 0.07663258 12.34906006 0.08062744 C16.10417106 0.09587406 19.85865969 0.1351464 23.61352539 0.17944336 C27.44766827 0.22041769 31.28191206 0.238643 35.11621094 0.25878906 C42.63472333 0.30164254 50.15272356 0.36988089 57.67089844 0.45410156 C58.16589844 1.44410156 58.16589844 1.44410156 58.67089844 2.45410156 C57.87354279 2.44743973 57.07618713 2.44077789 56.25466919 2.43391418 C48.75007701 2.37386916 41.24560085 2.32816106 33.74083138 2.29866505 C29.88229269 2.28299118 26.02395204 2.26172201 22.16552734 2.2277832 C18.44376548 2.19525037 14.72219441 2.17726152 11.00030136 2.16946983 C9.57846954 2.16391532 8.15664847 2.15306895 6.73489761 2.13691139 C4.74768457 2.1152204 2.76028061 2.11387688 0.77294922 2.11352539 C-0.92581863 2.10353264 -0.92581863 2.10353264 -2.65890503 2.09333801 C-3.54006989 2.21238998 -4.42123474 2.33144196 -5.32910156 2.45410156 C-6.31910156 3.93910156 -6.31910156 3.93910156 -7.32910156 5.45410156 C-7.98910156 5.45410156 -8.64910156 5.45410156 -9.32910156 5.45410156 C-9.32910156 7.43410156 -9.32910156 9.41410156 -9.32910156 11.45410156 C-9.65910156 11.45410156 -9.98910156 11.45410156 -10.32910156 11.45410156 C-10.81650981 5.1177943 -10.81650981 5.1177943 -8.70904541 2.24810791 C-5.6192711 -0.08097004 -3.84627812 -0.03028565 0 0 Z " fill="#ABABAD" transform="translate(187.3291015625,99.5458984375)"/>
<path d="M0 0 C0.72822464 0.00424484 1.45644928 0.00848969 2.20674133 0.01286316 C4.53013252 0.02964142 6.85265275 0.0672902 9.17578125 0.10546875 C10.75194059 0.12051678 12.32811354 0.13420498 13.90429688 0.14648438 C17.76596002 0.1795419 21.62697303 0.23131681 25.48828125 0.29296875 C25.48828125 0.62296875 25.48828125 0.95296875 25.48828125 1.29296875 C9.64828125 1.78796875 9.64828125 1.78796875 -6.51171875 2.29296875 C-6.51171875 2.95296875 -6.51171875 3.61296875 -6.51171875 4.29296875 C-7.50171875 4.78796875 -7.50171875 4.78796875 -8.51171875 5.29296875 C-9.16944303 8.32231366 -9.16944303 8.32231366 -9.51171875 11.29296875 C-9.84171875 11.29296875 -10.17171875 11.29296875 -10.51171875 11.29296875 C-10.87755372 3.85432445 -10.87755372 3.85432445 -9.46289062 1.68359375 C-6.50326091 -0.42577198 -3.49573221 -0.07662964 0 0 Z " fill="#121114" transform="translate(168.51171875,129.70703125)"/>
<path d="M0 0 C0.66 0.33 1.32 0.66 2 1 C-0.18711521 5.24557659 -3.05754065 8.19609881 -6.4765625 11.44921875 C-8.09913693 12.94179261 -8.09913693 12.94179261 -9 15 C-12.0625 15.625 -12.0625 15.625 -15 16 C-14.06409496 14.8944811 -13.12620142 13.79064547 -12.1875 12.6875 C-11.66542969 12.07261719 -11.14335937 11.45773437 -10.60546875 10.82421875 C-9.81076172 9.92123047 -9.81076172 9.92123047 -9 9 C-8.50113281 8.42894531 -8.00226563 7.85789062 -7.48828125 7.26953125 C-6 6 -6 6 -3 6 C-3 5.01 -3 4.02 -3 3 C-1.5 1.3125 -1.5 1.3125 0 0 Z " fill="#4D4B4F" transform="translate(290,512)"/>
<path d="M0 0 C0.66 0.33 1.32 0.66 2 1 C2 1.66 2 2.32 2 3 C13.88 3 25.76 3 38 3 C38 3.33 38 3.66 38 4 C32.62486811 4.0740324 27.25003146 4.12854569 21.87451172 4.16479492 C20.04503207 4.17990251 18.21558875 4.20038968 16.38623047 4.22631836 C13.76000008 4.26261585 11.13424751 4.27970615 8.5078125 4.29296875 C7.68693146 4.30845261 6.86605042 4.32393646 6.02029419 4.33988953 C3.71533203 4.34057617 3.71533203 4.34057617 0 4 C-0.66 3.01 -1.32 2.02 -2 1 C-1.34 0.67 -0.68 0.34 0 0 Z " fill="#1E1B1F" transform="translate(161,140)"/>
<path d="M0 0 C0.66 0 1.32 0 2 0 C1.4237038 3.88999932 -0.36736021 6.14170537 -3 9 C-4.31747324 9.69748583 -5.64914193 10.36959957 -7 11 C-7.99 12.485 -7.99 12.485 -9 14 C-9.66 14 -10.32 14 -11 14 C-9.64763423 11.06120516 -8.10057341 8.70767089 -6 6.25 C-5.2265625 5.32960938 -5.2265625 5.32960938 -4.4375 4.390625 C-3 3 -3 3 -1 3 C-0.67 2.01 -0.34 1.02 0 0 Z " fill="#4E4D50" transform="translate(265,407)"/>
<path d="M0 0 C0 0.33 0 0.66 0 1 C-1.6396875 1.37125 -1.6396875 1.37125 -3.3125 1.75 C-6.93110434 2.71486951 -6.93110434 2.71486951 -9 4.75 C-10.35723986 7.80378969 -9.79546251 9.81814995 -9 13 C-9.99 12.34 -10.98 11.68 -12 11 C-12.49781887 7.159683 -12.55208345 4.8971356 -10.5 1.5625 C-6.86353539 -0.71029038 -4.24217465 -0.28281164 0 0 Z " fill="#5B5A5E" transform="translate(290,305)"/>
<path d="M0 0 C0.86625 0.268125 1.7325 0.53625 2.625 0.8125 C2.625 1.1425 2.625 1.4725 2.625 1.8125 C0.315 1.8125 -1.995 1.8125 -4.375 1.8125 C-4.643125 2.34875 -4.91125 2.885 -5.1875 3.4375 C-6.58333333 6.22916667 -7.97916667 9.02083333 -9.375 11.8125 C-10.035 11.8125 -10.695 11.8125 -11.375 11.8125 C-10.5519135 7.61475886 -9.80867501 4.77115086 -6.625 1.8125 C-3.375 -0.1875 -3.375 -0.1875 0 0 Z " fill="#57565A" transform="translate(299.375,213.1875)"/>
<path d="M0 0 C0.33 0.66 0.66 1.32 1 2 C-6.11389522 10.81548975 -6.11389522 10.81548975 -11 12 C-7.49102731 7.81576108 -3.91939465 3.80411834 0 0 Z " fill="#525055" transform="translate(134,26)"/>
<path d="M0 0 C-2.76280538 1.84187025 -4.80707826 2.72248277 -7.9375 3.6875 C-8.79214844 3.95949219 -9.64679687 4.23148437 -10.52734375 4.51171875 C-13.10510574 5.02075548 -14.54449337 4.84888744 -17 4 C-14.92227529 3.13227971 -12.83756823 2.28126381 -10.75 1.4375 C-9.58984375 0.96183594 -8.4296875 0.48617188 -7.234375 -0.00390625 C-4.13733356 -0.95770524 -2.92678299 -1.20983356 0 0 Z " fill="#6C6A6F" transform="translate(71,371)"/>
<path d="M0 0 C0.66 0.33 1.32 0.66 2 1 C-1.61328125 5.6875 -1.61328125 5.6875 -3 7 C-3.99 7 -4.98 7 -6 7 C-6.33 7.99 -6.66 8.98 -7 10 C-7.99 9.67 -8.98 9.34 -10 9 C-8.625 7.5 -8.625 7.5 -7 6 C-6.34 6 -5.68 6 -5 6 C-5 5.34 -5 4.68 -5 4 C-3.37373596 2.61767557 -1.7074998 1.28062485 0 0 Z " fill="#666569" transform="translate(237,434)"/>
<path d="M0 0 C5.28 0 10.56 0 16 0 C12.11061874 2.59292084 9.07344197 2.41309737 4.49609375 2.65625 C1.82994697 2.76736868 1.82994697 2.76736868 0 5 C0 3.35 0 1.7 0 0 Z " fill="#676569" transform="translate(263,356)"/>
<path d="M0 0 C-0.8125 1.9375 -0.8125 1.9375 -2 4 C-2.99 4.33 -3.98 4.66 -5 5 C-5 7.97 -5 10.94 -5 14 C-7 11 -7 11 -6.875 7.5625 C-5.92586742 3.69817451 -4.49701853 0 0 0 Z " fill="#4B4B4E" transform="translate(144,167)"/>
<path d="M0 0 C0.66 0.33 1.32 0.66 2 1 C0.88200014 2.33920838 -0.24461897 3.67122556 -1.375 5 C-2.00148438 5.7425 -2.62796875 6.485 -3.2734375 7.25 C-4.12808594 8.11625 -4.12808594 8.11625 -5 9 C-5.66 9 -6.32 9 -7 9 C-5.64978174 4.58110387 -3.73884332 2.65654657 0 0 Z " fill="#515054" transform="translate(300,77)"/>
<path d="M0 0 C0.33 0 0.66 0 1 0 C1.21432579 6.64409958 0.51233701 12.53205867 -1 19 C-1.33 19 -1.66 19 -2 19 C-2.02687279 17.18757948 -2.04633715 15.37504767 -2.0625 13.5625 C-2.07410156 12.55316406 -2.08570313 11.54382813 -2.09765625 10.50390625 C-2 8 -2 8 -1 7 C-0.63239269 4.67182036 -0.29758419 2.3381615 0 0 Z " fill="#555257" transform="translate(380,401)"/>
<path d="M0 0 C-0.25 1.8125 -0.25 1.8125 -1 4 C-1.66 4.474375 -2.32 4.94875 -3 5.4375 C-5.25275456 6.87886306 -5.25275456 6.87886306 -5.75 9.6875 C-5.8325 10.450625 -5.915 11.21375 -6 12 C-6.33 12 -6.66 12 -7 12 C-7.44117322 7.50003317 -7.52867608 5.65388883 -4.625 2.0625 C-2 0 -2 0 0 0 Z " fill="#575658" transform="translate(241,167)"/>
<path d="M0 0 C0 0.33 0 0.66 0 1 C-1.60875 1.12375 -1.60875 1.12375 -3.25 1.25 C-7.33500175 2.06700035 -8.34891677 2.9561637 -11 6 C-11.66 6 -12.32 6 -13 6 C-12.67 5.01 -12.34 4.02 -12 3 C-11.34 3 -10.68 3 -10 3 C-9.67 2.01 -9.34 1.02 -9 0 C-5.52176885 -1.15941038 -3.54104422 -0.70820884 0 0 Z " fill="#58585C" transform="translate(335,219)"/>
<path d="M0 0 C1.32 0.33 2.64 0.66 4 1 C0.04 4.465 0.04 4.465 -4 8 C-4.33 6.68 -4.66 5.36 -5 4 C-3.5625 2.25 -3.5625 2.25 -2 1 C-1.34 1.33 -0.68 1.66 0 2 C0 1.34 0 0.68 0 0 Z " fill="#424044" transform="translate(142,37)"/>
<path d="M0 0 C0.66 0.33 1.32 0.66 2 1 C1.01 2.485 1.01 2.485 0 4 C-0.66 4 -1.32 4 -2 4 C-2.33 4.99 -2.66 5.98 -3 7 C-3.99 7 -4.98 7 -6 7 C-6 5.35 -6 3.7 -6 2 C-5.34 2.66 -4.68 3.32 -4 4 C-2.68 2.68 -1.36 1.36 0 0 Z " fill="#575659" transform="translate(153,244)"/>
<path d="M0 0 C0.66 0.99 1.32 1.98 2 3 C0.38405168 5.04119788 -1.2856382 7.04072937 -3 9 C-3.66 9 -4.32 9 -5 9 C-3.50163895 5.88801935 -1.80066242 2.9465385 0 0 Z " fill="#6A696C" transform="translate(289,375)"/>
<path d="M0 0 C3.63 0.33 7.26 0.66 11 1 C9 3 9 3 6.0625 3.3125 C3 3 3 3 0 0 Z " fill="#636165" transform="translate(141,264)"/>
<path d="M0 0 C-1.49097658 3.7952131 -3.75700849 5.61042731 -7 8 C-6.44414399 4.1090079 -4.34122117 0 0 0 Z " fill="#454448" transform="translate(85,78)"/>
<path d="M0 0 C0 1.65 0 3.3 0 5 C-0.66 4.34 -1.32 3.68 -2 3 C-4.66242821 2.53709779 -4.66242821 2.53709779 -7.625 2.375 C-9.12933594 2.26285156 -9.12933594 2.26285156 -10.6640625 2.1484375 C-11.43492187 2.09945313 -12.20578125 2.05046875 -13 2 C-13 1.67 -13 1.34 -13 1 C-11.20843648 0.83222817 -9.4167455 0.66581706 -7.625 0.5 C-6.62726563 0.4071875 -5.62953125 0.314375 -4.6015625 0.21875 C-2 0 -2 0 0 0 Z " fill="#737276" transform="translate(163,356)"/>
<path d="M0 0 C0.66 0.33 1.32 0.66 2 1 C1 4 1 4 -1 5 C-1.65772428 8.02934491 -1.65772428 8.02934491 -2 11 C-2.33 11 -2.66 11 -3 11 C-3.36923077 3.49230769 -3.36923077 3.49230769 -1.5 1 C-1.005 0.67 -0.51 0.34 0 0 Z " fill="#525255" transform="translate(161,130)"/>
<path d="M0 0 C0 3 0 3 -1 5 C-4.0625 5.625 -4.0625 5.625 -7 6 C-2.25 1.125 -2.25 1.125 0 0 Z " fill="#565557" transform="translate(282,522)"/>
<path d="M0 0 C3.63 0.33 7.26 0.66 11 1 C11 1.99 11 2.98 11 4 C7.37 3.01 3.74 2.02 0 1 C0 0.67 0 0.34 0 0 Z " fill="#58565A" transform="translate(163,173)"/>
</svg>
