<svg width="24" height="25" viewBox="0 0 24 25" fill="none" xmlns="http://www.w3.org/2000/svg">
<path d="M12 16.05L13.15 17.2C13.25 17.3 13.3667 17.35 13.5 17.35C13.6333 17.35 13.75 17.3 13.85 17.2L15 16.05L15.45 16.5C15.6 16.65 15.775 16.725 15.975 16.725C16.175 16.725 16.35 16.65 16.5 16.5C16.65 16.35 16.725 16.175 16.725 15.975C16.725 15.775 16.65 15.6 16.5 15.45L15.35 14.3C15.25 14.2 15.1333 14.15 15 14.15C14.8667 14.15 14.75 14.2 14.65 14.3L13.5 15.45L12.35 14.3C12.25 14.2 12.1333 14.15 12 14.15C11.8667 14.15 11.75 14.2 11.65 14.3L10.5 15.45L9.35 14.3C9.25 14.2 9.13333 14.15 9 14.15C8.86667 14.15 8.75 14.2 8.65 14.3L7.5 15.45C7.35 15.6 7.275 15.775 7.275 15.975C7.275 16.175 7.35 16.35 7.5 16.5C7.65 16.65 7.825 16.725 8.025 16.725C8.225 16.725 8.4 16.65 8.55 16.5L9 16.05L10.15 17.2C10.25 17.3 10.3667 17.35 10.5 17.35C10.6333 17.35 10.75 17.3 10.85 17.2L12 16.05ZM8.475 10.5L7.175 11.45C7.00834 11.5833 6.90433 11.75 6.863 11.95C6.82167 12.15 6.86733 12.3333 7 12.5C7.13267 12.6667 7.29933 12.771 7.5 12.813C7.70067 12.855 7.884 12.809 8.05 12.675L10.475 10.9C10.6083 10.8 10.675 10.6667 10.675 10.5C10.675 10.3333 10.6083 10.2 10.475 10.1L8.05 8.325C7.88334 8.19167 7.7 8.14567 7.5 8.187C7.3 8.22833 7.13333 8.33267 7 8.5C6.86667 8.66733 6.81667 8.85067 6.85 9.05C6.88333 9.24933 6.99167 9.416 7.175 9.55L8.475 10.5ZM15.525 10.5L16.825 9.55C16.9917 9.41667 17.096 9.25 17.138 9.05C17.18 8.85 17.134 8.66667 17 8.5C16.866 8.33333 16.6993 8.22933 16.5 8.188C16.3007 8.14667 16.1173 8.19233 15.95 8.325L13.525 10.1C13.3917 10.2 13.325 10.3333 13.325 10.5C13.325 10.6667 13.3917 10.8 13.525 10.9L15.95 12.675C16.1167 12.8083 16.3 12.8543 16.5 12.813C16.7 12.7717 16.8667 12.6673 17 12.5C17.1333 12.3327 17.1833 12.1493 17.15 11.95C17.1167 11.7507 17.0083 11.584 16.825 11.45L15.525 10.5ZM12 22.5C10.6167 22.5 9.31667 22.2373 8.1 21.712C6.88334 21.1867 5.825 20.4743 4.925 19.575C4.025 18.6757 3.31267 17.6173 2.788 16.4C2.26333 15.1827 2.00067 13.8827 2 12.5C1.99933 11.1173 2.262 9.81733 2.788 8.6C3.314 7.38267 4.02633 6.32433 4.925 5.425C5.82367 4.52567 6.882 3.81333 8.1 3.288C9.318 2.76267 10.618 2.5 12 2.5C13.382 2.5 14.682 2.76267 15.9 3.288C17.118 3.81333 18.1763 4.52567 19.075 5.425C19.9737 6.32433 20.6863 7.38267 21.213 8.6C21.7397 9.81733 22.002 11.1173 22 12.5C21.998 13.8827 21.7353 15.1827 21.212 16.4C20.6887 17.6173 19.9763 18.6757 19.075 19.575C18.1737 20.4743 17.1153 21.187 15.9 21.713C14.6847 22.239 13.3847 22.5013 12 22.5ZM12 20.5C14.2333 20.5 16.125 19.725 17.675 18.175C19.225 16.625 20 14.7333 20 12.5C20 10.2667 19.225 8.375 17.675 6.825C16.125 5.275 14.2333 4.5 12 4.5C9.76667 4.5 7.875 5.275 6.325 6.825C4.775 8.375 4 10.2667 4 12.5C4 14.7333 4.775 16.625 6.325 18.175C7.875 19.725 9.76667 20.5 12 20.5Z" fill="#591A0E"/>
</svg>
