<?xml version="1.0" encoding="UTF-8"?>
<!DOCTYPE svg PUBLIC "-//W3C//DTD SVG 1.1//EN" "http://www.w3.org/Graphics/SVG/1.1/DTD/svg11.dtd">
<svg xmlns="http://www.w3.org/2000/svg" version="1.1" width="512px" height="512px" style="shape-rendering:geometricPrecision; text-rendering:geometricPrecision; image-rendering:optimizeQuality; fill-rule:evenodd; clip-rule:evenodd" xmlns:xlink="http://www.w3.org/1999/xlink">
<g><path style="opacity:0.02" fill="#303030" d="M -0.5,-0.5 C 0.166667,-0.5 0.833333,-0.5 1.5,-0.5C 1.16667,0.5 0.5,1.16667 -0.5,1.5C -0.5,0.833333 -0.5,0.166667 -0.5,-0.5 Z"/></g>
<g><path style="opacity:0.024" fill="#2d2d2d" d="M 16.5,-0.5 C 18.1667,-0.5 19.8333,-0.5 21.5,-0.5C 14.5,7.16667 7.16667,14.5 -0.5,21.5C -0.5,19.8333 -0.5,18.1667 -0.5,16.5C 5.5,11.1667 11.1667,5.5 16.5,-0.5 Z"/></g>
<g><path style="opacity:0.024" fill="#2d2d2d" d="M 36.5,-0.5 C 38.1667,-0.5 39.8333,-0.5 41.5,-0.5C 27.8333,13.8333 13.8333,27.8333 -0.5,41.5C -0.5,39.8333 -0.5,38.1667 -0.5,36.5C 12.1667,24.5 24.5,12.1667 36.5,-0.5 Z"/></g>
<g><path style="opacity:0.024" fill="#2d2d2d" d="M 56.5,-0.5 C 58.1667,-0.5 59.8333,-0.5 61.5,-0.5C 41.1667,20.5 20.5,41.1667 -0.5,61.5C -0.5,59.8333 -0.5,58.1667 -0.5,56.5C 18.8333,37.8333 37.8333,18.8333 56.5,-0.5 Z"/></g>
<g><path style="opacity:0.024" fill="#2d2d2d" d="M 76.5,-0.5 C 78.1667,-0.5 79.8333,-0.5 81.5,-0.5C 54.5,27.1667 27.1667,54.5 -0.5,81.5C -0.5,79.8333 -0.5,78.1667 -0.5,76.5C 25.5,51.1667 51.1667,25.5 76.5,-0.5 Z"/></g>
<g><path style="opacity:0.024" fill="#2d2d2d" d="M 96.5,-0.5 C 98.1667,-0.5 99.8333,-0.5 101.5,-0.5C 67.8333,33.8333 33.8333,67.8333 -0.5,101.5C -0.5,99.8333 -0.5,98.1667 -0.5,96.5C 32.1667,64.5 64.5,32.1667 96.5,-0.5 Z"/></g>
<g><path style="opacity:0.024" fill="#2d2d2d" d="M 116.5,-0.5 C 118.167,-0.5 119.833,-0.5 121.5,-0.5C 81.1667,40.5 40.5,81.1667 -0.5,121.5C -0.5,119.833 -0.5,118.167 -0.5,116.5C 38.8333,77.8333 77.8333,38.8333 116.5,-0.5 Z"/></g>
<g><path style="opacity:0.024" fill="#2d2d2d" d="M 136.5,-0.5 C 138.167,-0.5 139.833,-0.5 141.5,-0.5C 94.5,47.1667 47.1667,94.5 -0.5,141.5C -0.5,139.833 -0.5,138.167 -0.5,136.5C 45.5,91.1667 91.1667,45.5 136.5,-0.5 Z"/></g>
<g><path style="opacity:0.024" fill="#2d2d2d" d="M 156.5,-0.5 C 158.167,-0.5 159.833,-0.5 161.5,-0.5C 107.833,53.8333 53.8333,107.833 -0.5,161.5C -0.5,159.833 -0.5,158.167 -0.5,156.5C 52.1667,104.5 104.5,52.1667 156.5,-0.5 Z"/></g>
<g><path style="opacity:0.024" fill="#2d2d2d" d="M 176.5,-0.5 C 178.167,-0.5 179.833,-0.5 181.5,-0.5C 121.167,60.5 60.5,121.167 -0.5,181.5C -0.5,179.833 -0.5,178.167 -0.5,176.5C 58.8333,117.833 117.833,58.8333 176.5,-0.5 Z"/></g>
<g><path style="opacity:0.024" fill="#2d2d2d" d="M 196.5,-0.5 C 198.167,-0.5 199.833,-0.5 201.5,-0.5C 134.5,67.1667 67.1667,134.5 -0.5,201.5C -0.5,199.833 -0.5,198.167 -0.5,196.5C 65.5,131.167 131.167,65.5 196.5,-0.5 Z"/></g>
<g><path style="opacity:0.024" fill="#2d2d2d" d="M 216.5,-0.5 C 218.167,-0.5 219.833,-0.5 221.5,-0.5C 217.5,3.83333 213.5,8.16667 209.5,12.5C 208.833,12.5 208.5,12.8333 208.5,13.5C 207.833,13.5 207.5,13.8333 207.5,14.5C 202.167,19.1667 197.167,24.1667 192.5,29.5C 191.833,29.5 191.5,29.8333 191.5,30.5C 190.833,30.5 190.5,30.8333 190.5,31.5C 189.833,31.5 189.5,31.8333 189.5,32.5C 126.167,95.5 62.8333,158.5 -0.5,221.5C -0.5,219.833 -0.5,218.167 -0.5,216.5C 72.1667,144.5 144.5,72.1667 216.5,-0.5 Z"/></g>
<g><path style="opacity:0.966" fill="#414141" d="M 236.5,-0.5 C 245.5,-0.5 254.5,-0.5 263.5,-0.5C 267.019,0.632154 270.686,1.63215 274.5,2.5C 275.391,3.10978 276.391,3.44312 277.5,3.5C 280.795,5.14728 284.128,6.81395 287.5,8.5C 287.973,9.90632 288.973,10.573 290.5,10.5C 293.28,13.0638 296.28,15.3971 299.5,17.5C 299.833,18.5 300.5,19.1667 301.5,19.5C 303.833,22.1667 306.167,24.8333 308.5,27.5C 309.512,28.8717 310.512,30.205 311.5,31.5C 313.167,34.1667 314.833,36.8333 316.5,39.5C 316.932,40.7095 317.599,41.7095 318.5,42.5C 319.93,46.3544 321.597,50.0211 323.5,53.5C 323.263,54.791 323.596,55.791 324.5,56.5C 325.192,60.5999 326.192,64.5999 327.5,68.5C 327.216,70.4147 327.549,72.0813 328.5,73.5C 328.467,77.8689 328.8,82.2022 329.5,86.5C 329.5,88.1667 329.5,89.8333 329.5,91.5C 329.03,97.206 328.363,102.873 327.5,108.5C 327.167,110.5 326.833,112.5 326.5,114.5C 324.626,122.456 321.959,130.123 318.5,137.5C 317.833,137.5 317.5,137.833 317.5,138.5C 315.207,142.475 312.874,146.475 310.5,150.5C 304.5,158.5 297.5,165.5 289.5,171.5C 286.193,173.153 282.86,174.82 279.5,176.5C 278.833,176.5 278.5,176.833 278.5,177.5C 271.707,180.281 264.707,182.281 257.5,183.5C 255.833,183.5 254.167,183.5 252.5,183.5C 247.737,183.774 243.07,183.441 238.5,182.5C 236.708,182.634 235.042,182.301 233.5,181.5C 229.653,181.106 225.986,180.106 222.5,178.5C 221.609,177.89 220.609,177.557 219.5,177.5C 216.202,175.515 212.869,173.515 209.5,171.5C 208.71,170.599 207.71,169.932 206.5,169.5C 203.859,167.196 201.192,164.862 198.5,162.5C 198.167,161.5 197.5,160.833 196.5,160.5C 194.115,158.116 192.115,155.45 190.5,152.5C 189.833,151.167 188.833,150.167 187.5,149.5C 185.863,145.882 183.863,142.549 181.5,139.5C 181.737,138.209 181.404,137.209 180.5,136.5C 178.891,132.946 177.558,129.279 176.5,125.5C 176.167,124.167 175.833,122.833 175.5,121.5C 174.249,117.582 173.249,113.582 172.5,109.5C 172.795,107.265 172.461,105.265 171.5,103.5C 171.5,99.1667 171.5,94.8333 171.5,90.5C 171.5,88.8333 171.5,87.1667 171.5,85.5C 172.129,79.4277 173.129,73.4277 174.5,67.5C 175.167,65.1667 175.833,62.8333 176.5,60.5C 179.772,50.6249 184.106,41.2915 189.5,32.5C 190.167,32.5 190.5,32.1667 190.5,31.5C 191.167,31.5 191.5,31.1667 191.5,30.5C 192.167,30.5 192.5,30.1667 192.5,29.5C 197.167,24.1667 202.167,19.1667 207.5,14.5C 208.167,14.5 208.5,14.1667 208.5,13.5C 209.167,13.5 209.5,13.1667 209.5,12.5C 218.183,7.32377 227.183,2.99043 236.5,-0.5 Z M 244.5,16.5 C 249.5,16.5 254.5,16.5 259.5,16.5C 236.5,40.1667 213.167,63.5 189.5,86.5C 189.475,80.2967 190.475,74.2967 192.5,68.5C 210.167,51.5 227.5,34.1667 244.5,16.5 Z M 263.5,17.5 C 267.279,18.5578 270.946,19.8911 274.5,21.5C 246.5,50.1667 218.167,78.5 189.5,106.5C 189.167,101.833 188.833,97.1667 188.5,92.5C 213.833,67.8333 238.833,42.8333 263.5,17.5 Z M 237.5,18.5 C 223.833,32.8333 209.833,46.8333 195.5,60.5C 202.491,39.5092 216.491,25.5092 237.5,18.5 Z M 277.5,23.5 C 281.082,25.1198 284.082,27.4531 286.5,30.5C 255.5,61.1667 224.5,91.8333 193.5,122.5C 192.5,118.499 191.5,114.499 190.5,110.5C 219.833,81.8333 248.833,52.8333 277.5,23.5 Z M 289.5,32.5 C 291.804,35.1413 294.138,37.808 296.5,40.5C 264.701,71.7985 233.035,103.299 201.5,135C 200.906,135.464 200.239,135.631 199.5,135.5C 197.616,132.397 196.282,129.063 195.5,125.5C 226.833,94.5 258.167,63.5 289.5,32.5 Z M 298.5,43.5 C 300.692,46.5498 302.358,49.8832 303.5,53.5C 271.833,84.8333 240.167,116.167 208.5,147.5C 206.115,145.116 204.115,142.45 202.5,139.5C 234.167,107.167 266.167,75.1667 298.5,43.5 Z M 305.5,56.5 C 306.833,60.1667 308.167,63.8333 309.5,67.5C 279.701,96.7985 250.035,126.298 220.5,156C 219.906,156.464 219.239,156.631 218.5,156.5C 216.142,154.471 213.808,152.471 211.5,150.5C 242.5,118.833 273.833,87.5 305.5,56.5 Z M 310.5,71.5 C 311.127,76.1408 311.46,80.8075 311.5,85.5C 285.167,111.167 259.167,137.167 233.5,163.5C 229.418,162.624 225.751,160.957 222.5,158.5C 251.833,129.5 281.167,100.5 310.5,71.5 Z M 311.5,91.5 C 311.587,96.5365 311.254,101.537 310.5,106.5C 290.167,126.167 270.167,146.167 250.5,166.5C 245.566,166.771 240.9,166.104 236.5,164.5C 261.465,140.035 286.299,115.368 311,90.5C 311.399,90.7284 311.565,91.0618 311.5,91.5 Z M 308.5,113.5 C 302.337,136.168 288.67,152.668 267.5,163C 263.986,164.562 260.319,165.395 256.5,165.5C 273.5,147.833 290.833,130.5 308.5,113.5 Z"/></g>
<g><path style="opacity:0.024" fill="#2d2d2d" d="M 276.5,-0.5 C 278.167,-0.5 279.833,-0.5 281.5,-0.5C 280.5,1.16667 279.167,2.5 277.5,3.5C 276.391,3.44312 275.391,3.10978 274.5,2.5C 275.167,1.5 275.833,0.5 276.5,-0.5 Z"/></g>
<g><path style="opacity:0.024" fill="#2d2d2d" d="M 296.5,-0.5 C 298.167,-0.5 299.833,-0.5 301.5,-0.5C 298.167,3.5 294.5,7.16667 290.5,10.5C 288.973,10.573 287.973,9.90632 287.5,8.5C 290.833,5.83333 293.833,2.83333 296.5,-0.5 Z"/></g>
<g><path style="opacity:0.024" fill="#2d2d2d" d="M 316.5,-0.5 C 318.167,-0.5 319.833,-0.5 321.5,-0.5C 315.167,6.5 308.5,13.1667 301.5,19.5C 300.5,19.1667 299.833,18.5 299.5,17.5C 305.167,11.5 310.833,5.5 316.5,-0.5 Z"/></g>
<g><path style="opacity:0.024" fill="#2d2d2d" d="M 336.5,-0.5 C 338.167,-0.5 339.833,-0.5 341.5,-0.5C 331.869,9.63173 322.036,19.6317 312,29.5C 311.536,30.0944 311.369,30.7611 311.5,31.5C 310.512,30.205 309.512,28.8717 308.5,27.5C 318.167,18.5 327.5,9.16667 336.5,-0.5 Z"/></g>
<g><path style="opacity:0.024" fill="#2d2d2d" d="M 356.5,-0.5 C 358.167,-0.5 359.833,-0.5 361.5,-0.5C 347.5,14.1667 333.167,28.5 318.5,42.5C 317.599,41.7095 316.932,40.7095 316.5,39.5C 330.167,26.5 343.5,13.1667 356.5,-0.5 Z"/></g>
<g><path style="opacity:0.024" fill="#2d2d2d" d="M 376.5,-0.5 C 378.167,-0.5 379.833,-0.5 381.5,-0.5C 362.833,18.8333 343.833,37.8333 324.5,56.5C 323.596,55.791 323.263,54.791 323.5,53.5C 341.167,35.5 358.833,17.5 376.5,-0.5 Z"/></g>
<g><path style="opacity:0.024" fill="#2d2d2d" d="M 396.5,-0.5 C 398.167,-0.5 399.833,-0.5 401.5,-0.5C 377.167,24.1667 352.833,48.8333 328.5,73.5C 327.549,72.0813 327.216,70.4147 327.5,68.5C 350.833,45.8333 373.833,22.8333 396.5,-0.5 Z"/></g>
<g><path style="opacity:0.024" fill="#2d2d2d" d="M 416.5,-0.5 C 418.167,-0.5 419.833,-0.5 421.5,-0.5C 391.167,30.5 360.5,61.1667 329.5,91.5C 329.5,89.8333 329.5,88.1667 329.5,86.5C 358.833,57.8333 387.833,28.8333 416.5,-0.5 Z"/></g>
<g><path style="opacity:0.024" fill="#2d2d2d" d="M 436.5,-0.5 C 438.167,-0.5 439.833,-0.5 441.5,-0.5C 403.5,38.1667 365.167,76.5 326.5,114.5C 326.833,112.5 327.167,110.5 327.5,108.5C 364.167,72.5 400.5,36.1667 436.5,-0.5 Z"/></g>
<g><path style="opacity:0.024" fill="#2d2d2d" d="M 456.5,-0.5 C 458.167,-0.5 459.833,-0.5 461.5,-0.5C 411.5,50.1667 361.167,100.5 310.5,150.5C 312.874,146.475 315.207,142.475 317.5,138.5C 318.167,138.5 318.5,138.167 318.5,137.5C 364.833,91.8333 410.833,45.8333 456.5,-0.5 Z"/></g>
<g><path style="opacity:0.024" fill="#2d2d2d" d="M 476.5,-0.5 C 478.167,-0.5 479.833,-0.5 481.5,-0.5C 423.167,58.1667 364.833,116.833 306.5,175.5C 304.833,175.5 303.167,175.5 301.5,175.5C 359.833,116.833 418.167,58.1667 476.5,-0.5 Z"/></g>
<g><path style="opacity:0.024" fill="#2d2d2d" d="M 496.5,-0.5 C 498.167,-0.5 499.833,-0.5 501.5,-0.5C 441.5,59.8333 381.5,120.167 321.5,180.5C 320.29,180.068 319.29,179.401 318.5,178.5C 377.833,118.833 437.167,59.1667 496.5,-0.5 Z"/></g>
<g><path style="opacity:0.024" fill="#2d2d2d" d="M 511.5,5.5 C 511.5,7.16667 511.5,8.83333 511.5,10.5C 452.5,69.1667 393.5,127.833 334.5,186.5C 333.391,186.443 332.391,186.11 331.5,185.5C 391.167,125.167 451.167,65.1667 511.5,5.5 Z"/></g>
<g><path style="opacity:0.024" fill="#2d2d2d" d="M 244.5,16.5 C 227.5,34.1667 210.167,51.5 192.5,68.5C 192.767,66.0347 193.434,63.7014 194.5,61.5C 195.167,61.5 195.5,61.1667 195.5,60.5C 209.833,46.8333 223.833,32.8333 237.5,18.5C 239.657,17.5933 241.99,16.9267 244.5,16.5 Z"/></g>
<g><path style="opacity:0.024" fill="#2d2d2d" d="M 259.5,16.5 C 260.833,16.8333 262.167,17.1667 263.5,17.5C 238.833,42.8333 213.833,67.8333 188.5,92.5C 188.5,90.8333 188.5,89.1667 188.5,87.5C 189.167,87.5 189.5,87.1667 189.5,86.5C 213.167,63.5 236.5,40.1667 259.5,16.5 Z"/></g>
<g><path style="opacity:0.024" fill="#2d2d2d" d="M 274.5,21.5 C 275.71,21.9321 276.71,22.5987 277.5,23.5C 248.833,52.8333 219.833,81.8333 190.5,110.5C 190.167,109.167 189.833,107.833 189.5,106.5C 218.167,78.5 246.5,50.1667 274.5,21.5 Z"/></g>
<g><path style="opacity:0.024" fill="#2d2d2d" d="M 511.5,25.5 C 511.5,27.1667 511.5,28.8333 511.5,30.5C 456.833,84.5 402.5,138.833 348.5,193.5C 347.29,193.068 346.29,192.401 345.5,191.5C 400.5,135.833 455.833,80.5 511.5,25.5 Z"/></g>
<g><path style="opacity:0.024" fill="#2d2d2d" d="M 286.5,30.5 C 288.027,30.427 289.027,31.0937 289.5,32.5C 258.167,63.5 226.833,94.5 195.5,125.5C 194.599,124.71 193.932,123.71 193.5,122.5C 224.5,91.8333 255.5,61.1667 286.5,30.5 Z"/></g>
<g><path style="opacity:0.024" fill="#2d2d2d" d="M 296.5,40.5 C 297.167,41.5 297.833,42.5 298.5,43.5C 266.167,75.1667 234.167,107.167 202.5,139.5C 201.512,138.205 200.512,136.872 199.5,135.5C 200.239,135.631 200.906,135.464 201.5,135C 233.035,103.299 264.701,71.7985 296.5,40.5 Z"/></g>
<g><path style="opacity:0.024" fill="#2d2d2d" d="M 511.5,45.5 C 511.5,47.1667 511.5,48.8333 511.5,50.5C 461.5,100.167 411.5,149.833 361.5,199.5C 360.391,199.443 359.391,199.11 358.5,198.5C 409.167,147.167 460.167,96.1667 511.5,45.5 Z"/></g>
<g><path style="opacity:0.024" fill="#2d2d2d" d="M 303.5,53.5 C 304.906,53.9731 305.573,54.9731 305.5,56.5C 273.833,87.5 242.5,118.833 211.5,150.5C 210.167,149.833 209.167,148.833 208.5,147.5C 240.167,116.167 271.833,84.8333 303.5,53.5 Z"/></g>
<g><path style="opacity:0.024" fill="#2d2d2d" d="M 176.5,60.5 C 175.833,62.8333 175.167,65.1667 174.5,67.5C 116.167,125.5 57.8333,183.5 -0.5,241.5C -0.5,239.833 -0.5,238.167 -0.5,236.5C 58.5,177.833 117.5,119.167 176.5,60.5 Z"/></g>
<g><path style="opacity:0.024" fill="#2d2d2d" d="M 511.5,65.5 C 511.5,67.1667 511.5,68.8333 511.5,70.5C 465.451,115.549 420.117,161.216 375.5,207.5C 373.887,206.308 372.22,205.308 370.5,204.5C 371.239,204.631 371.906,204.464 372.5,204C 418.701,157.632 465.035,111.465 511.5,65.5 Z"/></g>
<g><path style="opacity:0.024" fill="#2d2d2d" d="M 309.5,67.5 C 309.433,68.9587 309.766,70.2921 310.5,71.5C 281.167,100.5 251.833,129.5 222.5,158.5C 220.847,158.34 219.514,157.674 218.5,156.5C 219.239,156.631 219.906,156.464 220.5,156C 250.035,126.298 279.701,96.7985 309.5,67.5 Z"/></g>
<g><path style="opacity:0.024" fill="#2d2d2d" d="M 171.5,85.5 C 171.5,87.1667 171.5,88.8333 171.5,90.5C 114.167,147.5 56.8333,204.5 -0.5,261.5C -0.5,259.833 -0.5,258.167 -0.5,256.5C 56.8333,199.5 114.167,142.5 171.5,85.5 Z"/></g>
<g><path style="opacity:0.024" fill="#2d2d2d" d="M 311.5,85.5 C 311.954,87.7411 311.954,89.7411 311.5,91.5C 311.565,91.0618 311.399,90.7284 311,90.5C 286.299,115.368 261.465,140.035 236.5,164.5C 235.209,164.737 234.209,164.404 233.5,163.5C 259.167,137.167 285.167,111.167 311.5,85.5 Z"/></g>
<g><path style="opacity:0.024" fill="#2d2d2d" d="M 511.5,85.5 C 511.5,87.1667 511.5,88.8333 511.5,90.5C 470.167,131.167 429.167,172.167 388.5,213.5C 386.847,213.34 385.514,212.674 384.5,211.5C 426.833,169.5 469.167,127.5 511.5,85.5 Z"/></g>
<g><path style="opacity:0.024" fill="#2d2d2d" d="M 171.5,103.5 C 172.461,105.265 172.795,107.265 172.5,109.5C 114.833,166.833 57.1667,224.167 -0.5,281.5C -0.5,279.833 -0.5,278.167 -0.5,276.5C 57.5491,219.451 114.882,161.784 171.5,103.5 Z"/></g>
<g><path style="opacity:0.024" fill="#2d2d2d" d="M 511.5,105.5 C 511.5,107.167 511.5,108.833 511.5,110.5C 474.117,146.883 437.45,183.883 401.5,221.5C 400.128,220.488 398.795,219.488 397.5,218.5C 435.5,180.833 473.5,143.167 511.5,105.5 Z"/></g>
<g><path style="opacity:0.024" fill="#2d2d2d" d="M 310.5,106.5 C 309.985,108.894 309.319,111.228 308.5,113.5C 290.833,130.5 273.5,147.833 256.5,165.5C 254.735,166.461 252.735,166.795 250.5,166.5C 270.167,146.167 290.167,126.167 310.5,106.5 Z"/></g>
<g><path style="opacity:0.024" fill="#2d2d2d" d="M 175.5,121.5 C 175.833,122.833 176.167,124.167 176.5,125.5C 149.167,152.167 122.167,179.167 95.5,206.5C 92.6865,208.07 89.6865,209.403 86.5,210.5C 115.833,180.5 145.5,150.833 175.5,121.5 Z"/></g>
<g><path style="opacity:0.024" fill="#2d2d2d" d="M 511.5,125.5 C 511.5,127.167 511.5,128.833 511.5,130.5C 478.833,162.833 446.167,195.167 413.5,227.5C 411.847,227.34 410.514,226.674 409.5,225.5C 410.239,225.631 410.906,225.464 411.5,225C 444.701,191.632 478.035,158.465 511.5,125.5 Z"/></g>
<g><path style="opacity:0.024" fill="#2d2d2d" d="M 180.5,136.5 C 181.404,137.209 181.737,138.209 181.5,139.5C 164.167,157.167 146.833,174.833 129.5,192.5C 128.833,192.5 128.5,192.833 128.5,193.5C 125.838,194.499 123.172,195.499 120.5,196.5C 140.167,176.167 160.167,156.167 180.5,136.5 Z"/></g>
<g><path style="opacity:0.024" fill="#2d2d2d" d="M 511.5,145.5 C 511.5,147.167 511.5,148.833 511.5,150.5C 482.5,179.167 453.5,207.833 424.5,236.5C 423.5,236.167 422.833,235.5 422.5,234.5C 451.833,204.5 481.5,174.833 511.5,145.5 Z"/></g>
<g><path style="opacity:0.024" fill="#2d2d2d" d="M 187.5,149.5 C 188.833,150.167 189.833,151.167 190.5,152.5C 182.555,158.776 175.222,165.776 168.5,173.5C 167.833,173.5 167.5,173.833 167.5,174.5C 164.485,176.674 161.151,178.341 157.5,179.5C 167.167,169.167 177.167,159.167 187.5,149.5 Z"/></g>
<g><path style="opacity:0.024" fill="#2d2d2d" d="M 196.5,160.5 C 197.5,160.833 198.167,161.5 198.5,162.5C 196.167,165.5 193.5,168.167 190.5,170.5C 189.29,170.068 188.29,169.401 187.5,168.5C 190.5,165.833 193.5,163.167 196.5,160.5 Z"/></g>
<g><path style="opacity:0.024" fill="#2d2d2d" d="M 511.5,165.5 C 511.5,167.167 511.5,168.833 511.5,170.5C 485.167,196.167 459.167,222.167 433.5,248.5C 432.094,248.027 431.427,247.027 431.5,245.5C 457.833,218.5 484.5,191.833 511.5,165.5 Z"/></g>
<g><path style="opacity:0.965" fill="#414141" d="M 187.5,168.5 C 188.29,169.401 189.29,170.068 190.5,170.5C 192.843,173.207 195.177,175.874 197.5,178.5C 197.973,179.906 198.973,180.573 200.5,180.5C 202.637,183.973 205.637,186.306 209.5,187.5C 210.167,188.833 211.167,189.833 212.5,190.5C 215.588,192.375 218.922,193.708 222.5,194.5C 223.29,195.401 224.29,196.068 225.5,196.5C 229.5,197.5 233.5,198.5 237.5,199.5C 239.167,199.5 240.833,199.5 242.5,199.5C 247.432,200.434 252.432,200.434 257.5,199.5C 259.5,199.167 261.5,198.833 263.5,198.5C 264.167,198.5 264.5,198.167 264.5,197.5C 279.126,194.021 291.459,186.687 301.5,175.5C 303.167,175.5 304.833,175.5 306.5,175.5C 310.622,176.075 314.622,177.075 318.5,178.5C 319.29,179.401 320.29,180.068 321.5,180.5C 324.833,182.167 328.167,183.833 331.5,185.5C 332.391,186.11 333.391,186.443 334.5,186.5C 337.979,188.403 341.646,190.07 345.5,191.5C 346.29,192.401 347.29,193.068 348.5,193.5C 351.833,195.167 355.167,196.833 358.5,198.5C 359.391,199.11 360.391,199.443 361.5,199.5C 364.304,201.405 367.304,203.071 370.5,204.5C 372.22,205.308 373.887,206.308 375.5,207.5C 378.648,208.576 381.648,209.909 384.5,211.5C 385.514,212.674 386.847,213.34 388.5,213.5C 391.304,215.405 394.304,217.071 397.5,218.5C 398.795,219.488 400.128,220.488 401.5,221.5C 404.14,222.82 406.807,224.153 409.5,225.5C 410.514,226.674 411.847,227.34 413.5,227.5C 416.19,230.185 419.19,232.518 422.5,234.5C 422.833,235.5 423.5,236.167 424.5,236.5C 426.458,239.792 428.791,242.792 431.5,245.5C 431.427,247.027 432.094,248.027 433.5,248.5C 434.913,251.661 436.58,254.661 438.5,257.5C 438.932,258.71 439.599,259.71 440.5,260.5C 441.93,264.354 443.597,268.021 445.5,271.5C 445.263,272.791 445.596,273.791 446.5,274.5C 447.558,278.279 448.891,281.946 450.5,285.5C 450.833,286.833 451.167,288.167 451.5,289.5C 452.833,293.167 454.167,296.833 455.5,300.5C 455.833,301.833 456.167,303.167 456.5,304.5C 457.812,308.416 458.812,312.416 459.5,316.5C 459.989,317.995 460.655,319.329 461.5,320.5C 461.898,324.761 462.898,328.761 464.5,332.5C 464.216,334.415 464.549,336.081 465.5,337.5C 466.326,341.136 466.992,344.803 467.5,348.5C 468.234,349.708 468.567,351.041 468.5,352.5C 469.751,356.418 470.751,360.418 471.5,364.5C 471.232,366.099 471.566,367.432 472.5,368.5C 472.927,372.824 473.261,377.158 473.5,381.5C 474.301,383.042 474.634,384.708 474.5,386.5C 475.295,390.785 475.628,395.119 475.5,399.5C 476.301,401.042 476.634,402.708 476.5,404.5C 476.833,409.167 477.167,413.833 477.5,418.5C 477.5,420.167 477.5,421.833 477.5,423.5C 477.833,428.167 478.167,432.833 478.5,437.5C 478.5,439.167 478.5,440.833 478.5,442.5C 478.5,447.5 478.5,452.5 478.5,457.5C 478.5,459.167 478.5,460.833 478.5,462.5C 479.441,467.07 479.774,471.737 479.5,476.5C 479.5,478.167 479.5,479.833 479.5,481.5C 479.5,486.5 479.5,491.5 479.5,496.5C 479.5,498.167 479.5,499.833 479.5,501.5C 479.628,503.655 479.128,505.655 478,507.5C 475.261,508.616 472.761,509.949 470.5,511.5C 468.833,511.5 467.167,511.5 465.5,511.5C 465.953,510.542 466.619,509.708 467.5,509C 463.864,506.961 462.198,503.794 462.5,499.5C 462.5,497.833 462.5,496.167 462.5,494.5C 462.5,489.5 462.5,484.5 462.5,479.5C 462.5,477.833 462.5,476.167 462.5,474.5C 461.559,469.93 461.226,465.263 461.5,460.5C 461.5,458.833 461.5,457.167 461.5,455.5C 461.5,450.5 461.5,445.5 461.5,440.5C 461.768,438.901 461.434,437.568 460.5,436.5C 460.5,431.5 460.5,426.5 460.5,421.5C 460.768,419.901 460.434,418.568 459.5,417.5C 459.5,412.833 459.5,408.167 459.5,403.5C 458.699,401.958 458.366,400.292 458.5,398.5C 458.187,393.647 457.521,388.98 456.5,384.5C 456.5,383.167 456.5,381.833 456.5,380.5C 455.725,376.186 455.059,371.853 454.5,367.5C 454.167,366.167 453.833,364.833 453.5,363.5C 452.497,359.479 451.497,355.479 450.5,351.5C 450.567,350.041 450.234,348.708 449.5,347.5C 448.787,343.313 447.787,339.313 446.5,335.5C 446.768,333.901 446.434,332.568 445.5,331.5C 444.903,327.381 443.903,323.381 442.5,319.5C 442.567,318.041 442.234,316.708 441.5,315.5C 440.458,311.303 439.125,307.303 437.5,303.5C 437.737,302.209 437.404,301.209 436.5,300.5C 435.703,296.777 434.703,293.11 433.5,289.5C 433.011,288.005 432.345,286.671 431.5,285.5C 430.442,281.721 429.109,278.054 427.5,274.5C 427.068,273.29 426.401,272.29 425.5,271.5C 424.358,267.883 422.692,264.55 420.5,261.5C 420.068,260.29 419.401,259.29 418.5,258.5C 416.518,255.19 414.185,252.19 411.5,249.5C 411.167,248.5 410.5,247.833 409.5,247.5C 406.81,244.815 403.81,242.482 400.5,240.5C 399.5,239.833 398.5,239.167 397.5,238.5C 394.14,236.82 390.807,235.153 387.5,233.5C 386.71,232.599 385.71,231.932 384.5,231.5C 381.167,229.833 377.833,228.167 374.5,226.5C 373.71,225.599 372.71,224.932 371.5,224.5C 368.167,222.833 364.833,221.167 361.5,219.5C 360.609,218.89 359.609,218.557 358.5,218.5C 355.249,216.043 351.582,214.376 347.5,213.5C 347.027,212.094 346.027,211.427 344.5,211.5C 341.485,209.326 338.151,207.659 334.5,206.5C 333.71,205.599 332.71,204.932 331.5,204.5C 328.378,203.439 325.378,202.105 322.5,200.5C 320.78,199.692 319.113,198.692 317.5,197.5C 314.492,196.58 311.659,195.246 309,193.5C 306.002,195.668 303.169,198.001 300.5,200.5C 296.46,202.85 292.46,205.184 288.5,207.5C 287.833,207.5 287.5,207.833 287.5,208.5C 280.434,211.633 273.101,213.966 265.5,215.5C 263.5,215.833 261.5,216.167 259.5,216.5C 254.195,217.194 248.862,217.528 243.5,217.5C 242.167,217.167 240.833,216.833 239.5,216.5C 235.038,216.577 230.705,215.91 226.5,214.5C 225.167,214.167 223.833,213.833 222.5,213.5C 218.833,212.167 215.167,210.833 211.5,209.5C 210.791,208.596 209.791,208.263 208.5,208.5C 205.506,206 202.173,204 198.5,202.5C 197.833,201.167 196.833,200.167 195.5,199.5C 192.55,197.885 189.884,195.885 187.5,193.5C 187.167,192.5 186.5,191.833 185.5,191.5C 184.48,189.648 182.98,188.315 181,187.5C 175.409,190.378 169.909,193.378 164.5,196.5C 161.314,197.597 158.314,198.93 155.5,200.5C 154.833,200.5 154.5,200.833 154.5,201.5C 145.828,205.168 137.162,208.835 128.5,212.5C 125.828,213.501 123.162,214.501 120.5,215.5C 119.833,215.5 119.5,215.833 119.5,216.5C 110.835,218.999 102.501,222.332 94.5,226.5C 90.9864,227.784 87.653,229.45 84.5,231.5C 83.8333,231.5 83.5,231.833 83.5,232.5C 82.8333,232.5 82.5,232.833 82.5,233.5C 74.3401,236.828 67.8401,242.161 63,249.5C 62.51,250.793 62.3433,252.127 62.5,253.5C 61.8333,253.5 61.5,253.833 61.5,254.5C 61.1667,256.5 60.8333,258.5 60.5,260.5C 59.2843,266.461 58.2843,272.461 57.5,278.5C 56.5386,280.265 56.2053,282.265 56.5,284.5C 55.132,290.404 54.132,296.404 53.5,302.5C 53.1667,304.5 52.8333,306.5 52.5,308.5C 51.9789,314.19 51.3123,319.856 50.5,325.5C 50.5,327.167 50.5,328.833 50.5,330.5C 49.7051,334.785 49.3718,339.119 49.5,343.5C 48.5233,346.287 48.19,349.287 48.5,352.5C 48.5,357.5 48.5,362.5 48.5,367.5C 48.5,369.167 48.5,370.833 48.5,372.5C 48.5,377.5 48.5,382.5 48.5,387.5C 48.5,389.167 48.5,390.833 48.5,392.5C 49.3136,397.119 49.6469,401.786 49.5,406.5C 49.8333,407.833 50.1667,409.167 50.5,410.5C 50.8333,415.167 51.1667,419.833 51.5,424.5C 52.2341,425.708 52.5674,427.041 52.5,428.5C 53.2745,432.814 53.9412,437.147 54.5,441.5C 55.2341,442.708 55.5674,444.041 55.5,445.5C 56.539,449.681 57.8723,453.681 59.5,457.5C 59.2322,459.099 59.5655,460.432 60.5,461.5C 61.5,464.833 62.5,468.167 63.5,471.5C 64.6923,473.113 65.6923,474.78 66.5,476.5C 67.8333,479.167 69.1667,481.833 70.5,484.5C 71.1667,485.833 72.1667,486.833 73.5,487.5C 75.808,491.944 79.4747,493.611 84.5,492.5C 86.4352,491.85 88.4352,491.517 90.5,491.5C 91.1667,491.5 91.5,491.167 91.5,490.5C 98.8256,489.586 105.826,487.586 112.5,484.5C 115.327,483.892 117.993,482.892 120.5,481.5C 121.167,481.5 121.5,481.167 121.5,480.5C 140.021,472.311 156.355,460.978 170.5,446.5C 170.435,446.938 170.601,447.272 171,447.5C 184.14,435.027 196.973,422.194 209.5,409C 209.272,408.601 208.938,408.435 208.5,408.5C 212.833,403.5 217.5,398.833 222.5,394.5C 230.172,388.493 237.839,382.493 245.5,376.5C 246.167,376.5 246.5,376.167 246.5,375.5C 247.167,375.5 247.5,375.167 247.5,374.5C 250.442,372.783 253.609,371.45 257,370.5C 258.9,371.077 260.733,371.744 262.5,372.5C 263.5,373.5 264.5,374.5 265.5,375.5C 265.816,378.978 265.316,382.312 264,385.5C 254.03,391.237 244.863,398.071 236.5,406C 214.933,429.402 192.266,451.569 168.5,472.5C 163.518,475.807 158.518,479.141 153.5,482.5C 152.833,482.5 152.5,482.833 152.5,483.5C 151.833,483.5 151.5,483.833 151.5,484.5C 141.633,490.601 131.299,495.935 120.5,500.5C 118.167,501.167 115.833,501.833 113.5,502.5C 112.833,502.5 112.5,502.833 112.5,503.5C 105.852,505.329 99.1858,507.162 92.5,509C 91.6195,509.708 90.9528,510.542 90.5,511.5C 88.8333,511.5 87.1667,511.5 85.5,511.5C 86.8502,510.35 86.6836,509.683 85,509.5C 81.1718,510.692 77.3385,510.692 73.5,509.5C 72.0697,508.463 70.403,507.796 68.5,507.5C 65.8587,505.196 63.192,502.862 60.5,500.5C 60.1667,499.5 59.5,498.833 58.5,498.5C 56.5797,495.661 54.9131,492.661 53.5,489.5C 52.7368,487.632 51.7368,485.965 50.5,484.5C 49.4413,481.382 48.1079,478.382 46.5,475.5C 46.2041,473.597 45.5375,471.93 44.5,470.5C 43.4967,467.15 42.4967,463.817 41.5,460.5C 41.1667,459.167 40.8333,457.833 40.5,456.5C 39.4968,452.479 38.4968,448.479 37.5,444.5C 37.7678,442.901 37.4345,441.568 36.5,440.5C 36.2012,436.072 35.5346,431.739 34.5,427.5C 34.5,425.833 34.5,424.167 34.5,422.5C 33.6901,418.224 33.0234,413.891 32.5,409.5C 32.5,407.833 32.5,406.167 32.5,404.5C 31.7705,399.87 31.4372,395.203 31.5,390.5C 31.5,388.833 31.5,387.167 31.5,385.5C 31.5,380.5 31.5,375.5 31.5,370.5C 31.5,368.833 31.5,367.167 31.5,365.5C 31.5,360.5 31.5,355.5 31.5,350.5C 31.5,348.833 31.5,347.167 31.5,345.5C 32.3424,340.213 32.6757,334.88 32.5,329.5C 33.4614,327.735 33.7947,325.735 33.5,323.5C 34.0211,317.81 34.6877,312.144 35.5,306.5C 35.5172,304.435 35.8505,302.435 36.5,300.5C 37.1667,294.833 37.8333,289.167 38.5,283.5C 39.4614,281.735 39.7947,279.735 39.5,277.5C 41.0087,271.618 42.0087,265.618 42.5,259.5C 43.1667,259.5 43.5,259.167 43.5,258.5C 43.8333,256.5 44.1667,254.5 44.5,252.5C 46.4403,240.132 52.7736,230.632 63.5,224C 70.8977,218.971 78.5644,214.471 86.5,210.5C 89.6865,209.403 92.6865,208.07 95.5,206.5C 103.95,203.441 112.284,200.107 120.5,196.5C 123.172,195.499 125.838,194.499 128.5,193.5C 129.167,193.5 129.5,193.167 129.5,192.5C 139.349,189.242 148.682,184.908 157.5,179.5C 161.151,178.341 164.485,176.674 167.5,174.5C 168.167,174.5 168.5,174.167 168.5,173.5C 171.516,172.657 174.183,171.157 176.5,169C 180.152,168.501 183.818,168.335 187.5,168.5 Z M 278.5,177.5 C 271.5,184.833 264.5,192.167 257.5,199.5C 252.432,200.434 247.432,200.434 242.5,199.5C 247.5,194.167 252.5,188.833 257.5,183.5C 264.707,182.281 271.707,180.281 278.5,177.5 Z M 222.5,178.5 C 225.986,180.106 229.653,181.106 233.5,181.5C 230.232,186.107 226.565,190.441 222.5,194.5C 218.922,193.708 215.588,192.375 212.5,190.5C 215.434,186.227 218.767,182.227 222.5,178.5 Z M 238.5,182.5 C 243.07,183.441 247.737,183.774 252.5,183.5C 247.5,188.833 242.5,194.167 237.5,199.5C 233.5,198.5 229.5,197.5 225.5,196.5C 229.833,191.833 234.167,187.167 238.5,182.5 Z M 185.5,191.5 C 140.5,236.167 95.5,280.833 50.5,325.5C 51.3123,319.856 51.9789,314.19 52.5,308.5C 90.1667,271.5 127.5,234.167 164.5,196.5C 169.909,193.378 175.409,190.378 181,187.5C 182.98,188.315 184.48,189.648 185.5,191.5 Z M 187.5,193.5 C 189.884,195.885 192.55,197.885 195.5,199.5C 147.584,248.917 99.0843,297.917 50,346.5C 49.5172,345.552 49.3505,344.552 49.5,343.5C 49.3718,339.119 49.7051,334.785 50.5,330.5C 96.5,285.167 142.167,239.5 187.5,193.5 Z M 317.5,197.5 C 317.631,198.239 317.464,198.906 317,199.5C 255.299,261.035 193.799,322.701 132.5,384.5C 126.46,387.851 120.126,390.684 113.5,393C 110.751,396.238 111.085,399.071 114.5,401.5C 96.1667,420.167 77.8333,438.833 59.5,457.5C 57.8723,453.681 56.539,449.681 55.5,445.5C 137.5,364.167 219.167,282.5 300.5,200.5C 303.169,198.001 306.002,195.668 309,193.5C 311.659,195.246 314.492,196.58 317.5,197.5 Z M 322.5,200.5 C 325.378,202.105 328.378,203.439 331.5,204.5C 282.5,253.833 233.5,303.167 184.5,352.5C 171.65,362.427 157.984,371.093 143.5,378.5C 202.549,318.451 262.216,259.118 322.5,200.5 Z M 154.5,201.5 C 121.167,235.5 87.5,269.167 53.5,302.5C 54.132,296.404 55.132,290.404 56.5,284.5C 80.8333,260.833 104.833,236.833 128.5,212.5C 137.162,208.835 145.828,205.168 154.5,201.5 Z M 198.5,202.5 C 202.173,204 205.506,206 208.5,208.5C 155.167,261.5 101.833,314.5 48.5,367.5C 48.5,362.5 48.5,357.5 48.5,352.5C 98.8333,302.833 148.833,252.833 198.5,202.5 Z M 334.5,206.5 C 338.151,207.659 341.485,209.326 344.5,211.5C 331.833,224.833 318.833,237.833 305.5,250.5C 302.461,247.807 298.794,246.807 294.5,247.5C 307.833,233.833 321.167,220.167 334.5,206.5 Z M 287.5,208.5 C 210.167,286.5 132.5,364.167 54.5,441.5C 53.9412,437.147 53.2745,432.814 52.5,428.5C 123.833,357.833 194.833,286.833 265.5,215.5C 273.101,213.966 280.434,211.633 287.5,208.5 Z M 211.5,209.5 C 215.167,210.833 218.833,212.167 222.5,213.5C 164.833,271.833 106.833,329.833 48.5,387.5C 48.5,382.5 48.5,377.5 48.5,372.5C 103.167,318.5 157.5,264.167 211.5,209.5 Z M 347.5,213.5 C 351.582,214.376 355.249,216.043 358.5,218.5C 341.5,235.167 324.5,251.833 307.5,268.5C 308.833,263.5 308.833,258.5 307.5,253.5C 321.167,240.5 334.5,227.167 347.5,213.5 Z M 226.5,214.5 C 230.705,215.91 235.038,216.577 239.5,216.5C 176.5,280.167 113.167,343.5 49.5,406.5C 49.6469,401.786 49.3136,397.119 48.5,392.5C 108.167,333.5 167.5,274.167 226.5,214.5 Z M 119.5,216.5 C 99.1667,237.5 78.5,258.167 57.5,278.5C 58.2843,272.461 59.2843,266.461 60.5,260.5C 72.1667,249.5 83.5,238.167 94.5,226.5C 102.501,222.332 110.835,218.999 119.5,216.5 Z M 259.5,216.5 C 190.5,286.167 121.167,355.5 51.5,424.5C 51.1667,419.833 50.8333,415.167 50.5,410.5C 115.167,346.5 179.5,282.167 243.5,217.5C 248.862,217.528 254.195,217.194 259.5,216.5 Z M 361.5,219.5 C 364.833,221.167 368.167,222.833 371.5,224.5C 359.167,237.167 346.833,249.833 334.5,262.5C 326.66,265.892 318.66,268.892 310.5,271.5C 327.5,254.167 344.5,236.833 361.5,219.5 Z M 374.5,226.5 C 377.833,228.167 381.167,229.833 384.5,231.5C 373.833,242.5 363.167,253.5 352.5,264.5C 349.302,261.989 345.636,260.655 341.5,260.5C 352.5,249.167 363.5,237.833 374.5,226.5 Z M 82.5,233.5 C 76.1667,240.5 69.5,247.167 62.5,253.5C 62.3433,252.127 62.51,250.793 63,249.5C 67.8401,242.161 74.3401,236.828 82.5,233.5 Z M 387.5,233.5 C 390.807,235.153 394.14,236.82 397.5,238.5C 385.833,250.5 374.167,262.5 362.5,274.5C 356.761,275.071 354.094,272.405 354.5,266.5C 365.833,255.833 376.833,244.833 387.5,233.5 Z M 400.5,240.5 C 403.81,242.482 406.81,244.815 409.5,247.5C 396.833,259.833 384.167,272.167 371.5,284.5C 370.315,280.977 368.315,277.977 365.5,275.5C 377.5,264.167 389.167,252.5 400.5,240.5 Z M 411.5,249.5 C 414.185,252.19 416.518,255.19 418.5,258.5C 402.833,273.833 387.167,289.167 371.5,304.5C 370.999,301.845 369.666,299.678 367.5,298C 369.782,295.603 371.116,292.769 371.5,289.5C 385.167,276.5 398.5,263.167 411.5,249.5 Z M 299.5,257.5 C 298.5,258.167 297.5,258.833 296.5,259.5C 296.668,256.949 297.668,256.282 299.5,257.5 Z M 420.5,261.5 C 422.692,264.55 424.358,267.883 425.5,271.5C 405.167,291.5 384.833,311.5 364.5,331.5C 364.312,327.936 363.312,324.603 361.5,321.5C 367.06,319.28 370.393,315.28 371.5,309.5C 387.833,293.5 404.167,277.5 420.5,261.5 Z M 299.5,262.5 C 297.628,270.449 294.961,278.116 291.5,285.5C 278.833,297.833 266.167,310.167 253.5,322.5C 254.165,315.671 256.332,309.337 260,303.5C 263.603,298.619 267.436,293.952 271.5,289.5C 280.833,280.5 290.167,271.5 299.5,262.5 Z M 275.5,266.5 C 269.017,277.496 261.517,287.83 253,297.5C 250.546,301.697 248.38,306.03 246.5,310.5C 240.5,316.167 234.5,321.833 228.5,327.5C 228.67,326.178 228.337,325.011 227.5,324C 225.5,323.333 223.5,323.333 221.5,324C 216.8,328.336 211.8,332.169 206.5,335.5C 229.167,312.167 252.167,289.167 275.5,266.5 Z M 345.5,271.5 C 341.833,274.5 338.5,277.833 335.5,281.5C 333.527,282.487 331.527,283.487 329.5,284.5C 328.438,285.425 328.438,286.425 329.5,287.5C 308.167,308.5 286.833,329.5 265.5,350.5C 262.705,348.249 260.372,345.582 258.5,342.5C 280.833,320.833 302.833,298.833 324.5,276.5C 330.319,273.781 336.319,271.448 342.5,269.5C 344.038,269.453 345.038,270.12 345.5,271.5 Z M 346.5,275.5 C 346.5,277.5 345.5,278.5 343.5,278.5C 344.167,277.167 345.167,276.167 346.5,275.5 Z M 316.5,279.5 C 296.833,299.5 277.167,319.5 257.5,339.5C 255.26,335.902 253.926,331.902 253.5,327.5C 266.833,314.833 279.833,301.833 292.5,288.5C 300.5,285.5 308.5,282.5 316.5,279.5 Z M 357.5,283.5 C 361.976,283.822 363.476,286.156 362,290.5C 356.54,293.71 350.707,296.043 344.5,297.5C 348.833,292.833 353.167,288.167 357.5,283.5 Z M 349.5,286.5 C 344.833,291.5 340.167,296.5 335.5,301.5C 316.5,319.833 297.833,338.5 279.5,357.5C 275.407,356.618 271.74,354.951 268.5,352.5C 288.965,332.535 309.299,312.368 329.5,292C 330.094,291.536 330.761,291.369 331.5,291.5C 331.735,292.097 332.235,292.43 333,292.5C 338.485,290.394 343.985,288.394 349.5,286.5 Z M 358.5,302.5 C 362.053,304.04 363.22,306.707 362,310.5C 356.359,313.325 350.526,315.658 344.5,317.5C 349.167,312.5 353.833,307.5 358.5,302.5 Z M 335.5,305.5 C 336.304,307.189 337.304,308.855 338.5,310.5C 342.049,308.762 345.716,307.429 349.5,306.5C 334.167,322.167 318.833,337.833 303.5,353.5C 297.314,356.939 290.647,358.606 283.5,358.5C 300.833,340.833 318.167,323.167 335.5,305.5 Z M 245.5,316.5 C 244.217,321.531 244.217,326.531 245.5,331.5C 191.5,384.833 137.833,438.5 84.5,492.5C 79.4747,493.611 75.808,491.944 73.5,487.5C 130.833,430.5 188.167,373.5 245.5,316.5 Z M 339.5,322.5 C 340.15,324.435 340.483,326.435 340.5,328.5C 343.963,327.901 347.296,326.901 350.5,325.5C 345.833,330.5 341.167,335.5 336.5,340.5C 328.331,344.223 319.998,347.557 311.5,350.5C 320.5,340.833 329.833,331.5 339.5,322.5 Z M 353.5,327.5 C 355.942,329.139 356.109,331.139 354,333.5C 350.948,335.128 347.782,336.461 344.5,337.5C 347.5,334.167 350.5,330.833 353.5,327.5 Z M 245.5,335.5 C 246.957,339.178 248.623,342.845 250.5,346.5C 204.167,392.167 158.167,438.167 112.5,484.5C 105.826,487.586 98.8256,489.586 91.5,490.5C 142.833,438.833 194.167,387.167 245.5,335.5 Z M 208.5,347.5 C 163.118,393.883 117.118,439.549 70.5,484.5C 69.1667,481.833 67.8333,479.167 66.5,476.5C 66.369,475.761 66.5357,475.094 67,474.5C 98.3682,443.299 129.535,411.965 160.5,380.5C 176.877,369.984 192.877,358.984 208.5,347.5 Z M 251.5,349.5 C 253.605,352.027 255.939,354.36 258.5,356.5C 258.631,357.239 258.464,357.906 258,358.5C 245.965,370.368 234.131,382.368 222.5,394.5C 217.5,398.833 212.833,403.5 208.5,408.5C 195.5,420.833 182.833,433.5 170.5,446.5C 156.355,460.978 140.021,472.311 121.5,480.5C 164.833,436.833 208.167,393.167 251.5,349.5 Z M 261.5,359.5 C 264.833,361.167 268.167,362.833 271.5,364.5C 269.1,367.903 266.1,370.57 262.5,372.5C 260.733,371.744 258.9,371.077 257,370.5C 253.609,371.45 250.442,372.783 247.5,374.5C 252.167,369.5 256.833,364.5 261.5,359.5 Z M 456.5,384.5 C 457.521,388.98 458.187,393.647 458.5,398.5C 441.5,415.167 424.5,431.833 407.5,448.5C 407.758,444.628 407.091,440.961 405.5,437.5C 405.369,436.761 405.536,436.094 406,435.5C 423.035,418.632 439.868,401.632 456.5,384.5 Z M 148.5,387.5 C 120.784,416.217 92.4503,444.217 63.5,471.5C 62.5,468.167 61.5,464.833 60.5,461.5C 80.5,441.167 100.5,420.833 120.5,400.5C 129.863,396.16 139.196,391.827 148.5,387.5 Z M 459.5,403.5 C 459.5,408.167 459.5,412.833 459.5,417.5C 442.5,434.167 425.5,450.833 408.5,467.5C 408.563,462.797 408.229,458.13 407.5,453.5C 424.299,437.202 440.965,420.702 457.5,404C 458.094,403.536 458.761,403.369 459.5,403.5 Z M 460.5,421.5 C 460.5,426.5 460.5,431.5 460.5,436.5C 443.5,453.167 426.5,469.833 409.5,486.5C 409.717,481.77 409.383,477.103 408.5,472.5C 425.833,455.5 443.167,438.5 460.5,421.5 Z M 461.5,440.5 C 461.5,445.5 461.5,450.5 461.5,455.5C 444.5,472.167 427.5,488.833 410.5,505.5C 410.5,500.5 410.5,495.5 410.5,490.5C 427.5,473.833 444.5,457.167 461.5,440.5 Z M 397.5,499.5 C 395.5,501.167 393.5,502.833 391.5,504.5C 392.837,498.151 394.337,491.817 396,485.5C 396.538,490.171 397.038,494.838 397.5,499.5 Z"/></g>
<g><path style="opacity:0.024" fill="#2d2d2d" d="M 206.5,169.5 C 207.71,169.932 208.71,170.599 209.5,171.5C 206.833,174.833 203.833,177.833 200.5,180.5C 198.973,180.573 197.973,179.906 197.5,178.5C 200.833,175.833 203.833,172.833 206.5,169.5 Z"/></g>
<g><path style="opacity:0.024" fill="#2d2d2d" d="M 289.5,171.5 C 281.167,180.167 272.833,188.833 264.5,197.5C 263.833,197.5 263.5,197.833 263.5,198.5C 261.5,198.833 259.5,199.167 257.5,199.5C 264.5,192.167 271.5,184.833 278.5,177.5C 279.167,177.5 279.5,177.167 279.5,176.5C 282.86,174.82 286.193,173.153 289.5,171.5 Z"/></g>
<g><path style="opacity:0.024" fill="#2d2d2d" d="M 219.5,177.5 C 220.609,177.557 221.609,177.89 222.5,178.5C 218.767,182.227 215.434,186.227 212.5,190.5C 211.167,189.833 210.167,188.833 209.5,187.5C 212.5,183.833 215.833,180.5 219.5,177.5 Z"/></g>
<g><path style="opacity:0.024" fill="#2d2d2d" d="M 233.5,181.5 C 235.042,182.301 236.708,182.634 238.5,182.5C 234.167,187.167 229.833,191.833 225.5,196.5C 224.29,196.068 223.29,195.401 222.5,194.5C 226.565,190.441 230.232,186.107 233.5,181.5 Z"/></g>
<g><path style="opacity:0.024" fill="#2d2d2d" d="M 252.5,183.5 C 254.167,183.5 255.833,183.5 257.5,183.5C 252.5,188.833 247.5,194.167 242.5,199.5C 240.833,199.5 239.167,199.5 237.5,199.5C 242.5,194.167 247.5,188.833 252.5,183.5 Z"/></g>
<g><path style="opacity:0.024" fill="#2d2d2d" d="M 511.5,185.5 C 511.5,187.167 511.5,188.833 511.5,190.5C 487.833,213.833 464.167,237.167 440.5,260.5C 439.599,259.71 438.932,258.71 438.5,257.5C 462.833,233.5 487.167,209.5 511.5,185.5 Z"/></g>
<g><path style="opacity:0.024" fill="#2d2d2d" d="M 185.5,191.5 C 186.5,191.833 187.167,192.5 187.5,193.5C 142.167,239.5 96.5,285.167 50.5,330.5C 50.5,328.833 50.5,327.167 50.5,325.5C 95.5,280.833 140.5,236.167 185.5,191.5 Z"/></g>
<g><path style="opacity:0.024" fill="#2d2d2d" d="M 164.5,196.5 C 127.5,234.167 90.1667,271.5 52.5,308.5C 52.8333,306.5 53.1667,304.5 53.5,302.5C 87.5,269.167 121.167,235.5 154.5,201.5C 155.167,201.5 155.5,201.167 155.5,200.5C 158.314,198.93 161.314,197.597 164.5,196.5 Z"/></g>
<g><path style="opacity:0.024" fill="#2d2d2d" d="M 317.5,197.5 C 319.113,198.692 320.78,199.692 322.5,200.5C 262.216,259.118 202.549,318.451 143.5,378.5C 142.833,378.5 142.5,378.833 142.5,379.5C 139.485,381.674 136.151,383.341 132.5,384.5C 193.799,322.701 255.299,261.035 317,199.5C 317.464,198.906 317.631,198.239 317.5,197.5 Z"/></g>
<g><path style="opacity:0.024" fill="#2d2d2d" d="M 195.5,199.5 C 196.833,200.167 197.833,201.167 198.5,202.5C 148.833,252.833 98.8333,302.833 48.5,352.5C 48.19,349.287 48.5233,346.287 49.5,343.5C 49.3505,344.552 49.5172,345.552 50,346.5C 99.0843,297.917 147.584,248.917 195.5,199.5 Z"/></g>
<g><path style="opacity:0.024" fill="#2d2d2d" d="M 300.5,200.5 C 219.167,282.5 137.5,364.167 55.5,445.5C 55.5674,444.041 55.2341,442.708 54.5,441.5C 132.5,364.167 210.167,286.5 287.5,208.5C 288.167,208.5 288.5,208.167 288.5,207.5C 292.46,205.184 296.46,202.85 300.5,200.5 Z"/></g>
<g><path style="opacity:0.024" fill="#2d2d2d" d="M 331.5,204.5 C 332.71,204.932 333.71,205.599 334.5,206.5C 321.167,220.167 307.833,233.833 294.5,247.5C 287.861,251.473 282.527,256.806 278.5,263.5C 277.833,263.5 277.5,263.833 277.5,264.5C 276.833,264.5 276.5,264.833 276.5,265.5C 275.833,265.5 275.5,265.833 275.5,266.5C 252.167,289.167 229.167,312.167 206.5,335.5C 205.833,335.5 205.5,335.833 205.5,336.5C 204.833,336.5 204.5,336.833 204.5,337.5C 203.833,337.5 203.5,337.833 203.5,338.5C 202.833,338.5 202.5,338.833 202.5,339.5C 196.508,343.831 190.508,348.164 184.5,352.5C 233.5,303.167 282.5,253.833 331.5,204.5 Z"/></g>
<g><path style="opacity:0.024" fill="#2d2d2d" d="M 511.5,205.5 C 511.5,207.167 511.5,208.833 511.5,210.5C 489.833,231.833 468.167,253.167 446.5,274.5C 445.596,273.791 445.263,272.791 445.5,271.5C 467.167,249.167 489.167,227.167 511.5,205.5 Z"/></g>
<g><path style="opacity:0.024" fill="#2d2d2d" d="M 208.5,208.5 C 209.791,208.263 210.791,208.596 211.5,209.5C 157.5,264.167 103.167,318.5 48.5,372.5C 48.5,370.833 48.5,369.167 48.5,367.5C 101.833,314.5 155.167,261.5 208.5,208.5 Z"/></g>
<g><path style="opacity:0.024" fill="#2d2d2d" d="M 344.5,211.5 C 346.027,211.427 347.027,212.094 347.5,213.5C 334.5,227.167 321.167,240.5 307.5,253.5C 306.833,252.5 306.167,251.5 305.5,250.5C 318.833,237.833 331.833,224.833 344.5,211.5 Z"/></g>
<g><path style="opacity:0.024" fill="#2d2d2d" d="M 128.5,212.5 C 104.833,236.833 80.8333,260.833 56.5,284.5C 56.2053,282.265 56.5386,280.265 57.5,278.5C 78.5,258.167 99.1667,237.5 119.5,216.5C 120.167,216.5 120.5,216.167 120.5,215.5C 123.162,214.501 125.828,213.501 128.5,212.5 Z"/></g>
<g><path style="opacity:0.024" fill="#2d2d2d" d="M 222.5,213.5 C 223.833,213.833 225.167,214.167 226.5,214.5C 167.5,274.167 108.167,333.5 48.5,392.5C 48.5,390.833 48.5,389.167 48.5,387.5C 106.833,329.833 164.833,271.833 222.5,213.5 Z"/></g>
<g><path style="opacity:0.024" fill="#2d2d2d" d="M 265.5,215.5 C 194.833,286.833 123.833,357.833 52.5,428.5C 52.5674,427.041 52.2341,425.708 51.5,424.5C 121.167,355.5 190.5,286.167 259.5,216.5C 261.5,216.167 263.5,215.833 265.5,215.5 Z"/></g>
<g><path style="opacity:0.024" fill="#2d2d2d" d="M 239.5,216.5 C 240.833,216.833 242.167,217.167 243.5,217.5C 179.5,282.167 115.167,346.5 50.5,410.5C 50.1667,409.167 49.8333,407.833 49.5,406.5C 113.167,343.5 176.5,280.167 239.5,216.5 Z"/></g>
<g><path style="opacity:0.024" fill="#2d2d2d" d="M 358.5,218.5 C 359.609,218.557 360.609,218.89 361.5,219.5C 344.5,236.833 327.5,254.167 310.5,271.5C 309.833,271.5 309.5,271.833 309.5,272.5C 308.504,272.414 307.671,272.748 307,273.5C 306.616,271.803 306.782,270.137 307.5,268.5C 324.5,251.833 341.5,235.167 358.5,218.5 Z"/></g>
<g><path style="opacity:0.024" fill="#2d2d2d" d="M 371.5,224.5 C 372.71,224.932 373.71,225.599 374.5,226.5C 363.5,237.833 352.5,249.167 341.5,260.5C 339.167,261.167 336.833,261.833 334.5,262.5C 346.833,249.833 359.167,237.167 371.5,224.5 Z"/></g>
<g><path style="opacity:0.024" fill="#2d2d2d" d="M 511.5,225.5 C 511.5,227.167 511.5,228.833 511.5,230.5C 491.5,250.167 471.5,269.833 451.5,289.5C 451.167,288.167 450.833,286.833 450.5,285.5C 470.833,265.5 491.167,245.5 511.5,225.5 Z"/></g>
<g><path style="opacity:0.024" fill="#2d2d2d" d="M 94.5,226.5 C 83.5,238.167 72.1667,249.5 60.5,260.5C 60.8333,258.5 61.1667,256.5 61.5,254.5C 62.1667,254.5 62.5,254.167 62.5,253.5C 69.5,247.167 76.1667,240.5 82.5,233.5C 83.1667,233.5 83.5,233.167 83.5,232.5C 84.1667,232.5 84.5,232.167 84.5,231.5C 87.653,229.45 90.9864,227.784 94.5,226.5 Z"/></g>
<g><path style="opacity:0.024" fill="#2d2d2d" d="M 384.5,231.5 C 385.71,231.932 386.71,232.599 387.5,233.5C 376.833,244.833 365.833,255.833 354.5,266.5C 353.5,266.167 352.833,265.5 352.5,264.5C 363.167,253.5 373.833,242.5 384.5,231.5 Z"/></g>
<g><path style="opacity:0.024" fill="#2d2d2d" d="M 397.5,238.5 C 398.5,239.167 399.5,239.833 400.5,240.5C 389.167,252.5 377.5,264.167 365.5,275.5C 364.209,275.737 363.209,275.404 362.5,274.5C 374.167,262.5 385.833,250.5 397.5,238.5 Z"/></g>
<g><path style="opacity:0.024" fill="#2d2d2d" d="M 511.5,245.5 C 511.5,247.167 511.5,248.833 511.5,250.5C 493.167,268.5 474.833,286.5 456.5,304.5C 456.167,303.167 455.833,301.833 455.5,300.5C 474.167,282.167 492.833,263.833 511.5,245.5 Z"/></g>
<g><path style="opacity:0.93" fill="#404041" d="M 294.5,247.5 C 298.794,246.807 302.461,247.807 305.5,250.5C 306.167,251.5 306.833,252.5 307.5,253.5C 308.833,258.5 308.833,263.5 307.5,268.5C 306.782,270.137 306.616,271.803 307,273.5C 307.671,272.748 308.504,272.414 309.5,272.5C 310.167,272.5 310.5,272.167 310.5,271.5C 318.66,268.892 326.66,265.892 334.5,262.5C 336.833,261.833 339.167,261.167 341.5,260.5C 345.636,260.655 349.302,261.989 352.5,264.5C 352.833,265.5 353.5,266.167 354.5,266.5C 354.094,272.405 356.761,275.071 362.5,274.5C 363.209,275.404 364.209,275.737 365.5,275.5C 368.315,277.977 370.315,280.977 371.5,284.5C 371.5,286.167 371.5,287.833 371.5,289.5C 371.116,292.769 369.782,295.603 367.5,298C 369.666,299.678 370.999,301.845 371.5,304.5C 371.5,306.167 371.5,307.833 371.5,309.5C 370.393,315.28 367.06,319.28 361.5,321.5C 363.312,324.603 364.312,327.936 364.5,331.5C 363.72,333.821 362.72,336.487 361.5,339.5C 361.167,340.5 360.5,341.167 359.5,341.5C 356.828,342.501 354.162,343.501 351.5,344.5C 350.833,344.5 350.5,344.833 350.5,345.5C 341.821,348.058 333.488,351.391 325.5,355.5C 323.079,355.878 320.746,356.545 318.5,357.5C 317.833,357.5 317.5,357.833 317.5,358.5C 309.94,361.446 302.273,364.112 294.5,366.5C 292.833,366.5 291.167,366.5 289.5,366.5C 288.833,366.5 288.5,366.833 288.5,367.5C 284.072,367.201 279.739,366.535 275.5,365.5C 274.167,365.167 272.833,364.833 271.5,364.5C 268.167,362.833 264.833,361.167 261.5,359.5C 260.833,358.167 259.833,357.167 258.5,356.5C 255.939,354.36 253.605,352.027 251.5,349.5C 251.443,348.391 251.11,347.391 250.5,346.5C 248.623,342.845 246.957,339.178 245.5,335.5C 245.5,334.167 245.5,332.833 245.5,331.5C 244.217,326.531 244.217,321.531 245.5,316.5C 245.833,314.5 246.167,312.5 246.5,310.5C 248.38,306.03 250.546,301.697 253,297.5C 261.517,287.83 269.017,277.496 275.5,266.5C 276.167,266.5 276.5,266.167 276.5,265.5C 277.167,265.5 277.5,265.167 277.5,264.5C 278.167,264.5 278.5,264.167 278.5,263.5C 282.527,256.806 287.861,251.473 294.5,247.5 Z M 299.5,257.5 C 298.5,258.167 297.5,258.833 296.5,259.5C 296.668,256.949 297.668,256.282 299.5,257.5 Z M 299.5,262.5 C 297.628,270.449 294.961,278.116 291.5,285.5C 278.833,297.833 266.167,310.167 253.5,322.5C 254.165,315.671 256.332,309.337 260,303.5C 263.603,298.619 267.436,293.952 271.5,289.5C 280.833,280.5 290.167,271.5 299.5,262.5 Z M 345.5,271.5 C 341.833,274.5 338.5,277.833 335.5,281.5C 333.527,282.487 331.527,283.487 329.5,284.5C 328.438,285.425 328.438,286.425 329.5,287.5C 308.167,308.5 286.833,329.5 265.5,350.5C 262.705,348.249 260.372,345.582 258.5,342.5C 280.833,320.833 302.833,298.833 324.5,276.5C 330.319,273.781 336.319,271.448 342.5,269.5C 344.038,269.453 345.038,270.12 345.5,271.5 Z M 346.5,275.5 C 346.5,277.5 345.5,278.5 343.5,278.5C 344.167,277.167 345.167,276.167 346.5,275.5 Z M 316.5,279.5 C 296.833,299.5 277.167,319.5 257.5,339.5C 255.26,335.902 253.926,331.902 253.5,327.5C 266.833,314.833 279.833,301.833 292.5,288.5C 300.5,285.5 308.5,282.5 316.5,279.5 Z M 357.5,283.5 C 361.976,283.822 363.476,286.156 362,290.5C 356.54,293.71 350.707,296.043 344.5,297.5C 348.833,292.833 353.167,288.167 357.5,283.5 Z M 349.5,286.5 C 344.833,291.5 340.167,296.5 335.5,301.5C 316.5,319.833 297.833,338.5 279.5,357.5C 275.407,356.618 271.74,354.951 268.5,352.5C 288.965,332.535 309.299,312.368 329.5,292C 330.094,291.536 330.761,291.369 331.5,291.5C 331.735,292.097 332.235,292.43 333,292.5C 338.485,290.394 343.985,288.394 349.5,286.5 Z M 358.5,302.5 C 362.053,304.04 363.22,306.707 362,310.5C 356.359,313.325 350.526,315.658 344.5,317.5C 349.167,312.5 353.833,307.5 358.5,302.5 Z M 335.5,305.5 C 336.304,307.189 337.304,308.855 338.5,310.5C 342.049,308.762 345.716,307.429 349.5,306.5C 334.167,322.167 318.833,337.833 303.5,353.5C 297.314,356.939 290.647,358.606 283.5,358.5C 300.833,340.833 318.167,323.167 335.5,305.5 Z M 339.5,322.5 C 340.15,324.435 340.483,326.435 340.5,328.5C 343.963,327.901 347.296,326.901 350.5,325.5C 345.833,330.5 341.167,335.5 336.5,340.5C 328.331,344.223 319.998,347.557 311.5,350.5C 320.5,340.833 329.833,331.5 339.5,322.5 Z M 353.5,327.5 C 355.942,329.139 356.109,331.139 354,333.5C 350.948,335.128 347.782,336.461 344.5,337.5C 347.5,334.167 350.5,330.833 353.5,327.5 Z"/></g>
<g><path style="opacity:0.024" fill="#2d2d2d" d="M 409.5,247.5 C 410.5,247.833 411.167,248.5 411.5,249.5C 398.5,263.167 385.167,276.5 371.5,289.5C 371.5,287.833 371.5,286.167 371.5,284.5C 384.167,272.167 396.833,259.833 409.5,247.5 Z"/></g>
<g><path style="opacity:0.024" fill="#2d2d2d" d="M 44.5,252.5 C 44.1667,254.5 43.8333,256.5 43.5,258.5C 42.8333,258.5 42.5,258.833 42.5,259.5C 28.1667,273.5 13.8333,287.5 -0.5,301.5C -0.5,299.833 -0.5,298.167 -0.5,296.5C 14.5,281.833 29.5,267.167 44.5,252.5 Z"/></g>
<g><path style="opacity:0.024" fill="#2d2d2d" d="M 299.5,257.5 C 299.5,259.167 299.5,260.833 299.5,262.5C 290.167,271.5 280.833,280.5 271.5,289.5C 276.104,281.902 281.438,274.902 287.5,268.5C 288.167,268.5 288.5,268.167 288.5,267.5C 289.167,267.5 289.5,267.167 289.5,266.5C 290.167,266.5 290.5,266.167 290.5,265.5C 291.167,265.5 291.5,265.167 291.5,264.5C 292.167,264.5 292.5,264.167 292.5,263.5C 293.167,263.5 293.5,263.167 293.5,262.5C 294.167,262.5 294.5,262.167 294.5,261.5C 295.167,261.5 295.5,261.167 295.5,260.5C 296.167,260.5 296.5,260.167 296.5,259.5C 297.5,258.833 298.5,258.167 299.5,257.5 Z"/></g>
<g><path style="opacity:0.024" fill="#2d2d2d" d="M 418.5,258.5 C 419.401,259.29 420.068,260.29 420.5,261.5C 404.167,277.5 387.833,293.5 371.5,309.5C 371.5,307.833 371.5,306.167 371.5,304.5C 387.167,289.167 402.833,273.833 418.5,258.5 Z"/></g>
<g><path style="opacity:0.024" fill="#2d2d2d" d="M 511.5,265.5 C 511.5,267.167 511.5,268.833 511.5,270.5C 494.5,286.833 477.833,303.5 461.5,320.5C 460.655,319.329 459.989,317.995 459.5,316.5C 476.833,299.5 494.167,282.5 511.5,265.5 Z"/></g>
<g><path style="opacity:0.024" fill="#2d2d2d" d="M 345.5,271.5 C 346.906,271.973 347.573,272.973 347.5,274.5C 346.833,274.5 346.5,274.833 346.5,275.5C 345.167,276.167 344.167,277.167 343.5,278.5C 342.833,278.5 342.5,278.833 342.5,279.5C 340.254,280.455 337.921,281.122 335.5,281.5C 338.5,277.833 341.833,274.5 345.5,271.5 Z"/></g>
<g><path style="opacity:0.024" fill="#2d2d2d" d="M 425.5,271.5 C 426.401,272.29 427.068,273.29 427.5,274.5C 405.5,296.167 383.5,317.833 361.5,339.5C 362.72,336.487 363.72,333.821 364.5,331.5C 384.833,311.5 405.167,291.5 425.5,271.5 Z"/></g>
<g><path style="opacity:0.024" fill="#2d2d2d" d="M 324.5,276.5 C 302.833,298.833 280.833,320.833 258.5,342.5C 257.89,341.609 257.557,340.609 257.5,339.5C 277.167,319.5 296.833,299.5 316.5,279.5C 318.89,277.98 321.557,276.98 324.5,276.5 Z"/></g>
<g><path style="opacity:0.024" fill="#2d2d2d" d="M 39.5,277.5 C 39.7947,279.735 39.4614,281.735 38.5,283.5C 25.5,296.167 12.5,308.833 -0.5,321.5C -0.5,319.833 -0.5,318.167 -0.5,316.5C 12.8333,303.5 26.1667,290.5 39.5,277.5 Z"/></g>
<g><path style="opacity:0.024" fill="#2d2d2d" d="M 357.5,283.5 C 353.167,288.167 348.833,292.833 344.5,297.5C 343.833,297.5 343.5,297.833 343.5,298.5C 340.838,299.499 338.172,300.499 335.5,301.5C 340.167,296.5 344.833,291.5 349.5,286.5C 350.167,286.5 350.5,286.167 350.5,285.5C 352.746,284.545 355.079,283.878 357.5,283.5 Z"/></g>
<g><path style="opacity:0.024" fill="#2d2d2d" d="M 431.5,285.5 C 432.345,286.671 433.011,288.005 433.5,289.5C 358.549,362.784 284.215,436.784 210.5,511.5C 208.833,511.5 207.167,511.5 205.5,511.5C 280.5,435.833 355.833,360.5 431.5,285.5 Z"/></g>
<g><path style="opacity:0.024" fill="#2d2d2d" d="M 511.5,285.5 C 511.5,287.167 511.5,288.833 511.5,290.5C 495.448,305.551 480.115,321.218 465.5,337.5C 464.549,336.081 464.216,334.415 464.5,332.5C 479.833,316.5 495.5,300.833 511.5,285.5 Z"/></g>
<g><path style="opacity:0.024" fill="#2d2d2d" d="M 291.5,285.5 C 291.586,286.496 291.252,287.329 290.5,288C 291.094,288.464 291.761,288.631 292.5,288.5C 279.833,301.833 266.833,314.833 253.5,327.5C 253.5,325.833 253.5,324.167 253.5,322.5C 266.167,310.167 278.833,297.833 291.5,285.5 Z"/></g>
<g><path style="opacity:0.024" fill="#2d2d2d" d="M 329.5,287.5 C 330.167,288.833 330.833,290.167 331.5,291.5C 330.761,291.369 330.094,291.536 329.5,292C 309.299,312.368 288.965,332.535 268.5,352.5C 267.29,352.068 266.29,351.401 265.5,350.5C 286.833,329.5 308.167,308.5 329.5,287.5 Z"/></g>
<g><path style="opacity:0.024" fill="#2d2d2d" d="M 436.5,300.5 C 437.404,301.209 437.737,302.209 437.5,303.5C 368.5,372.833 299.5,442.167 230.5,511.5C 228.833,511.5 227.167,511.5 225.5,511.5C 295.5,440.833 365.833,370.5 436.5,300.5 Z"/></g>
<g><path style="opacity:0.024" fill="#2d2d2d" d="M 36.5,300.5 C 35.8505,302.435 35.5172,304.435 35.5,306.5C 23.5,318.167 11.5,329.833 -0.5,341.5C -0.5,339.833 -0.5,338.167 -0.5,336.5C 11.8333,324.5 24.1667,312.5 36.5,300.5 Z"/></g>
<g><path style="opacity:0.024" fill="#2d2d2d" d="M 335.5,301.5 C 335.5,302.833 335.5,304.167 335.5,305.5C 318.167,323.167 300.833,340.833 283.5,358.5C 282.167,358.167 280.833,357.833 279.5,357.5C 297.833,338.5 316.5,319.833 335.5,301.5 Z"/></g>
<g><path style="opacity:0.024" fill="#2d2d2d" d="M 358.5,302.5 C 353.833,307.5 349.167,312.5 344.5,317.5C 343.833,317.5 343.5,317.833 343.5,318.5C 340.821,318.525 339.488,319.858 339.5,322.5C 329.833,331.5 320.5,340.833 311.5,350.5C 309.064,351.871 306.397,352.871 303.5,353.5C 318.833,337.833 334.167,322.167 349.5,306.5C 350.167,306.5 350.5,306.167 350.5,305.5C 353.162,304.501 355.828,303.501 358.5,302.5 Z"/></g>
<g><path style="opacity:0.024" fill="#2d2d2d" d="M 511.5,305.5 C 511.5,307.167 511.5,308.833 511.5,310.5C 497.167,324.5 482.833,338.5 468.5,352.5C 468.567,351.041 468.234,349.708 467.5,348.5C 482.167,334.167 496.833,319.833 511.5,305.5 Z"/></g>
<g><path style="opacity:0.024" fill="#2d2d2d" d="M 246.5,310.5 C 246.167,312.5 245.833,314.5 245.5,316.5C 188.167,373.5 130.833,430.5 73.5,487.5C 72.1667,486.833 71.1667,485.833 70.5,484.5C 117.118,439.549 163.118,393.883 208.5,347.5C 209.167,347.5 209.5,347.167 209.5,346.5C 210.167,346.5 210.5,346.167 210.5,345.5C 211.167,345.5 211.5,345.167 211.5,344.5C 212.167,344.5 212.5,344.167 212.5,343.5C 216.935,340.243 221.268,336.743 225.5,333C 227.607,331.736 228.607,329.903 228.5,327.5C 234.5,321.833 240.5,316.167 246.5,310.5 Z"/></g>
<g><path style="opacity:0.024" fill="#2d2d2d" d="M 441.5,315.5 C 442.234,316.708 442.567,318.041 442.5,319.5C 378.167,383.167 314.167,447.167 250.5,511.5C 248.833,511.5 247.167,511.5 245.5,511.5C 310.5,445.833 375.833,380.5 441.5,315.5 Z"/></g>
<g><path style="opacity:0.932" fill="#404041" d="M 228.5,327.5 C 228.607,329.903 227.607,331.736 225.5,333C 221.268,336.743 216.935,340.243 212.5,343.5C 211.833,343.5 211.5,343.833 211.5,344.5C 210.833,344.5 210.5,344.833 210.5,345.5C 209.833,345.5 209.5,345.833 209.5,346.5C 208.833,346.5 208.5,346.833 208.5,347.5C 192.877,358.984 176.877,369.984 160.5,380.5C 156.665,382.25 152.999,384.25 149.5,386.5C 148.833,386.5 148.5,386.833 148.5,387.5C 139.196,391.827 129.863,396.16 120.5,400.5C 118.565,401.15 116.565,401.483 114.5,401.5C 111.085,399.071 110.751,396.238 113.5,393C 120.126,390.684 126.46,387.851 132.5,384.5C 136.151,383.341 139.485,381.674 142.5,379.5C 143.167,379.5 143.5,379.167 143.5,378.5C 157.984,371.093 171.65,362.427 184.5,352.5C 190.508,348.164 196.508,343.831 202.5,339.5C 203.167,339.5 203.5,339.167 203.5,338.5C 204.167,338.5 204.5,338.167 204.5,337.5C 205.167,337.5 205.5,337.167 205.5,336.5C 206.167,336.5 206.5,336.167 206.5,335.5C 211.8,332.169 216.8,328.336 221.5,324C 223.5,323.333 225.5,323.333 227.5,324C 228.337,325.011 228.67,326.178 228.5,327.5 Z"/></g>
<g><path style="opacity:0.024" fill="#2d2d2d" d="M 33.5,323.5 C 33.7947,325.735 33.4614,327.735 32.5,329.5C 21.5,340.167 10.5,350.833 -0.5,361.5C -0.5,359.833 -0.5,358.167 -0.5,356.5C 10.8333,345.5 22.1667,334.5 33.5,323.5 Z"/></g>
<g><path style="opacity:0.024" fill="#2d2d2d" d="M 350.5,325.5 C 352.027,325.427 353.027,326.094 353.5,327.5C 350.5,330.833 347.5,334.167 344.5,337.5C 342.11,339.02 339.443,340.02 336.5,340.5C 341.167,335.5 345.833,330.5 350.5,325.5 Z"/></g>
<g><path style="opacity:0.024" fill="#2d2d2d" d="M 511.5,325.5 C 511.5,327.167 511.5,328.833 511.5,330.5C 498.5,343.167 485.5,355.833 472.5,368.5C 471.566,367.432 471.232,366.099 471.5,364.5C 484.833,351.5 498.167,338.5 511.5,325.5 Z"/></g>
<g><path style="opacity:0.024" fill="#2d2d2d" d="M 445.5,331.5 C 446.434,332.568 446.768,333.901 446.5,335.5C 387.5,393.833 328.833,452.5 270.5,511.5C 268.833,511.5 267.167,511.5 265.5,511.5C 325.167,451.167 385.167,391.167 445.5,331.5 Z"/></g>
<g><path style="opacity:0.024" fill="#2d2d2d" d="M 245.5,331.5 C 245.5,332.833 245.5,334.167 245.5,335.5C 194.167,387.167 142.833,438.833 91.5,490.5C 90.8333,490.5 90.5,490.833 90.5,491.5C 88.4352,491.517 86.4352,491.85 84.5,492.5C 137.833,438.5 191.5,384.833 245.5,331.5 Z"/></g>
<g><path style="opacity:0.024" fill="#2d2d2d" d="M 359.5,341.5 C 303.167,398.167 246.833,454.833 190.5,511.5C 188.833,511.5 187.167,511.5 185.5,511.5C 240.5,456.167 295.5,400.833 350.5,345.5C 351.167,345.5 351.5,345.167 351.5,344.5C 354.162,343.501 356.828,342.501 359.5,341.5 Z"/></g>
<g><path style="opacity:0.024" fill="#2d2d2d" d="M 31.5,345.5 C 31.5,347.167 31.5,348.833 31.5,350.5C 20.8333,360.833 10.1667,371.167 -0.5,381.5C -0.5,379.833 -0.5,378.167 -0.5,376.5C 10.1667,366.167 20.8333,355.833 31.5,345.5 Z"/></g>
<g><path style="opacity:0.024" fill="#2d2d2d" d="M 511.5,345.5 C 511.5,347.167 511.5,348.833 511.5,350.5C 499.167,362.5 486.833,374.5 474.5,386.5C 474.634,384.708 474.301,383.042 473.5,381.5C 474.239,381.631 474.906,381.464 475.5,381C 487.368,368.965 499.368,357.131 511.5,345.5 Z"/></g>
<g><path style="opacity:0.024" fill="#2d2d2d" d="M 250.5,346.5 C 251.11,347.391 251.443,348.391 251.5,349.5C 208.167,393.167 164.833,436.833 121.5,480.5C 120.833,480.5 120.5,480.833 120.5,481.5C 117.993,482.892 115.327,483.892 112.5,484.5C 158.167,438.167 204.167,392.167 250.5,346.5 Z"/></g>
<g><path style="opacity:0.024" fill="#2d2d2d" d="M 449.5,347.5 C 450.234,348.708 450.567,350.041 450.5,351.5C 396.833,404.5 343.5,457.833 290.5,511.5C 288.833,511.5 287.167,511.5 285.5,511.5C 339.833,456.5 394.5,401.833 449.5,347.5 Z"/></g>
<g><path style="opacity:0.024" fill="#2d2d2d" d="M 325.5,355.5 C 273.833,407.5 222.167,459.5 170.5,511.5C 168.833,511.5 167.167,511.5 165.5,511.5C 216.167,460.5 266.833,409.5 317.5,358.5C 318.167,358.5 318.5,358.167 318.5,357.5C 320.746,356.545 323.079,355.878 325.5,355.5 Z"/></g>
<g><path style="opacity:0.024" fill="#2d2d2d" d="M 258.5,356.5 C 259.833,357.167 260.833,358.167 261.5,359.5C 256.833,364.5 252.167,369.5 247.5,374.5C 246.833,374.5 246.5,374.833 246.5,375.5C 245.833,375.5 245.5,375.833 245.5,376.5C 237.839,382.493 230.172,388.493 222.5,394.5C 234.131,382.368 245.965,370.368 258,358.5C 258.464,357.906 258.631,357.239 258.5,356.5 Z"/></g>
<g><path style="opacity:0.024" fill="#2d2d2d" d="M 271.5,364.5 C 272.833,364.833 274.167,365.167 275.5,365.5C 272.5,369.167 269.167,372.5 265.5,375.5C 264.5,374.5 263.5,373.5 262.5,372.5C 266.1,370.57 269.1,367.903 271.5,364.5 Z"/></g>
<g><path style="opacity:0.024" fill="#2d2d2d" d="M 453.5,363.5 C 453.833,364.833 454.167,366.167 454.5,367.5C 406.167,415.167 358.167,463.167 310.5,511.5C 308.833,511.5 307.167,511.5 305.5,511.5C 354.5,461.833 403.833,412.5 453.5,363.5 Z"/></g>
<g><path style="opacity:0.024" fill="#2d2d2d" d="M 31.5,365.5 C 31.5,367.167 31.5,368.833 31.5,370.5C 20.8333,380.833 10.1667,391.167 -0.5,401.5C -0.5,399.833 -0.5,398.167 -0.5,396.5C 10.1667,386.167 20.8333,375.833 31.5,365.5 Z"/></g>
<g><path style="opacity:0.024" fill="#2d2d2d" d="M 289.5,366.5 C 291.167,366.5 292.833,366.5 294.5,366.5C 246.5,414.833 198.5,463.167 150.5,511.5C 148.833,511.5 147.167,511.5 145.5,511.5C 193.167,463.5 240.833,415.5 288.5,367.5C 289.167,367.5 289.5,367.167 289.5,366.5 Z"/></g>
<g><path style="opacity:0.024" fill="#2d2d2d" d="M 511.5,365.5 C 511.5,367.167 511.5,368.833 511.5,370.5C 499.833,381.833 488.167,393.167 476.5,404.5C 476.634,402.708 476.301,401.042 475.5,399.5C 476.239,399.631 476.906,399.464 477.5,399C 488.702,387.631 500.035,376.465 511.5,365.5 Z"/></g>
<g><path style="opacity:0.024" fill="#2d2d2d" d="M 456.5,380.5 C 456.5,381.833 456.5,383.167 456.5,384.5C 439.868,401.632 423.035,418.632 406,435.5C 405.536,436.094 405.369,436.761 405.5,437.5C 404.395,436.4 403.062,435.733 401.5,435.5C 419.5,416.833 437.833,398.5 456.5,380.5 Z"/></g>
<g><path style="opacity:0.024" fill="#2d2d2d" d="M 160.5,380.5 C 129.535,411.965 98.3682,443.299 67,474.5C 66.5357,475.094 66.369,475.761 66.5,476.5C 65.6923,474.78 64.6923,473.113 63.5,471.5C 92.4503,444.217 120.784,416.217 148.5,387.5C 149.167,387.5 149.5,387.167 149.5,386.5C 152.999,384.25 156.665,382.25 160.5,380.5 Z"/></g>
<g><path style="opacity:0.024" fill="#2d2d2d" d="M 31.5,385.5 C 31.5,387.167 31.5,388.833 31.5,390.5C 20.8333,400.833 10.1667,411.167 -0.5,421.5C -0.5,419.833 -0.5,418.167 -0.5,416.5C 10.1667,406.167 20.8333,395.833 31.5,385.5 Z"/></g>
<g><path style="opacity:0.024" fill="#2d2d2d" d="M 511.5,385.5 C 511.5,387.167 511.5,388.833 511.5,390.5C 500.167,401.5 488.833,412.5 477.5,423.5C 477.5,421.833 477.5,420.167 477.5,418.5C 488.833,407.5 500.167,396.5 511.5,385.5 Z"/></g>
<g><path style="opacity:0.024" fill="#2d2d2d" d="M 458.5,398.5 C 458.366,400.292 458.699,401.958 459.5,403.5C 458.761,403.369 458.094,403.536 457.5,404C 440.965,420.702 424.299,437.202 407.5,453.5C 407.5,451.833 407.5,450.167 407.5,448.5C 424.5,431.833 441.5,415.167 458.5,398.5 Z"/></g>
<g><path style="opacity:0.024" fill="#2d2d2d" d="M 120.5,400.5 C 100.5,420.833 80.5,441.167 60.5,461.5C 59.5655,460.432 59.2322,459.099 59.5,457.5C 77.8333,438.833 96.1667,420.167 114.5,401.5C 116.565,401.483 118.565,401.15 120.5,400.5 Z"/></g>
<g><path style="opacity:0.024" fill="#2d2d2d" d="M 32.5,404.5 C 32.5,406.167 32.5,407.833 32.5,409.5C 21.5,420.167 10.5,430.833 -0.5,441.5C -0.5,439.833 -0.5,438.167 -0.5,436.5C 10.5,425.833 21.5,415.167 32.5,404.5 Z"/></g>
<g><path style="opacity:0.024" fill="#2d2d2d" d="M 511.5,405.5 C 511.5,407.167 511.5,408.833 511.5,410.5C 500.5,421.167 489.5,431.833 478.5,442.5C 478.5,440.833 478.5,439.167 478.5,437.5C 489.5,426.833 500.5,416.167 511.5,405.5 Z"/></g>
<g><path style="opacity:0.024" fill="#2d2d2d" d="M 459.5,417.5 C 460.434,418.568 460.768,419.901 460.5,421.5C 443.167,438.5 425.833,455.5 408.5,472.5C 408.5,470.833 408.5,469.167 408.5,467.5C 425.5,450.833 442.5,434.167 459.5,417.5 Z"/></g>
<g><path style="opacity:0.024" fill="#2d2d2d" d="M 34.5,422.5 C 34.5,424.167 34.5,425.833 34.5,427.5C 22.8333,438.833 11.1667,450.167 -0.5,461.5C -0.5,459.833 -0.5,458.167 -0.5,456.5C 11.1667,445.167 22.8333,433.833 34.5,422.5 Z"/></g>
<g><path style="opacity:0.024" fill="#2d2d2d" d="M 511.5,425.5 C 511.5,427.167 511.5,428.833 511.5,430.5C 500.5,441.167 489.5,451.833 478.5,462.5C 478.5,460.833 478.5,459.167 478.5,457.5C 489.5,446.833 500.5,436.167 511.5,425.5 Z"/></g>
<g><path style="opacity:0.024" fill="#2d2d2d" d="M 208.5,408.5 C 208.938,408.435 209.272,408.601 209.5,409C 196.973,422.194 184.14,435.027 171,447.5C 170.601,447.272 170.435,446.938 170.5,446.5C 182.833,433.5 195.5,420.833 208.5,408.5 Z"/></g>
<g><path style="opacity:0.955" fill="#414142" d="M 401.5,435.5 C 403.062,435.733 404.395,436.4 405.5,437.5C 407.091,440.961 407.758,444.628 407.5,448.5C 407.5,450.167 407.5,451.833 407.5,453.5C 408.229,458.13 408.563,462.797 408.5,467.5C 408.5,469.167 408.5,470.833 408.5,472.5C 409.383,477.103 409.717,481.77 409.5,486.5C 409.232,488.099 409.566,489.432 410.5,490.5C 410.5,495.5 410.5,500.5 410.5,505.5C 410.539,508.089 409.539,510.089 407.5,511.5C 405.167,511.5 402.833,511.5 400.5,511.5C 398.688,509.539 397.688,507.206 397.5,504.5C 397.5,502.833 397.5,501.167 397.5,499.5C 397.038,494.838 396.538,490.171 396,485.5C 394.337,491.817 392.837,498.151 391.5,504.5C 390.833,504.5 390.5,504.833 390.5,505.5C 390.025,507.784 389.025,509.784 387.5,511.5C 385.167,511.5 382.833,511.5 380.5,511.5C 378.166,509.824 377.166,507.491 377.5,504.5C 377.833,502.5 378.167,500.5 378.5,498.5C 380.789,492.011 382.455,485.345 383.5,478.5C 384.167,478.5 384.5,478.167 384.5,477.5C 384.833,475.5 385.167,473.5 385.5,471.5C 387.789,465.011 389.455,458.345 390.5,451.5C 391.167,451.5 391.5,451.167 391.5,450.5C 391.833,448.5 392.167,446.5 392.5,444.5C 392.652,438.465 395.652,435.465 401.5,435.5 Z M 397.5,499.5 C 395.5,501.167 393.5,502.833 391.5,504.5C 392.837,498.151 394.337,491.817 396,485.5C 396.538,490.171 397.038,494.838 397.5,499.5 Z"/></g>
<g><path style="opacity:0.024" fill="#2d2d2d" d="M 460.5,436.5 C 461.434,437.568 461.768,438.901 461.5,440.5C 444.5,457.167 427.5,473.833 410.5,490.5C 409.566,489.432 409.232,488.099 409.5,486.5C 426.5,469.833 443.5,453.167 460.5,436.5 Z"/></g>
<g><path style="opacity:0.024" fill="#2d2d2d" d="M 36.5,440.5 C 37.4345,441.568 37.7678,442.901 37.5,444.5C 24.8333,456.833 12.1667,469.167 -0.5,481.5C -0.5,479.833 -0.5,478.167 -0.5,476.5C 11.8333,464.5 24.1667,452.5 36.5,440.5 Z"/></g>
<g><path style="opacity:0.024" fill="#2d2d2d" d="M 392.5,444.5 C 392.167,446.5 391.833,448.5 391.5,450.5C 390.833,450.5 390.5,450.833 390.5,451.5C 370.167,471.167 350.167,491.167 330.5,511.5C 328.833,511.5 327.167,511.5 325.5,511.5C 347.5,488.833 369.833,466.5 392.5,444.5 Z"/></g>
<g><path style="opacity:0.024" fill="#2d2d2d" d="M 511.5,445.5 C 511.5,447.167 511.5,448.833 511.5,450.5C 500.833,460.833 490.167,471.167 479.5,481.5C 479.5,479.833 479.5,478.167 479.5,476.5C 490.167,466.167 500.833,455.833 511.5,445.5 Z"/></g>
<g><path style="opacity:0.024" fill="#2d2d2d" d="M 461.5,455.5 C 461.5,457.167 461.5,458.833 461.5,460.5C 444.167,477.167 427.167,494.167 410.5,511.5C 409.5,511.5 408.5,511.5 407.5,511.5C 409.539,510.089 410.539,508.089 410.5,505.5C 427.5,488.833 444.5,472.167 461.5,455.5 Z"/></g>
<g><path style="opacity:0.024" fill="#2d2d2d" d="M 40.5,456.5 C 40.8333,457.833 41.1667,459.167 41.5,460.5C 27.5,474.167 13.5,487.833 -0.5,501.5C -0.5,499.833 -0.5,498.167 -0.5,496.5C 13.1667,483.167 26.8333,469.833 40.5,456.5 Z"/></g>
<g><path style="opacity:0.024" fill="#2d2d2d" d="M 511.5,465.5 C 511.5,467.167 511.5,468.833 511.5,470.5C 500.833,480.833 490.167,491.167 479.5,501.5C 479.5,499.833 479.5,498.167 479.5,496.5C 490.167,486.167 500.833,475.833 511.5,465.5 Z"/></g>
<g><path style="opacity:0.024" fill="#2d2d2d" d="M 44.5,470.5 C 45.5375,471.93 46.2041,473.597 46.5,475.5C 34.1667,487.167 22.1667,499.167 10.5,511.5C 8.83333,511.5 7.16667,511.5 5.5,511.5C 18.1314,498.368 30.9647,485.368 44,472.5C 44.4643,471.906 44.631,471.239 44.5,470.5 Z"/></g>
<g><path style="opacity:0.024" fill="#2d2d2d" d="M 385.5,471.5 C 385.167,473.5 384.833,475.5 384.5,477.5C 383.833,477.5 383.5,477.833 383.5,478.5C 372.167,489.167 361.167,500.167 350.5,511.5C 348.833,511.5 347.167,511.5 345.5,511.5C 358.5,497.833 371.833,484.5 385.5,471.5 Z"/></g>
<g><path style="opacity:0.024" fill="#2d2d2d" d="M 462.5,474.5 C 462.5,476.167 462.5,477.833 462.5,479.5C 451.5,489.833 440.833,500.5 430.5,511.5C 428.833,511.5 427.167,511.5 425.5,511.5C 437.5,498.833 449.833,486.5 462.5,474.5 Z"/></g>
<g><path style="opacity:0.024" fill="#2d2d2d" d="M 168.5,472.5 C 155.833,485.5 143.167,498.5 130.5,511.5C 128.833,511.5 127.167,511.5 125.5,511.5C 134.167,502.5 142.833,493.5 151.5,484.5C 152.167,484.5 152.5,484.167 152.5,483.5C 153.167,483.5 153.5,483.167 153.5,482.5C 158.518,479.141 163.518,475.807 168.5,472.5 Z"/></g>
<g><path style="opacity:0.024" fill="#2d2d2d" d="M 50.5,484.5 C 51.7368,485.965 52.7368,487.632 53.5,489.5C 45.2213,496.11 37.5546,503.444 30.5,511.5C 28.8333,511.5 27.1667,511.5 25.5,511.5C 34.2228,502.78 42.5561,493.78 50.5,484.5 Z"/></g>
<g><path style="opacity:0.024" fill="#2d2d2d" d="M 511.5,485.5 C 511.5,487.167 511.5,488.833 511.5,490.5C 504.167,497.167 497.167,504.167 490.5,511.5C 488.833,511.5 487.167,511.5 485.5,511.5C 493.833,502.5 502.5,493.833 511.5,485.5 Z"/></g>
<g><path style="opacity:0.024" fill="#2d2d2d" d="M 462.5,494.5 C 462.5,496.167 462.5,497.833 462.5,499.5C 458.167,503.167 454.167,507.167 450.5,511.5C 448.833,511.5 447.167,511.5 445.5,511.5C 450.833,505.5 456.5,499.833 462.5,494.5 Z"/></g>
<g><path style="opacity:0.024" fill="#2d2d2d" d="M 58.5,498.5 C 59.5,498.833 60.1667,499.5 60.5,500.5C 57.1667,504.167 53.8333,507.833 50.5,511.5C 48.8333,511.5 47.1667,511.5 45.5,511.5C 49.5,506.833 53.8333,502.5 58.5,498.5 Z"/></g>
<g><path style="opacity:0.024" fill="#2d2d2d" d="M 378.5,498.5 C 378.167,500.5 377.833,502.5 377.5,504.5C 374.833,506.5 372.5,508.833 370.5,511.5C 368.833,511.5 367.167,511.5 365.5,511.5C 369.5,506.833 373.833,502.5 378.5,498.5 Z"/></g>
<g><path style="opacity:0.024" fill="#2d2d2d" d="M 397.5,499.5 C 397.5,501.167 397.5,502.833 397.5,504.5C 394.833,506.5 392.5,508.833 390.5,511.5C 389.5,511.5 388.5,511.5 387.5,511.5C 389.025,509.784 390.025,507.784 390.5,505.5C 391.167,505.5 391.5,505.167 391.5,504.5C 393.5,502.833 395.5,501.167 397.5,499.5 Z"/></g>
<g><path style="opacity:0.024" fill="#2d2d2d" d="M 120.5,500.5 C 117.167,504.167 113.833,507.833 110.5,511.5C 108.833,511.5 107.167,511.5 105.5,511.5C 107.833,508.833 110.167,506.167 112.5,503.5C 113.167,503.5 113.5,503.167 113.5,502.5C 115.833,501.833 118.167,501.167 120.5,500.5 Z"/></g>
<g><path style="opacity:0.024" fill="#2d2d2d" d="M 511.5,505.5 C 511.5,507.167 511.5,508.833 511.5,510.5C 510.833,510.5 510.5,510.833 510.5,511.5C 508.833,511.5 507.167,511.5 505.5,511.5C 507.167,509.167 509.167,507.167 511.5,505.5 Z"/></g>
<g><path style="opacity:0.024" fill="#2c2c2c" d="M 68.5,507.5 C 70.403,507.796 72.0697,508.463 73.5,509.5C 71.9731,509.427 70.9731,510.094 70.5,511.5C 68.8333,511.5 67.1667,511.5 65.5,511.5C 66.5,510.167 67.5,508.833 68.5,507.5 Z"/></g>
</svg>
