<svg width="25" height="25" viewBox="0 0 25 25" fill="none" xmlns="http://www.w3.org/2000/svg">
<path d="M5.64302 14.5C4.89267 13.2712 4.49707 11.8588 4.50002 10.419C4.50002 6.045 8.08202 2.5 12.5 2.5C16.918 2.5 20.5 6.045 20.5 10.419C20.503 11.8588 20.1074 13.2712 19.357 14.5M15.5 19.5L15.37 20.147C15.23 20.854 15.159 21.207 15 21.487C14.755 21.9186 14.3583 22.2436 13.887 22.399C13.582 22.5 13.22 22.5 12.5 22.5C11.78 22.5 11.418 22.5 11.113 22.4C10.6416 22.2444 10.2448 21.9189 10 21.487C9.84102 21.207 9.77002 20.854 9.63002 20.147L9.50002 19.5M12.5 16.5V11.5M7.88302 17.598C7.79102 17.322 7.74502 17.183 7.75002 17.071C7.75567 16.9552 7.79476 16.8435 7.86256 16.7494C7.93035 16.6554 8.02394 16.583 8.13202 16.541C8.23602 16.5 8.38202 16.5 8.67202 16.5H16.328C16.619 16.5 16.764 16.5 16.868 16.54C16.9762 16.5821 17.0699 16.6546 17.1377 16.7489C17.2055 16.8431 17.2445 16.955 17.25 17.071C17.255 17.183 17.209 17.321 17.117 17.598C16.947 18.109 16.862 18.365 16.731 18.572C16.457 19.0046 16.0275 19.3156 15.531 19.441C15.293 19.5 15.025 19.5 14.488 19.5H10.512C9.97502 19.5 9.70602 19.5 9.46902 19.44C8.97268 19.3149 8.5432 19.0042 8.26902 18.572C8.13802 18.365 8.05302 18.109 7.88302 17.598Z" stroke="#591A0E" stroke-width="1.5" stroke-linecap="round" stroke-linejoin="round"/>
</svg>
