<svg width="25" height="25" viewBox="0 0 25 25" fill="none" xmlns="http://www.w3.org/2000/svg">
<path d="M10.1125 3.68493C8.52095 3.68493 6.08095 4.60343 6.92945 10.2914C6.94278 10.3774 6.95862 10.4703 6.97695 10.5699C7.13195 11.4254 7.37095 12.7499 5.84995 13.8419C6.88445 14.6909 8.35795 15.5394 10.1485 15.9069C10.0776 16.313 9.98884 16.7157 9.88245 17.1139C9.73695 17.6479 9.43195 18.0264 8.88695 18.1879C8.40695 18.3299 7.90395 18.4449 7.38895 18.5629C7.25628 18.5929 7.12295 18.6236 6.98895 18.6549C6.34645 18.8044 5.69145 18.9699 5.11095 19.2039C4.52895 19.4389 3.98795 19.7554 3.59695 20.2274C3.19895 20.7089 2.98595 21.3159 3.00045 22.0749C3.00545 22.3109 3.20745 22.4999 3.45545 22.4999H21.5445C21.7925 22.4999 21.9945 22.3109 21.9995 22.0749C22.014 21.3159 21.8015 20.7089 21.403 20.2274C21.0125 19.7554 20.471 19.4384 19.8895 19.2039C19.3085 18.9694 18.6535 18.8039 18.0105 18.6544L17.6115 18.5629C17.096 18.4449 16.593 18.3299 16.113 18.1879C15.568 18.0264 15.263 17.6479 15.1175 17.1139C14.9903 16.6398 14.8892 16.1591 14.8145 15.6739C16.1835 15.2619 17.6385 14.5214 19.15 13.3389L19.143 13.3319C18.4335 12.6529 17.1035 11.3799 17.009 8.35793C17.009 4.19693 14.356 0.539927 10.1125 3.68493Z" stroke="#591A0E" stroke-width="2" stroke-linejoin="round"/>
</svg>
