<svg width="25" height="25" viewBox="0 0 25 25" fill="none" xmlns="http://www.w3.org/2000/svg">
<path d="M12.5 22.5C18.0228 22.5 22.5 18.0228 22.5 12.5C22.5 6.97715 18.0228 2.5 12.5 2.5C6.97715 2.5 2.5 6.97715 2.5 12.5C2.5 18.0228 6.97715 22.5 12.5 22.5Z" stroke="#591A0E" stroke-width="1.5" stroke-linecap="round" stroke-linejoin="round"/>
<path d="M16.5 16.1L16.23 15.9C15.512 15.367 14.667 15.367 13.95 15.9L13.68 16.1C12.962 16.633 12.116 16.633 11.398 16.1L11.128 15.9C10.411 15.367 9.565 15.367 8.848 15.9L8.5 16.158M8.509 9.5H8.5M16.5 9.5H16.491" stroke="#591A0E" stroke-width="1.5" stroke-linecap="round" stroke-linejoin="round"/>
</svg>
