<svg width="24" height="24" viewBox="0 0 24 24" fill="none" xmlns="http://www.w3.org/2000/svg">
<path d="M16 3.00002H19M20.52 20.414C20.828 20.039 21 19.53 21 19V7.00002C21 6.47002 20.828 5.96002 20.52 5.58602C20.215 5.21002 19.799 5.00002 19.365 5.00002H10.384C8.659 5.00002 8.325 3.26902 6.827 3.02602C6.563 2.98302 6.289 3.00002 6.022 3.00002C5.069 3.00002 4.593 3.00002 4.218 3.15902C3.74098 3.36178 3.36131 3.74181 3.159 4.21902C3 4.59202 3 5.06802 3 6.02102V19C3 19.53 3.172 20.04 3.48 20.414C3.786 20.789 4.202 21 4.636 21H19.364C19.798 21 20.213 20.79 20.52 20.414Z" stroke="#FEF0D6" stroke-width="1.5" stroke-linecap="round" stroke-linejoin="round"/>
<path d="M13.5 17C14.5609 17 15.5783 16.5786 16.3284 15.8284C17.0786 15.0783 17.5 14.0609 17.5 13C17.5 11.9391 17.0786 10.9217 16.3284 10.1716C15.5783 9.42143 14.5609 9 13.5 9C12.4391 9 11.4217 9.42143 10.6716 10.1716C9.92143 10.9217 9.5 11.9391 9.5 13C9.5 14.0609 9.92143 15.0783 10.6716 15.8284C11.4217 16.5786 12.4391 17 13.5 17Z" stroke="#FEF0D6" stroke-width="1.5" stroke-linecap="round" stroke-linejoin="round"/>
</svg>
