<?xml version="1.0" encoding="UTF-8"?>
<svg version="1.1" xmlns="http://www.w3.org/2000/svg" width="500" height="500">
<path d="M0 0 C1.14082031 0.36867188 2.28164062 0.73734375 3.45703125 1.1171875 C16.41901753 5.66250312 27.30202689 13.35306885 37 23 C37.67289063 23.63808594 38.34578125 24.27617187 39.0390625 24.93359375 C50.29195269 36.43306121 56.33777417 51.61545308 60 67 C60.24363281 67.91007812 60.48726562 68.82015625 60.73828125 69.7578125 C63.16560093 79.76431404 62.81953405 90.5099429 60.2421875 100.4375 C59.5803664 107.4399942 63.2263258 112.07810097 67.375 117.1875 C87.66694468 143.10657022 87.66694468 143.10657022 87 154 C84.32406471 158.01390293 81.32922444 158.19895451 76.875 159.1875 C76.12089844 159.36474609 75.36679687 159.54199219 74.58984375 159.72460938 C72.72902033 160.16037182 70.86480133 160.58158786 69 161 C69 161.99 69 162.98 69 164 C69.66 164.556875 70.32 165.11375 71 165.6875 C73.5139468 168.59425098 73.50554573 170.28467147 73.62890625 174 C72.60913076 177.24301275 70.85055106 178.2019601 68 180 C64.94787948 181.13943938 61.84518413 181.95746365 58.6875 182.75 C57.85154297 182.97042969 57.01558594 183.19085938 56.15429688 183.41796875 C54.10575775 183.95644189 52.05324511 184.47975929 50 185 C52.9628482 188.23894192 55.82661535 189.17571906 60 190.5625 C63.73029314 191.80981677 66.7231163 192.81541087 70 195 C70.5 198.3125 70.5 198.3125 70 202 C68.75089844 203.12728516 68.75089844 203.12728516 67.4765625 204.27734375 C64.67795827 206.81866374 64.67795827 206.81866374 64.6171875 210.453125 C64.70226562 211.70609375 64.78734375 212.9590625 64.875 214.25 C65.18494475 221.95741761 64.40452705 228.06143361 59.75 234.375 C52.81128139 240.99832231 44.1834206 241.17656771 35.125 241.125 C34.30088623 241.12306641 33.47677246 241.12113281 32.62768555 241.11914062 C24.727038 241.06458547 16.87622015 240.60837011 9 240 C8.20010196 241.20290011 7.41052176 242.41266295 6.625 243.625 C6.18414062 244.29789063 5.74328125 244.97078125 5.2890625 245.6640625 C2.07553017 251.4873726 1.50362035 257.30950011 0.9375 263.8125 C0.783881 265.52770056 0.62653469 267.2425728 0.46484375 268.95703125 C0.399021 269.70960205 0.33319824 270.46217285 0.26538086 271.23754883 C0 273 0 273 -1 274 C-2.54714241 274.09803534 -4.09875689 274.12631855 -5.64900208 274.12698364 C-6.65429459 274.12980347 -7.6595871 274.13262329 -8.69534302 274.13552856 C-9.80755219 274.13350433 -10.91976135 274.1314801 -12.06567383 274.12939453 C-13.81189781 274.13202301 -13.81189781 274.13202301 -15.59339905 274.13470459 C-18.79599949 274.13836323 -21.9985589 274.13748898 -25.20115876 274.1343255 C-28.54920122 274.13180012 -31.89724257 274.13414011 -35.24528503 274.13571167 C-40.8719431 274.1375336 -46.49858806 274.13512724 -52.12524414 274.13037109 C-58.62979047 274.12493635 -65.13430542 274.1266853 -71.63885099 274.1321975 C-77.2193573 274.13673743 -82.79985417 274.13737462 -88.38036174 274.13475883 C-91.71495871 274.13319989 -95.04953772 274.1333843 -98.38413429 274.13629532 C-102.10482539 274.13882956 -105.82545599 274.13496987 -109.54614258 274.12939453 C-110.65227905 274.13141876 -111.75841553 274.13344299 -112.89807129 274.13552856 C-113.91182327 274.13270874 -114.92557526 274.12988892 -115.970047 274.12698364 C-117.28994991 274.1264181 -117.28994991 274.1264181 -118.63651752 274.12584114 C-120.8918911 274.00575614 -122.83742346 273.63129295 -125 273 C-125.14223011 268.13325679 -124.69223656 263.91725832 -123.5625 259.1875 C-121.14657452 249.04528143 -120.81344104 239.11538032 -120.81469727 228.71508789 C-120.81251476 226.70111808 -120.79429908 224.68770143 -120.77539062 222.67382812 C-120.74125494 199.51845763 -128.00352324 179.98777692 -137.625 159.3125 C-151.15097946 129.85491387 -161.34398594 93.86377261 -150.3125 62.125 C-145.49497356 49.2610222 -138.54491881 38.62139383 -130 28 C-129.44828125 27.21753906 -128.8965625 26.43507812 -128.328125 25.62890625 C-127.88984375 25.09136719 -127.4515625 24.55382812 -127 24 C-126.34 24 -125.68 24 -125 24 C-125 23.34 -125 22.68 -125 22 C-90.97722031 -10.28145632 -42.92193915 -14.32553893 0 0 Z " fill="#020202" transform="translate(231,116)"/>
<path d="M0 0 C3.81978202 1.77347022 5.48336877 3.25949523 7.875 6.6875 C9.79142867 12.33031776 10.02668812 16.90713575 7.375 22.3125 C3.87253009 26.27582122 0.84102275 28.74646629 -4.4928894 29.48101807 C-5.77640289 29.47213562 -7.05991638 29.46325317 -8.38232422 29.45410156 C-9.45165443 29.45497772 -9.45165443 29.45497772 -10.54258728 29.45587158 C-12.88046308 29.45310231 -15.21703665 29.42206807 -17.5546875 29.390625 C-19.18278304 29.38315842 -20.8108876 29.37746746 -22.43899536 29.37347412 C-26.710257 29.35825043 -30.98096877 29.31899742 -35.25201416 29.2746582 C-39.61585046 29.23363459 -43.97977618 29.21544802 -48.34375 29.1953125 C-56.89608479 29.15249942 -65.44797386 29.08428843 -74 29 C-74 27.35 -74 25.7 -74 24 C-66.67894652 22.82949933 -59.4863662 22.92317634 -52.0859375 23.0078125 C-50.7441161 23.01731615 -49.40228803 23.02591628 -48.06045532 23.03366089 C-42.39856682 23.0670231 -36.73684314 23.10896041 -31.07519531 23.17138672 C-27.59708699 23.20914442 -24.11914058 23.23208599 -20.6408577 23.24569321 C-18.68547244 23.25758723 -16.73020787 23.28575661 -14.7749939 23.3142395 C-12.98250717 23.31942093 -12.98250717 23.31942093 -11.15380859 23.32470703 C-9.58450089 23.33922409 -9.58450089 23.33922409 -7.98348999 23.35403442 C-4.44322877 22.93393101 -2.0456359 21.8250769 1 20 C2.52846661 16.94306678 2.23242445 14.37015453 2 11 C1.23608998 8.48130668 1.23608998 8.48130668 -1 7 C-3.99237022 6.37393673 -6.94885634 6.12793055 -10 6 C-10 6.66 -10 7.32 -10 8 C-10.66 8 -11.32 8 -12 8 C-12.66 11.63 -13.32 15.26 -14 19 C-15.65 18.67 -17.3 18.34 -19 18 C-19.40512774 11.38291366 -18.24477657 6.73582145 -14 1.5625 C-9.39331309 -0.8368161 -5.08422755 -0.73165095 0 0 Z " fill="#2D282E" transform="translate(417,274)"/>
<path d="M0 0 C2.9375 1 2.9375 1 5 2 C5 2.66 5 3.32 5 4 C5.66 4 6.32 4 7 4 C9.97092194 9.58533326 10.71528989 13.82263845 9 20 C6.80106248 23.56379529 4.86391548 25.47011814 1 27 C-1.7588501 27.24050903 -1.7588501 27.24050903 -4.96191406 27.22705078 C-6.76332855 27.22682419 -6.76332855 27.22682419 -8.60113525 27.22659302 C-9.89291687 27.21627045 -11.18469849 27.20594788 -12.515625 27.1953125 C-13.85512073 27.19158034 -15.19461921 27.18873432 -16.53411865 27.18673706 C-20.05228265 27.17911657 -23.5702804 27.15948187 -27.08837891 27.1373291 C-30.68129223 27.11683643 -34.27423253 27.10772804 -37.8671875 27.09765625 C-44.91152617 27.07623434 -51.95575221 27.04211765 -59 27 C-59.5625 25.0625 -59.5625 25.0625 -60 23 C-58.27932389 21.27932389 -55.97609884 21.81549932 -53.62573242 21.76635742 C-52.47751511 21.73930222 -51.32929779 21.71224701 -50.14628601 21.68437195 C-48.26983147 21.64531487 -48.26983147 21.64531487 -46.35546875 21.60546875 C-43.73370086 21.53668198 -41.11195654 21.46699225 -38.49023438 21.39648438 C-34.33603636 21.28782629 -30.18186603 21.18573057 -26.02709961 21.10131836 C-23.32426441 21.04591251 -20.6220569 20.9802719 -17.91975403 20.90315247 C-15.37041529 20.83069666 -12.82059384 20.77336459 -10.27055359 20.73246765 C-8.53404289 20.67770012 -8.53404289 20.67770012 -6.76245117 20.62182617 C-5.74398605 20.59819504 -4.72552094 20.5745639 -3.67619324 20.55021667 C-0.29234178 19.85450776 0.94775724 18.74440788 3 16 C3.08916154 12.37350049 3.08916154 12.37350049 2 9 C-1.8503105 6.43312633 -3.58569763 7.16711276 -8 8 C-8.09796875 8.62648438 -8.1959375 9.25296875 -8.296875 9.8984375 C-8.44640625 10.71570313 -8.5959375 11.53296875 -8.75 12.375 C-8.88921875 13.18710937 -9.0284375 13.99921875 -9.171875 14.8359375 C-10 17 -10 17 -11.953125 18.3515625 C-14 19 -14 19 -16 18 C-16.57798165 8.17431193 -16.57798165 8.17431193 -13 4 C-8.61488074 0.31251335 -5.69484354 -0.62125566 0 0 Z " fill="#2D272D" transform="translate(378,263)"/>
<path d="M0 0 C1.56248726 -0.01925285 1.56248726 -0.01925285 3.15653992 -0.03889465 C4.29186661 -0.04628159 5.4271933 -0.05366852 6.59692383 -0.0612793 C7.75766922 -0.06935104 8.91841461 -0.07742279 10.11433411 -0.08573914 C12.57832333 -0.09960216 15.04233194 -0.11031433 17.50634766 -0.11816406 C21.27063658 -0.13534597 25.0340406 -0.1792102 28.7980957 -0.22338867 C31.18936527 -0.23351773 33.58064232 -0.24203317 35.97192383 -0.2487793 C37.09712936 -0.26628738 38.2223349 -0.28379547 39.38163757 -0.30183411 C45.59458708 -0.2846447 49.44597975 -0.08864422 54.11645508 4.17700195 C56.75302726 8.13186023 57.16348032 11.46664061 57.11645508 16.17700195 C55.92051397 20.46832005 54.75072381 22.58803813 51.49145508 25.61450195 C47.26102468 27.57303455 43.71170261 27.89553157 39.11645508 27.17700195 C36.84301758 26.15356445 36.84301758 26.15356445 35.11645508 25.17700195 C35.11645508 24.51700195 35.11645508 23.85700195 35.11645508 23.17700195 C34.45645508 23.17700195 33.79645508 23.17700195 33.11645508 23.17700195 C31.33235705 20.11453448 30.88765486 17.95620922 30.99145508 14.42700195 C31.00950195 13.6277832 31.02754883 12.82856445 31.04614258 12.00512695 C31.0693457 11.4018457 31.09254883 10.79856445 31.11645508 10.17700195 C32.43645508 9.84700195 33.75645508 9.51700195 35.11645508 9.17700195 C35.39360352 9.88727539 35.67075195 10.59754883 35.95629883 11.3293457 C36.49963867 12.70799805 36.49963867 12.70799805 37.05395508 14.11450195 C37.59342773 15.48928711 37.59342773 15.48928711 38.14379883 16.8918457 C38.91607688 19.10118729 38.91607688 19.10118729 40.11645508 20.17700195 C43.53217361 20.67731401 43.53217361 20.67731401 47.11645508 20.17700195 C49.39454114 18.2142329 49.39454114 18.2142329 50.11645508 15.17700195 C49.64164797 11.43039888 49.64164797 11.43039888 48.11645508 8.17700195 C45.19919674 7.20458251 43.22842069 7.02532376 40.18603516 6.97167969 C38.68481865 6.94176186 38.68481865 6.94176186 37.15327454 6.91123962 C36.07506943 6.89452713 34.99686432 6.87781464 33.88598633 6.8605957 C32.22765022 6.82942406 32.22765022 6.82942406 30.53581238 6.79762268 C27.00025717 6.73217863 23.46462701 6.67326592 19.92895508 6.61450195 C17.533765 6.57131186 15.13858253 6.52769741 12.7434082 6.48364258 C6.86783666 6.37650248 0.99219036 6.27472639 -4.88354492 6.17700195 C-5.26573259 4.52085538 -5.59749594 2.85243171 -5.88354492 1.17700195 C-4.22947093 -0.47707204 -2.27715451 0.02433376 0 0 Z " fill="#3B363B" transform="translate(331.883544921875,308.822998046875)"/>
<path d="M0 0 C2.9375 1 2.9375 1 5 2 C5 2.66 5 3.32 5 4 C3.68 4.33 2.36 4.66 1 5 C1 5.66 1 6.32 1 7 C-0.6396875 6.9071875 -0.6396875 6.9071875 -2.3125 6.8125 C-5.8233309 6.71485139 -5.8233309 6.71485139 -7.875 8.0625 C-9.25486794 10.14670504 -9.25486794 10.14670504 -9.4375 13.5625 C-10 17 -10 17 -11.9375 18.5 C-14 19 -14 19 -16 18 C-16.57798165 8.17431193 -16.57798165 8.17431193 -13 4 C-8.61488074 0.31251335 -5.69484354 -0.62125566 0 0 Z " fill="#373237" transform="translate(378,263)"/>
<path d="M0 0 C0 0.33 0 0.66 0 1 C-2.64 1 -5.28 1 -8 1 C-6.60804085 3.7839183 -4.84424221 3.97898997 -2 5 C-2 5.33 -2 5.66 -2 6 C-4.64 6 -7.28 6 -10 6 C-10 6.66 -10 7.32 -10 8 C-10.66 8 -11.32 8 -12 8 C-12.66 11.63 -13.32 15.26 -14 19 C-15.65 18.67 -17.3 18.34 -19 18 C-19.40512774 11.38291366 -18.24477657 6.73582145 -14 1.5625 C-9.44902004 -0.80780206 -5.03155781 -0.31722606 0 0 Z " fill="#3B363B" transform="translate(417,274)"/>
<path d="M0 0 C0.66 0.33 1.32 0.66 2 1 C-3.05352742 6.96348734 -8.41711741 12.53105379 -14 18 C-14.66 17.67 -15.32 17.34 -16 17 C-14.88266271 15.49428343 -13.75589965 13.99555708 -12.625 12.5 C-11.99851562 11.6646875 -11.37203125 10.829375 -10.7265625 9.96875 C-10.15679687 9.3190625 -9.58703125 8.669375 -9 8 C-8.34 8 -7.68 8 -7 8 C-7 7.34 -7 6.68 -7 6 C-5.46875 4.4921875 -5.46875 4.4921875 -3.5 2.875 C-2.8503125 2.33617187 -2.200625 1.79734375 -1.53125 1.2421875 C-0.77328125 0.62730469 -0.77328125 0.62730469 0 0 Z " fill="#3B3436" transform="translate(113,132)"/>
<path d="M0 0 C0.66 0 1.32 0 2 0 C0.25 3.875 0.25 3.875 -2 5 C-2.91692961 7.75078884 -3.10886083 9.35948913 -3.0625 12.1875 C-3.041875 13.445625 -3.02125 14.70375 -3 16 C-3.66 16 -4.32 16 -5 16 C-5.55789474 6.51578947 -5.55789474 6.51578947 -2 2 C-1.34 1.34 -0.68 0.68 0 0 Z " fill="#5A515B" transform="translate(367,265)"/>
<path d="M0 0 C2.0625 0.4375 2.0625 0.4375 4 1 C4 2.65 4 4.3 4 6 C3.67 4.68 3.34 3.36 3 2 C2.01 2.495 2.01 2.495 1 3 C0.59270772 5.32156597 0.25561323 7.6568787 0 10 C-0.33 10 -0.66 10 -1 10 C-1.02689216 8.52093108 -1.04634621 7.04172517 -1.0625 5.5625 C-1.07410156 4.73878906 -1.08570313 3.91507812 -1.09765625 3.06640625 C-1 1 -1 1 0 0 Z " fill="#5A4F5A" transform="translate(364,318)"/>
</svg>
