<?xml version="1.0" encoding="UTF-8"?>
<svg version="1.1" xmlns="http://www.w3.org/2000/svg" width="500" height="500">
<path d="M0 0 C2.27124422 0.00315215 4.54117269 -0.0203244 6.81225586 -0.0456543 C20.63612165 -0.10682854 30.95658617 2.63715446 42.47436523 10.31567383 C42.47436523 10.97567383 42.47436523 11.63567383 42.47436523 12.31567383 C43.13436523 12.31567383 43.79436523 12.31567383 44.47436523 12.31567383 C44.47436523 12.97567383 44.47436523 13.63567383 44.47436523 14.31567383 C45.13436523 14.31567383 45.79436523 14.31567383 46.47436523 14.31567383 C46.47436523 14.97567383 46.47436523 15.63567383 46.47436523 16.31567383 C47.13436523 16.31567383 47.79436523 16.31567383 48.47436523 16.31567383 C48.47436523 17.30567383 48.47436523 18.29567383 48.47436523 19.31567383 C49.13436523 19.31567383 49.79436523 19.31567383 50.47436523 19.31567383 C54.62878568 24.7344831 56.25203189 31.66260094 56.93139648 38.34692383 C57.00350342 39.05292725 57.07561035 39.75893066 57.14990234 40.48632812 C57.2803417 41.88699454 57.39010473 43.28978004 57.4765625 44.69384766 C57.94207322 49.90026807 59.64228709 51.91865277 63.47436523 55.31567383 C66.02182733 61.74498292 66.34963198 67.44674394 64.34936523 74.00317383 C62.27652274 77.66519557 60.14624424 80.26881956 56.47436523 82.31567383 C53.48055361 82.89048847 50.63332769 82.79529888 47.59936523 82.62817383 C46.81561523 82.60561523 46.03186523 82.58305664 45.22436523 82.55981445 C43.30686263 82.50135401 41.39035464 82.41168666 39.47436523 82.31567383 C39.3415918 83.05688477 39.20881836 83.7980957 39.07202148 84.56176758 C37.33181146 92.58038239 32.8112993 99.06560525 28.18139648 105.71411133 C26.34922277 108.26434085 26.34922277 108.26434085 25.47436523 111.31567383 C29.00847175 115.79726199 32.86231557 116.50631642 38.16186523 117.75317383 C44.85225397 119.47489159 50.78501338 121.25359896 56.47436523 125.31567383 C57.1047168 125.74364258 57.73506836 126.17161133 58.38452148 126.61254883 C69.85702951 135.28391371 70.85982929 150.98724392 73.14233398 164.17504883 C76.33071753 181.87540838 82.33615333 200.641905 94.47436523 214.31567383 C95.13436523 214.64567383 95.79436523 214.97567383 96.47436523 215.31567383 C96.47436523 215.97567383 96.47436523 216.63567383 96.47436523 217.31567383 C97.13436523 217.31567383 97.79436523 217.31567383 98.47436523 217.31567383 C98.47436523 217.97567383 98.47436523 218.63567383 98.47436523 219.31567383 C100.13742364 219.9912913 101.80531128 220.65500664 103.47436523 221.31567383 C104.07893555 221.5915332 104.68350586 221.86739258 105.30639648 222.15161133 C110.54453774 224.40390875 113.88645773 224.50653936 119.47436523 223.31567383 C120.31999023 222.96504883 121.16561523 222.61442383 122.03686523 222.25317383 C125.39907638 220.96001569 127.89660895 220.9390679 131.47436523 221.31567383 C136.7528162 224.05640798 138.88997733 227.14689801 141.47436523 232.31567383 C141.7690911 235.87149053 141.75241641 239.43657196 141.78686523 243.00317383 C141.81586914 243.98479492 141.84487305 244.96641602 141.87475586 245.9777832 C141.9302391 252.3412843 141.17325727 256.09928762 137.47436523 261.31567383 C136.81436523 261.31567383 136.15436523 261.31567383 135.47436523 261.31567383 C135.47436523 261.97567383 135.47436523 262.63567383 135.47436523 263.31567383 C125.29362028 266.70925548 111.96567629 263.78646304 102.59936523 259.12817383 C101.56811523 258.53004883 100.53686523 257.93192383 99.47436523 257.31567383 C99.82499023 258.51192383 100.17561523 259.70817383 100.53686523 260.94067383 C102.35587333 269.37184275 102.14733028 278.19655398 97.84936523 285.81567383 C90.68823469 296.11294351 79.02779692 301.97760369 67.47436523 306.31567383 C68.23362305 306.67918945 68.99288086 307.04270508 69.77514648 307.41723633 C77.89897351 311.52656517 77.89897351 311.52656517 80.66186523 315.31567383 C82.1034405 320.63841326 82.03385049 323.76494881 79.28686523 328.56567383 C77.16086594 332.04826314 75.43146148 333.26530137 71.47436523 334.31567383 C53.62712787 336.04099173 38.88026554 332.68148857 22.90795898 324.93286133 C11.69151346 319.65003033 1.86502879 318.89049867 -10.01782227 322.56176758 C-12.50530638 323.30956265 -14.97281196 323.84445385 -17.52563477 324.31567383 C-17.52563477 324.97567383 -17.52563477 325.63567383 -17.52563477 326.31567383 C-19.8346795 327.28309969 -22.1473617 328.23959224 -24.46313477 329.19067383 C-25.42316406 329.59479492 -25.42316406 329.59479492 -26.40258789 330.00708008 C-35.30407739 333.63853351 -43.6254245 334.67824647 -53.21313477 334.69067383 C-54.21924805 334.71516602 -55.22536133 334.7396582 -56.26196289 334.76489258 C-62.34645214 334.7889578 -65.91828109 334.40861423 -70.52563477 330.31567383 C-73.63288246 326.00562058 -73.95957389 322.529451 -73.16235352 317.42895508 C-71.75927779 312.77212091 -68.37336439 310.79771616 -64.33813477 308.50317383 C-61.52563477 307.31567383 -61.52563477 307.31567383 -59.52563477 307.31567383 C-59.52563477 306.65567383 -59.52563477 305.99567383 -59.52563477 305.31567383 C-60.20110352 305.22415039 -60.87657227 305.13262695 -61.57250977 305.03833008 C-72.0010133 302.48638146 -83.56987871 295.09423671 -89.88500977 286.45629883 C-93.78900068 279.61016983 -95.38090364 270.9524978 -93.71313477 263.25317383 C-93.06233734 260.90768245 -92.29578174 258.62611475 -91.52563477 256.31567383 C-92.25008789 256.6534082 -92.97454102 256.99114258 -93.72094727 257.33911133 C-104.75824847 262.43098628 -115.18326186 265.72815247 -127.52563477 264.31567383 C-130.71876027 262.95650087 -132.24328183 261.69626334 -134.31079102 258.90942383 C-136.12089883 253.55476405 -135.99882878 248.42936946 -135.96313477 242.81567383 C-135.98311523 241.70063477 -136.0030957 240.5855957 -136.02368164 239.43676758 C-136.01991393 233.11454479 -135.86995647 229.06430285 -131.52563477 224.31567383 C-127.11068795 221.13280519 -123.85280003 221.08311088 -118.68579102 221.85083008 C-116.52563477 222.31567383 -116.52563477 222.31567383 -113.46313477 223.44067383 C-108.52332256 224.91210725 -104.36426291 223.98070954 -99.58813477 222.25317383 C-79.77648559 209.71927333 -73.10356535 187.81951688 -68.11743164 166.16235352 C-67.21956008 161.84338387 -66.61396199 157.49822606 -66.02563477 153.12817383 C-64.76952145 143.83100279 -61.7085263 135.55704951 -55.52563477 128.31567383 C-54.86563477 128.31567383 -54.20563477 128.31567383 -53.52563477 128.31567383 C-53.52563477 127.65567383 -53.52563477 126.99567383 -53.52563477 126.31567383 C-51.54907227 124.87817383 -51.54907227 124.87817383 -48.90063477 123.31567383 C-48.04211914 122.80004883 -47.18360352 122.28442383 -46.29907227 121.75317383 C-40.07996575 118.52974961 -33.61368752 117.54559241 -26.76782227 116.38989258 C-22.91698994 115.1140144 -21.6467869 113.71901494 -19.52563477 110.31567383 C-19.52563477 109.65567383 -19.52563477 108.99567383 -19.52563477 108.31567383 C-20.18563477 108.31567383 -20.84563477 108.31567383 -21.52563477 108.31567383 C-26.88530989 102.32057331 -34.52563477 90.69297915 -34.52563477 82.31567383 C-35.68321289 82.37368164 -36.84079102 82.43168945 -38.03344727 82.49145508 C-39.57246924 82.53837648 -41.11153509 82.58387408 -42.65063477 82.62817383 C-43.41118164 82.67006836 -44.17172852 82.71196289 -44.95532227 82.75512695 C-49.06725788 82.84374626 -51.7150113 82.61586241 -54.99438477 79.99926758 C-59.5073937 75.21464236 -59.88531516 69.83957312 -59.71313477 63.52270508 C-59.32341422 58.9353695 -58.46148107 55.45623651 -55.52563477 51.87817383 C-53.52563477 50.31567383 -53.52563477 50.31567383 -51.52563477 50.31567383 C-51.57204102 49.20450195 -51.61844727 48.09333008 -51.66625977 46.94848633 C-52.08249573 32.9383621 -49.42106545 22.92976708 -39.52563477 12.31567383 C-36.77172852 11.00317383 -36.77172852 11.00317383 -34.52563477 10.31567383 C-34.52563477 9.65567383 -34.52563477 8.99567383 -34.52563477 8.31567383 C-32.69778875 7.34691544 -30.86302536 6.3912051 -29.02563477 5.44067383 C-28.00469727 4.90700195 -26.98375977 4.37333008 -25.93188477 3.82348633 C-17.40417974 0.04860773 -9.17261151 -0.02659299 0 0 Z M-33.52563477 20.31567383 C-40.01911777 28.03678049 -44.15154083 38.137249 -43.52563477 48.31567383 C-42.45918362 49.61201004 -42.45918362 49.61201004 -39.96313477 49.37817383 C-39.15875977 49.35754883 -38.35438477 49.33692383 -37.52563477 49.31567383 C-36.87594727 47.58317383 -36.87594727 47.58317383 -36.21313477 45.81567383 C-35.93727539 45.08864258 -35.66141602 44.36161133 -35.37719727 43.61254883 C-34.82803866 42.13133204 -34.3002463 40.64193197 -33.79907227 39.14379883 C-32.34512067 34.89378648 -30.94210374 32.37871498 -27.52563477 29.31567383 C-27.52563477 28.65567383 -27.52563477 27.99567383 -27.52563477 27.31567383 C-26.19230143 26.64900716 -24.8589681 25.98234049 -23.52563477 25.31567383 C-22.65938477 24.82067383 -21.79313477 24.32567383 -20.90063477 23.81567383 C-7.71383012 17.95487176 11.08539653 18.26772932 24.47436523 23.31567383 C32.47759607 26.66274992 36.39734852 32.34400435 39.62670898 40.05786133 C40.77249058 43.10975886 41.66804142 46.15757221 42.47436523 49.31567383 C44.12436523 49.31567383 45.77436523 49.31567383 47.47436523 49.31567383 C48.36963057 38.10827817 46.77185185 30.17718031 39.83374023 21.19067383 C32.07440308 12.77868215 22.69802988 9.8875 11.52856445 9.11083984 C8.5280977 9.01346714 5.53883015 8.98704459 2.53686523 9.00317383 C0.96026123 9.00837036 0.96026123 9.00837036 -0.64819336 9.01367188 C-12.87227321 9.1853211 -24.61653101 11.12960312 -33.52563477 20.31567383 Z M-28.52563477 57.31567383 C-29.72430208 73.03153413 -24.62884694 88.27933731 -15.08813477 100.75317383 C-9.59550439 106.24580421 -4.9910365 110.07210646 2.91186523 110.50317383 C11.09967401 110.07223652 16.08675619 105.09051727 21.47436523 99.31567383 C29.35069141 88.60506361 32.94594475 76.49976493 33.47436523 63.31567383 C32.62100586 63.30149414 31.76764648 63.28731445 30.88842773 63.27270508 C21.9218304 62.93068023 13.50542608 61.60323921 4.72436523 59.75317383 C-6.51699234 57.40890354 -17.07833667 56.73426478 -28.52563477 57.31567383 Z M-11.52563477 116.31567383 C-12.08250977 117.07879883 -12.63938477 117.84192383 -13.21313477 118.62817383 C-15.49242845 121.27708271 -17.46163349 122.69856204 -20.52563477 124.31567383 C-19.14653814 127.7241147 -17.91999982 128.98304917 -14.58813477 130.50317383 C-13.89848633 130.82672852 -13.20883789 131.1502832 -12.49829102 131.48364258 C-3.53794697 135.26295601 10.58653492 135.02234155 19.59936523 131.50317383 C22.38944516 130.1694543 24.47093381 128.68619362 26.47436523 126.31567383 C26.47436523 125.65567383 26.47436523 124.99567383 26.47436523 124.31567383 C24.50302538 122.94032044 22.49754602 121.61356339 20.47436523 120.31567383 C18.79353445 119.00024104 17.12195363 117.67251133 15.47436523 116.31567383 C14.4650293 116.80293945 14.4650293 116.80293945 13.43530273 117.30004883 C9.85250805 118.52897577 6.88311849 118.58102374 3.09936523 118.56567383 C1.83350586 118.57083008 0.56764648 118.57598633 -0.73657227 118.58129883 C-4.6873888 118.30433437 -7.78106274 117.53483681 -11.52563477 116.31567383 Z M-28.52563477 147.31567383 C-29.52247378 151.12418648 -29.45764787 153.60546733 -28.38110352 157.37817383 C-28.1170874 158.33353027 -27.85307129 159.28888672 -27.58105469 160.27319336 C-27.29464111 161.27721191 -27.00822754 162.28123047 -26.71313477 163.31567383 C-23.48703103 175.14502821 -21.46995667 186.35429085 -20.86938477 198.63598633 C-20.69894191 201.53706407 -20.69894191 201.53706407 -18.52563477 204.31567383 C-15.76922061 203.81811291 -15.76922061 203.81811291 -13.52563477 202.31567383 C-12.19887227 188.70864454 -15.67495737 174.98900957 -19.02563477 161.94067383 C-19.3344458 160.73290283 -19.64325684 159.52513184 -19.96142578 158.28076172 C-21.25413965 152.26588666 -21.25413965 152.26588666 -24.52563477 147.31567383 C-25.84563477 147.31567383 -27.16563477 147.31567383 -28.52563477 147.31567383 Z M-38.52563477 190.31567383 C-38.7313208 190.85345459 -38.93700684 191.39123535 -39.14892578 191.9453125 C-45.13425459 207.49853871 -51.07729485 221.19039237 -62.26782227 233.73364258 C-64.51530091 236.08491371 -64.51530091 236.08491371 -65.52563477 238.31567383 C-64.51243164 238.5090332 -63.49922852 238.70239258 -62.45532227 238.90161133 C-61.10371909 239.16442306 -59.75215885 239.42745565 -58.40063477 239.69067383 C-57.73547852 239.81700195 -57.07032227 239.94333008 -56.38500977 240.07348633 C-53.26475843 240.68530031 -50.29633998 241.3935788 -47.28344727 242.41723633 C-44.37516885 243.5221778 -44.37516885 243.5221778 -40.52563477 243.31567383 C-37.86631129 225.513467 -35.38232999 208.30412462 -37.52563477 190.31567383 C-37.85563477 190.31567383 -38.18563477 190.31567383 -38.52563477 190.31567383 Z M43.47436523 191.31567383 C39.31419372 206.19244716 43.67304359 228.91170889 48.47436523 243.31567383 C56.18601174 241.83601253 63.83092812 240.11272017 71.47436523 238.31567383 C71.11084961 237.89157227 70.74733398 237.4674707 70.37280273 237.03051758 C68.73999023 235.12556966 67.10717773 233.22062174 65.47436523 231.31567383 C65.01513672 230.81108643 64.5559082 230.30649902 64.08276367 229.78662109 C60.34497527 225.60445118 57.54022149 221.35676172 54.97436523 216.37817383 C54.59417236 215.65251221 54.21397949 214.92685059 53.82226562 214.17919922 C50.04866539 206.79849282 47.16187237 199.14633188 44.47436523 191.31567383 C44.14436523 191.31567383 43.81436523 191.31567383 43.47436523 191.31567383 Z M66.16186523 195.12817383 C63.44451923 197.60126401 60.66390751 199.4875885 57.47436523 201.31567383 C58.69585147 203.84048284 59.92622225 206.36030167 61.16186523 208.87817383 C61.5015332 209.58264648 61.84120117 210.28711914 62.19116211 211.01293945 C64.55754804 215.81205859 67.14559257 220.11468545 70.47436523 224.31567383 C71.13436523 224.31567383 71.79436523 224.31567383 72.47436523 224.31567383 C72.73217773 224.89704102 72.98999023 225.4784082 73.25561523 226.07739258 C80.66231795 239.68008699 99.51395072 248.38683253 113.6237793 253.02172852 C119.36232947 254.63786892 124.63462393 255.96922065 130.47436523 254.31567383 C132.78589577 252.0041433 131.75468602 246.54275026 131.78686523 243.44067383 C131.81586914 242.51641602 131.84487305 241.5921582 131.87475586 240.63989258 C131.88732422 239.30764648 131.88732422 239.30764648 131.90014648 237.94848633 C131.914729 237.1326709 131.92931152 236.31685547 131.94433594 235.47631836 C131.65483532 233.11929407 131.65483532 233.11929407 129.44775391 231.52612305 C128.79653564 231.1266748 128.14531738 230.72722656 127.47436523 230.31567383 C126.65645508 230.74879883 126.65645508 230.74879883 125.82202148 231.19067383 C118.96650767 234.56569602 113.79325564 235.71117737 106.41577148 233.32739258 C101.0677124 231.21304364 96.95058906 228.9275234 92.47436523 225.31567383 C91.81436523 225.31567383 91.15436523 225.31567383 90.47436523 225.31567383 C90.47436523 224.65567383 90.47436523 223.99567383 90.47436523 223.31567383 C89.33069883 222.20666398 88.18595609 221.09874971 87.03686523 219.99536133 C79.6881178 212.09545783 74.54552454 202.57613787 71.47436523 192.31567383 C68.77196458 192.31567383 68.13574302 193.32936281 66.16186523 195.12817383 Z M-66.52563477 195.31567383 C-66.78256104 195.80970703 -67.0394873 196.30374023 -67.30419922 196.81274414 C-68.4784967 199.06566148 -69.65825696 201.3156743 -70.83813477 203.56567383 C-71.24225586 204.34297852 -71.64637695 205.1202832 -72.06274414 205.92114258 C-74.00862052 209.62305374 -75.9801556 212.98760397 -78.52563477 216.31567383 C-78.52563477 216.97567383 -78.52563477 217.63567383 -78.52563477 218.31567383 C-79.18563477 218.31567383 -79.84563477 218.31567383 -80.52563477 218.31567383 C-81.20625977 219.18192383 -81.88688477 220.04817383 -82.58813477 220.94067383 C-88.01384111 227.71080299 -97.74918741 233.47035013 -106.43579102 234.55395508 C-112.86323256 234.77559099 -117.74361131 233.01958459 -123.52563477 230.31567383 C-126.29595484 233.44321939 -126.89551572 235.3492988 -126.77563477 239.50317383 C-126.74985352 240.46223633 -126.72407227 241.42129883 -126.69750977 242.40942383 C-126.46105627 246.40763752 -126.04645768 250.34439912 -125.52563477 254.31567383 C-116.3597772 257.26487337 -103.83487701 251.89221786 -95.60375977 247.89770508 C-92.87120107 246.42952092 -90.1925816 244.89955523 -87.52563477 243.31567383 C-86.71223633 242.84516602 -85.89883789 242.3746582 -85.06079102 241.88989258 C-82.21024843 240.22340859 -82.21024843 240.22340859 -79.52563477 238.31567383 C-79.52563477 237.65567383 -79.52563477 236.99567383 -79.52563477 236.31567383 C-78.96875977 236.08879883 -78.41188477 235.86192383 -77.83813477 235.62817383 C-74.85358727 233.93424147 -72.89909431 231.79952684 -70.52563477 229.31567383 C-69.96489258 228.77555664 -69.40415039 228.23543945 -68.82641602 227.67895508 C-64.85767476 223.84795756 -61.48792771 219.97070559 -58.52563477 215.31567383 C-58.04610352 214.56801758 -57.56657227 213.82036133 -57.07250977 213.05004883 C-56.60329102 212.27145508 -56.13407227 211.49286133 -55.65063477 210.69067383 C-55.22008789 209.9765332 -54.78954102 209.26239258 -54.34594727 208.52661133 C-53.2904043 205.68167172 -53.50100345 204.1523846 -54.52563477 201.31567383 C-57.80429865 199.61562589 -61.03030327 198.48078433 -64.52563477 197.31567383 C-64.52563477 196.65567383 -64.52563477 195.99567383 -64.52563477 195.31567383 C-65.18563477 195.31567383 -65.84563477 195.31567383 -66.52563477 195.31567383 Z M-19.52563477 221.31567383 C-21.75761656 224.66364652 -21.94909263 226.42605352 -22.27563477 230.37817383 C-22.37360352 231.44165039 -22.47157227 232.50512695 -22.57250977 233.60083008 C-22.83749171 236.467013 -22.83749171 236.467013 -20.52563477 238.31567383 C-17.74325822 237.91038481 -17.74325822 237.91038481 -15.52563477 236.31567383 C-15.237562 234.17695175 -15.01949393 232.0285754 -14.83813477 229.87817383 C-14.73114258 228.70383789 -14.62415039 227.52950195 -14.51391602 226.31958008 C-14.17345734 223.19828933 -14.17345734 223.19828933 -16.52563477 221.31567383 C-17.51563477 221.31567383 -18.50563477 221.31567383 -19.52563477 221.31567383 Z M-61.52563477 268.31567383 C-61.19563477 269.96567383 -60.86563477 271.61567383 -60.52563477 273.31567383 C-58.69452148 273.28086914 -58.69452148 273.28086914 -56.82641602 273.24536133 C-36.88253208 272.97293723 -18.46614062 275.51097807 -1.99072266 287.50732422 C0.96814422 289.69061413 0.96814422 289.69061413 4.48999023 290.30395508 C7.27234768 288.91825344 9.81460102 287.27363991 12.41186523 285.56567383 C18.77303094 281.50318762 25.3197002 278.74130271 32.47436523 276.31567383 C33.49272461 275.95473633 34.51108398 275.59379883 35.56030273 275.22192383 C45.91911093 272.00041779 57.73872329 273.21554867 68.47436523 273.31567383 C68.80436523 271.66567383 69.13436523 270.01567383 69.47436523 268.31567383 C61.81850028 263.21176386 46.78080731 265.54206631 37.92749023 266.89770508 C26.54565025 269.40033857 16.45602313 274.88519357 6.67358398 281.09301758 C4.47436523 282.31567383 4.47436523 282.31567383 1.47436523 282.31567383 C0.44356915 281.34744894 -0.55428432 280.34352514 -1.52563477 279.31567383 C-3.20449986 278.25719825 -3.20449986 278.25719825 -5.03735352 277.37817383 C-5.7134668 277.04043945 -6.38958008 276.70270508 -7.08618164 276.35473633 C-7.78807617 276.0118457 -8.4899707 275.66895508 -9.21313477 275.31567383 C-9.89569336 274.9727832 -10.57825195 274.62989258 -11.28149414 274.27661133 C-23.20546193 268.3765555 -34.11887842 265.96243007 -47.46313477 266.06567383 C-48.48987305 266.05793945 -49.51661133 266.05020508 -50.57446289 266.04223633 C-51.55737305 266.04481445 -52.5402832 266.04739258 -53.55297852 266.05004883 C-54.87930298 266.05343262 -54.87930298 266.05343262 -56.23242188 266.05688477 C-58.80273975 266.1697072 -58.80273975 266.1697072 -61.52563477 268.31567383 Z M24.59936523 296.56567383 C20.60614578 298.80187672 18.84297771 298.48583788 14.47436523 297.31567383 C12.45199471 296.36172547 10.44609564 295.37032032 8.47436523 294.31567383 C7.81436523 294.31567383 7.15436523 294.31567383 6.47436523 294.31567383 C6.3415918 295.06333008 6.20881836 295.81098633 6.07202148 296.58129883 C5.89541992 297.56614258 5.71881836 298.55098633 5.53686523 299.56567383 C5.3628418 300.54020508 5.18881836 301.51473633 5.00952148 302.51879883 C4.57056795 304.81289177 4.07087931 307.05859354 3.47436523 309.31567383 C4.57393555 309.54641602 5.67350586 309.7771582 6.80639648 310.01489258 C14.53629252 311.69671463 21.6647266 313.51480577 28.80249023 317.01879883 C41.44862337 323.15698041 54.32989892 326.68190069 68.47436523 325.31567383 C69.46436523 324.65567383 70.45436523 323.99567383 71.47436523 323.31567383 C71.51550365 320.92892673 71.51550365 320.92892673 70.47436523 318.31567383 C68.12512708 316.78020464 66.06475261 315.63809254 63.53686523 314.50317383 C62.89040039 314.19186523 62.24393555 313.88055664 61.57788086 313.55981445 C58.17365816 311.86970007 58.17365816 311.86970007 54.47436523 311.31567383 C53.02889144 308.47658181 51.69437653 305.60680217 50.41186523 302.69067383 C49.46644451 300.54296335 48.52379311 298.41452957 47.47436523 296.31567383 C46.81436523 296.31567383 46.15436523 296.31567383 45.47436523 296.31567383 C45.20624023 295.67629883 44.93811523 295.03692383 44.66186523 294.37817383 C43.58768771 291.98435697 43.58768771 291.98435697 40.47436523 291.31567383 C33.27605671 290.85126683 30.31318359 292.0939899 24.59936523 296.56567383 Z M-50.65063477 311.56567383 C-51.26938477 312.14317383 -51.88813477 312.72067383 -52.52563477 313.31567383 C-52.52563477 313.97567383 -52.52563477 314.63567383 -52.52563477 315.31567383 C-53.41250977 315.41879883 -54.29938477 315.52192383 -55.21313477 315.62817383 C-58.63292764 316.33794216 -60.73470336 317.2424105 -63.52563477 319.31567383 C-63.85563477 320.30567383 -64.18563477 321.29567383 -64.52563477 322.31567383 C-63.39400653 323.91998179 -63.39400653 323.91998179 -61.52563477 325.31567383 C-47.53872189 327.1873039 -34.03465774 323.20227288 -21.52563477 317.31567383 C-20.86563477 316.65567383 -20.20563477 315.99567383 -19.52563477 315.31567383 C-20.70899414 315.12231445 -21.89235352 314.92895508 -23.11157227 314.72973633 C-23.8731665 314.60421387 -24.63476074 314.47869141 -25.41943359 314.34936523 C-27.07779702 314.07620767 -28.73649248 313.80505859 -30.39550781 313.53588867 C-34.75828201 312.81800189 -39.04000605 311.98740228 -43.33813477 310.94067383 C-46.64812049 310.24323297 -47.34974768 310.24531899 -50.65063477 311.56567383 Z " fill="#0C0B0C" transform="translate(252.525634765625,82.684326171875)"/>
<path d="M0 0 C2.70552388 2.19823815 4.44778333 3.89556667 6 7 C6.13637636 9.19798993 6.20889686 11.40003023 6.25292969 13.60180664 C6.2750074 14.61931503 6.2750074 14.61931503 6.29753113 15.65737915 C6.34453805 17.90823445 6.38386863 20.15913191 6.421875 22.41015625 C6.43573494 23.18040068 6.44959488 23.9506451 6.46387482 24.74423027 C6.53719292 28.82640116 6.60471968 32.90862042 6.66748047 36.9909668 C6.73313261 41.19189488 6.81778525 45.39220733 6.9070549 49.59269047 C6.97250081 52.83467205 7.02380434 56.076771 7.07138824 59.31905937 C7.09649467 60.86635084 7.12679293 62.41356773 7.16255951 63.96064949 C7.58171404 82.59664554 7.58171404 82.59664554 2.24609375 89.15625 C1.35083984 89.82140625 1.35083984 89.82140625 0.4375 90.5 C-0.46162109 91.19609375 -0.46162109 91.19609375 -1.37890625 91.90625 C-6.10201832 95.09292802 -11.48736204 94.4040677 -17 94 C-21.9498271 92.23220461 -25.57207542 89.82740445 -27.98046875 85.05859375 C-30.30244892 79.22829421 -30.15384099 74.86071468 -28 69 C-26.5 65.9375 -26.5 65.9375 -25 64 C-24.34 64 -23.68 64 -23 64 C-23 63.34 -23 62.68 -23 62 C-17.70377384 58.65501506 -13.07583783 58.45620729 -7 59 C-5.515 59.495 -5.515 59.495 -4 60 C-4 51.42 -4 42.84 -4 34 C-8.12611884 34.95968187 -12.25213896 35.91977031 -16.37792969 36.88085938 C-17.7782661 37.20693863 -19.17865564 37.53278983 -20.57910156 37.85839844 C-22.60496183 38.32946152 -24.6306301 38.80134197 -26.65625 39.2734375 C-27.93886719 39.57217773 -29.22148437 39.87091797 -30.54296875 40.17871094 C-33.27891538 40.82869148 -35.99947633 41.51142884 -38.71875 42.2265625 C-42 43 -42 43 -46 43 C-45.99333817 43.57105469 -45.98667633 44.14210937 -45.97981262 44.73046875 C-45.9131867 50.70062604 -45.86808676 56.67067683 -45.83520508 62.64111328 C-45.82016488 64.86609185 -45.79972754 67.09104101 -45.77368164 69.31591797 C-45.73708865 72.52318606 -45.7202255 75.73006045 -45.70703125 78.9375 C-45.69154739 79.92427734 -45.67606354 80.91105469 -45.66011047 81.92773438 C-45.65849185 88.64508616 -46.23992124 94.69417839 -50.71875 100.05859375 C-51.3065625 100.51363281 -51.894375 100.96867187 -52.5 101.4375 C-53.0878125 101.91058594 -53.675625 102.38367188 -54.28125 102.87109375 C-58.97152411 105.95175107 -64.61856802 105.54190644 -70 105 C-74.84882148 103.36895219 -78.27508782 100.29697689 -81 96 C-82.74313603 90.48006925 -82.35099082 84.57283714 -81 79 C-80.34 79 -79.68 79 -79 79 C-78.9071875 78.13375 -78.9071875 78.13375 -78.8125 77.25 C-77.5920624 73.87032665 -76.067387 72.87799204 -73 71 C-66.57244514 68.86835744 -62.50332582 69.03556287 -56 71 C-56.00888245 70.33680756 -56.01776489 69.67361511 -56.0269165 68.99032593 C-56.11549956 62.07973866 -56.17578015 55.16931304 -56.21972656 48.25830078 C-56.23982563 45.68010912 -56.26710941 43.10196296 -56.30175781 40.52392578 C-56.35034847 36.81531539 -56.37298658 33.10730844 -56.390625 29.3984375 C-56.41127014 28.24822113 -56.43191528 27.09800476 -56.45318604 25.91293335 C-56.45488954 19.8196602 -56.40506242 15.64477453 -52 11 C-48.21490051 8.11477259 -44.31033317 7.11760335 -39.72265625 5.9921875 C-38.68920326 5.73575974 -38.68920326 5.73575974 -37.63487244 5.47415161 C-36.18436815 5.11579281 -34.73288979 4.7613562 -33.28051758 4.41064453 C-31.07097368 3.87704637 -28.86444471 3.33223142 -26.65820312 2.78515625 C-7.25005403 -1.98942551 -7.25005403 -1.98942551 0 0 Z M-16.09765625 9.93359375 C-16.88772568 10.13098648 -17.6777951 10.32837921 -18.49180603 10.53175354 C-20.16073363 10.94957028 -21.82922727 11.36912373 -23.49731445 11.7902832 C-26.05505391 12.43562129 -28.61430455 13.07466984 -31.17382812 13.71289062 C-32.79436444 14.11941871 -34.41481031 14.52630752 -36.03515625 14.93359375 C-36.80287857 15.12529648 -37.57060089 15.31699921 -38.36158752 15.51451111 C-42.27887813 16.47904298 -42.27887813 16.47904298 -46 18 C-46 23.28 -46 28.56 -46 34 C-23.23945856 31.27550804 -23.23945856 31.27550804 -3 23 C-2.87462259 20.85692104 -2.82425636 18.70921114 -2.8125 16.5625 C-2.79832031 15.38816406 -2.78414062 14.21382812 -2.76953125 13.00390625 C-2.68100744 9.88503098 -2.68100744 9.88503098 -5 8 C-8.87042409 8 -12.37102665 8.99073046 -16.09765625 9.93359375 Z " fill="#161517" transform="translate(405,102)"/>
<path d="M0 0 C3.07900376 2.41126801 4.59170007 4.14247624 5.18359375 7.95703125 C5.28601953 10.21161133 5.33202832 12.46896031 5.34472656 14.72583008 C5.35217392 15.73396507 5.35217392 15.73396507 5.35977173 16.76246643 C5.37434241 18.97967565 5.38118701 21.19681332 5.38671875 23.4140625 C5.39247465 24.96099346 5.39823232 26.5079244 5.4039917 28.05485535 C5.41448737 31.29707164 5.42033933 34.53926325 5.42382812 37.78149414 C5.42930811 41.92406039 5.45333138 46.06629719 5.48180008 50.20876026 C5.50047845 53.40448441 5.50563483 56.60013004 5.507164 59.79590416 C5.51017963 61.32244352 5.51817116 62.84898185 5.53134918 64.3754673 C5.54851842 66.51724516 5.54650352 68.65822895 5.54003906 70.80004883 C5.54550751 72.6239489 5.54550751 72.6239489 5.55108643 74.48469543 C4.85767698 81.03652792 2.30258587 85.69120448 -2.81640625 89.95703125 C-7.1738286 92.49886095 -11.90270722 92.6324538 -16.81640625 91.95703125 C-22.22550427 90.06061442 -25.51928334 86.5148188 -28.81640625 81.95703125 C-30.67445043 76.38289872 -30.62272009 71.01427557 -28.12890625 65.64453125 C-25.26148397 60.63649858 -22.07375797 58.11326196 -16.50390625 56.58203125 C-11.50257375 55.34325388 -9.54019827 56.52608324 -3.81640625 57.95703125 C-4.31140625 45.58203125 -4.31140625 45.58203125 -4.81640625 32.95703125 C-15.15562839 35.07015694 -25.36926594 37.24296765 -35.51953125 40.125 C-38.94185666 40.98869113 -42.32152691 41.48170486 -45.81640625 41.95703125 C-45.8075238 42.51333725 -45.79864136 43.06964325 -45.78948975 43.64280701 C-45.70054618 49.46708839 -45.64047841 55.29117479 -45.59667969 61.1159668 C-45.57664544 63.28564296 -45.54941013 65.45526568 -45.51464844 67.62475586 C-45.46576925 70.75518025 -45.443355 73.88488673 -45.42578125 77.015625 C-45.40513611 77.97536728 -45.38449097 78.93510956 -45.36322021 79.92393494 C-45.36113256 86.2829739 -46.34840647 91.52854978 -49.81640625 96.95703125 C-54.08247973 101.11294391 -58.01703776 102.28432059 -63.94140625 102.51953125 C-70.37811251 102.22769066 -73.50435925 100.20485472 -78.06640625 95.76953125 C-80.86616017 91.26992673 -82.27027264 86.86934059 -81.44140625 81.55078125 C-79.9669878 76.52435472 -77.95295893 73.30566913 -73.81640625 69.95703125 C-73.09453125 69.35890625 -72.37265625 68.76078125 -71.62890625 68.14453125 C-67.43943661 66.37564407 -63.30736567 66.54370401 -58.81640625 66.95703125 C-58.15640625 67.28703125 -57.49640625 67.61703125 -56.81640625 67.95703125 C-56.81054001 67.33142303 -56.80467377 66.70581482 -56.79862976 66.06124878 C-56.73460897 59.53956042 -56.65016653 53.01836155 -56.55395508 46.49707031 C-56.52073678 44.06451885 -56.49269526 41.63189088 -56.4699707 39.19921875 C-56.43636867 35.69888767 -56.38404791 32.1992557 -56.328125 28.69921875 C-56.32173508 27.61462372 -56.31534515 26.53002869 -56.3087616 25.41256714 C-56.20131954 19.87275511 -55.99042982 15.71342265 -52.81640625 10.95703125 C-48.31747589 6.75802958 -42.85006884 5.66210936 -36.94140625 4.58203125 C-28.37518351 2.9608461 -20.01377027 0.73087426 -11.6328125 -1.66796875 C-7.6032344 -2.49988165 -3.55292194 -2.04006485 0 0 Z M-19.81640625 9.70703125 C-20.54609619 9.8860498 -21.27578613 10.06506836 -22.02758789 10.24951172 C-24.29292145 10.80954776 -26.55466803 11.38266814 -28.81640625 11.95703125 C-29.91251221 12.22918457 -29.91251221 12.22918457 -31.03076172 12.50683594 C-39.0777947 13.99213883 -39.0777947 13.99213883 -45.81640625 17.95703125 C-46.06018508 21.31447237 -46.06018508 21.31447237 -45.94140625 25.08203125 C-45.92335937 26.36335938 -45.9053125 27.6446875 -45.88671875 28.96484375 C-45.86351562 29.95226562 -45.8403125 30.9396875 -45.81640625 31.95703125 C-40.22807548 31.11738222 -34.75677621 29.84972771 -29.25390625 28.58203125 C-28.28042236 28.35870117 -27.30693848 28.13537109 -26.30395508 27.90527344 C-24.3659139 27.46054568 -22.42800368 27.01524682 -20.49023438 26.56933594 C-18.16821488 26.03759517 -15.84468454 25.51391774 -13.51953125 24.99609375 C-11.77929688 24.60550781 -11.77929688 24.60550781 -10.00390625 24.20703125 C-9.00746094 23.9853125 -8.01101562 23.76359375 -6.984375 23.53515625 C-4.85308842 23.16072551 -4.85308842 23.16072551 -3.81640625 21.95703125 C-3.71740426 19.97990318 -3.68669852 17.99913087 -3.69140625 16.01953125 C-3.68882812 14.93800781 -3.68625 13.85648438 -3.68359375 12.7421875 C-3.62632836 10.00043462 -3.62632836 10.00043462 -4.81640625 7.95703125 C-10.06984299 7.7654997 -14.71200571 8.4168363 -19.81640625 9.70703125 Z " fill="#171617" transform="translate(169.81640625,145.04296875)"/>
<path d="M0 0 C0 3 0 3 -1.4375 4.5 C-1.953125 4.995 -2.46875 5.49 -3 6 C-3.99455909 8.98367726 -4.19559632 11.2004192 -4.31640625 14.32421875 C-4.35830078 15.35224609 -4.40019531 16.38027344 -4.44335938 17.43945312 C-4.48267578 18.51130859 -4.52199219 19.58316406 -4.5625 20.6875 C-4.60568359 21.77095703 -4.64886719 22.85441406 -4.69335938 23.97070312 C-4.79946838 26.64700791 -4.90152361 29.32340526 -5 32 C-5.33 32 -5.66 32 -6 32 C-6.11662261 27.95857785 -6.1873935 23.91759135 -6.25 19.875 C-6.28351563 18.73289062 -6.31703125 17.59078125 -6.3515625 16.4140625 C-6.47509797 5.79001227 -6.47509797 5.79001227 -2 1 C-1.34 0.67 -0.68 0.34 0 0 Z " fill="#575057" transform="translate(123,306)"/>
<path d="M0 0 C-1.34156431 2.90779249 -2.86107035 5.2517899 -4.9375 7.6875 C-5.44152344 8.28949219 -5.94554687 8.89148438 -6.46484375 9.51171875 C-8 11 -8 11 -11 12 C-9.31234256 7.07766579 -6.01102545 0 0 0 Z " fill="#4E494F" transform="translate(218,93)"/>
<path d="M0 0 C0.66 0.33 1.32 0.66 2 1 C0.5484451 2.67257355 -0.91144409 4.33791758 -2.375 6 C-3.18710938 6.928125 -3.99921875 7.85625 -4.8359375 8.8125 C-5.55007812 9.534375 -6.26421875 10.25625 -7 11 C-7.66 11 -8.32 11 -9 11 C-7.44095325 7.17324889 -4.96833913 4.81992217 -2 2 C-1.34 1.34 -0.68 0.68 0 0 Z " fill="#595459" transform="translate(229,107)"/>
<path d="M0 0 C1.17949219 0.19464844 2.35898438 0.38929688 3.57421875 0.58984375 C4.92966797 0.82380859 4.92966797 0.82380859 6.3125 1.0625 C6.3125 1.3925 6.3125 1.7225 6.3125 2.0625 C1.0325 2.0625 -4.2475 2.0625 -9.6875 2.0625 C-9.6875 1.4025 -9.6875 0.7425 -9.6875 0.0625 C-6.00942463 -1.16352512 -3.80506073 -0.64045577 0 0 Z " fill="#545056" transform="translate(192.6875,320.9375)"/>
<path d="M0 0 C0.66 0.33 1.32 0.66 2 1 C0.00449854 2.99550146 -1.47924835 3.81376393 -4 5 C-5.11375 5.556875 -5.11375 5.556875 -6.25 6.125 C-6.8275 6.41375 -7.405 6.7025 -8 7 C-6.89300099 3.78970286 -5.98396175 2.99031023 -3 1.1875 C-1.515 0.5996875 -1.515 0.5996875 0 0 Z " fill="#5D5A60" transform="translate(189,391)"/>
<path d="M0 0 C0 3 0 3 -1.4375 4.5 C-1.953125 4.995 -2.46875 5.49 -3 6 C-3.33 6.99 -3.66 7.98 -4 9 C-4.66 9 -5.32 9 -6 9 C-4.83857315 4.64464931 -3.92300495 2.35380297 0 0 Z " fill="#5C575E" transform="translate(123,306)"/>
</svg>
