<svg width="25" height="25" viewBox="0 0 25 25" fill="none" xmlns="http://www.w3.org/2000/svg">
<g clip-path="url(#clip0_620_771)">
<path d="M10.54 1.7998C12.5698 2.57603 13.9556 4.0661 14.8574 5.56836C15.206 6.14912 15.4848 6.73984 15.7061 7.30273C15.6561 7.06552 15.5936 6.84064 15.5283 6.6543L16.752 5.86133C21.0452 9.91911 21.8569 13.7025 20.8789 16.8291C19.9292 19.8649 17.3555 22.0574 15.3193 23.1592L13.4697 24.1602L14.2686 22.2148C15.4423 19.3559 15.2621 17.0782 14.5684 15.3184C14.0782 14.0752 13.319 13.0595 12.542 12.2686C12.2834 13.6029 11.8624 14.9016 11.2852 16.1328C10.8869 16.9812 9.72006 16.6702 9.64551 15.8467C9.50014 16.1466 9.3409 16.44 9.16699 16.7246L9.13281 16.7793C8.88403 17.1864 8.68413 17.6224 8.53711 18.0771C8.21595 19.0707 8.19386 20.1383 8.47363 21.1445L8.79492 22.2988L9.37207 24.376L7.62988 23.1064L6.5625 22.3271C4.94668 21.1488 3.73607 19.4935 3.09863 17.5918C2.61832 16.1586 2.63505 14.6033 3.14551 13.1807L4.93457 8.19434L5.40625 6.87793L6.24219 8C6.6759 8.58252 6.91903 9.25341 7.05469 9.86035C7.92127 8.68257 8.56673 7.47621 8.99316 6.3584C9.60184 4.76284 9.73247 3.44571 9.54395 2.67871L9.20215 1.28809L10.54 1.7998Z" stroke="#591A0E" stroke-width="1.5"/>
</g>
<defs>
<clipPath id="clip0_620_771">
<rect width="24" height="24" fill="white" transform="translate(0.5 0.5)"/>
</clipPath>
</defs>
</svg>
