<svg width="128" height="84" viewBox="0 0 128 84" fill="none" xmlns="http://www.w3.org/2000/svg">
<path d="M123.139 83.3141H128V0H123.139L123.139 83.3141ZM113.559 2.2765H118.421L118.421 80.0376H113.559L113.559 2.2765ZM104.141 11.4543H109.002L109.002 70.8598H104.141L104.141 11.4543ZM95.1872 18.5363H100.048L100.048 64.1082H95.1872L95.1872 18.5243V18.5363ZM85.6017 6.34229H90.4629L90.4629 75.9718H85.6017L85.6017 6.34229ZM75.8642 67.4947H80.7254L80.7255 13.7121H75.8489L75.8489 67.4947H75.8642ZM66.2817 76.9779H71.143L71.143 5.33624H66.2818L66.2817 76.9779ZM56.8632 64.0097H61.7244L61.7244 18.3041H56.8632L56.8632 64.0097ZM47.1196 5.94751H51.9808L51.9808 76.978H47.1196L47.1196 5.94751ZM37.7013 1.11318H42.5625L42.5625 82.1794H37.7013L37.7013 1.13532V1.11318ZM28.2827 7.30278H33.144L33.1439 75.0018H28.2827L28.2827 7.31174V7.30278ZM19.0161 62.3362H23.8773L23.8773 18.3868H19.0164L19.0163 62.346L19.0161 62.3362ZM9.5978 12.1607H14.459L14.459 69.6699H9.59777L9.5978 12.1702V12.1607ZM2.54085e-05 2.2765H4.86124L4.86122 80.0376H0L2.54085e-05 2.2765Z" fill="#591A0E"/>
</svg>
