<svg width="111" height="111" viewBox="0 0 111 111" fill="none" xmlns="http://www.w3.org/2000/svg">
<path d="M101.576 51.1706H105.363V59.8295H101.576V51.1706ZM94.1124 62.3647H97.8998V48.6354H94.1124V62.3647ZM86.7743 69.4661H90.5617V41.534H86.7743V69.4661ZM79.7984 74.9458H83.5858V36.3098H79.7984V74.9365V74.9458ZM72.3302 65.5106H76.1176V45.4894H72.3302V65.5106ZM64.7436 80.6602H68.531V29.4831H64.7316V80.6602H64.7436ZM57.2777 87.9979H61.0652V23.0022H57.2777V87.9979ZM49.9396 77.9636H53.727V33.0362H49.9396V77.9639V77.9636ZM42.3482 65.2051H46.1357V46.268H42.3482V65.2051ZM35.0103 60.6908H38.7978V50.2926H35.0103V60.7079V60.6908ZM27.6722 66.2538H31.4596V44.7389H27.6722V66.2607V66.2538ZM20.4524 76.6687H24.2398V33.1002H20.4526V76.6763L20.4524 76.6687ZM13.1145 70.0126H16.9019V40.6132H13.1145V70.02V70.0126ZM5.63672 62.3647H9.42416V48.6354H5.63672V62.3647Z" fill="#FEF0D6"/>
</svg>
